<svg width="929" height="1033" viewBox="0 0 929 1033" fill="none" xmlns="http://www.w3.org/2000/svg">
<g clip-path="url(#clip0_663_13711)">
<rect x="0.177734" width="928" height="1033" rx="18.8971" fill="#0C4A6E"/>
<line x1="-7.34082" y1="958.893" x2="937.177" y2="958.893" stroke="url(#paint0_linear_663_13711)" stroke-width="2.81212"/>
<line x1="-7.34082" y1="894.453" x2="937.177" y2="894.453" stroke="url(#paint1_linear_663_13711)" stroke-width="2.81212"/>
<line x1="-7.34082" y1="843.233" x2="937.177" y2="843.233" stroke="url(#paint2_linear_663_13711)" stroke-width="2.81212"/>
<line x1="-7.34082" y1="800.273" x2="937.177" y2="800.273" stroke="url(#paint3_linear_663_13711)" stroke-width="2.81212"/>
<line x1="-7.34082" y1="762.27" x2="937.177" y2="762.27" stroke="url(#paint4_linear_663_13711)" stroke-width="2.81212"/>
<line x1="-7.34082" y1="729.223" x2="937.177" y2="729.223" stroke="url(#paint5_linear_663_13711)" stroke-width="2.81212"/>
<line x1="-7.34082" y1="701.135" x2="937.177" y2="701.135" stroke="url(#paint6_linear_663_13711)" stroke-width="2.81212"/>
<line x1="-7.34082" y1="678.002" x2="937.177" y2="678.002" stroke="url(#paint7_linear_663_13711)" stroke-width="2.81212"/>
<line x1="-7.34082" y1="654.87" x2="937.177" y2="654.87" stroke="url(#paint8_linear_663_13711)" stroke-width="2.81212"/>
<line x1="-7.34082" y1="635.042" x2="937.177" y2="635.042" stroke="url(#paint9_linear_663_13711)" stroke-width="2.81212"/>
<line x1="-7.34082" y1="618.52" x2="937.177" y2="618.52" stroke="url(#paint10_linear_663_13711)" stroke-width="2.81212"/>
<line x1="-7.34082" y1="601.996" x2="937.177" y2="601.996" stroke="url(#paint11_linear_663_13711)" stroke-width="2.81212"/>
<line x1="-7.34082" y1="588.778" x2="937.177" y2="588.778" stroke="url(#paint12_linear_663_13711)" stroke-width="2.81212"/>
<line x1="-7.34082" y1="575.56" x2="937.177" y2="575.56" stroke="url(#paint13_linear_663_13711)" stroke-width="2.81212"/>
<line x1="-7.34082" y1="563.993" x2="937.177" y2="563.993" stroke="url(#paint14_linear_663_13711)" stroke-width="2.81212"/>
<line x1="-7.34082" y1="554.079" x2="937.177" y2="554.079" stroke="url(#paint15_linear_663_13711)" stroke-width="2.81212"/>
<line x1="-7.34082" y1="545.819" x2="937.177" y2="545.819" stroke="url(#paint16_linear_663_13711)" stroke-width="2.81212"/>
<line x1="-7.34082" y1="534.252" x2="937.177" y2="534.252" stroke="url(#paint17_linear_663_13711)" stroke-width="2.81212"/>
<line x1="-7.34082" y1="525.99" x2="937.177" y2="525.99" stroke="url(#paint18_linear_663_13711)" stroke-width="2.81212"/>
<line x1="-7.34082" y1="519.382" x2="937.177" y2="519.382" stroke="url(#paint19_linear_663_13711)" stroke-width="2.81212"/>
<line x1="-7.34082" y1="511.12" x2="937.177" y2="511.12" stroke="url(#paint20_linear_663_13711)" stroke-width="2.81212"/>
<line x1="-7.34082" y1="504.511" x2="937.177" y2="504.511" stroke="url(#paint21_linear_663_13711)" stroke-width="2.81212"/>
<line x1="-7.34082" y1="497.902" x2="937.177" y2="497.902" stroke="url(#paint22_linear_663_13711)" stroke-width="2.81212"/>
<line x1="-7.34082" y1="491.292" x2="937.177" y2="491.292" stroke="url(#paint23_linear_663_13711)" stroke-width="2.81212"/>
<line x1="-7.34082" y1="486.335" x2="937.177" y2="486.335" stroke="url(#paint24_linear_663_13711)" stroke-width="2.81212"/>
<line x1="-7.34082" y1="481.379" x2="937.177" y2="481.379" stroke="url(#paint25_linear_663_13711)" stroke-width="2.81212"/>
<line x1="-7.34082" y1="476.422" x2="937.177" y2="476.422" stroke="url(#paint26_linear_663_13711)" stroke-width="2.81212"/>
<line x1="-7.34082" y1="473.117" x2="937.177" y2="473.117" stroke="url(#paint27_linear_663_13711)" stroke-width="2.81212"/>
<line x1="-7.34082" y1="469.813" x2="937.177" y2="469.813" stroke="url(#paint28_linear_663_13711)" stroke-width="2.81212"/>
<line x1="-7.34082" y1="466.508" x2="937.177" y2="466.508" stroke="url(#paint29_linear_663_13711)" stroke-width="2.81212"/>
<line y1="-1.40606" x2="153.402" y2="-1.40606" transform="matrix(-0.901512 0.432754 -0.845783 -0.533527 104.472 458)" stroke="#075985" stroke-width="2.81212"/>
<line y1="-1.40606" x2="186.235" y2="-1.40606" transform="matrix(-0.900572 0.434708 -0.847114 -0.531411 142.723 462.957)" stroke="#075985" stroke-width="2.81212"/>
<line y1="-1.40606" x2="219.78" y2="-1.40606" transform="matrix(-0.897 0.442031 -0.852002 -0.523538 189.802 467.914)" stroke="#075985" stroke-width="2.81212"/>
<line y1="-1.40606" x2="264.294" y2="-1.40606" transform="matrix(-0.84612 0.532993 -0.901275 -0.433247 216.283 467.914)" stroke="#075985" stroke-width="2.81212"/>
<line y1="-1.40606" x2="310.379" y2="-1.40606" transform="matrix(-0.815288 0.579055 -0.919886 -0.392187 245.708 469.532)" stroke="#075985" stroke-width="2.81212"/>
<line y1="-1.40606" x2="361.94" y2="-1.40606" transform="matrix(-0.772311 0.635245 -0.938427 -0.345478 272.188 469.532)" stroke="#075985" stroke-width="2.81212"/>
<line y1="-1.40606" x2="435.821" y2="-1.40606" transform="matrix(-0.715653 0.698456 -0.955086 -0.296329 304.556 469.532)" stroke="#075985" stroke-width="2.81212"/>
<line y1="-1.40606" x2="528.209" y2="-1.40606" transform="matrix(-0.635045 0.772475 -0.970385 -0.241564 328.096 467.914)" stroke="#075985" stroke-width="2.81212"/>
<line y1="-1.40606" x2="672.641" y2="-1.40606" transform="matrix(-0.54243 0.840101 -0.981418 -0.191882 357.52 467.914)" stroke="#075985" stroke-width="2.81212"/>
<line y1="-1.40606" x2="617.68" y2="-1.40606" transform="matrix(-0.409676 0.912231 -0.99088 -0.134749 386.943 469.532)" stroke="#075985" stroke-width="2.81212"/>
<line y1="-1.40606" x2="580.19" y2="-1.40606" transform="matrix(0.23836 -0.971177 0.99725 0.0741151 272.188 1033)" stroke="#075985" stroke-width="2.81212"/>
<line y1="-1.40606" x2="563.579" y2="-1.40606" transform="matrix(-0.0783144 0.996929 -0.999717 -0.0237806 445.793 471.152)" stroke="#075985" stroke-width="2.81212"/>
<line y1="-1.40606" x2="565.909" y2="-1.40606" transform="matrix(-0.119588 -0.992824 0.999335 -0.0364497 542.893 1033)" stroke="#075985" stroke-width="2.81212"/>
<line y1="-1.40606" x2="586.347" y2="-1.40606" transform="matrix(0.286039 0.958218 -0.99594 0.0900248 507.583 471.152)" stroke="#075985" stroke-width="2.81212"/>
<line y1="-1.40606" x2="631.63" y2="-1.40606" transform="matrix(0.451871 0.892084 -0.98844 0.15161 528.181 469.532)" stroke="#075985" stroke-width="2.81212"/>
<line y1="-1.40606" x2="674.771" y2="-1.40606" transform="matrix(-0.5538 -0.83265 0.980316 -0.197435 937.178 1033)" stroke="#075985" stroke-width="2.81212"/>
<line y1="-1.40606" x2="533.497" y2="-1.40606" transform="matrix(0.661843 0.749643 -0.966072 0.258272 584.086 469.532)" stroke="#075985" stroke-width="2.81212"/>
<line y1="-1.40606" x2="444.32" y2="-1.40606" transform="matrix(-0.728453 -0.685095 0.951878 -0.306478 937.178 775.555)" stroke="#075985" stroke-width="2.81212"/>
<line y1="-1.40606" x2="378.734" y2="-1.40606" transform="matrix(0.784679 0.619902 -0.933757 0.357908 639.992 469.532)" stroke="#075985" stroke-width="2.81212"/>
<line y1="-1.40606" x2="322.8" y2="-1.40606" transform="matrix(0.820378 0.571822 -0.917188 0.398456 672.359 471.152)" stroke="#075985" stroke-width="2.81212"/>
<line y1="-1.40606" x2="279.437" y2="-1.40606" transform="matrix(0.842386 0.538875 -0.903851 0.427847 701.783 471.152)" stroke="#075985" stroke-width="2.81212"/>
<line y1="-1.40606" x2="240.032" y2="-1.40606" transform="matrix(0.870353 0.492429 -0.881667 0.471872 728.265 472.771)" stroke="#075985" stroke-width="2.81212"/>
<line y1="-1.40606" x2="202.571" y2="-1.40606" transform="matrix(0.886047 0.463595 -0.865503 0.500904 757.688 472.771)" stroke="#075985" stroke-width="2.81212"/>
<line y1="-1.40606" x2="170.171" y2="-1.40606" transform="matrix(0.899129 0.437684 -0.84912 0.5282 784.171 471.152)" stroke="#075985" stroke-width="2.81212"/>
<line y1="-1.40606" x2="133.287" y2="-1.40606" transform="matrix(0.90511 0.425177 -0.840506 0.541802 816.538 472.771)" stroke="#075985" stroke-width="2.81212"/>
<line y1="-1.40606" x2="81.7316" y2="-1.40606" transform="matrix(0.900027 0.435835 -0.847877 0.530193 863.616 471.152)" stroke="#075985" stroke-width="2.81212"/>
<path d="M-8.81152 545.572H35.3248L73.5764 527.397H13.2567L82.4036 492.698" stroke="#D9D9D9" stroke-width="2.81212" stroke-linecap="round"/>
<path d="M929.822 545.572H831.25L801.826 516.657L822.423 510.874H868.031H900.397L837.135 480.307" stroke="#D9D9D9" stroke-width="2.81212" stroke-linecap="round"/>
<path d="M-10.2832 650.493L58.8638 602.577H111.827L144.194 575.314H97.1153L129.482 553.008" stroke="#D9D9D9" stroke-width="2.81212" stroke-linecap="round"/>
<path d="M781.229 575.312H820.952L929.822 652.144H803.298L868.031 762.848H929.822" stroke="#D9D9D9" stroke-width="2.81212" stroke-linecap="round"/>
<g opacity="0.53" filter="url(#filter0_f_663_13711)">
<circle cx="712.678" cy="502.5" r="252.5" fill="#A78BFA"/>
</g>
<g opacity="0.53" filter="url(#filter1_f_663_13711)">
<path d="M424.178 544.5C424.178 683.952 311.13 797 171.678 797C32.2258 797 -80.8223 683.952 -80.8223 544.5C-80.8223 405.048 32.2258 292 171.678 292C311.13 292 424.178 405.048 424.178 544.5Z" fill="#38BDF8"/>
</g>
<path opacity="0.81" d="M773.815 746H164.244C124.622 746 89.3845 771.194 76.5676 808.686L0.100117 1032.37C-20.4547 1092.5 24.2336 1155 87.777 1155H841.39C903.534 1155 948.061 1095.03 930.09 1035.54L862.514 811.862C850.699 772.755 814.667 746 773.815 746Z" fill="#082F49"/>
</g>
<defs>
<filter id="filter0_f_663_13711" x="316.063" y="105.885" width="793.229" height="793.229" filterUnits="userSpaceOnUse" color-interpolation-filters="sRGB">
<feFlood flood-opacity="0" result="BackgroundImageFix"/>
<feBlend mode="normal" in="SourceGraphic" in2="BackgroundImageFix" result="shape"/>
<feGaussianBlur stdDeviation="72.0573" result="effect1_foregroundBlur_663_13711"/>
</filter>
<filter id="filter1_f_663_13711" x="-224.937" y="147.885" width="793.229" height="793.229" filterUnits="userSpaceOnUse" color-interpolation-filters="sRGB">
<feFlood flood-opacity="0" result="BackgroundImageFix"/>
<feBlend mode="normal" in="SourceGraphic" in2="BackgroundImageFix" result="shape"/>
<feGaussianBlur stdDeviation="72.0573" result="effect1_foregroundBlur_663_13711"/>
</filter>
<linearGradient id="paint0_linear_663_13711" x1="464.918" y1="960.299" x2="464.918" y2="961.299" gradientUnits="userSpaceOnUse">
<stop stop-color="#075985"/>
<stop offset="1" stop-color="#082F49"/>
</linearGradient>
<linearGradient id="paint1_linear_663_13711" x1="464.918" y1="895.859" x2="464.918" y2="896.859" gradientUnits="userSpaceOnUse">
<stop stop-color="#075985"/>
<stop offset="1" stop-color="#082F49"/>
</linearGradient>
<linearGradient id="paint2_linear_663_13711" x1="464.918" y1="844.639" x2="464.918" y2="845.639" gradientUnits="userSpaceOnUse">
<stop stop-color="#075985"/>
<stop offset="1" stop-color="#082F49"/>
</linearGradient>
<linearGradient id="paint3_linear_663_13711" x1="464.918" y1="801.679" x2="464.918" y2="802.679" gradientUnits="userSpaceOnUse">
<stop stop-color="#075985"/>
<stop offset="1" stop-color="#082F49"/>
</linearGradient>
<linearGradient id="paint4_linear_663_13711" x1="464.918" y1="763.676" x2="464.918" y2="764.676" gradientUnits="userSpaceOnUse">
<stop stop-color="#075985"/>
<stop offset="1" stop-color="#082F49"/>
</linearGradient>
<linearGradient id="paint5_linear_663_13711" x1="464.918" y1="730.629" x2="464.918" y2="731.629" gradientUnits="userSpaceOnUse">
<stop stop-color="#075985"/>
<stop offset="1" stop-color="#082F49"/>
</linearGradient>
<linearGradient id="paint6_linear_663_13711" x1="464.918" y1="702.541" x2="464.918" y2="703.541" gradientUnits="userSpaceOnUse">
<stop stop-color="#075985"/>
<stop offset="1" stop-color="#082F49"/>
</linearGradient>
<linearGradient id="paint7_linear_663_13711" x1="464.918" y1="679.408" x2="464.918" y2="680.408" gradientUnits="userSpaceOnUse">
<stop stop-color="#075985"/>
<stop offset="1" stop-color="#082F49"/>
</linearGradient>
<linearGradient id="paint8_linear_663_13711" x1="464.918" y1="656.276" x2="464.918" y2="657.276" gradientUnits="userSpaceOnUse">
<stop stop-color="#075985"/>
<stop offset="1" stop-color="#082F49"/>
</linearGradient>
<linearGradient id="paint9_linear_663_13711" x1="464.918" y1="636.448" x2="464.918" y2="637.448" gradientUnits="userSpaceOnUse">
<stop stop-color="#075985"/>
<stop offset="1" stop-color="#082F49"/>
</linearGradient>
<linearGradient id="paint10_linear_663_13711" x1="464.918" y1="619.926" x2="464.918" y2="620.926" gradientUnits="userSpaceOnUse">
<stop stop-color="#075985"/>
<stop offset="1" stop-color="#082F49"/>
</linearGradient>
<linearGradient id="paint11_linear_663_13711" x1="464.918" y1="603.402" x2="464.918" y2="604.402" gradientUnits="userSpaceOnUse">
<stop stop-color="#075985"/>
<stop offset="1" stop-color="#082F49"/>
</linearGradient>
<linearGradient id="paint12_linear_663_13711" x1="464.918" y1="590.184" x2="464.918" y2="591.184" gradientUnits="userSpaceOnUse">
<stop stop-color="#075985"/>
<stop offset="1" stop-color="#082F49"/>
</linearGradient>
<linearGradient id="paint13_linear_663_13711" x1="464.918" y1="576.966" x2="464.918" y2="577.966" gradientUnits="userSpaceOnUse">
<stop stop-color="#075985"/>
<stop offset="1" stop-color="#082F49"/>
</linearGradient>
<linearGradient id="paint14_linear_663_13711" x1="464.918" y1="565.399" x2="464.918" y2="566.399" gradientUnits="userSpaceOnUse">
<stop stop-color="#075985"/>
<stop offset="1" stop-color="#082F49"/>
</linearGradient>
<linearGradient id="paint15_linear_663_13711" x1="464.918" y1="555.485" x2="464.918" y2="556.485" gradientUnits="userSpaceOnUse">
<stop stop-color="#075985"/>
<stop offset="1" stop-color="#082F49"/>
</linearGradient>
<linearGradient id="paint16_linear_663_13711" x1="464.918" y1="547.225" x2="464.918" y2="548.225" gradientUnits="userSpaceOnUse">
<stop stop-color="#075985"/>
<stop offset="1" stop-color="#082F49"/>
</linearGradient>
<linearGradient id="paint17_linear_663_13711" x1="464.918" y1="535.658" x2="464.918" y2="536.658" gradientUnits="userSpaceOnUse">
<stop stop-color="#075985"/>
<stop offset="1" stop-color="#082F49"/>
</linearGradient>
<linearGradient id="paint18_linear_663_13711" x1="464.918" y1="527.396" x2="464.918" y2="528.396" gradientUnits="userSpaceOnUse">
<stop stop-color="#075985"/>
<stop offset="1" stop-color="#082F49"/>
</linearGradient>
<linearGradient id="paint19_linear_663_13711" x1="464.918" y1="520.788" x2="464.918" y2="521.788" gradientUnits="userSpaceOnUse">
<stop stop-color="#075985"/>
<stop offset="1" stop-color="#082F49"/>
</linearGradient>
<linearGradient id="paint20_linear_663_13711" x1="464.918" y1="512.526" x2="464.918" y2="513.526" gradientUnits="userSpaceOnUse">
<stop stop-color="#075985"/>
<stop offset="1" stop-color="#082F49"/>
</linearGradient>
<linearGradient id="paint21_linear_663_13711" x1="464.918" y1="505.917" x2="464.918" y2="506.917" gradientUnits="userSpaceOnUse">
<stop stop-color="#075985"/>
<stop offset="1" stop-color="#082F49"/>
</linearGradient>
<linearGradient id="paint22_linear_663_13711" x1="464.918" y1="499.308" x2="464.918" y2="500.308" gradientUnits="userSpaceOnUse">
<stop stop-color="#075985"/>
<stop offset="1" stop-color="#082F49"/>
</linearGradient>
<linearGradient id="paint23_linear_663_13711" x1="464.918" y1="492.698" x2="464.918" y2="493.698" gradientUnits="userSpaceOnUse">
<stop stop-color="#075985"/>
<stop offset="1" stop-color="#082F49"/>
</linearGradient>
<linearGradient id="paint24_linear_663_13711" x1="464.918" y1="487.741" x2="464.918" y2="488.741" gradientUnits="userSpaceOnUse">
<stop stop-color="#075985"/>
<stop offset="1" stop-color="#082F49"/>
</linearGradient>
<linearGradient id="paint25_linear_663_13711" x1="464.918" y1="482.785" x2="464.918" y2="483.785" gradientUnits="userSpaceOnUse">
<stop stop-color="#075985"/>
<stop offset="1" stop-color="#082F49"/>
</linearGradient>
<linearGradient id="paint26_linear_663_13711" x1="464.918" y1="477.828" x2="464.918" y2="478.828" gradientUnits="userSpaceOnUse">
<stop stop-color="#075985"/>
<stop offset="1" stop-color="#082F49"/>
</linearGradient>
<linearGradient id="paint27_linear_663_13711" x1="464.918" y1="474.523" x2="464.918" y2="475.523" gradientUnits="userSpaceOnUse">
<stop stop-color="#075985"/>
<stop offset="1" stop-color="#082F49"/>
</linearGradient>
<linearGradient id="paint28_linear_663_13711" x1="464.918" y1="471.219" x2="464.918" y2="472.219" gradientUnits="userSpaceOnUse">
<stop stop-color="#075985"/>
<stop offset="1" stop-color="#082F49"/>
</linearGradient>
<linearGradient id="paint29_linear_663_13711" x1="464.918" y1="467.914" x2="464.918" y2="468.914" gradientUnits="userSpaceOnUse">
<stop stop-color="#075985"/>
<stop offset="1" stop-color="#082F49"/>
</linearGradient>
<clipPath id="clip0_663_13711">
<rect x="0.177734" width="928" height="1033" rx="18.8971" fill="white"/>
</clipPath>
</defs>
</svg>
