<svg width="58" height="58" viewBox="0 0 58 58" fill="none" xmlns="http://www.w3.org/2000/svg">
<path d="M9.49433 0H48.3623C53.4815 0 57.6369 4.1554 57.6369 9.2746V48.3954C57.6369 53.5146 53.4815 57.67 48.3623 57.67H9.49433C4.37513 57.67 0.219727 53.5146 0.219727 48.3954V9.2746C0.219727 4.1554 4.35933 0 9.49433 0Z" fill="url(#paint0_linear_415_3295)"/>
<path d="M29.3543 24.8221C30.8237 24.8221 31.9297 24.5061 32.6881 23.8583C33.4465 23.2263 33.8257 22.2783 33.8257 21.0301C33.8257 19.7977 33.4465 18.8655 32.6881 18.2335C31.9297 17.5857 30.8237 17.2539 29.3543 17.2539H24.2035V24.8221H29.3543ZM29.6703 40.4483C31.5347 40.4483 32.9409 40.0533 33.8731 39.2791C34.8211 38.5049 35.2951 37.3199 35.2951 35.7399C35.2951 34.1915 34.8211 33.0381 33.8889 32.2639C32.9567 31.4897 31.5505 31.0947 29.6545 31.0947H24.1877V40.4483H29.6703ZM38.3287 27.6029C40.3195 28.1717 41.8679 29.2303 42.9739 30.7787C44.0641 32.3271 44.6171 34.2231 44.6171 36.4667C44.6171 39.9111 43.4479 42.4865 41.0937 44.1771C38.7395 45.8677 35.1687 46.7209 30.3655 46.7209H14.9131V10.9971H28.8803C33.8889 10.9971 37.5229 11.7397 39.7665 13.2407C42.0259 14.7417 43.1477 17.1433 43.1477 20.4455C43.1477 22.1835 42.7369 23.6687 41.9153 24.9011C41.0937 26.1177 39.8929 27.0183 38.3287 27.6029Z" fill="white"/>
<defs>
<linearGradient id="paint0_linear_415_3295" x1="3.53767" y1="54.6692" x2="54.109" y2="3.21449" gradientUnits="userSpaceOnUse">
<stop stop-color="#BDBDBD"/>
<stop offset="1" stop-color="#C3C3C3"/>
</linearGradient>
</defs>
</svg>
