<svg width="58" height="58" viewBox="0 0 58 58" fill="none" xmlns="http://www.w3.org/2000/svg">
<path d="M9.2746 0H48.1426C53.2618 0 57.4172 4.1554 57.4172 9.2746V48.3954C57.4172 53.5146 53.2618 57.67 48.1426 57.67H9.2746C4.1554 57.67 0 53.5146 0 48.3954V9.2746C0 4.1554 4.1396 0 9.2746 0Z" fill="url(#paint0_linear_1444_5009)"/>
<path d="M29.1346 24.8221C30.604 24.8221 31.71 24.5061 32.4684 23.8583C33.2268 23.2263 33.606 22.2783 33.606 21.0301C33.606 19.7977 33.2268 18.8655 32.4684 18.2335C31.71 17.5857 30.604 17.2539 29.1346 17.2539H23.9838V24.8221H29.1346ZM29.4506 40.4483C31.315 40.4483 32.7212 40.0533 33.6534 39.2791C34.6014 38.5049 35.0754 37.3199 35.0754 35.7399C35.0754 34.1915 34.6014 33.0381 33.6692 32.2639C32.737 31.4897 31.3308 31.0947 29.4348 31.0947H23.968V40.4483H29.4506ZM38.109 27.6029C40.0998 28.1717 41.6482 29.2303 42.7542 30.7787C43.8444 32.3271 44.3974 34.2231 44.3974 36.4667C44.3974 39.9111 43.2282 42.4865 40.874 44.1771C38.5198 45.8677 34.949 46.7209 30.1458 46.7209H14.6934V10.9971H28.6606C33.6692 10.9971 37.3032 11.7397 39.5468 13.2407C41.8062 14.7417 42.928 17.1433 42.928 20.4455C42.928 22.1835 42.5172 23.6687 41.6956 24.9011C40.874 26.1177 39.6732 27.0183 38.109 27.6029Z" fill="white"/>
<defs>
<linearGradient id="paint0_linear_1444_5009" x1="3.31795" y1="54.6692" x2="53.8893" y2="3.21449" gradientUnits="userSpaceOnUse">
<stop stop-color="#070135"/>
<stop offset="1" stop-color="#612D50"/>
</linearGradient>
</defs>
</svg>
