<svg width="59" height="67" viewBox="0 0 59 67" fill="none" xmlns="http://www.w3.org/2000/svg">
<path d="M29.3591 66.6742L5.35035 60.0091L0 0H58.79L53.4341 59.9999L29.3591 66.6742Z" fill="#BDBDBD"/>
<path d="M48.8504 56.179L53.4271 4.90625H29.3965V61.5722L48.8504 56.179Z" fill="#D1D1D1"/>
<path d="M12.265 27.1621L12.9245 34.522H29.3946V27.1621H12.265ZM10.9395 12.2656L11.6084 19.6255H29.3946V12.2656H10.9395ZM29.3946 46.2765L29.3623 46.2851L21.1657 44.0718L20.6416 38.202H13.2534L14.2844 49.7582L29.3607 53.9431L29.3946 53.9339V46.2765Z" fill="#EBEBEB"/>
<path d="M46.4773 27.1621L47.8058 12.2656H29.3694V19.6255H39.7401L39.0704 27.1621H29.3694V34.522H38.4323L37.5778 44.0672L29.3691 46.2828V53.9397L44.4574 49.7582L44.568 48.5147L46.2977 29.1385L46.4773 27.1621Z" fill="white"/>
</svg>
