<svg width="59" height="72" viewBox="0 0 59 72" fill="none" xmlns="http://www.w3.org/2000/svg">
<path d="M29.4626 71.9828L5.45386 65.3177L0.103516 5.30859H58.8935L53.5376 65.3085L29.4626 71.9828Z" fill="#264DE4"/>
<path d="M48.9539 61.4876L53.5306 10.2148H29.5V66.8808L48.9539 61.4876Z" fill="#2965F1"/>
<path d="M12.3685 32.4707L13.0281 39.8306H29.4981V32.4707H12.3685ZM11.043 17.5742L11.712 24.9341H29.4981V17.5742H11.043ZM29.4981 51.5851L29.4658 51.5937L21.2692 49.3804L20.7451 43.5106H13.3569L14.3879 55.0668L29.4642 59.2517L29.4981 59.2425V51.5851Z" fill="#EBEBEB"/>
<path d="M46.5808 32.4707L47.9093 17.5742H29.4729V24.9341H39.8436L39.1739 32.4707H29.4729V39.8306H38.5358L37.6813 49.3758L29.4727 51.5914V59.2483L44.5609 55.0668L44.6715 53.8233L46.4013 34.4471L46.5808 32.4707Z" fill="white"/>
</svg>
