<svg width="794" height="384" viewBox="0 0 794 384" fill="none" xmlns="http://www.w3.org/2000/svg">
<rect x="49.9531" y="17.0869" width="722.72" height="373.035" rx="18.7211" fill="white"/>
<rect x="604.665" y="26.7684" width="162.883" height="353.102" rx="14.238" fill="#F4F5FA" stroke="#D8DFF2" stroke-width="1.13904" stroke-dasharray="2.28 2.28"/>
<rect x="64.1914" y="27.3379" width="523.958" height="351.963" rx="13.6685" fill="#F4F5FA"/>
<g filter="url(#filter0_dii_1030_5775)">
<rect x="81.8477" y="43.8555" width="488.648" height="78.0242" rx="6.26728" fill="url(#paint0_linear_1030_5775)"/>
<rect x="396.221" y="68.915" width="112.765" height="6.26471" rx="3.13236" fill="#E8EDFA"/>
<rect x="112.601" y="79.7344" width="396.386" height="6.26471" rx="3.13236" fill="#5ACCFE"/>
<rect x="196.32" y="90.5566" width="312.666" height="6.26471" rx="3.13236" fill="#5ACCFE"/>
<path d="M532.123 101.804H544.51C554.833 101.804 558.962 97.6748 558.962 87.3523V74.9652C558.962 64.6427 554.833 60.5137 544.51 60.5137H532.123C521.801 60.5137 517.672 64.6427 517.672 74.9652V87.3523C517.672 97.6748 521.801 101.804 532.123 101.804Z" stroke="white" stroke-width="3.09676" stroke-linecap="round" stroke-linejoin="round"/>
<path d="M532.123 77.0295C534.404 77.0295 536.252 75.1809 536.252 72.9005C536.252 70.6201 534.404 68.7715 532.123 68.7715C529.843 68.7715 527.994 70.6201 527.994 72.9005C527.994 75.1809 529.843 77.0295 532.123 77.0295Z" stroke="white" stroke-width="3.09676" stroke-linecap="round" stroke-linejoin="round"/>
<path d="M519.055 95.5078L529.233 88.6743C530.864 87.5801 533.217 87.7039 534.683 88.9633L535.364 89.562C536.975 90.9452 539.576 90.9452 541.186 89.562L549.775 82.1917C551.385 80.8085 553.986 80.8085 555.596 82.1917L558.962 85.082" stroke="white" stroke-width="3.09676" stroke-linecap="round" stroke-linejoin="round"/>
</g>
<rect x="338.414" y="280.494" width="223.821" height="54.6739" rx="3.70188" fill="white"/>
<rect x="338.414" y="280.494" width="223.821" height="54.6739" rx="3.70188" stroke="#E0E0E0" stroke-width="1.70856" stroke-dasharray="0.35 0.35"/>
<rect x="472.537" y="291.026" width="52.0453" height="4.55616" rx="2.27808" fill="#E8EDFA"/>
<rect x="341.548" y="302.987" width="182.947" height="3.41712" rx="1.70856" fill="#E8EDFA"/>
<rect x="380.275" y="309.253" width="144.307" height="3.41712" rx="1.70856" fill="#E8EDFA"/>
<rect x="530.232" y="293.964" width="28.3884" height="28.3884" rx="9.11231" fill="#F3F3F3"/>
<path d="M540.879 319.986H547.976C553.89 319.986 556.256 317.62 556.256 311.706V304.609C556.256 298.695 553.89 296.329 547.976 296.329H540.879C534.964 296.329 532.599 298.695 532.599 304.609V311.706C532.599 317.62 534.964 319.986 540.879 319.986Z" stroke="#0EA5E9" stroke-width="1.77427" stroke-linecap="round" stroke-linejoin="round"/>
<path d="M540.878 305.792C542.185 305.792 543.244 304.733 543.244 303.426C543.244 302.12 542.185 301.061 540.878 301.061C539.572 301.061 538.513 302.12 538.513 303.426C538.513 304.733 539.572 305.792 540.878 305.792Z" stroke="#0EA5E9" stroke-width="1.77427" stroke-linecap="round" stroke-linejoin="round"/>
<path d="M533.391 316.379L539.222 312.464C540.157 311.837 541.505 311.908 542.345 312.629L542.735 312.972C543.658 313.765 545.148 313.765 546.071 312.972L550.991 308.75C551.914 307.957 553.404 307.957 554.327 308.75L556.255 310.406" stroke="#0EA5E9" stroke-width="1.77427" stroke-linecap="round" stroke-linejoin="round"/>
<rect x="82.701" y="280.494" width="223.821" height="54.6739" rx="3.70188" fill="white"/>
<rect x="82.701" y="280.494" width="223.821" height="54.6739" rx="3.70188" stroke="#E0E0E0" stroke-width="1.70856" stroke-dasharray="0.35 0.35"/>
<rect x="216.82" y="291.026" width="52.0453" height="4.55616" rx="2.27808" fill="#E8EDFA"/>
<rect x="85.832" y="302.987" width="182.947" height="3.41712" rx="1.70856" fill="#E8EDFA"/>
<rect x="124.559" y="309.253" width="144.307" height="3.41712" rx="1.70856" fill="#E8EDFA"/>
<rect x="274.517" y="293.964" width="28.3884" height="28.3884" rx="9.11231" fill="#F3F3F3"/>
<path d="M285.163 319.986H292.26C298.174 319.986 300.54 317.62 300.54 311.706V304.609C300.54 298.695 298.174 296.329 292.26 296.329H285.163C279.249 296.329 276.883 298.695 276.883 304.609V311.706C276.883 317.62 279.249 319.986 285.163 319.986Z" stroke="#0EA5E9" stroke-width="1.77427" stroke-linecap="round" stroke-linejoin="round"/>
<path d="M285.163 305.792C286.469 305.792 287.528 304.733 287.528 303.426C287.528 302.12 286.469 301.061 285.163 301.061C283.856 301.061 282.797 302.12 282.797 303.426C282.797 304.733 283.856 305.792 285.163 305.792Z" stroke="#0EA5E9" stroke-width="1.77427" stroke-linecap="round" stroke-linejoin="round"/>
<path d="M277.675 316.379L283.506 312.464C284.441 311.837 285.789 311.908 286.629 312.629L287.019 312.972C287.942 313.765 289.432 313.765 290.355 312.972L295.276 308.75C296.198 307.957 297.689 307.957 298.611 308.75L300.539 310.406" stroke="#0EA5E9" stroke-width="1.77427" stroke-linecap="round" stroke-linejoin="round"/>
<g filter="url(#filter1_d_1030_5775)">
<rect x="432.1" y="140.676" width="130.989" height="82.5803" rx="6.60645" fill="white"/>
<rect x="432.669" y="141.245" width="129.85" height="81.4413" rx="6.03693" stroke="#0EA5E9" stroke-width="1.13904"/>
<path d="M491.928 194.988H503.262C512.706 194.988 516.484 191.21 516.484 181.766V170.432C516.484 160.988 512.706 157.21 503.262 157.21H491.928C482.484 157.21 478.706 160.988 478.706 170.432V181.766C478.706 191.21 482.484 194.988 491.928 194.988Z" stroke="#0EA5E9" stroke-width="2.83336" stroke-linecap="round" stroke-linejoin="round"/>
<path d="M491.928 172.321C494.015 172.321 495.706 170.63 495.706 168.543C495.706 166.457 494.015 164.766 491.928 164.766C489.842 164.766 488.15 166.457 488.15 168.543C488.15 170.63 489.842 172.321 491.928 172.321Z" stroke="#0EA5E9" stroke-width="2.83336" stroke-linecap="round" stroke-linejoin="round"/>
<path d="M479.971 189.227L489.283 182.975C490.775 181.974 492.929 182.087 494.27 183.24L494.893 183.787C496.366 185.053 498.746 185.053 500.22 183.787L508.078 177.044C509.551 175.778 511.931 175.778 513.404 177.044L516.483 179.688" stroke="#0EA5E9" stroke-width="2.83336" stroke-linecap="round" stroke-linejoin="round"/>
</g>
<rect x="286.303" y="140.676" width="130.989" height="82.5803" rx="6.60645" fill="white"/>
<path d="M346.147 194.869H357.448C366.866 194.869 370.633 191.102 370.633 181.685V170.384C370.633 160.966 366.866 157.199 357.448 157.199H346.147C336.73 157.199 332.963 160.966 332.963 170.384V181.685C332.963 191.102 336.73 194.869 346.147 194.869Z" stroke="#0EA5E9" stroke-width="2.82525" stroke-linecap="round" stroke-linejoin="round"/>
<path d="M346.147 172.267C348.227 172.267 349.914 170.581 349.914 168.5C349.914 166.42 348.227 164.733 346.147 164.733C344.066 164.733 342.38 166.42 342.38 168.5C342.38 170.581 344.066 172.267 346.147 172.267Z" stroke="#0EA5E9" stroke-width="2.82525" stroke-linecap="round" stroke-linejoin="round"/>
<path d="M334.224 189.125L343.509 182.891C344.997 181.893 347.144 182.006 348.482 183.155L349.103 183.701C350.572 184.963 352.946 184.963 354.415 183.701L362.25 176.977C363.719 175.715 366.092 175.715 367.562 176.977L370.632 179.614" stroke="#0EA5E9" stroke-width="2.82525" stroke-linecap="round" stroke-linejoin="round"/>
<g filter="url(#filter2_dii_1030_5775)">
<rect x="503.289" y="236.924" width="59.23" height="4.55616" rx="2.27808" fill="url(#paint1_linear_1030_5775)"/>
</g>
<g filter="url(#filter3_dii_1030_5775)">
<rect x="432.1" y="248.314" width="130.42" height="4.55616" rx="2.27808" fill="url(#paint2_linear_1030_5775)"/>
</g>
<g filter="url(#filter4_dii_1030_5775)">
<rect x="462.284" y="259.705" width="100.235" height="4.55616" rx="2.27808" fill="url(#paint3_linear_1030_5775)"/>
</g>
<rect x="357.493" y="236.924" width="59.23" height="4.55616" rx="2.27808" fill="#E6EDFF"/>
<rect x="286.304" y="248.314" width="130.42" height="4.55616" rx="2.27808" fill="#E6EDFF"/>
<rect x="316.488" y="259.705" width="100.235" height="4.55616" rx="2.27808" fill="#E6EDFF"/>
<rect x="81.2781" y="140.106" width="177.69" height="124.725" rx="14.238" fill="#E8EDFA" stroke="#D8DFF2" stroke-width="1.13904" stroke-dasharray="2.28 2.28"/>
<g filter="url(#filter5_d_1030_5775)">
<rect x="26.0332" y="170.857" width="224.644" height="113.904" rx="7.3405" fill="white"/>
<rect x="26.666" y="171.49" width="223.378" height="112.638" rx="6.7077" stroke="#0EA5E9" stroke-width="1.2656"/>
<rect x="70.6025" y="186.883" width="48.8781" height="3.75985" rx="1.87993" fill="#E6EDFF"/>
<rect x="37.2334" y="196.282" width="82.2468" height="3.75985" rx="1.87993" fill="#E6EDFF"/>
<rect x="49.9229" y="205.682" width="69.5573" height="3.75985" rx="1.87993" fill="#E6EDFF"/>
<rect x="131.23" y="181.008" width="34.3087" height="34.3087" rx="4.98183" fill="white"/>
<rect x="131.23" y="181.008" width="34.3087" height="34.3087" rx="4.98183" stroke="#0EA5E9" stroke-width="0.939963"/>
<rect x="70.6025" y="246.178" width="48.8781" height="3.75985" rx="1.87993" fill="#E6EDFF"/>
<rect x="37.2334" y="255.577" width="82.2468" height="3.75985" rx="1.87993" fill="#E6EDFF"/>
<rect x="49.9229" y="264.977" width="69.5573" height="3.75985" rx="1.87993" fill="#E6EDFF"/>
<rect x="131.23" y="240.303" width="34.3087" height="34.3087" rx="4.98183" fill="white"/>
<rect x="131.23" y="240.303" width="34.3087" height="34.3087" rx="4.98183" stroke="#0EA5E9" stroke-width="0.939963"/>
<rect x="176.64" y="178.135" width="56.3191" height="99.3495" rx="5.06239" fill="url(#paint4_linear_1030_5775)"/>
<rect x="200.325" y="257.234" width="28.2048" height="3.164" rx="1.582" fill="#E6EDFF"/>
<rect x="181.07" y="263.652" width="47.46" height="2.1696" rx="1.0848" fill="#E6EDFF"/>
<rect x="188.393" y="269.077" width="40.1376" height="2.1696" rx="1.0848" fill="#E6EDFF"/>
</g>
<g clip-path="url(#clip0_1030_5775)">
<rect x="619.473" width="174.06" height="372.221" rx="7.97327" fill="#FAFBFF"/>
<rect x="630.293" y="46.1279" width="152.637" height="21.4228" rx="5.3557" fill="white"/>
<rect x="705.018" y="55.3574" width="65.901" height="5.27208" rx="2.63604" fill="#D9D9D9"/>
<rect width="174.273" height="38.7273" transform="translate(619.473 -0.679688)" fill="#0EA5E9"/>
<path d="M675.793 18.6202C675.793 18.9189 675.776 19.1956 675.743 19.4501H669.17C669.347 19.9812 669.652 20.4183 670.083 20.7613C670.515 21.0932 671.024 21.2592 671.61 21.2592C672.517 21.2592 673.237 20.9051 673.768 20.197L675.328 21.0102C674.941 21.6409 674.421 22.1333 673.768 22.4874C673.115 22.8415 672.39 23.0185 671.593 23.0185C670.797 23.0185 670.061 22.8193 669.386 22.421C668.711 22.0227 668.174 21.486 667.776 20.8111C667.389 20.1361 667.195 19.4058 667.195 18.6202C667.195 17.8346 667.389 17.1043 667.776 16.4293C668.174 15.7544 668.711 15.2233 669.386 14.836C670.061 14.4376 670.797 14.2385 671.593 14.2385C672.401 14.2385 673.12 14.4376 673.751 14.836C674.393 15.2233 674.891 15.7544 675.245 16.4293C675.61 17.0932 675.793 17.8235 675.793 18.6202ZM671.61 16.0476C671.068 16.0476 670.575 16.208 670.133 16.5289C669.69 16.8498 669.38 17.2647 669.203 17.7737H674.017C673.84 17.2647 673.53 16.8498 673.087 16.5289C672.656 16.208 672.163 16.0476 671.61 16.0476ZM679.922 22.8525C679.457 22.8525 679.025 22.7419 678.627 22.5206C678.229 22.2882 677.913 21.9784 677.681 21.5911C677.449 21.1928 677.332 20.7557 677.332 20.2799V10.7032H679.473V20.4127C679.473 20.5344 679.518 20.6395 679.606 20.7281C679.695 20.8055 679.8 20.8443 679.922 20.8443H680.187V22.8525H679.922ZM689.797 18.6202C689.797 18.9189 689.78 19.1956 689.747 19.4501H683.174C683.351 19.9812 683.656 20.4183 684.087 20.7613C684.519 21.0932 685.028 21.2592 685.614 21.2592C686.521 21.2592 687.241 20.9051 687.772 20.197L689.332 21.0102C688.945 21.6409 688.425 22.1333 687.772 22.4874C687.119 22.8415 686.394 23.0185 685.598 23.0185C684.801 23.0185 684.065 22.8193 683.39 22.421C682.715 22.0227 682.178 21.486 681.78 20.8111C681.393 20.1361 681.199 19.4058 681.199 18.6202C681.199 17.8346 681.393 17.1043 681.78 16.4293C682.178 15.7544 682.715 15.2233 683.39 14.836C684.065 14.4376 684.801 14.2385 685.598 14.2385C686.405 14.2385 687.124 14.4376 687.755 14.836C688.397 15.2233 688.895 15.7544 689.249 16.4293C689.614 17.0932 689.797 17.8235 689.797 18.6202ZM685.614 16.0476C685.072 16.0476 684.58 16.208 684.137 16.5289C683.694 16.8498 683.385 17.2647 683.208 17.7737H688.021C687.844 17.2647 687.534 16.8498 687.091 16.5289C686.66 16.208 686.167 16.0476 685.614 16.0476ZM700.581 14.2385C701.212 14.2385 701.782 14.4044 702.291 14.7364C702.811 15.0573 703.215 15.4943 703.502 16.0476C703.79 16.6008 703.934 17.2039 703.934 17.8567V22.8525H701.776V17.9397C701.776 17.5192 701.621 17.1541 701.312 16.8443C701.002 16.5234 700.631 16.3629 700.2 16.3629C699.768 16.3629 699.397 16.5234 699.087 16.8443C698.778 17.1541 698.623 17.5192 698.623 17.9397V22.8525H696.465V17.9397C696.465 17.5082 696.31 17.1375 696 16.8277C695.691 16.5179 695.32 16.3629 694.888 16.3629C694.468 16.3629 694.103 16.5234 693.793 16.8443C693.483 17.1541 693.328 17.5192 693.328 17.9397V22.8525H691.171V14.421H692.963V15.4501C693.24 15.0739 693.572 14.7807 693.959 14.5704C694.357 14.3491 694.8 14.2385 695.287 14.2385C695.862 14.2385 696.388 14.3768 696.863 14.6534C697.339 14.93 697.732 15.3062 698.042 15.782C698.318 15.3062 698.673 14.93 699.104 14.6534C699.536 14.3768 700.028 14.2385 700.581 14.2385ZM713.801 18.6202C713.801 18.9189 713.785 19.1956 713.752 19.4501H707.179C707.356 19.9812 707.66 20.4183 708.092 20.7613C708.523 21.0932 709.032 21.2592 709.619 21.2592C710.526 21.2592 711.245 20.9051 711.776 20.197L713.337 21.0102C712.949 21.6409 712.429 22.1333 711.776 22.4874C711.124 22.8415 710.399 23.0185 709.602 23.0185C708.806 23.0185 708.07 22.8193 707.395 22.421C706.72 22.0227 706.183 21.486 705.785 20.8111C705.398 20.1361 705.204 19.4058 705.204 18.6202C705.204 17.8346 705.398 17.1043 705.785 16.4293C706.183 15.7544 706.72 15.2233 707.395 14.836C708.07 14.4376 708.806 14.2385 709.602 14.2385C710.41 14.2385 711.129 14.4376 711.76 14.836C712.402 15.2233 712.9 15.7544 713.254 16.4293C713.619 17.0932 713.801 17.8235 713.801 18.6202ZM709.619 16.0476C709.077 16.0476 708.584 16.208 708.142 16.5289C707.699 16.8498 707.389 17.2647 707.212 17.7737H712.025C711.848 17.2647 711.539 16.8498 711.096 16.5289C710.664 16.208 710.172 16.0476 709.619 16.0476ZM719.507 14.2385C720.182 14.2385 720.791 14.4155 721.333 14.7696C721.886 15.1126 722.318 15.5829 722.627 16.1804C722.937 16.7668 723.092 17.4086 723.092 18.1057V22.8525H720.934V18.1721C720.934 17.6741 720.757 17.2481 720.403 16.8941C720.049 16.54 719.623 16.3629 719.125 16.3629C718.639 16.3629 718.218 16.5455 717.864 16.9107C717.51 17.2647 717.333 17.6852 717.333 18.1721V22.8525H715.175V14.421H716.968V15.6161C717.266 15.1845 717.632 14.847 718.063 14.6036C718.495 14.3602 718.976 14.2385 719.507 14.2385ZM730.669 20.8608V22.8525H728.943C728.401 22.8525 727.897 22.7253 727.433 22.4708C726.968 22.2052 726.597 21.8512 726.321 21.4086C726.055 20.9549 725.922 20.4514 725.922 19.8982V16.4127H724.014V14.421H725.922V11.9148H728.08V14.421H730.503V16.3961H728.08V19.8982C728.08 20.1748 728.174 20.4072 728.362 20.5953C728.55 20.7723 728.783 20.8608 729.059 20.8608H730.669ZM736.413 23.0185C735.594 23.0185 734.836 22.8249 734.139 22.4376C733.442 22.0393 732.889 21.5026 732.479 20.8277C732.081 20.1527 731.882 19.4169 731.882 18.6202C731.882 17.8235 732.081 17.0932 732.479 16.4293C732.889 15.7544 733.442 15.2233 734.139 14.836C734.836 14.4376 735.594 14.2385 736.413 14.2385C737.232 14.2385 737.984 14.4376 738.67 14.836C739.356 15.2233 739.898 15.7544 740.297 16.4293C740.706 17.0932 740.911 17.8235 740.911 18.6202C740.911 19.4169 740.706 20.1527 740.297 20.8277C739.898 21.5026 739.356 22.0393 738.67 22.4376C737.984 22.8249 737.232 23.0185 736.413 23.0185ZM736.396 21.0102C736.828 21.0102 737.221 20.9051 737.575 20.6949C737.94 20.4846 738.228 20.197 738.438 19.8318C738.648 19.4667 738.753 19.0683 738.753 18.6368C738.753 18.2053 738.648 17.8069 738.438 17.4418C738.228 17.0766 737.94 16.7889 737.575 16.5787C737.221 16.3685 736.828 16.2634 736.396 16.2634C735.965 16.2634 735.566 16.3685 735.201 16.5787C734.847 16.7889 734.565 17.0766 734.355 17.4418C734.145 17.8069 734.039 18.2053 734.039 18.6368C734.039 19.0683 734.145 19.4667 734.355 19.8318C734.565 20.197 734.847 20.4846 735.201 20.6949C735.566 20.9051 735.965 21.0102 736.396 21.0102ZM747.634 14.4045V16.3795H746.555C746.201 16.3795 745.869 16.4736 745.559 16.6617C745.249 16.8387 745 17.0877 744.812 17.4086C744.635 17.7184 744.547 18.0504 744.547 18.4044V22.8525H742.389V14.421H744.182V16.114C744.514 15.5939 744.934 15.179 745.443 14.8692C745.952 14.5594 746.527 14.4045 747.169 14.4045H747.634Z" fill="white"/>
<path d="M777.146 13.1523L782.839 18.8448C783.502 19.5078 783.502 20.628 782.839 21.291L777.146 26.9835" stroke="white" stroke-width="2.76624" stroke-miterlimit="10" stroke-linecap="round" stroke-linejoin="round"/>
<path d="M641.928 16.8685H639.6C638.442 16.8685 637.883 16.3556 637.883 15.2952V12.6788C637.883 11.6184 638.448 11.1055 639.6 11.1055H641.928C643.087 11.1055 643.646 11.6184 643.646 12.6788V15.2894C643.646 16.3556 643.081 16.8685 641.928 16.8685ZM639.6 11.9699C638.828 11.9699 638.747 12.1889 638.747 12.6788V15.2894C638.747 15.785 638.828 15.9983 639.6 15.9983H641.928C642.701 15.9983 642.781 15.7793 642.781 15.2894V12.6788C642.781 12.1831 642.701 11.9699 641.928 11.9699H639.6Z" fill="white"/>
<path d="M641.928 23.4944H639.6C638.442 23.4944 637.883 22.9297 637.883 21.7771V19.4488C637.883 18.2905 638.448 17.7314 639.6 17.7314H641.928C643.087 17.7314 643.646 18.2962 643.646 19.4488V21.7771C643.646 22.9297 643.081 23.4944 641.928 23.4944ZM639.6 18.5959C638.92 18.5959 638.747 18.7688 638.747 19.4488V21.7771C638.747 22.4571 638.92 22.63 639.6 22.63H641.928C642.608 22.63 642.781 22.4571 642.781 21.7771V19.4488C642.781 18.7688 642.608 18.5959 641.928 18.5959H639.6Z" fill="white"/>
<path d="M635.302 16.8685H632.974C631.816 16.8685 631.257 16.3556 631.257 15.2952V12.6788C631.257 11.6184 631.822 11.1055 632.974 11.1055H635.302C636.461 11.1055 637.02 11.6184 637.02 12.6788V15.2894C637.02 16.3556 636.455 16.8685 635.302 16.8685ZM632.974 11.9699C632.202 11.9699 632.121 12.1889 632.121 12.6788V15.2894C632.121 15.785 632.202 15.9983 632.974 15.9983H635.302C636.075 15.9983 636.155 15.7793 636.155 15.2894V12.6788C636.155 12.1831 636.075 11.9699 635.302 11.9699H632.974Z" fill="white"/>
<path d="M635.302 23.4944H632.974C631.816 23.4944 631.257 22.9297 631.257 21.7771V19.4488C631.257 18.2905 631.822 17.7314 632.974 17.7314H635.302C636.461 17.7314 637.02 18.2962 637.02 19.4488V21.7771C637.02 22.9297 636.455 23.4944 635.302 23.4944ZM632.974 18.5959C632.294 18.5959 632.121 18.7688 632.121 19.4488V21.7771C632.121 22.4571 632.294 22.63 632.974 22.63H635.302C635.982 22.63 636.155 22.4571 636.155 21.7771V19.4488C636.155 18.7688 635.982 18.5959 635.302 18.5959H632.974Z" fill="white"/>
<rect x="629.723" y="150.923" width="64.9252" height="63.7862" rx="5.12567" fill="#F4F5FA" stroke="#D8DFF2" stroke-width="1.13904" stroke-dasharray="2.28 2.28"/>
<rect x="630.294" y="78.0225" width="63.773" height="62.6471" rx="6.60645" fill="white"/>
<path d="M658.82 115.422H665.541C671.141 115.422 673.382 113.181 673.382 107.581V100.86C673.382 95.2597 671.141 93.0195 665.541 93.0195H658.82C653.22 93.0195 650.979 95.2597 650.979 100.86V107.581C650.979 113.181 653.22 115.422 658.82 115.422Z" stroke="#0EA5E9" stroke-width="1.68016" stroke-linecap="round" stroke-linejoin="round"/>
<path d="M658.82 101.98C660.058 101.98 661.06 100.977 661.06 99.7402C661.06 98.503 660.058 97.5 658.82 97.5C657.583 97.5 656.58 98.503 656.58 99.7402C656.58 100.977 657.583 101.98 658.82 101.98Z" stroke="#0EA5E9" stroke-width="1.68016" stroke-linecap="round" stroke-linejoin="round"/>
<path d="M651.729 112.005L657.252 108.298C658.136 107.704 659.413 107.771 660.209 108.455L660.578 108.779C661.452 109.53 662.863 109.53 663.737 108.779L668.397 104.781C669.27 104.03 670.682 104.03 671.555 104.781L673.381 106.349" stroke="#0EA5E9" stroke-width="1.68016" stroke-linecap="round" stroke-linejoin="round"/>
<rect x="646.24" y="127.23" width="31.8799" height="1.35659" rx="0.678296" fill="#E8EDFA"/>
<rect x="650.649" y="131.3" width="23.0621" height="1.35659" rx="0.678296" fill="#E8EDFA"/>
<rect x="719.707" y="78.0225" width="63.773" height="62.6471" rx="6.60645" fill="white"/>
<path d="M748.233 115.422H754.954C760.554 115.422 762.795 113.181 762.795 107.581V100.86C762.795 95.2597 760.554 93.0195 754.954 93.0195H748.233C742.633 93.0195 740.393 95.2597 740.393 100.86V107.581C740.393 113.181 742.633 115.422 748.233 115.422Z" stroke="#0EA5E9" stroke-width="1.68016" stroke-linecap="round" stroke-linejoin="round"/>
<path d="M748.233 101.98C749.471 101.98 750.474 100.977 750.474 99.7402C750.474 98.503 749.471 97.5 748.233 97.5C746.996 97.5 745.993 98.503 745.993 99.7402C745.993 100.977 746.996 101.98 748.233 101.98Z" stroke="#0EA5E9" stroke-width="1.68016" stroke-linecap="round" stroke-linejoin="round"/>
<path d="M741.143 112.005L746.665 108.298C747.55 107.704 748.827 107.771 749.622 108.455L749.991 108.779C750.865 109.53 752.276 109.53 753.15 108.779L757.81 104.781C758.683 104.03 760.095 104.03 760.968 104.781L762.794 106.349" stroke="#0EA5E9" stroke-width="1.68016" stroke-linecap="round" stroke-linejoin="round"/>
<rect x="735.653" y="127.23" width="31.8799" height="1.35659" rx="0.678296" fill="#E8EDFA"/>
<rect x="740.062" y="131.3" width="23.0621" height="1.35659" rx="0.678296" fill="#E8EDFA"/>
<rect x="719.707" y="151.492" width="63.773" height="62.6471" rx="6.60645" fill="white"/>
<path d="M748.233 188.891H754.954C760.554 188.891 762.795 186.651 762.795 181.051V174.33C762.795 168.729 760.554 166.489 754.954 166.489H748.233C742.633 166.489 740.393 168.729 740.393 174.33V181.051C740.393 186.651 742.633 188.891 748.233 188.891Z" stroke="#0EA5E9" stroke-width="1.68016" stroke-linecap="round" stroke-linejoin="round"/>
<path d="M748.233 175.45C749.471 175.45 750.474 174.447 750.474 173.21C750.474 171.973 749.471 170.97 748.233 170.97C746.996 170.97 745.993 171.973 745.993 173.21C745.993 174.447 746.996 175.45 748.233 175.45Z" stroke="#0EA5E9" stroke-width="1.68016" stroke-linecap="round" stroke-linejoin="round"/>
<path d="M741.143 185.475L746.665 181.767C747.55 181.174 748.827 181.241 749.622 181.924L749.991 182.249C750.865 183 752.276 183 753.15 182.249L757.81 178.25C758.683 177.5 760.095 177.5 760.968 178.25L762.794 179.819" stroke="#0EA5E9" stroke-width="1.68016" stroke-linecap="round" stroke-linejoin="round"/>
<rect x="735.653" y="200.7" width="31.8799" height="1.35659" rx="0.678296" fill="#E8EDFA"/>
<rect x="740.062" y="204.77" width="23.0621" height="1.35659" rx="0.678296" fill="#E8EDFA"/>
<rect x="719.707" y="224.958" width="63.773" height="62.6471" rx="6.60645" fill="white"/>
<path d="M748.233 262.357H754.954C760.554 262.357 762.795 260.117 762.795 254.516V247.796C762.795 242.195 760.554 239.955 754.954 239.955H748.233C742.633 239.955 740.393 242.195 740.393 247.796V254.516C740.393 260.117 742.633 262.357 748.233 262.357Z" stroke="#0EA5E9" stroke-width="1.68016" stroke-linecap="round" stroke-linejoin="round"/>
<path d="M748.233 248.916C749.471 248.916 750.474 247.913 750.474 246.676C750.474 245.439 749.471 244.436 748.233 244.436C746.996 244.436 745.993 245.439 745.993 246.676C745.993 247.913 746.996 248.916 748.233 248.916Z" stroke="#0EA5E9" stroke-width="1.68016" stroke-linecap="round" stroke-linejoin="round"/>
<path d="M741.143 258.941L746.665 255.233C747.55 254.64 748.827 254.707 749.622 255.39L749.991 255.715C750.865 256.465 752.276 256.465 753.15 255.715L757.81 251.716C758.683 250.966 760.095 250.966 760.968 251.716L762.794 253.284" stroke="#0EA5E9" stroke-width="1.68016" stroke-linecap="round" stroke-linejoin="round"/>
<rect x="735.653" y="274.166" width="31.8799" height="1.35659" rx="0.678296" fill="#E8EDFA"/>
<rect x="740.062" y="278.235" width="23.0621" height="1.35659" rx="0.678296" fill="#E8EDFA"/>
<rect x="630.293" y="224.958" width="63.773" height="62.6471" rx="6.60645" fill="white"/>
<path d="M658.819 262.357H665.54C671.14 262.357 673.381 260.117 673.381 254.516V247.796C673.381 242.195 671.14 239.955 665.54 239.955H658.819C653.219 239.955 650.979 242.195 650.979 247.796V254.516C650.979 260.117 653.219 262.357 658.819 262.357Z" stroke="#0EA5E9" stroke-width="1.68016" stroke-linecap="round" stroke-linejoin="round"/>
<path d="M658.819 248.916C660.057 248.916 661.06 247.913 661.06 246.676C661.06 245.439 660.057 244.436 658.819 244.436C657.582 244.436 656.579 245.439 656.579 246.676C656.579 247.913 657.582 248.916 658.819 248.916Z" stroke="#0EA5E9" stroke-width="1.68016" stroke-linecap="round" stroke-linejoin="round"/>
<path d="M651.729 258.941L657.251 255.233C658.136 254.64 659.412 254.707 660.208 255.39L660.577 255.715C661.451 256.465 662.862 256.465 663.736 255.715L668.396 251.716C669.269 250.966 670.681 250.966 671.554 251.716L673.38 253.284" stroke="#0EA5E9" stroke-width="1.68016" stroke-linecap="round" stroke-linejoin="round"/>
<rect x="646.239" y="274.166" width="31.8799" height="1.35659" rx="0.678296" fill="#E8EDFA"/>
<rect x="650.648" y="278.235" width="23.0621" height="1.35659" rx="0.678296" fill="#E8EDFA"/>
<rect x="719.707" y="298.428" width="63.773" height="62.6471" rx="6.60645" fill="white"/>
<path d="M748.233 335.827H754.954C760.554 335.827 762.795 333.587 762.795 327.986V321.266C762.795 315.665 760.554 313.425 754.954 313.425H748.233C742.633 313.425 740.393 315.665 740.393 321.266V327.986C740.393 333.587 742.633 335.827 748.233 335.827Z" stroke="#0EA5E9" stroke-width="1.68016" stroke-linecap="round" stroke-linejoin="round"/>
<path d="M748.233 322.386C749.471 322.386 750.474 321.383 750.474 320.145C750.474 318.908 749.471 317.905 748.233 317.905C746.996 317.905 745.993 318.908 745.993 320.145C745.993 321.383 746.996 322.386 748.233 322.386Z" stroke="#0EA5E9" stroke-width="1.68016" stroke-linecap="round" stroke-linejoin="round"/>
<path d="M741.143 332.411L746.665 328.703C747.55 328.109 748.827 328.177 749.622 328.86L749.991 329.185C750.865 329.935 752.276 329.935 753.15 329.185L757.81 325.186C758.683 324.435 760.095 324.435 760.968 325.186L762.794 326.754" stroke="#0EA5E9" stroke-width="1.68016" stroke-linecap="round" stroke-linejoin="round"/>
<rect x="735.653" y="347.636" width="31.8799" height="1.35659" rx="0.678296" fill="#E8EDFA"/>
<rect x="740.062" y="351.705" width="23.0621" height="1.35659" rx="0.678296" fill="#E8EDFA"/>
</g>
<rect x="619.807" y="0.334731" width="173.391" height="371.551" rx="7.63854" stroke="white" stroke-width="0.669462"/>
<g filter="url(#filter6_dii_1030_5775)">
<rect x="615.486" y="144.658" width="63.7862" height="62.6471" rx="6.26728" fill="url(#paint5_linear_1030_5775)"/>
<path d="M644.019 178.378H650.74C656.341 178.378 658.581 176.137 658.581 170.537V163.816C658.581 158.216 656.341 155.976 650.74 155.976H644.019C638.419 155.976 636.179 158.216 636.179 163.816V170.537C636.179 176.137 638.419 178.378 644.019 178.378Z" stroke="white" stroke-width="1.68016" stroke-linecap="round" stroke-linejoin="round"/>
<path d="M644.02 164.936C645.257 164.936 646.26 163.933 646.26 162.696C646.26 161.459 645.257 160.456 644.02 160.456C642.782 160.456 641.779 161.459 641.779 162.696C641.779 163.933 642.782 164.936 644.02 164.936Z" stroke="white" stroke-width="1.68016" stroke-linecap="round" stroke-linejoin="round"/>
<path d="M636.929 174.961L642.451 171.254C643.336 170.66 644.613 170.727 645.408 171.411L645.778 171.735C646.651 172.486 648.063 172.486 648.936 171.735L653.596 167.737C654.47 166.986 655.881 166.986 656.755 167.737L658.58 169.305" stroke="white" stroke-width="1.68016" stroke-linecap="round" stroke-linejoin="round"/>
<rect x="631.439" y="189.16" width="31.8799" height="1.35659" rx="0.678296" fill="#E8EDFA"/>
<rect x="635.849" y="193.229" width="23.0621" height="1.35659" rx="0.678296" fill="#E8EDFA"/>
</g>
<defs>
<filter id="filter0_dii_1030_5775" x="78.4305" y="38.7298" width="496.051" height="88.8453" filterUnits="userSpaceOnUse" color-interpolation-filters="sRGB">
<feFlood flood-opacity="0" result="BackgroundImageFix"/>
<feColorMatrix in="SourceAlpha" type="matrix" values="0 0 0 0 0 0 0 0 0 0 0 0 0 0 0 0 0 0 127 0" result="hardAlpha"/>
<feOffset dx="1.70856" dy="3.41712"/>
<feGaussianBlur stdDeviation="1.13904"/>
<feComposite in2="hardAlpha" operator="out"/>
<feColorMatrix type="matrix" values="0 0 0 0 0.215686 0 0 0 0 0.729412 0 0 0 0 0.956863 0 0 0 0.13 0"/>
<feBlend mode="normal" in2="BackgroundImageFix" result="effect1_dropShadow_1030_5775"/>
<feBlend mode="normal" in="SourceGraphic" in2="effect1_dropShadow_1030_5775" result="shape"/>
<feColorMatrix in="SourceAlpha" type="matrix" values="0 0 0 0 0 0 0 0 0 0 0 0 0 0 0 0 0 0 127 0" result="hardAlpha"/>
<feOffset dx="-3.41712" dy="3.98664"/>
<feGaussianBlur stdDeviation="3.24626"/>
<feComposite in2="hardAlpha" operator="arithmetic" k2="-1" k3="1"/>
<feColorMatrix type="matrix" values="0 0 0 0 1 0 0 0 0 1 0 0 0 0 1 0 0 0 0.56 0"/>
<feBlend mode="normal" in2="shape" result="effect2_innerShadow_1030_5775"/>
<feColorMatrix in="SourceAlpha" type="matrix" values="0 0 0 0 0 0 0 0 0 0 0 0 0 0 0 0 0 0 127 0" result="hardAlpha"/>
<feOffset dx="1.70856" dy="-5.12567"/>
<feGaussianBlur stdDeviation="2.81912"/>
<feComposite in2="hardAlpha" operator="arithmetic" k2="-1" k3="1"/>
<feColorMatrix type="matrix" values="0 0 0 0 0 0 0 0 0 0 0 0 0 0 0 0 0 0 0.25 0"/>
<feBlend mode="normal" in2="effect2_innerShadow_1030_5775" result="effect3_innerShadow_1030_5775"/>
</filter>
<filter id="filter1_d_1030_5775" x="418.26" y="138.227" width="149.556" height="101.146" filterUnits="userSpaceOnUse" color-interpolation-filters="sRGB">
<feFlood flood-opacity="0" result="BackgroundImageFix"/>
<feColorMatrix in="SourceAlpha" type="matrix" values="0 0 0 0 0 0 0 0 0 0 0 0 0 0 0 0 0 0 127 0" result="hardAlpha"/>
<feOffset dx="-4.55616" dy="6.83423"/>
<feGaussianBlur stdDeviation="4.64158"/>
<feComposite in2="hardAlpha" operator="out"/>
<feColorMatrix type="matrix" values="0 0 0 0 0.215686 0 0 0 0 0.729412 0 0 0 0 0.956863 0 0 0 0.24 0"/>
<feBlend mode="normal" in2="BackgroundImageFix" result="effect1_dropShadow_1030_5775"/>
<feBlend mode="normal" in="SourceGraphic" in2="effect1_dropShadow_1030_5775" result="shape"/>
</filter>
<filter id="filter2_dii_1030_5775" x="501.581" y="234.646" width="64.9257" height="9.68232" filterUnits="userSpaceOnUse" color-interpolation-filters="sRGB">
<feFlood flood-opacity="0" result="BackgroundImageFix"/>
<feColorMatrix in="SourceAlpha" type="matrix" values="0 0 0 0 0 0 0 0 0 0 0 0 0 0 0 0 0 0 127 0" result="hardAlpha"/>
<feOffset dx="1.70856" dy="0.569519"/>
<feGaussianBlur stdDeviation="1.13904"/>
<feComposite in2="hardAlpha" operator="out"/>
<feColorMatrix type="matrix" values="0 0 0 0 0.215686 0 0 0 0 0.729412 0 0 0 0 0.956863 0 0 0 0.14 0"/>
<feBlend mode="normal" in2="BackgroundImageFix" result="effect1_dropShadow_1030_5775"/>
<feBlend mode="normal" in="SourceGraphic" in2="effect1_dropShadow_1030_5775" result="shape"/>
<feColorMatrix in="SourceAlpha" type="matrix" values="0 0 0 0 0 0 0 0 0 0 0 0 0 0 0 0 0 0 127 0" result="hardAlpha"/>
<feOffset dx="3.98664" dy="2.8476"/>
<feGaussianBlur stdDeviation="3.24626"/>
<feComposite in2="hardAlpha" operator="arithmetic" k2="-1" k3="1"/>
<feColorMatrix type="matrix" values="0 0 0 0 1 0 0 0 0 1 0 0 0 0 1 0 0 0 0.32 0"/>
<feBlend mode="normal" in2="shape" result="effect2_innerShadow_1030_5775"/>
<feColorMatrix in="SourceAlpha" type="matrix" values="0 0 0 0 0 0 0 0 0 0 0 0 0 0 0 0 0 0 127 0" result="hardAlpha"/>
<feOffset dx="-1.70856" dy="-2.27808"/>
<feGaussianBlur stdDeviation="2.81912"/>
<feComposite in2="hardAlpha" operator="arithmetic" k2="-1" k3="1"/>
<feColorMatrix type="matrix" values="0 0 0 0 0 0 0 0 0 0 0 0 0 0 0 0 0 0 0.07 0"/>
<feBlend mode="normal" in2="effect2_innerShadow_1030_5775" result="effect3_innerShadow_1030_5775"/>
</filter>
<filter id="filter3_dii_1030_5775" x="430.391" y="246.036" width="136.115" height="9.68232" filterUnits="userSpaceOnUse" color-interpolation-filters="sRGB">
<feFlood flood-opacity="0" result="BackgroundImageFix"/>
<feColorMatrix in="SourceAlpha" type="matrix" values="0 0 0 0 0 0 0 0 0 0 0 0 0 0 0 0 0 0 127 0" result="hardAlpha"/>
<feOffset dx="1.70856" dy="0.569519"/>
<feGaussianBlur stdDeviation="1.13904"/>
<feComposite in2="hardAlpha" operator="out"/>
<feColorMatrix type="matrix" values="0 0 0 0 0.215686 0 0 0 0 0.729412 0 0 0 0 0.956863 0 0 0 0.14 0"/>
<feBlend mode="normal" in2="BackgroundImageFix" result="effect1_dropShadow_1030_5775"/>
<feBlend mode="normal" in="SourceGraphic" in2="effect1_dropShadow_1030_5775" result="shape"/>
<feColorMatrix in="SourceAlpha" type="matrix" values="0 0 0 0 0 0 0 0 0 0 0 0 0 0 0 0 0 0 127 0" result="hardAlpha"/>
<feOffset dx="3.98664" dy="2.8476"/>
<feGaussianBlur stdDeviation="3.24626"/>
<feComposite in2="hardAlpha" operator="arithmetic" k2="-1" k3="1"/>
<feColorMatrix type="matrix" values="0 0 0 0 1 0 0 0 0 1 0 0 0 0 1 0 0 0 0.32 0"/>
<feBlend mode="normal" in2="shape" result="effect2_innerShadow_1030_5775"/>
<feColorMatrix in="SourceAlpha" type="matrix" values="0 0 0 0 0 0 0 0 0 0 0 0 0 0 0 0 0 0 127 0" result="hardAlpha"/>
<feOffset dx="-1.70856" dy="-2.27808"/>
<feGaussianBlur stdDeviation="2.81912"/>
<feComposite in2="hardAlpha" operator="arithmetic" k2="-1" k3="1"/>
<feColorMatrix type="matrix" values="0 0 0 0 0 0 0 0 0 0 0 0 0 0 0 0 0 0 0.07 0"/>
<feBlend mode="normal" in2="effect2_innerShadow_1030_5775" result="effect3_innerShadow_1030_5775"/>
</filter>
<filter id="filter4_dii_1030_5775" x="460.576" y="257.427" width="105.931" height="9.68232" filterUnits="userSpaceOnUse" color-interpolation-filters="sRGB">
<feFlood flood-opacity="0" result="BackgroundImageFix"/>
<feColorMatrix in="SourceAlpha" type="matrix" values="0 0 0 0 0 0 0 0 0 0 0 0 0 0 0 0 0 0 127 0" result="hardAlpha"/>
<feOffset dx="1.70856" dy="0.569519"/>
<feGaussianBlur stdDeviation="1.13904"/>
<feComposite in2="hardAlpha" operator="out"/>
<feColorMatrix type="matrix" values="0 0 0 0 0.215686 0 0 0 0 0.729412 0 0 0 0 0.956863 0 0 0 0.14 0"/>
<feBlend mode="normal" in2="BackgroundImageFix" result="effect1_dropShadow_1030_5775"/>
<feBlend mode="normal" in="SourceGraphic" in2="effect1_dropShadow_1030_5775" result="shape"/>
<feColorMatrix in="SourceAlpha" type="matrix" values="0 0 0 0 0 0 0 0 0 0 0 0 0 0 0 0 0 0 127 0" result="hardAlpha"/>
<feOffset dx="3.98664" dy="2.8476"/>
<feGaussianBlur stdDeviation="3.24626"/>
<feComposite in2="hardAlpha" operator="arithmetic" k2="-1" k3="1"/>
<feColorMatrix type="matrix" values="0 0 0 0 1 0 0 0 0 1 0 0 0 0 1 0 0 0 0.32 0"/>
<feBlend mode="normal" in2="shape" result="effect2_innerShadow_1030_5775"/>
<feColorMatrix in="SourceAlpha" type="matrix" values="0 0 0 0 0 0 0 0 0 0 0 0 0 0 0 0 0 0 127 0" result="hardAlpha"/>
<feOffset dx="-1.70856" dy="-2.27808"/>
<feGaussianBlur stdDeviation="2.81912"/>
<feComposite in2="hardAlpha" operator="arithmetic" k2="-1" k3="1"/>
<feColorMatrix type="matrix" values="0 0 0 0 0 0 0 0 0 0 0 0 0 0 0 0 0 0 0.07 0"/>
<feBlend mode="normal" in2="effect2_innerShadow_1030_5775" result="effect3_innerShadow_1030_5775"/>
</filter>
<filter id="filter5_d_1030_5775" x="0.151711" y="162.694" width="262.485" height="151.746" filterUnits="userSpaceOnUse" color-interpolation-filters="sRGB">
<feFlood flood-opacity="0" result="BackgroundImageFix"/>
<feColorMatrix in="SourceAlpha" type="matrix" values="0 0 0 0 0 0 0 0 0 0 0 0 0 0 0 0 0 0 127 0" result="hardAlpha"/>
<feOffset dx="-6.96079" dy="10.7576"/>
<feGaussianBlur stdDeviation="9.46035"/>
<feComposite in2="hardAlpha" operator="out"/>
<feColorMatrix type="matrix" values="0 0 0 0 0.0318359 0 0 0 0 0.0318359 0 0 0 0 0.0318359 0 0 0 0.24 0"/>
<feBlend mode="normal" in2="BackgroundImageFix" result="effect1_dropShadow_1030_5775"/>
<feBlend mode="normal" in="SourceGraphic" in2="effect1_dropShadow_1030_5775" result="shape"/>
</filter>
<filter id="filter6_dii_1030_5775" x="613.778" y="142.38" width="69.4813" height="70.6207" filterUnits="userSpaceOnUse" color-interpolation-filters="sRGB">
<feFlood flood-opacity="0" result="BackgroundImageFix"/>
<feColorMatrix in="SourceAlpha" type="matrix" values="0 0 0 0 0 0 0 0 0 0 0 0 0 0 0 0 0 0 127 0" result="hardAlpha"/>
<feOffset dx="1.70856" dy="3.41712"/>
<feGaussianBlur stdDeviation="1.13904"/>
<feComposite in2="hardAlpha" operator="out"/>
<feColorMatrix type="matrix" values="0 0 0 0 0.215686 0 0 0 0 0.729412 0 0 0 0 0.956863 0 0 0 0.13 0"/>
<feBlend mode="normal" in2="BackgroundImageFix" result="effect1_dropShadow_1030_5775"/>
<feBlend mode="normal" in="SourceGraphic" in2="effect1_dropShadow_1030_5775" result="shape"/>
<feColorMatrix in="SourceAlpha" type="matrix" values="0 0 0 0 0 0 0 0 0 0 0 0 0 0 0 0 0 0 127 0" result="hardAlpha"/>
<feOffset dx="3.98664" dy="2.8476"/>
<feGaussianBlur stdDeviation="3.24626"/>
<feComposite in2="hardAlpha" operator="arithmetic" k2="-1" k3="1"/>
<feColorMatrix type="matrix" values="0 0 0 0 1 0 0 0 0 1 0 0 0 0 1 0 0 0 0.56 0"/>
<feBlend mode="normal" in2="shape" result="effect2_innerShadow_1030_5775"/>
<feColorMatrix in="SourceAlpha" type="matrix" values="0 0 0 0 0 0 0 0 0 0 0 0 0 0 0 0 0 0 127 0" result="hardAlpha"/>
<feOffset dx="-1.70856" dy="-2.27808"/>
<feGaussianBlur stdDeviation="2.81912"/>
<feComposite in2="hardAlpha" operator="arithmetic" k2="-1" k3="1"/>
<feColorMatrix type="matrix" values="0 0 0 0 0 0 0 0 0 0 0 0 0 0 0 0 0 0 0.25 0"/>
<feBlend mode="normal" in2="effect2_innerShadow_1030_5775" result="effect3_innerShadow_1030_5775"/>
</filter>
<linearGradient id="paint0_linear_1030_5775" x1="470.148" y1="100.246" x2="452.543" y2="0.17253" gradientUnits="userSpaceOnUse">
<stop stop-color="#2FB8F5"/>
<stop offset="1" stop-color="#38BDF8"/>
</linearGradient>
<linearGradient id="paint1_linear_1030_5775" x1="550.356" y1="240.217" x2="549.849" y2="234.235" gradientUnits="userSpaceOnUse">
<stop stop-color="#34C0FF"/>
<stop offset="1" stop-color="#76D4FD"/>
</linearGradient>
<linearGradient id="paint2_linear_1030_5775" x1="535.737" y1="251.607" x2="535.505" y2="245.592" gradientUnits="userSpaceOnUse">
<stop stop-color="#34C0FF"/>
<stop offset="1" stop-color="#76D4FD"/>
</linearGradient>
<linearGradient id="paint3_linear_1030_5775" x1="541.936" y1="262.998" x2="541.635" y2="256.988" gradientUnits="userSpaceOnUse">
<stop stop-color="#34C0FF"/>
<stop offset="1" stop-color="#76D4FD"/>
</linearGradient>
<linearGradient id="paint4_linear_1030_5775" x1="232.769" y1="227.753" x2="136.892" y2="183.69" gradientUnits="userSpaceOnUse">
<stop stop-color="#38BDF8"/>
<stop offset="1" stop-color="#1362FF"/>
</linearGradient>
<linearGradient id="paint5_linear_1030_5775" x1="666.174" y1="189.935" x2="624.883" y2="151.777" gradientUnits="userSpaceOnUse">
<stop stop-color="#2FB8F5"/>
<stop offset="1" stop-color="#38BDF8"/>
</linearGradient>
<clipPath id="clip0_1030_5775">
<rect x="619.473" width="174.06" height="372.221" rx="7.97327" fill="white"/>
</clipPath>
</defs>
</svg>
