<svg width="69" height="69" viewBox="0 0 69 69" fill="none" xmlns="http://www.w3.org/2000/svg">
<path d="M66.9914 31.098L37.1676 1.29195C36.7597 0.882458 36.275 0.557538 35.7413 0.335832C35.2075 0.114127 34.6352 0 34.0573 0C33.4793 0 32.907 0.114127 32.3733 0.335832C31.8395 0.557538 31.3548 0.882458 30.9469 1.29195L24.7618 7.49488L32.6176 15.333C33.5442 15.0192 34.5402 14.9718 35.4923 15.1962C36.4444 15.4206 37.3145 15.9078 38.0034 16.6022C38.6923 17.2967 39.1724 18.1706 39.3892 19.1245C39.6059 20.0784 39.5505 21.074 39.2293 21.998L46.783 29.5517C47.9126 29.1621 49.1416 29.1714 50.2651 29.5781C51.3887 29.9847 52.3389 30.7642 52.9575 31.7864C53.576 32.8087 53.8256 34.0121 53.6645 35.1961C53.5033 36.3801 52.9413 37.473 52.0721 38.2929C51.2029 39.1127 50.0789 39.6099 48.8876 39.7016C47.6962 39.7932 46.5095 39.4738 45.5251 38.7966C44.5407 38.1193 43.8181 37.1252 43.4778 35.9798C43.1375 34.8344 43.2 33.607 43.6549 32.5021L36.5989 25.4461V44.0193C37.6685 44.5514 38.5234 45.434 39.0213 46.52C39.5192 47.606 39.6299 48.8298 39.335 49.9875C39.0401 51.1452 38.3574 52.1669 37.4007 52.8824C36.444 53.5978 35.271 53.9639 34.0771 53.9195C32.8833 53.8751 31.7407 53.4229 30.8397 52.6384C29.9388 51.8538 29.3339 50.7842 29.1258 49.6078C28.9177 48.4314 29.119 47.2192 29.6962 46.1732C30.2734 45.1272 31.1915 44.3106 32.2977 43.8593V25.1261C31.6583 24.8652 31.077 24.4801 30.5873 23.9931C30.0976 23.5061 29.7094 22.9269 29.4449 22.289C29.1805 21.651 29.0451 20.967 29.0467 20.2764C29.0482 19.5858 29.1867 18.9023 29.454 18.2656L21.7225 10.5341L1.28305 30.9736C0.461449 31.7967 0 32.9121 0 34.0751C0 35.238 0.461449 36.3535 1.28305 37.1765L31.1247 66.9826C31.5325 67.3921 32.0173 67.717 32.551 67.9387C33.0848 68.1604 33.657 68.2745 34.235 68.2745C34.813 68.2745 35.3853 68.1604 35.919 67.9387C36.4528 67.717 36.9375 67.3921 37.3454 66.9826L67.0092 37.3009C67.8308 36.4779 68.2923 35.3624 68.2923 34.1995C68.2923 33.0365 67.8308 31.9211 67.0092 31.098" fill="#F05133"/>
</svg>
