<svg width="69" height="69" viewBox="0 0 69 69" fill="none" xmlns="http://www.w3.org/2000/svg">
<path d="M67.4221 31.098L37.5983 1.29195C37.1904 0.882458 36.7057 0.557538 36.1719 0.335832C35.6382 0.114127 35.0659 0 34.4879 0C33.91 0 33.3377 0.114127 32.8039 0.335832C32.2702 0.557538 31.7855 0.882458 31.3776 1.29195L25.1924 7.49488L33.0483 15.333C33.9748 15.0192 34.9708 14.9718 35.923 15.1962C36.8751 15.4206 37.7451 15.9078 38.434 16.6022C39.123 17.2967 39.6031 18.1706 39.8198 19.1245C40.0366 20.0784 39.9812 21.074 39.66 21.998L47.2137 29.5517C48.3433 29.1621 49.5723 29.1714 50.6958 29.5781C51.8193 29.9847 52.7696 30.7642 53.3881 31.7864C54.0067 32.8087 54.2562 34.0121 54.0951 35.1961C53.934 36.3801 53.372 37.473 52.5028 38.2929C51.6335 39.1127 50.5096 39.6099 49.3182 39.7016C48.1269 39.7932 46.9401 39.4738 45.9557 38.7966C44.9713 38.1193 44.2488 37.1252 43.9085 35.9798C43.5682 34.8344 43.6307 33.607 44.0856 32.5021L37.0295 25.4461V44.0193C38.0991 44.5514 38.9541 45.434 39.452 46.52C39.9499 47.606 40.0606 48.8298 39.7657 49.9875C39.4708 51.1452 38.7881 52.1669 37.8314 52.8824C36.8746 53.5978 35.7016 53.9639 34.5078 53.9195C33.3139 53.8751 32.1714 53.4229 31.2704 52.6384C30.3695 51.8538 29.7645 50.7842 29.5565 49.6078C29.3484 48.4314 29.5497 47.2192 30.1269 46.1732C30.704 45.1272 31.6222 44.3106 32.7284 43.8593V25.1261C32.089 24.8652 31.5076 24.4801 31.018 23.9931C30.5283 23.5061 30.14 22.9269 29.8756 22.289C29.6112 21.651 29.4758 20.967 29.4773 20.2764C29.4789 19.5858 29.6173 18.9023 29.8846 18.2656L22.1532 10.5341L1.71372 30.9736C0.892113 31.7967 0.430664 32.9121 0.430664 34.0751C0.430664 35.238 0.892113 36.3535 1.71372 37.1765L31.5553 66.9826C31.9632 67.3921 32.4479 67.717 32.9817 67.9387C33.5154 68.1604 34.0877 68.2745 34.6657 68.2745C35.2436 68.2745 35.8159 68.1604 36.3497 67.9387C36.8834 67.717 37.3681 67.3921 37.776 66.9826L67.4399 37.3009C68.2615 36.4779 68.7229 35.3624 68.7229 34.1995C68.7229 33.0365 68.2615 31.9211 67.4399 31.098" fill="#BDBDBD"/>
</svg>
