<svg width="73" height="81" viewBox="0 0 73 81" fill="none" xmlns="http://www.w3.org/2000/svg">
<g clip-path="url(#clip0_422_3459)">
<path d="M29.3025 73.6169C29.2673 73.0652 29.3268 72.5116 29.4785 71.98C29.5849 71.6444 29.4785 71.493 29.1961 71.3293C27.1254 70.1467 25.0629 68.9476 23.0004 67.7567C19.7756 65.8947 16.5468 64.0409 13.3302 62.1667C13.2867 62.1289 13.2356 62.1007 13.1805 62.0841C13.1253 62.0674 13.0672 62.0626 13.01 62.0699C12.9528 62.0772 12.8978 62.0966 12.8486 62.1267C12.7995 62.1567 12.7572 62.1969 12.7246 62.2444C10.617 64.1514 8.16575 64.6998 5.48939 63.8159C2.81302 62.9319 1.18837 60.9758 0.705482 58.1726C0.421284 56.4549 0.774343 54.6927 1.69828 53.2171C2.62221 51.7415 4.05336 50.6543 5.72265 50.1598C5.78088 50.1558 5.83758 50.1393 5.88892 50.1116C5.94027 50.0838 5.98509 50.0454 6.02036 49.9989C6.05563 49.9524 6.08055 49.8988 6.09343 49.8419C6.10631 49.785 6.10686 49.7259 6.09505 49.6688C6.09505 43.5439 6.09505 37.4178 6.09505 31.2902C6.09505 31.0079 6.03366 30.881 5.73492 30.7869C4.19124 30.3332 2.84476 29.374 1.9116 28.0633C0.978432 26.7525 0.512705 25.1663 0.589169 23.5591C0.665632 21.952 1.27985 20.4171 2.33324 19.2009C3.38663 17.9847 4.81809 17.1577 6.39788 16.8526C7.519 16.614 8.68169 16.6562 9.78259 16.9753C10.8835 17.2945 11.8885 17.8807 12.7082 18.6818C12.7443 18.7304 12.7899 18.7712 12.8423 18.8016C12.8946 18.832 12.9526 18.8515 13.0127 18.8587C13.0729 18.866 13.1338 18.861 13.1919 18.8439C13.25 18.8269 13.304 18.7982 13.3507 18.7596C18.6516 15.6904 23.9511 12.6307 29.2493 9.58055C29.3058 9.56223 29.3576 9.53186 29.4011 9.49152C29.4447 9.45119 29.4789 9.40186 29.5015 9.34696C29.5241 9.29207 29.5344 9.23292 29.5319 9.17362C29.5293 9.11431 29.5139 9.05628 29.4867 9.00353C29.26 8.0638 29.2254 7.08798 29.3849 6.13455C29.5444 5.18112 29.8948 4.2697 30.415 3.45492C30.9352 2.64013 31.6145 1.93875 32.4123 1.39279C33.21 0.846831 34.1098 0.467538 35.0576 0.277638C36.0054 0.0877379 36.9819 0.0911399 37.9284 0.28764C38.8749 0.48414 39.772 0.869694 40.5659 1.4212C41.3598 1.9727 42.0342 2.6788 42.5487 3.4972C43.0632 4.31559 43.4072 5.22942 43.5601 6.18394C43.7094 7.13751 43.6676 8.11124 43.4373 9.04855C43.38 9.2859 43.4046 9.40049 43.6256 9.52735C48.9619 12.6048 54.2956 15.6849 59.6265 18.7678C59.7084 18.8299 59.8107 18.859 59.9131 18.8491C60.0155 18.8393 60.1104 18.7912 60.1789 18.7146C62.2537 16.7994 64.6805 16.2019 67.3568 17.0572C70.0332 17.9125 71.6701 19.8318 72.2308 22.59C72.5571 24.3311 72.2265 26.1315 71.3029 27.6431C70.3793 29.1547 68.9282 30.2704 67.23 30.7746C67.168 30.7795 67.1078 30.7971 67.053 30.8264C66.9982 30.8557 66.95 30.8961 66.9116 30.9449C66.8732 30.9937 66.8452 31.0499 66.8296 31.1101C66.814 31.1702 66.811 31.233 66.8207 31.2943C66.8207 37.4082 66.8207 43.5221 66.8207 49.636C66.8103 49.6961 66.812 49.7576 66.8258 49.817C66.8396 49.8763 66.8652 49.9323 66.9011 49.9816C66.937 50.0308 66.9825 50.0723 67.0347 50.1037C67.087 50.135 67.1451 50.1555 67.2054 50.1639C68.7667 50.6301 70.1225 51.6142 71.0497 52.9541C71.9769 54.2939 72.42 55.9096 72.3061 57.535C72.1922 59.1604 71.5281 60.6985 70.4232 61.896C69.3182 63.0934 67.8384 63.8788 66.2274 64.1228C65.1041 64.3164 63.9506 64.231 62.8681 63.8742C61.7856 63.5174 60.8073 62.9001 60.0193 62.0766C59.9871 62.0288 59.945 61.9883 59.896 61.9578C59.847 61.9274 59.7921 61.9076 59.7349 61.8999C59.6777 61.8922 59.6195 61.8966 59.5641 61.913C59.5088 61.9293 59.4575 61.9572 59.4137 61.9948C54.1564 65.0422 48.8924 68.0828 43.6215 71.1165C43.5628 71.1332 43.5086 71.1628 43.4629 71.2031C43.4171 71.2434 43.381 71.2935 43.357 71.3496C43.3331 71.4057 43.322 71.4664 43.3246 71.5273C43.3271 71.5882 43.3433 71.6478 43.3718 71.7017C43.6283 72.6341 43.694 73.6086 43.565 74.5669C43.4359 75.5252 43.1148 76.4476 42.6208 77.2789C42.1268 78.1101 41.4702 78.8331 40.6902 79.4046C39.9101 79.9761 39.0228 80.3843 38.0813 80.6047C37.1398 80.8251 36.1635 80.8533 35.2108 80.6875C34.2582 80.5216 33.3488 80.1653 32.5372 79.6397C31.7255 79.1141 31.0283 78.4301 30.4873 77.6287C29.9462 76.8272 29.5725 75.9249 29.3884 74.9756C29.3046 74.5279 29.2757 74.0716 29.3025 73.6169ZM36.4436 55.3448H57.7522C58.0264 55.3448 58.1614 55.2998 58.2596 54.9969C58.5462 53.9301 59.0981 52.9531 59.8638 52.1569C59.92 52.1149 59.9671 52.0618 60.0021 52.0009C60.0371 51.9401 60.0593 51.8727 60.0673 51.803C60.0754 51.7333 60.0691 51.6626 60.0489 51.5954C60.0287 51.5282 59.9949 51.4658 59.9498 51.4121C54.698 42.3435 49.4544 33.2668 44.2189 24.1819C42.3692 20.9817 40.5222 17.7802 38.678 14.5773C38.5429 14.3399 38.4365 14.2376 38.1255 14.3153C37.0439 14.5957 35.9087 14.5957 34.8271 14.3153C34.5243 14.2376 34.4179 14.3153 34.2747 14.5732C27.1813 26.891 20.0703 39.2047 12.9415 51.5144C12.9066 51.557 12.8808 51.6061 12.8654 51.659C12.85 51.7118 12.8454 51.7672 12.8519 51.8218C12.8584 51.8764 12.8758 51.9292 12.9032 51.9769C12.9305 52.0246 12.9672 52.0664 13.011 52.0996C13.801 52.8958 14.3719 53.8825 14.6684 54.9642C14.7585 55.2957 14.9058 55.3734 15.2209 55.3734C22.2978 55.3516 29.3721 55.3421 36.4436 55.3448ZM36.5131 58.7496H14.9262C14.8862 58.7449 14.8459 58.7559 14.8138 58.7803C14.7818 58.8048 14.7605 58.8407 14.7544 58.8805C14.7398 58.9182 14.7384 58.9597 14.7503 58.9983C14.7621 59.0369 14.7866 59.0703 14.8198 59.0933C14.8976 59.1465 14.9753 59.1915 15.0572 59.2407C20.3444 62.3072 25.6303 65.3614 30.9149 68.4033C30.9631 68.4452 31.0193 68.4768 31.0801 68.4962C31.1409 68.5157 31.205 68.5226 31.2686 68.5164C31.3321 68.5103 31.3938 68.4913 31.4498 68.4606C31.5057 68.4299 31.5549 68.3881 31.5942 68.3379C32.9383 67.09 34.7098 66.4051 36.5438 66.4241C38.3777 66.4432 40.1346 67.1647 41.4526 68.4402C41.496 68.4998 41.5515 68.5496 41.6155 68.5863C41.6795 68.623 41.7505 68.6457 41.8239 68.6531C41.8973 68.6604 41.9714 68.6522 42.0414 68.6289C42.1114 68.6056 42.1757 68.5678 42.2301 68.5179C45.1793 66.8046 48.1339 65.0967 51.094 63.3943C53.4021 62.0603 55.7101 60.7275 58.0182 59.3962C58.2596 59.257 58.3006 59.1261 58.1983 58.8887C58.096 58.6514 57.8954 58.7537 57.744 58.7537C50.6698 58.7455 43.5942 58.7441 36.5172 58.7496H36.5131ZM9.50393 40.4734C9.50393 43.5017 9.50393 46.53 9.50393 49.5583C9.50393 49.7383 9.37298 50.0043 9.63489 50.0862C9.8968 50.168 9.92544 49.8611 10.0155 49.7138C10.7071 48.5352 11.3864 47.3525 12.0616 46.1698L31.2955 12.8421C31.3568 12.7316 31.5287 12.6211 31.3855 12.4574C31.2423 12.2937 31.0908 12.4574 30.9763 12.5147L26.7284 14.9701C22.838 17.2291 18.9271 19.4867 14.9958 21.7429C14.9454 21.7623 14.8994 21.7916 14.8604 21.8289C14.8214 21.8662 14.7901 21.9109 14.7684 21.9603C14.7467 22.0098 14.7351 22.063 14.734 22.117C14.733 22.171 14.7427 22.2247 14.7625 22.2749C14.9277 22.8559 14.9982 23.4598 14.9713 24.0632C14.9419 25.5752 14.433 27.0387 13.518 28.2427C12.603 29.4468 11.3293 30.329 9.88043 30.7623C9.82338 30.7713 9.76866 30.7914 9.71943 30.8216C9.67021 30.8518 9.62743 30.8914 9.59358 30.9382C9.55973 30.985 9.53547 31.038 9.52219 31.0942C9.50891 31.1504 9.50688 31.2087 9.51621 31.2657C9.52849 34.3349 9.5244 37.4041 9.5244 40.4734H9.50393ZM58.1983 22.1276C58.2842 21.8493 58.0632 21.8329 57.9445 21.7633C53.694 19.308 49.4394 16.8526 45.1806 14.3972L41.8741 12.4902C41.7636 12.4247 41.649 12.3183 41.5221 12.4656C41.3953 12.6129 41.5221 12.6825 41.5835 12.7848C41.6068 12.8334 41.6342 12.88 41.6654 12.924C48.0057 23.9268 54.3583 34.9296 60.7232 45.9325C61.4817 47.2475 62.2401 48.557 62.9985 49.8611C63.0599 49.9675 63.0763 50.1435 63.2686 50.0985C63.461 50.0534 63.4078 49.8734 63.42 49.7342C63.4221 49.6947 63.4221 49.6551 63.42 49.6156C63.42 43.518 63.42 37.4191 63.42 31.3189C63.431 31.2526 63.4285 31.1848 63.4127 31.1195C63.3969 31.0542 63.3681 30.9928 63.3279 30.939C63.2878 30.8851 63.2372 30.8399 63.1792 30.806C63.1212 30.7721 63.057 30.7503 62.9903 30.7419C61.6312 30.3225 60.4289 29.5053 59.539 28.3957C58.649 27.2862 58.1121 25.9352 57.9977 24.5175C57.9395 23.7152 58.0072 22.9089 58.1983 22.1276Z" fill="#BDBDBD"/>
</g>
<defs>
<clipPath id="clip0_422_3459">
<rect width="72" height="80.8598" fill="white" transform="translate(0.430664)"/>
</clipPath>
</defs>
</svg>
