<svg width="72" height="81" viewBox="0 0 72 81" fill="none" xmlns="http://www.w3.org/2000/svg">
<g clip-path="url(#clip0_1444_4746)">
<path d="M28.8718 73.6169C28.8366 73.0652 28.8961 72.5116 29.0478 71.98C29.1542 71.6444 29.0478 71.493 28.7654 71.3293C26.6947 70.1466 24.6322 68.9476 22.5697 67.7567C19.345 65.8947 16.1161 64.0409 12.8996 62.1667C12.856 62.1289 12.805 62.1007 12.7498 62.0841C12.6946 62.0674 12.6365 62.0626 12.5793 62.0699C12.5222 62.0772 12.4672 62.0966 12.418 62.1267C12.3688 62.1567 12.3265 62.1969 12.2939 62.2444C10.1864 64.1514 7.73509 64.6998 5.05872 63.8159C2.38235 62.9319 0.757709 60.9758 0.274818 58.1726C-0.00938045 56.4549 0.343679 54.6927 1.26761 53.2171C2.19154 51.7415 3.6227 50.6543 5.29198 50.1598C5.35022 50.1558 5.40691 50.1393 5.45826 50.1116C5.50961 50.0838 5.55443 50.0454 5.5897 49.9989C5.62497 49.9524 5.64988 49.8988 5.66276 49.8419C5.67565 49.785 5.6762 49.7259 5.66438 49.6688C5.66438 43.5439 5.66438 37.4178 5.66438 31.2902C5.66438 31.0079 5.603 30.881 5.30426 30.7869C3.76058 30.3332 2.4141 29.374 1.48093 28.0633C0.547767 26.7525 0.0820409 25.1663 0.158505 23.5591C0.234968 21.952 0.849188 20.4171 1.90258 19.2009C2.95596 17.9847 4.38743 17.1577 5.96721 16.8526C7.08834 16.614 8.25103 16.6562 9.35192 16.9753C10.4528 17.2945 11.4578 17.8807 12.2775 18.6818C12.3136 18.7304 12.3593 18.7712 12.4116 18.8016C12.464 18.832 12.522 18.8515 12.5821 18.8587C12.6422 18.866 12.7032 18.861 12.7613 18.8439C12.8194 18.8269 12.8734 18.7982 12.92 18.7596C18.2209 15.6904 23.5205 12.6307 28.8186 9.58055C28.8751 9.56223 28.9269 9.53186 28.9704 9.49152C29.014 9.45119 29.0483 9.40186 29.0708 9.34696C29.0934 9.29207 29.1038 9.23292 29.1012 9.17362C29.0987 9.11431 29.0832 9.05628 29.056 9.00353C28.8293 8.0638 28.7948 7.08798 28.9543 6.13455C29.1138 5.18112 29.4641 4.2697 29.9843 3.45492C30.5045 2.64013 31.1838 1.93875 31.9816 1.39279C32.7793 0.846831 33.6791 0.467538 34.6269 0.277638C35.5748 0.0877379 36.5512 0.0911399 37.4977 0.28764C38.4442 0.48414 39.3413 0.869694 40.1352 1.4212C40.9291 1.9727 41.6036 2.6788 42.1181 3.4972C42.6326 4.31559 42.9766 5.22942 43.1294 6.18394C43.2787 7.13751 43.237 8.11124 43.0067 9.04855C42.9494 9.2859 42.9739 9.40049 43.1949 9.52735C48.5313 12.6048 53.8649 15.6849 59.1958 18.7678C59.2777 18.8299 59.3801 18.859 59.4824 18.8491C59.5848 18.8393 59.6797 18.7912 59.7483 18.7146C61.8231 16.7994 64.2498 16.2019 66.9262 17.0572C69.6025 17.9125 71.2395 19.8318 71.8001 22.59C72.1264 24.3311 71.7959 26.1315 70.8722 27.6431C69.9486 29.1547 68.4975 30.2704 66.7993 30.7746C66.7374 30.7795 66.6771 30.7971 66.6223 30.8264C66.5675 30.8557 66.5194 30.8961 66.4809 30.9449C66.4425 30.9937 66.4146 31.0499 66.3989 31.1101C66.3833 31.1702 66.3803 31.233 66.3901 31.2943C66.3901 37.4082 66.3901 43.5221 66.3901 49.636C66.3796 49.6961 66.3813 49.7576 66.3951 49.817C66.409 49.8763 66.4346 49.9323 66.4705 49.9816C66.5064 50.0308 66.5518 50.0724 66.6041 50.1037C66.6563 50.135 66.7144 50.1555 66.7748 50.1639C68.336 50.6301 69.6919 51.6142 70.619 52.9541C71.5462 54.2939 71.9893 55.9096 71.8754 57.535C71.7615 59.1604 71.0974 60.6985 69.9925 61.896C68.8876 63.0934 67.4077 63.8788 65.7967 64.1228C64.6735 64.3164 63.5199 64.231 62.4374 63.8742C61.3549 63.5174 60.3767 62.9001 59.5887 62.0766C59.5564 62.0288 59.5144 61.9883 59.4653 61.9578C59.4163 61.9274 59.3614 61.9076 59.3042 61.8999C59.247 61.8922 59.1888 61.8966 59.1335 61.913C59.0781 61.9293 59.0268 61.9572 58.983 61.9948C53.7258 65.0422 48.4617 68.0828 43.1908 71.1165C43.1322 71.1332 43.078 71.1628 43.0322 71.2031C42.9865 71.2434 42.9503 71.2935 42.9264 71.3496C42.9024 71.4057 42.8914 71.4664 42.8939 71.5273C42.8965 71.5883 42.9126 71.6478 42.9412 71.7017C43.1977 72.6341 43.2634 73.6086 43.1343 74.5669C43.0053 75.5252 42.6841 76.4476 42.1901 77.2789C41.6962 78.1101 41.0395 78.8331 40.2595 79.4046C39.4795 79.9761 38.5921 80.3843 37.6506 80.6047C36.7091 80.8251 35.7328 80.8533 34.7802 80.6875C33.8275 80.5216 32.9182 80.1653 32.1065 79.6397C31.2949 79.1141 30.5976 78.4301 30.0566 77.6287C29.5156 76.8272 29.1418 75.9249 28.9578 74.9756C28.8739 74.5279 28.845 74.0716 28.8718 73.6169ZM36.0129 55.3448H57.3215C57.5957 55.3448 57.7308 55.2998 57.829 54.9969C58.1156 53.9301 58.6674 52.9531 59.4332 52.1569C59.4894 52.1149 59.5364 52.0618 59.5714 52.0009C59.6064 51.9401 59.6286 51.8727 59.6367 51.803C59.6447 51.7333 59.6384 51.6626 59.6182 51.5954C59.598 51.5282 59.5643 51.4658 59.5191 51.4121C54.2673 42.3435 49.0237 33.2668 43.7883 24.1819C41.9386 20.9817 40.0916 17.7802 38.2473 14.5773C38.1123 14.3399 38.0059 14.2376 37.6948 14.3153C36.6133 14.5957 35.478 14.5957 34.3964 14.3153C34.0936 14.2376 33.9872 14.3153 33.844 14.5732C26.7507 26.891 19.6396 39.2047 12.5108 51.5144C12.476 51.557 12.4501 51.6061 12.4347 51.659C12.4193 51.7118 12.4147 51.7671 12.4212 51.8218C12.4277 51.8764 12.4452 51.9292 12.4725 51.9769C12.4998 52.0246 12.5365 52.0664 12.5804 52.0996C13.3704 52.8958 13.9413 53.8825 14.2378 54.9642C14.3278 55.2957 14.4751 55.3734 14.7902 55.3734C21.8672 55.3516 28.9414 55.3421 36.0129 55.3448ZM36.0825 58.7496H14.4956C14.4555 58.7449 14.4152 58.7559 14.3832 58.7803C14.3511 58.8048 14.3298 58.8407 14.3237 58.8805C14.3092 58.9182 14.3077 58.9597 14.3196 58.9983C14.3315 59.0369 14.356 59.0703 14.3892 59.0933C14.4669 59.1465 14.5447 59.1915 14.6265 59.2407C19.9138 62.3072 25.1997 65.3614 30.4842 68.4033C30.5324 68.4452 30.5886 68.4768 30.6494 68.4962C30.7102 68.5157 30.7744 68.5226 30.8379 68.5164C30.9015 68.5103 30.9631 68.4913 31.0191 68.4606C31.0751 68.4299 31.1242 68.3881 31.1635 68.3379C32.5077 67.09 34.2791 66.4051 36.1131 66.4241C37.9471 66.4432 39.7039 67.1647 41.0219 68.4402C41.0653 68.4998 41.1208 68.5496 41.1848 68.5863C41.2488 68.623 41.3198 68.6457 41.3933 68.6531C41.4667 68.6604 41.5408 68.6522 41.6108 68.6289C41.6808 68.6056 41.7451 68.5678 41.7994 68.5179C44.7486 66.8046 47.7033 65.0967 50.6634 63.3943C52.9714 62.0603 55.2795 60.7275 57.5875 59.3962C57.829 59.257 57.8699 59.1261 57.7676 58.8887C57.6653 58.6514 57.4648 58.7537 57.3134 58.7537C50.2391 58.7455 43.1635 58.7441 36.0866 58.7496H36.0825ZM9.07327 40.4734C9.07327 43.5017 9.07327 46.53 9.07327 49.5583C9.07327 49.7383 8.94232 50.0043 9.20422 50.0862C9.46613 50.168 9.49478 49.8611 9.58481 49.7138C10.2764 48.5352 10.9557 47.3525 11.631 46.1698L30.8648 12.8421C30.9262 12.7316 31.0981 12.6211 30.9548 12.4574C30.8116 12.2937 30.6602 12.4574 30.5456 12.5147L26.2978 14.9701C22.4074 17.2291 18.4965 19.4867 14.5651 21.7429C14.5148 21.7623 14.4687 21.7916 14.4297 21.8289C14.3907 21.8662 14.3594 21.9109 14.3378 21.9603C14.3161 22.0098 14.3044 22.063 14.3034 22.117C14.3024 22.171 14.3121 22.2247 14.3319 22.2749C14.4971 22.8559 14.5675 23.4598 14.5406 24.0632C14.5112 25.5752 14.0023 27.0387 13.0874 28.2427C12.1724 29.4468 10.8986 30.329 9.44976 30.7623C9.39271 30.7713 9.338 30.7914 9.28877 30.8216C9.23954 30.8518 9.19677 30.8914 9.16292 30.9382C9.12907 30.985 9.1048 31.038 9.09152 31.0942C9.07824 31.1504 9.07621 31.2087 9.08555 31.2657C9.09783 34.3349 9.09373 37.4041 9.09373 40.4734H9.07327ZM57.7676 22.1276C57.8535 21.8493 57.6325 21.8329 57.5139 21.7633C53.2633 19.308 49.0087 16.8526 44.75 14.3972L41.4434 12.4902C41.3329 12.4247 41.2183 12.3183 41.0915 12.4656C40.9646 12.6129 41.0915 12.6825 41.1528 12.7848C41.1761 12.8334 41.2035 12.88 41.2347 12.924C47.575 23.9268 53.9277 34.9296 60.2925 45.9325C61.051 47.2475 61.8094 48.557 62.5679 49.8611C62.6293 49.9675 62.6456 50.1435 62.838 50.0985C63.0303 50.0534 62.9771 49.8734 62.9894 49.7342C62.9914 49.6947 62.9914 49.6551 62.9894 49.6156C62.9894 43.518 62.9894 37.4191 62.9894 31.3189C63.0004 31.2526 62.9979 31.1848 62.9821 31.1195C62.9662 31.0542 62.9374 30.9928 62.8973 30.939C62.8572 30.8851 62.8066 30.8399 62.7486 30.806C62.6906 30.7721 62.6263 30.7503 62.5597 30.7419C61.2005 30.3225 59.9983 29.5053 59.1083 28.3957C58.2183 27.2862 57.6815 25.9352 57.5671 24.5175C57.5088 23.7152 57.5765 22.9089 57.7676 22.1276Z" fill="#E03E96"/>
</g>
<defs>
<clipPath id="clip0_1444_4746">
<rect width="72" height="80.8598" fill="white"/>
</clipPath>
</defs>
</svg>
