<svg width="58" height="66" viewBox="0 0 58 66" fill="none" xmlns="http://www.w3.org/2000/svg">
<path d="M57.9474 0L52.6683 59.1399L28.9383 65.7186L5.27367 59.149L0 0H57.9474Z" fill="#E44D26"/>
<path d="M28.9727 60.6897L48.1477 55.3738L52.6588 4.83594H28.9727V60.6897Z" fill="#F16529"/>
<path d="M18.7113 19.3452H28.9738V12.0908H10.7832L10.9567 14.037L12.7398 34.0282H28.9738V26.7738H19.3744L18.7113 19.3452ZM20.3463 37.6555H13.064L14.0802 49.046L28.9404 53.171L28.9738 53.1619V45.6143L28.942 45.6227L20.8628 43.4412L20.3463 37.6555Z" fill="#D6D2D2"/>
<path d="M28.9475 34.0282H37.8805L37.0382 43.4366L28.9473 45.6204V53.1676L43.8192 49.046L43.9283 47.8203L45.6332 28.7218L45.8102 26.7738H28.9475V34.0282ZM28.9475 19.3275V19.3452H46.4703L46.6157 17.7147L46.9464 14.037L47.1197 12.0908H28.9475V19.3275Z" fill="white"/>
</svg>
