<svg width="62" height="74" viewBox="0 0 62 74" fill="none" xmlns="http://www.w3.org/2000/svg">
<path d="M61.544 3.97656H0L5.7696 66.5428L30.7689 73.6332L55.7681 66.5428L61.544 3.97656Z" fill="#E6A329"/>
<path d="M30.7695 9.07422V68.3315L51.0246 62.5932L55.9521 9.07422H30.7695Z" fill="#F1BF22"/>
<path d="M46.8828 16.75H15.7395L13.5703 40.1731L13.615 40.0274H40.0729L39.2112 49.9379L30.7694 52.3664L22.2032 49.8988L21.6901 43.9004H13.9142L15.0235 55.8861L30.7694 60.3561L46.5224 55.8861L48.6916 32.3596H20.6121L20.9725 24.5211H40.4544L40.7458 29.0123H48.5874L46.8828 16.75Z" fill="white"/>
<path d="M30.7757 16.75H15.7395L13.5703 40.1731L13.615 40.0274H30.7749V32.3863H21.7073L22.0676 24.5478H30.7757V16.75ZM21.7073 43.9043H13.9134L15.0227 55.8838L30.7687 60.3491V52.3774L22.2024 49.9035L21.7073 43.9043Z" fill="#EBEBEB"/>
</svg>
