<svg width="62" height="70" viewBox="0 0 62 70" fill="none" xmlns="http://www.w3.org/2000/svg">
<path d="M61.544 0H0L5.7696 62.5663L30.7689 69.6567L55.7681 62.5663L61.544 0Z" fill="#BDBDBD"/>
<path d="M30.7695 5.09766V64.3549L51.0246 58.6167L55.9521 5.09766H30.7695Z" fill="#D1D1D1"/>
<path d="M46.8828 12.7734H15.7395L13.5703 36.1965L13.615 36.0508H40.0729L39.2112 45.9614L30.7694 48.3899L22.2032 45.9222L21.6901 39.9239H13.9142L15.0235 51.9096L30.7694 56.3796L46.5224 51.9096L48.6916 28.3831H20.6121L20.9725 20.5446H40.4544L40.7458 25.0357H48.5874L46.8828 12.7734Z" fill="white"/>
<path d="M30.7757 12.7734H15.7395L13.5703 36.1965L13.615 36.0508H30.7749V28.4097H21.7073L22.0676 20.5712H30.7757V12.7734ZM21.7073 39.9278H13.9134L15.0227 51.9072L30.7687 56.3725V48.4008L22.2024 45.9269L21.7073 39.9278Z" fill="#EBEBEB"/>
</svg>
