<svg width="62" height="61" viewBox="0 0 62 61" fill="none" xmlns="http://www.w3.org/2000/svg">
<path d="M60.4412 45.3167L60.1544 45.9859C55.4698 55.0682 47.1524 60.7087 35.2977 60.9955C29.7527 61.0911 24.4946 59.6571 21.0529 58.1274C13.5959 54.7813 7.38174 48.5672 3.94005 41.9706C-0.935685 32.506 -1.7961 19.3128 8.33777 9.37012C8.52898 9.37012 7.09493 11.4734 7.28614 11.4734L6.99933 12.4294C-0.362065 35.374 22.2957 55.0682 44.2843 52.8693C49.5425 52.2957 56.2347 49.4276 60.4412 45.3167Z" fill="#BDBDBD"/>
<path d="M47.0598 35.7565C52.6047 35.7565 58.3409 33.1753 61.7825 29.5424C58.8189 37.095 50.119 42.0663 38.4555 40.4411C28.7041 39.1026 19.4306 29.3512 18.4746 19.5041C17.8054 12.3339 20.291 8.12738 24.4019 2.96484C22.9679 5.64172 22.4899 7.74498 22.2987 9.08342C20.8646 24.571 34.727 35.6609 47.0598 35.7565Z" fill="#BDBDBD"/>
<path d="M61.3038 16.5392C60.4434 18.5469 55.472 22.2754 53.2732 22.6578C44.5733 24.4743 39.0284 20.3633 36.1603 15.6788C35.6823 15.0096 34.9175 13.0976 34.8219 12.6195C33.6746 8.79543 34.2482 2.96368 37.5943 0C36.5427 2.86808 36.4471 6.11856 36.9251 8.31742C37.2119 9.65586 38.2636 11.8547 39.2196 13.2888C41.036 15.87 42.1833 16.5392 44.4777 17.8777C45.5293 18.5469 46.581 19.0249 47.059 19.1205C49.2579 19.9809 53.8468 21.6062 61.3038 16.5392Z" fill="#BDBDBD"/>
</svg>
