<svg width="62" height="61" viewBox="0 0 62 61" fill="none" xmlns="http://www.w3.org/2000/svg">
<path d="M60.0105 45.3167L59.7237 45.9859C55.0392 55.0682 46.7218 60.7087 34.867 60.9955C29.3221 61.0911 24.0639 59.6571 20.6222 58.1274C13.1652 54.7814 6.95108 48.5672 3.50938 41.9706C-1.36635 32.506 -2.22677 19.3128 7.90711 9.37012C8.09831 9.37012 6.66427 11.4734 6.85547 11.4734L6.56867 12.4294C-0.792729 35.374 21.8651 55.0682 43.8537 52.8693C49.1118 52.2957 55.804 49.4276 60.0105 45.3167Z" fill="#21609B"/>
<path d="M46.6291 35.7565C52.174 35.7565 57.9102 33.1753 61.3519 29.5424C58.3882 37.095 49.6884 42.0663 38.0249 40.4411C28.2734 39.1026 18.9999 29.3512 18.0439 19.5041C17.3747 12.3339 19.8604 8.12738 23.9713 2.96484C22.5372 5.64172 22.0592 7.74498 21.868 9.08342C20.434 24.571 34.2964 35.6609 46.6291 35.7565Z" fill="#21609B"/>
<path d="M60.8731 16.5392C60.0127 18.5469 55.0414 22.2754 52.8425 22.6578C44.1427 24.4743 38.5977 20.3633 35.7296 15.6788C35.2516 15.0096 34.4868 13.0976 34.3912 12.6195C33.244 8.79543 33.8176 2.96368 37.1637 0C36.112 2.86808 36.0164 6.11856 36.4945 8.31742C36.7813 9.65586 37.8329 11.8547 38.7889 13.2888C40.6054 15.87 41.7526 16.5392 44.0471 17.8777C45.0987 18.5469 46.1503 19.0249 46.6283 19.1205C48.8272 19.9809 53.4161 21.6062 60.8731 16.5392Z" fill="#21609B"/>
</svg>
