<svg width="70" height="73" viewBox="0 0 70 73" fill="none" xmlns="http://www.w3.org/2000/svg">
<g clip-path="url(#clip0_1444_4749)">
<path d="M0 8.74232C0.177536 8.26171 0.563043 8.00555 0.987862 7.76207C5.26818 5.30869 9.54299 2.84812 13.8123 0.380364C14.4071 0.0354368 14.908 0.02656 15.5027 0.371488C19.8625 2.90096 24.2299 5.41817 28.6049 7.92312C29.1236 8.22112 29.3252 8.64087 29.3252 9.2242C29.3184 18.6412 29.3184 28.0583 29.3252 37.4753V37.9394C29.452 37.8697 29.5484 37.824 29.6359 37.7733C33.2001 35.7215 36.7652 33.6709 40.3312 31.6217C40.4261 31.5793 40.5054 31.5084 40.5582 31.4189C40.6109 31.3293 40.6344 31.2256 40.6254 31.122C40.6165 26.3691 40.6254 21.6112 40.6127 16.8646C40.6127 16.2572 40.8498 15.8577 41.3736 15.5584C45.7697 13.0374 50.1658 10.5084 54.562 7.97131C54.7746 7.83234 55.0231 7.75833 55.2772 7.75833C55.5312 7.75833 55.7797 7.83234 55.9924 7.97131C60.3928 10.5075 64.7957 13.0438 69.2011 15.58C69.4346 15.6961 69.6289 15.8781 69.7601 16.1035C69.8913 16.3289 69.9535 16.5877 69.9391 16.8481C69.9332 21.8732 69.9332 26.8996 69.9391 31.9273C69.9391 32.5043 69.7045 32.8961 69.1998 33.1853C65.021 35.5795 60.8455 37.9796 56.6734 40.3856C56.5824 40.4256 56.5063 40.4931 56.4558 40.5787C56.4053 40.6642 56.3829 40.7635 56.3918 40.8624C56.3995 45.6141 56.3918 50.367 56.4045 55.1199C56.4045 55.7374 56.1674 56.1432 55.6348 56.4488C46.758 61.5509 37.8833 66.6567 29.0107 71.7664C28.8014 71.8932 28.5745 71.9744 28.3551 72.0784H28.0621C27.8085 71.9516 27.5549 71.845 27.3013 71.7055C18.509 66.6449 9.71673 61.5843 0.924457 56.5237C0.507246 56.27 0.164855 56.0126 0 55.5662V8.74232ZM27.0743 68.9601V68.5796C27.0743 64.5014 27.0768 60.4235 27.0819 56.3461C27.092 56.2284 27.0645 56.1105 27.0035 56.0094C26.9424 55.9082 26.8509 55.829 26.742 55.7831C22.6397 53.4713 18.5487 51.1405 14.4413 48.8401C13.7984 48.48 13.5397 48.0298 13.5409 47.293C13.5579 37.4449 13.5625 27.5958 13.5549 17.7459C13.5549 17.538 13.5283 17.3921 13.3165 17.2717C9.72095 15.2148 6.12754 13.1516 2.53623 11.082C2.45634 11.0363 2.37138 10.9983 2.23442 10.9298V11.3242C2.23442 25.6607 2.23231 39.9972 2.22808 54.3336C2.21767 54.4426 2.24184 54.5521 2.29715 54.6465C2.35246 54.741 2.43611 54.8156 2.53623 54.8599C10.6184 59.5037 18.6975 64.1514 26.7737 68.8028C26.8549 68.851 26.9411 68.8916 27.0743 68.9601ZM54.1562 41.8122C54.0078 41.8921 53.9228 41.9391 53.8391 41.986C45.7536 46.5994 37.6673 51.2119 29.5801 55.8237C29.4933 55.8622 29.4209 55.927 29.3729 56.0089C29.3249 56.0908 29.3038 56.1857 29.3125 56.2802C29.3201 60.3965 29.3201 64.5132 29.3125 68.6304C29.3125 68.7305 29.3226 68.8307 29.3303 68.9601C29.4571 68.8916 29.5433 68.8485 29.627 68.8003C37.7117 64.1505 45.7972 59.4982 53.8835 54.8434C53.9738 54.8014 54.0485 54.7319 54.097 54.6449C54.1455 54.558 54.1653 54.4579 54.1536 54.359C54.1486 50.301 54.1486 46.243 54.1536 42.1851L54.1562 41.8122ZM16.9293 47.6621C17.0232 47.7191 17.0638 47.747 17.1056 47.7711C20.7409 49.8297 24.3761 51.89 28.0114 53.9519C28.0719 53.9895 28.1426 54.0074 28.2137 54.0031C28.2848 53.9988 28.3528 53.9725 28.4083 53.9278C36.5243 49.2924 44.6402 44.6583 52.7562 40.0255C52.8297 39.9836 52.8982 39.9342 52.9908 39.8733C52.8817 39.8074 52.7993 39.7554 52.7156 39.7072C49.175 37.668 45.6332 35.6234 42.09 33.5733C41.987 33.4997 41.8635 33.4601 41.7369 33.4601C41.6102 33.4601 41.4867 33.4997 41.3837 33.5733C33.7953 37.9517 26.2039 42.325 18.6096 46.6932L16.9293 47.6621ZM27.0743 10.9298C26.9196 11.0122 26.8207 11.0566 26.7344 11.1112C23.1693 13.163 19.6034 15.2135 16.0366 17.2628C15.9502 17.3015 15.8782 17.3664 15.8309 17.4484C15.7835 17.5304 15.7632 17.6251 15.7728 17.7193C15.7796 26.9427 15.7796 36.1649 15.7728 45.3858C15.7728 45.4872 15.7817 45.5887 15.788 45.7168C15.9009 45.6584 15.9795 45.6217 16.0543 45.5786C19.6271 43.5225 23.201 41.4682 26.7763 39.4155C26.875 39.3693 26.9569 39.2934 27.0103 39.1983C27.0638 39.1032 27.0861 38.9938 27.0743 38.8854C27.0717 29.7009 27.0722 20.518 27.0755 11.3369L27.0743 10.9298ZM3.3808 8.97439C3.49239 9.04286 3.54946 9.08091 3.60779 9.11388C7.22192 11.1961 10.8352 13.2788 14.4476 15.3619C14.5151 15.4066 14.5947 15.4293 14.6756 15.4268C14.7565 15.4243 14.8346 15.3967 14.8991 15.3479C18.4853 13.2784 22.0732 11.2118 25.6629 9.14812C25.744 9.1012 25.8188 9.0454 25.9254 8.97439C25.815 8.90337 25.7377 8.84758 25.6553 8.80192C22.0935 6.75011 18.5297 4.69703 14.9638 2.64268C14.8752 2.57937 14.769 2.54534 14.6601 2.54534C14.5511 2.54534 14.445 2.57937 14.3563 2.64268C10.8673 4.66321 7.37409 6.67741 3.87663 8.68526L3.3808 8.97439ZM43.9897 16.6287C44.0886 16.6934 44.1583 16.7429 44.2319 16.786C47.8384 18.8623 51.4445 20.9399 55.0502 23.0188C55.1161 23.0653 55.1952 23.0896 55.2759 23.0882C55.3566 23.0869 55.4347 23.0599 55.4991 23.0112C59.0946 20.9348 62.6918 18.8615 66.2908 16.7911C66.3681 16.7467 66.4404 16.6934 66.5355 16.6313C66.4341 16.5679 66.3694 16.5235 66.3022 16.4854C62.6957 14.4091 59.09 12.3315 55.4851 10.2526C55.418 10.2077 55.3383 10.1854 55.2576 10.1888C55.1769 10.1922 55.0993 10.2212 55.0362 10.2717C52.2354 11.8889 49.4329 13.5033 46.6286 15.1146L43.9897 16.6287ZM54.1346 37.9394C54.1422 37.7872 54.1511 37.6921 54.1511 37.5983C54.1511 33.5209 54.1511 29.4435 54.1511 25.3661C54.1597 25.2758 54.1399 25.1851 54.0944 25.1067C54.0489 25.0282 53.9801 24.9659 53.8975 24.9286C50.3298 22.8784 46.7601 20.8249 43.1882 18.768C43.0906 18.7122 42.9891 18.6615 42.842 18.5842V18.9494C42.842 23.0074 42.842 27.0653 42.842 31.1233C42.8324 31.2222 42.8539 31.3216 42.9035 31.4078C42.953 31.4939 43.0282 31.5625 43.1185 31.6039C45.7528 33.1071 48.385 34.6195 51.015 36.1412L54.1346 37.9394ZM56.3804 37.9305C56.4806 37.8824 56.5326 37.8608 56.5808 37.8329C60.2161 35.743 63.8492 33.6536 67.4803 31.5646C67.5489 31.5298 67.6049 31.4744 67.6403 31.4062C67.6758 31.338 67.689 31.2603 67.6781 31.1842C67.6781 27.0856 67.6781 22.9879 67.6781 18.8911C67.6781 18.801 67.6654 18.7122 67.6565 18.5956C67.5563 18.6476 67.4955 18.6767 67.4371 18.711C63.8306 20.7873 60.2228 22.8619 56.6138 24.9349C56.5367 24.9713 56.4728 25.0307 56.431 25.105C56.3892 25.1793 56.3715 25.2648 56.3804 25.3496C56.3855 29.4371 56.3855 33.5247 56.3804 37.6123V37.9305Z" fill="#FE291B"/>
</g>
<defs>
<clipPath id="clip0_1444_4749">
<rect width="70" height="72.0556" fill="white"/>
</clipPath>
</defs>
</svg>
