<svg width="71" height="73" viewBox="0 0 71 73" fill="none" xmlns="http://www.w3.org/2000/svg">
<g clip-path="url(#clip0_419_3381)">
<path d="M0.430664 8.74232C0.6082 8.26171 0.993708 8.00555 1.41853 7.76207C5.69884 5.30869 9.97366 2.84812 14.243 0.380364C14.8377 0.0354368 15.3386 0.02656 15.9334 0.371488C20.2932 2.90096 24.6606 5.41817 29.0356 7.92312C29.5542 8.22112 29.7558 8.64087 29.7558 9.22421C29.7491 18.6412 29.7491 28.0583 29.7558 37.4753V37.9394C29.8827 37.8697 29.979 37.824 30.0665 37.7733C33.6308 35.7215 37.1959 33.6709 40.7618 31.6217C40.8567 31.5793 40.9361 31.5084 40.9888 31.4189C41.0415 31.3293 41.065 31.2256 41.056 31.122C41.0471 26.3691 41.056 21.6112 41.0433 16.8646C41.0433 16.2572 41.2805 15.8577 41.8042 15.5584C46.2004 13.0374 50.5965 10.5084 54.9926 7.97131C55.2053 7.83234 55.4538 7.75833 55.7078 7.75833C55.9619 7.75833 56.2104 7.83234 56.4231 7.97131C60.8234 10.5075 65.2263 13.0438 69.6318 15.58C69.8652 15.6961 70.0596 15.8781 70.1908 16.1035C70.3219 16.3289 70.3842 16.5877 70.3698 16.8481C70.3639 21.8732 70.3639 26.8996 70.3698 31.9273C70.3698 32.5043 70.1352 32.8961 69.6305 33.1853C65.4516 35.5795 61.2761 37.9796 57.104 40.3856C57.0131 40.4256 56.937 40.4931 56.8865 40.5787C56.836 40.6642 56.8136 40.7635 56.8225 40.8624C56.8301 45.6141 56.8225 50.367 56.8352 55.1199C56.8352 55.7374 56.5981 56.1432 56.0654 56.4488C47.1886 61.5509 38.3139 66.6567 29.4414 71.7664C29.2321 71.8932 29.0051 71.9744 28.7857 72.0784H28.4928C28.2392 71.9516 27.9856 71.845 27.7319 71.7055C18.9397 66.6449 10.1474 61.5843 1.35512 56.5237C0.93791 56.27 0.595519 56.0126 0.430664 55.5662V8.74232ZM27.5049 68.9601V68.5796C27.5049 64.5014 27.5075 60.4235 27.5125 56.3461C27.5226 56.2284 27.4952 56.1105 27.4341 56.0094C27.3731 55.9082 27.2816 55.829 27.1727 55.7831C23.0703 53.4713 18.9794 51.1405 14.872 48.8401C14.229 48.48 13.9703 48.0298 13.9716 47.293C13.9885 37.4449 13.9932 27.5958 13.9856 17.7459C13.9856 17.538 13.9589 17.3921 13.7471 17.2717C10.1516 15.2148 6.5582 13.1516 2.9669 11.082C2.887 11.0363 2.80204 10.9983 2.66508 10.9298V11.3242C2.66508 25.6607 2.66297 39.9972 2.65874 54.3336C2.64834 54.4426 2.6725 54.5521 2.72781 54.6465C2.78313 54.741 2.86677 54.8156 2.9669 54.8599C11.049 59.5037 19.1282 64.1514 27.2044 68.8028C27.2856 68.851 27.3718 68.8916 27.5049 68.9601ZM54.5868 41.8122C54.4385 41.8921 54.3535 41.9391 54.2698 41.986C46.1843 46.5994 38.0979 51.2119 30.0107 55.8237C29.924 55.8622 29.8516 55.927 29.8036 56.0089C29.7556 56.0908 29.7344 56.1857 29.7432 56.2802C29.7508 60.3965 29.7508 64.5132 29.7432 68.6304C29.7432 68.7305 29.7533 68.8307 29.7609 68.9601C29.8877 68.8916 29.974 68.8485 30.0577 68.8003C38.1423 64.1505 46.2278 59.4982 54.3142 54.8434C54.4045 54.8014 54.4792 54.7319 54.5277 54.6449C54.5762 54.558 54.596 54.4579 54.5843 54.359C54.5792 50.301 54.5792 46.243 54.5843 42.1851L54.5868 41.8122ZM17.36 47.6621C17.4539 47.7191 17.4944 47.747 17.5363 47.7711C21.1715 49.8297 24.8068 51.89 28.4421 53.9519C28.5026 53.9895 28.5733 54.0074 28.6444 54.0031C28.7155 53.9988 28.7835 53.9725 28.839 53.9278C36.9549 49.2924 45.0709 44.6583 53.1868 40.0255C53.2604 39.9836 53.3288 39.9342 53.4214 39.8733C53.3124 39.8074 53.2299 39.7554 53.1462 39.7072C49.6057 37.668 46.0638 35.6234 42.5207 33.5733C42.4177 33.4997 42.2942 33.4601 42.1675 33.4601C42.0409 33.4601 41.9174 33.4997 41.8144 33.5733C34.226 37.9517 26.6346 42.325 19.0403 46.6932L17.36 47.6621ZM27.5049 10.9298C27.3502 11.0122 27.2513 11.0566 27.1651 11.1112C23.6 13.163 20.034 15.2135 16.4673 17.2628C16.3809 17.3015 16.3089 17.3664 16.2615 17.4484C16.2142 17.5304 16.1939 17.6251 16.2035 17.7193C16.2103 26.9427 16.2103 36.1649 16.2035 45.3858C16.2035 45.4872 16.2124 45.5887 16.2187 45.7168C16.3316 45.6584 16.4102 45.6217 16.485 45.5786C20.0577 43.5225 23.6317 41.4682 27.2069 39.4155C27.3057 39.3693 27.3876 39.2934 27.441 39.1983C27.4944 39.1032 27.5168 38.9938 27.5049 38.8854C27.5024 29.7009 27.5028 20.518 27.5062 11.3369L27.5049 10.9298ZM3.81146 8.97439C3.92306 9.04286 3.98012 9.08091 4.03845 9.11388C7.65258 11.1961 11.2659 13.2788 14.8783 15.3619C14.9457 15.4066 15.0254 15.4293 15.1063 15.4268C15.1871 15.4243 15.2652 15.3967 15.3298 15.3479C18.916 13.2784 22.5039 11.2118 26.0935 9.14812C26.1747 9.1012 26.2495 9.0454 26.356 8.97439C26.2457 8.90337 26.1683 8.84758 26.0859 8.80192C22.5242 6.75011 18.9604 4.69703 15.3944 2.64268C15.3058 2.57937 15.1996 2.54534 15.0907 2.54534C14.9818 2.54534 14.8756 2.57937 14.787 2.64268C11.298 4.66321 7.80476 6.67741 4.30729 8.68526L3.81146 8.97439ZM44.4203 16.6287C44.5193 16.6934 44.589 16.7429 44.6625 16.786C48.2691 18.8623 51.8752 20.9399 55.4808 23.0188C55.5468 23.0653 55.6258 23.0896 55.7065 23.0882C55.7872 23.0869 55.8654 23.0599 55.9298 23.0112C59.5253 20.9348 63.1225 18.8615 66.7214 16.7911C66.7988 16.7467 66.8711 16.6934 66.9662 16.6313C66.8647 16.5679 66.8 16.5235 66.7328 16.4854C63.1263 14.4091 59.5206 12.3315 55.9158 10.2526C55.8487 10.2077 55.769 10.1854 55.6882 10.1888C55.6075 10.1922 55.53 10.2212 55.4669 10.2717C52.666 11.8889 49.8635 13.5033 47.0593 15.1146L44.4203 16.6287ZM54.5653 37.9394C54.5729 37.7873 54.5817 37.6921 54.5817 37.5983C54.5817 33.5209 54.5817 29.4435 54.5817 25.3661C54.5903 25.2758 54.5705 25.1851 54.5251 25.1067C54.4796 25.0282 54.4107 24.9659 54.3281 24.9286C50.7605 22.8784 47.1908 20.8249 43.6189 18.768C43.5212 18.7122 43.4198 18.6615 43.2727 18.5842V18.9494C43.2727 23.0074 43.2727 27.0653 43.2727 31.1233C43.2631 31.2222 43.2846 31.3216 43.3341 31.4078C43.3837 31.4939 43.4588 31.5625 43.5491 31.6039C46.1834 33.1071 48.8156 34.6195 51.4457 36.1412L54.5653 37.9394ZM56.8111 37.9305C56.9113 37.8824 56.9633 37.8608 57.0115 37.8329C60.6467 35.743 64.2799 33.6536 67.9109 31.5646C67.9795 31.5298 68.0355 31.4744 68.071 31.4062C68.1065 31.338 68.1197 31.2603 68.1087 31.1842C68.1087 27.0856 68.1087 22.9879 68.1087 18.8911C68.1087 18.801 68.0961 18.7122 68.0872 18.5956C67.987 18.6476 67.9261 18.6767 67.8678 18.711C64.2613 20.7873 60.6535 22.8619 57.0444 24.9349C56.9673 24.9713 56.9034 25.0307 56.8616 25.105C56.8198 25.1793 56.8022 25.2648 56.8111 25.3496C56.8162 29.4371 56.8162 33.5247 56.8111 37.6123V37.9305Z" fill="#BDBDBD"/>
</g>
<defs>
<clipPath id="clip0_419_3381">
<rect width="70" height="72.0556" fill="white" transform="translate(0.430664)"/>
</clipPath>
</defs>
</svg>
