<svg width="70" height="79" viewBox="0 0 70 79" fill="none" xmlns="http://www.w3.org/2000/svg">
<g clip-path="url(#clip0_421_3412)">
<path d="M39.7141 55.0967V54.0907L38.2228 52.0448C37.6913 51.8707 37.1567 51.618 36.596 51.5287C35.0446 51.2791 33.8429 51.9431 32.9432 53.1586C32.4117 53.8765 32.0188 54.6992 31.4796 55.4079C30.7186 56.4201 29.8728 57.3675 29.084 58.3612C28.9329 58.5515 28.8451 58.7842 28.8329 59.0268C28.819 63.741 28.7882 68.4552 28.8329 73.1695C28.8622 76.1228 30.9589 78.4553 33.6688 78.7079C36.4943 78.9729 38.9608 77.2197 39.5817 74.4543C39.6867 73.8752 39.7286 73.2863 39.7064 72.6981C39.7116 66.8314 39.7141 60.9643 39.7141 55.0967Z" fill="#E1E1E1"/>
<path d="M57.0803 65.8335C57.0958 66.3959 57.0441 66.958 56.9262 67.5081C56.31 69.9731 54.1624 71.4243 51.5526 71.1855C49.3172 70.9806 47.4207 69.021 47.3375 66.63C47.2451 63.9956 47.3005 61.3534 47.3021 58.7144C47.2932 58.5396 47.3529 58.3682 47.4685 58.2368C48.8411 57.1584 49.5375 55.5854 50.4172 54.1527C51.5634 52.2855 52.9961 51.0068 55.5196 51.6584L57.0818 53.806V54.7643C57.088 58.454 57.0926 62.1438 57.0803 65.8335Z" fill="#E1E1E1"/>
<path d="M61.8177 13.3247C56.324 6.1624 49.0184 1.84872 40.0829 0.357419C39.2818 0.224928 38.4823 0.118626 37.675 0H32.4477C31.2152 0.203359 29.9828 0.378988 28.7626 0.61624C22.7404 1.76553 17.4454 4.41844 12.8636 8.4733C6.6442 13.9532 2.74032 20.8274 1.17661 28.9479C-0.568891 37.9866 0.737539 46.6124 5.21606 54.699C5.50085 55.2171 5.90402 55.6606 6.39272 55.9934C6.88141 56.3261 7.44181 56.5387 8.02824 56.6138C8.61467 56.6889 9.21054 56.6243 9.76731 56.4255C10.3241 56.2266 10.826 55.899 11.2321 55.4693C11.873 54.7853 12.3521 53.9503 12.9052 53.1831C13.4151 52.479 13.865 51.7226 14.4458 51.0832C15.7723 49.6227 17.9029 49.4363 19.425 50.6996C20.1614 51.3159 20.7345 52.1231 21.3492 52.8719C22.0625 53.7408 22.6618 54.7206 23.4491 55.5078C25.1006 57.164 27.4808 57.0484 28.9952 55.266C29.5745 54.5896 30.0244 53.8024 30.5358 53.0706C30.961 52.4636 31.3416 51.815 31.833 51.2666C33.7449 49.139 36.7876 49.5334 38.2096 52.0477L39.7147 54.0905C40.1615 54.5943 40.4604 54.9625 40.7932 55.2983C42.6896 57.2333 45.1715 57.1193 46.8292 54.9733C47.5302 54.0658 48.091 53.049 48.7442 52.1016C49.4698 51.0509 50.2987 50.1296 51.6713 49.9447C53.2489 49.726 54.4444 50.3515 55.5352 51.664L57.0973 53.8116C57.4917 54.3 57.749 54.6297 58.0217 54.9486C60.0553 57.3381 62.7544 57.2272 64.6232 54.7114C66.6337 52.0061 67.7629 48.9064 68.5147 45.6865C71.257 33.8824 69.2342 22.9904 61.8177 13.3247ZM50.18 30.812C49.9998 32.8949 49.5746 34.91 48.735 36.8204C47.0203 40.7212 44.0561 43.2416 40.0044 44.4263C35.4504 45.7558 30.8424 45.7774 26.3069 44.3909C20.884 42.7332 17.7519 38.9171 16.6258 33.431C16.3022 31.8596 16.2052 30.2435 16.0711 29.1728C16.2853 22.1138 18.7009 16.6524 23.9405 12.6791C30.1723 7.95258 38.1741 8.43479 43.8636 13.8176C48.7288 18.424 50.7608 24.1412 50.18 30.812Z" fill="#BDBDBD"/>
<path d="M21.2397 58.9668C21.2397 60.5074 21.249 62.0388 21.2397 63.5747C21.2166 66.4772 19.1876 68.6187 16.4192 68.6788C13.7786 68.7358 11.5879 66.6498 11.4646 63.8474C11.383 62.008 11.4384 60.1608 11.4507 58.3182C11.4598 58.1184 11.5238 57.9249 11.6356 57.759C12.4213 56.5666 13.1962 55.3649 14.0282 54.2048C14.5319 53.5023 15.045 52.7674 15.7013 52.2267C17.3096 50.8987 19.9903 51.4009 21.1011 53.1711C21.2079 53.3973 21.2546 53.6472 21.2366 53.8967C21.2443 55.5867 21.2397 57.2768 21.2397 58.9668Z" fill="#E1E1E1"/>
<path d="M28.5389 14.7236C31.0686 14.9424 32.8988 16.1179 34.0574 18.2485C35.5086 20.9168 35.4193 23.6206 33.7492 26.1688C31.3367 29.8662 26.4715 30.0326 23.7353 26.5786C20.9623 23.0706 21.9991 17.566 25.8706 15.5787C26.6948 15.1581 27.6485 15.0009 28.5389 14.7236ZM27.5283 23.5559C28.382 23.5551 29.2005 23.2156 29.8042 22.6119C30.4078 22.0083 30.7473 21.1897 30.7482 20.336C30.7574 18.5767 29.2877 17.0684 27.5576 17.0623C25.8275 17.0561 24.3608 18.5258 24.347 20.3083C24.3409 20.7309 24.4185 21.1505 24.5754 21.543C24.7323 21.9354 24.9653 22.2929 25.2611 22.5949C25.5568 22.8968 25.9095 23.1371 26.2986 23.3021C26.6877 23.467 27.1057 23.5533 27.5283 23.5559Z" fill="#CBCBCB"/>
</g>
<defs>
<clipPath id="clip0_421_3412">
<rect width="69.25" height="78.7339" fill="white" transform="translate(0.430664)"/>
</clipPath>
</defs>
</svg>
