<svg width="70" height="79" viewBox="0 0 70 79" fill="none" xmlns="http://www.w3.org/2000/svg">
<g clip-path="url(#clip0_1444_5002)">
<path d="M39.2835 55.0967V54.0907L37.7922 52.0448C37.2607 51.8707 36.7261 51.618 36.1653 51.5287C34.6139 51.2791 33.4123 51.9431 32.5125 53.1586C31.981 53.8765 31.5882 54.6992 31.049 55.4079C30.2879 56.4201 29.4421 57.3675 28.6533 58.3612C28.5023 58.5515 28.4145 58.7842 28.4022 59.0268C28.3884 63.741 28.3575 68.4552 28.4022 73.1695C28.4315 76.1228 30.5282 78.4553 33.2382 78.7079C36.0636 78.9729 38.5301 77.2197 39.151 74.4543C39.2561 73.8752 39.2979 73.2863 39.2758 72.6981C39.2809 66.8314 39.2835 60.9643 39.2835 55.0967Z" fill="#4E56A6"/>
<path d="M56.6496 65.8335C56.6651 66.3958 56.6134 66.958 56.4955 67.5081C55.8793 69.9731 53.7317 71.4243 51.1219 71.1855C48.8865 70.9806 46.99 69.021 46.9068 66.63C46.8144 63.9956 46.8699 61.3534 46.8714 58.7144C46.8625 58.5396 46.9222 58.3682 47.0378 58.2368C48.4105 57.1584 49.1068 55.5854 49.9865 54.1527C51.1327 52.2855 52.5655 51.0068 55.089 51.6584L56.6511 53.806V54.7643C56.6573 58.454 56.6619 62.1438 56.6496 65.8335Z" fill="#4E56A6"/>
<path d="M61.3871 13.3247C55.8933 6.1624 48.5878 1.84872 39.6523 0.357419C38.8512 0.224928 38.0516 0.118626 37.2443 0H32.0171C30.7846 0.203359 29.5521 0.378988 28.3319 0.61624C22.3097 1.76553 17.0147 4.41844 12.4329 8.4733C6.21354 13.9532 2.30966 20.8274 0.745946 28.9479C-0.999555 37.9866 0.306875 46.6124 4.7854 54.699C5.07019 55.2171 5.47336 55.6606 5.96205 55.9934C6.45075 56.3261 7.01114 56.5387 7.59757 56.6138C8.184 56.6889 8.77988 56.6243 9.33664 56.4255C9.89341 56.2266 10.3953 55.899 10.8014 55.4693C11.4423 54.7853 11.9215 53.9503 12.4745 53.1831C12.9845 52.479 13.4343 51.7226 14.0151 51.0832C15.3416 49.6227 17.4722 49.4363 18.9944 50.6996C19.7308 51.3159 20.3039 52.1231 20.9186 52.8719C21.6319 53.7408 22.2312 54.7206 23.0184 55.5078C24.6699 57.164 27.0502 57.0484 28.5646 55.266C29.1438 54.5896 29.5937 53.8024 30.1052 53.0706C30.5304 52.4636 30.9109 51.815 31.4024 51.2666C33.3142 49.139 36.3569 49.5334 37.7789 52.0477L39.2841 54.0905C39.7308 54.5943 40.0297 54.9625 40.3625 55.2983C42.259 57.2333 44.7409 57.1193 46.3986 54.9733C47.0995 54.0658 47.6603 53.049 48.3135 52.1016C49.0392 51.0509 49.868 50.1296 51.2407 49.9447C52.8182 49.726 54.0138 50.3515 55.1045 51.664L56.6667 53.8116C57.0611 54.3 57.3183 54.6297 57.591 54.9486C59.6246 57.3381 62.3238 57.2272 64.1925 54.7114C66.203 52.0061 67.3322 48.9064 68.0841 45.6865C70.8263 33.8824 68.8035 22.9904 61.3871 13.3247ZM49.7494 30.812C49.5691 32.8949 49.1439 34.91 48.3043 36.8204C46.5896 40.7212 43.6255 43.2416 39.5737 44.4263C35.0197 45.7558 30.4118 45.7774 25.8762 44.3909C20.4533 42.7332 17.3213 38.9171 16.1951 33.431C15.8716 31.8596 15.7745 30.2435 15.6405 29.1728C15.8546 22.1138 18.2703 16.6524 23.5099 12.6791C29.7416 7.95258 37.7435 8.43479 43.4329 13.8176C48.2981 18.424 50.3302 24.1412 49.7494 30.812Z" fill="#FB6FA9"/>
<path d="M20.8091 58.9668C20.8091 60.5074 20.8183 62.0388 20.8091 63.5747C20.7859 66.4772 18.757 68.6187 15.9885 68.6788C13.3479 68.7358 11.1572 66.6498 11.0339 63.8474C10.9523 62.008 11.0078 60.1608 11.0201 58.3182C11.0292 58.1184 11.0931 57.9249 11.205 57.759C11.9907 56.5666 12.7656 55.3649 13.5975 54.2048C14.1013 53.5023 14.6143 52.7674 15.2706 52.2267C16.879 50.8987 19.5596 51.4009 20.6704 53.1711C20.7772 53.3973 20.8239 53.6472 20.806 53.8967C20.8137 55.5867 20.8091 57.2768 20.8091 58.9668Z" fill="#4E56A6"/>
<path d="M28.1083 14.7236C30.6379 14.9424 32.4682 16.1179 33.6267 18.2485C35.078 20.9168 34.9886 23.6206 33.3186 26.1688C30.906 29.8662 26.0408 30.0326 23.3047 26.5786C20.5316 23.0706 21.5684 17.566 25.44 15.5787C26.2642 15.1581 27.2178 15.0009 28.1083 14.7236ZM27.0976 23.5559C27.9513 23.5551 28.7699 23.2156 29.3735 22.6119C29.9772 22.0083 30.3167 21.1897 30.3175 20.336C30.3267 18.5767 28.857 17.0684 27.1269 17.0623C25.3968 17.0561 23.9302 18.5258 23.9163 20.3083C23.9102 20.7309 23.9878 21.1505 24.1447 21.543C24.3016 21.9354 24.5347 22.2929 24.8304 22.5949C25.1262 22.8968 25.4788 23.1371 25.8679 23.3021C26.2571 23.467 26.675 23.5533 27.0976 23.5559Z" fill="#030776"/>
</g>
<defs>
<clipPath id="clip0_1444_5002">
<rect width="69.25" height="78.7339" fill="white"/>
</clipPath>
</defs>
</svg>
