<svg width="48" height="48" viewBox="0 0 48 48" fill="none" xmlns="http://www.w3.org/2000/svg">
<path d="M35.1982 12.5631C35.866 11.8811 35.8593 10.7793 35.1155 10.1811C32.8688 8.37397 30.208 7.13615 27.3599 6.58664C23.9443 5.92764 20.4103 6.28767 17.1978 7.62192C13.9853 8.95618 11.2361 11.2057 9.29242 14.0906C7.34873 16.9755 6.29636 20.3683 6.26629 23.8467C6.23623 27.3252 7.2298 30.7356 9.12334 33.6537C11.0169 36.5717 13.7268 38.8685 16.9157 40.2581C20.1047 41.6476 23.6319 42.0687 27.0584 41.4688C29.9155 40.9686 32.5974 39.777 34.875 38.009C35.629 37.4237 35.6548 36.3222 34.9989 35.6287C34.343 34.9353 33.2545 34.9146 32.4869 35.4819C30.7124 36.7935 28.6513 37.6808 26.4623 38.0641C23.7037 38.547 20.864 38.208 18.2965 37.0893C15.7291 35.9705 13.5474 34.1214 12.0229 31.7721C10.4984 29.4228 9.69851 26.6771 9.72271 23.8766C9.74692 21.0761 10.5942 18.3446 12.159 16.022C13.7239 13.6994 15.9373 11.8883 18.5236 10.8141C21.11 9.7399 23.9552 9.45004 26.705 9.9806C28.887 10.4016 30.9326 11.3244 32.6841 12.6665C33.4418 13.247 34.5305 13.2451 35.1982 12.5631Z" fill="#38BDF8"/>
<rect x="33.3462" y="16.835" width="3.63298" height="24.0896" rx="1.81649" transform="rotate(45 33.3462 16.835)" fill="#38BDF8"/>
<rect x="16.0532" y="14.3682" width="3.99914" height="24.2327" rx="1.99957" transform="rotate(-45 16.0532 14.3682)" fill="#38BDF8"/>
<rect x="20.7505" y="35.5088" width="3.99478" height="23.3029" rx="1.99739" transform="rotate(180 20.7505 35.5088)" fill="#38BDF8"/>
</svg>
