<svg width="66" height="64" viewBox="0 0 66 64" fill="none" xmlns="http://www.w3.org/2000/svg">
<path fill-rule="evenodd" clip-rule="evenodd" d="M60.1499 49.155C56.6402 49.0683 53.9104 49.415 51.6139 50.3682C50.9639 50.6282 49.8807 50.6282 49.794 51.4515C50.1406 51.7981 50.184 52.3614 50.4873 52.8814C51.0072 53.748 51.9172 54.9612 52.7838 55.5678C53.6937 56.2611 54.647 56.9544 55.6003 57.6044C57.3335 58.6876 59.24 59.2942 60.9299 60.3342C61.8831 60.9408 62.8797 61.7207 63.833 62.414C64.3096 62.7606 64.6129 63.3239 65.2195 63.5406V63.4106C64.9162 63.0206 64.8296 62.4573 64.5263 61.9807C64.0929 61.5474 63.6597 61.1574 63.183 60.7241C61.8831 58.9909 60.3232 57.5177 58.59 56.2611C57.1601 55.3079 54.0837 53.9646 53.5204 52.3614L53.4337 52.2748C54.387 52.1881 55.5569 51.8414 56.4669 51.5815C57.9834 51.1915 59.3266 51.2782 60.8865 50.8882C61.5798 50.7149 62.3164 50.4982 63.0097 50.2816V49.8916C62.2298 49.1117 61.6231 48.0284 60.7999 47.2918C58.5467 45.3419 56.0769 43.4787 53.5204 41.8755C52.1338 41.0089 50.4006 40.4456 48.9274 39.6657C48.4074 39.4057 47.5408 39.2757 47.1942 38.8424C46.4142 37.8891 45.9376 36.5892 45.3743 35.4627C44.1178 33.0362 42.8612 30.3497 41.7779 27.7932C40.998 26.06 40.5214 24.3701 39.5248 22.7669C34.9751 15.2708 30.0355 10.7211 22.496 6.30147C20.8495 5.39153 18.9429 4.95823 16.8631 4.4816C15.7798 4.43827 14.6533 4.35161 13.57 4.30828C12.8767 4.00497 12.1401 3.1817 11.5335 2.7484C9.02034 1.14518 2.56415 -2.2779 0.700949 2.27176C-0.468965 5.13155 2.47748 7.94801 3.47408 9.42124C4.21069 10.4178 5.20729 11.5877 5.72725 12.7143C6.03056 13.4509 6.11722 14.2742 6.42053 15.0542C7.11382 17.004 7.76376 19.1705 8.71703 20.9471C9.19366 21.857 9.71361 22.8536 10.3636 23.6769C10.7102 24.1535 11.3168 24.3701 11.4468 25.1934C10.8402 26.06 10.7969 27.4032 10.4502 28.4865C8.84702 33.4695 9.49697 39.6224 11.7501 43.3054C12.4434 44.3887 14.1333 46.8152 16.3865 45.9052C18.3797 45.1253 17.9464 42.6121 18.5096 40.4023C18.6396 39.8823 18.553 39.5357 18.8129 39.189V39.2757C19.4196 40.489 20.0262 41.7022 20.6328 42.9154C22.0194 45.0819 24.3592 47.3351 26.3524 48.8083C27.3923 49.5883 28.2589 50.9748 29.5588 51.4515V51.3215H29.4722C29.2122 50.9315 28.8222 50.7582 28.4756 50.4549C27.6956 49.6749 26.7857 48.6783 26.1791 47.8117C24.3159 45.3419 22.7127 42.6121 21.2394 39.7957C20.5462 38.4091 19.8962 36.9359 19.3329 35.5493C19.0729 35.0294 19.0729 34.2494 18.6396 33.9461C17.9897 34.8994 16.9931 35.766 16.5165 36.9359C15.6932 38.8424 15.6065 41.1822 15.2599 43.6087C15.0866 43.6521 15.1732 43.6087 15.0866 43.6954C13.7 43.3487 13.18 41.8755 12.6601 40.6623C11.3602 37.5425 11.1002 32.5162 12.2701 28.8765C12.5734 27.9665 13.9166 25.0634 13.3534 24.1535C13.0934 23.3302 12.2268 22.8536 11.7068 22.1603C11.1435 21.337 10.4936 20.2538 10.1036 19.3438C9.06367 16.874 8.50037 14.1442 7.37379 11.6744C6.85383 10.5478 5.90056 9.33458 5.16395 8.29466C4.34068 7.12474 3.38742 6.25813 2.73747 4.87157C2.52082 4.39494 2.2175 3.57167 2.56414 3.05171C2.6508 2.70506 2.82413 2.57507 3.17077 2.48841C3.73406 2.01178 5.38061 2.61841 5.9439 2.87839C7.59044 3.52834 8.93368 4.17829 10.3202 5.08822C10.9269 5.52152 11.6201 6.3448 12.4001 6.60478H13.31C14.7399 6.90809 16.2998 6.69144 17.643 7.08141C19.9829 7.81802 22.106 8.94461 23.9692 10.1145C29.7322 13.7543 34.4985 18.9539 37.7049 25.1934C38.2249 26.19 38.4415 27.1433 38.9615 28.1832C39.8714 30.3497 41.0413 32.5595 41.9513 34.6827C42.8612 36.7626 43.7711 38.8857 45.071 40.5756C45.721 41.4855 48.3641 41.9622 49.5774 42.4821C50.444 42.8721 51.8305 43.2188 52.6105 43.6954C54.127 44.6053 55.6002 45.6886 57.0301 46.6852C57.8101 47.1618 60.0199 48.2451 60.1499 49.155Z" fill="#BDBDBD"/>
<path fill-rule="evenodd" clip-rule="evenodd" d="M15.2134 10.8516C14.4768 10.8516 13.9568 10.9382 13.3936 11.0682V11.1549H13.4802C13.8269 11.8482 14.4335 12.3248 14.9101 12.9747C15.2568 13.668 15.5601 14.3613 15.9067 15.0979L15.9934 15.0113C16.6 14.578 16.9033 13.8847 16.9033 12.8014C16.6433 12.4981 16.6 12.1948 16.3833 11.8915C16.1234 11.4149 15.5601 11.1982 15.2134 10.8516Z" fill="#BDBDBD"/>
</svg>
