<svg width="65" height="64" viewBox="0 0 65 64" fill="none" xmlns="http://www.w3.org/2000/svg">
<path fill-rule="evenodd" clip-rule="evenodd" d="M59.7193 49.155C56.2095 49.0683 53.4797 49.415 51.1832 50.3682C50.5333 50.6282 49.45 50.6282 49.3633 51.4515C49.71 51.7981 49.7533 52.3614 50.0566 52.8814C50.5766 53.748 51.4865 54.9612 52.3531 55.5678C53.2631 56.2611 54.2163 56.9544 55.1696 57.6044C56.9028 58.6876 58.8093 59.2942 60.4992 60.3342C61.4525 60.9408 62.4491 61.7207 63.4023 62.414C63.8789 62.7606 64.1822 63.3239 64.7889 63.5406V63.4106C64.4856 63.0206 64.3989 62.4573 64.0956 61.9807C63.6623 61.5474 63.229 61.1574 62.7524 60.7241C61.4525 58.9909 59.8926 57.5177 58.1594 56.2611C56.7295 55.3079 53.653 53.9646 53.0897 52.3614L53.0031 52.2748C53.9563 52.1881 55.1263 51.8414 56.0362 51.5815C57.5527 51.1915 58.896 51.2782 60.4559 50.8882C61.1491 50.7149 61.8857 50.4982 62.579 50.2816V49.8916C61.7991 49.1117 61.1925 48.0284 60.3692 47.2918C58.116 45.3419 55.6462 43.4787 53.0897 41.8755C51.7032 41.0089 49.97 40.4456 48.4967 39.6657C47.9768 39.4057 47.1102 39.2757 46.7635 38.8424C45.9836 37.8891 45.507 36.5892 44.9437 35.4627C43.6871 33.0362 42.4305 30.3497 41.3473 27.7932C40.5673 26.06 40.0907 24.3701 39.0941 22.7669C34.5444 15.2708 29.6048 10.7211 22.0653 6.30147C20.4188 5.39153 18.5123 4.95823 16.4324 4.4816C15.3492 4.43827 14.2226 4.35161 13.1393 4.30828C12.4461 4.00497 11.7094 3.1817 11.1028 2.7484C8.58967 1.14518 2.13348 -2.2779 0.270285 2.27176C-0.899629 5.13155 2.04682 7.94801 3.04341 9.42124C3.78002 10.4178 4.77662 11.5877 5.29658 12.7143C5.5999 13.4509 5.68656 14.2742 5.98987 15.0542C6.68315 17.004 7.3331 19.1705 8.28636 20.9471C8.76299 21.857 9.28295 22.8536 9.9329 23.6769C10.2795 24.1535 10.8862 24.3701 11.0162 25.1934C10.4095 26.06 10.3662 27.4032 10.0196 28.4865C8.41635 33.4695 9.0663 39.6224 11.3195 43.3054C12.0128 44.3887 13.7026 46.8152 15.9558 45.9052C17.949 45.1253 17.5157 42.6121 18.079 40.4023C18.209 39.8823 18.1223 39.5357 18.3823 39.1891V39.2757C18.9889 40.489 19.5955 41.7022 20.2022 42.9154C21.5887 45.0819 23.9286 47.3351 25.9217 48.8083C26.9617 49.5883 27.8283 50.9748 29.1282 51.4515V51.3215H29.0415C28.7815 50.9315 28.3916 50.7582 28.0449 50.4549C27.265 49.6749 26.355 48.6783 25.7484 47.8117C23.8852 45.3419 22.282 42.6121 20.8088 39.7957C20.1155 38.4091 19.4655 36.9359 18.9022 35.5493C18.6423 35.0294 18.6423 34.2494 18.209 33.9461C17.559 34.8994 16.5624 35.766 16.0858 36.9359C15.2625 38.8424 15.1759 41.1822 14.8292 43.6087C14.6559 43.6521 14.7426 43.6087 14.6559 43.6954C13.2693 43.3487 12.7494 41.8755 12.2294 40.6623C10.9295 37.5425 10.6695 32.5162 11.8394 28.8765C12.1428 27.9665 13.486 25.0634 12.9227 24.1535C12.6627 23.3302 11.7961 22.8536 11.2761 22.1603C10.7128 21.337 10.0629 20.2538 9.67293 19.3438C8.63301 16.874 8.06971 14.1442 6.94312 11.6744C6.42316 10.5478 5.4699 9.33458 4.73328 8.29466C3.91001 7.12474 2.95676 6.25813 2.30681 4.87157C2.09016 4.39494 1.78683 3.57167 2.13348 3.05171C2.22014 2.70506 2.39347 2.57507 2.74011 2.48841C3.3034 2.01178 4.94994 2.61841 5.51324 2.87839C7.15978 3.52834 8.50302 4.17829 9.88958 5.08822C10.4962 5.52152 11.1895 6.3448 11.9694 6.60478H12.8794C14.3093 6.90809 15.8691 6.69144 17.2124 7.08141C19.5522 7.81802 21.6754 8.94461 23.5386 10.1145C29.3015 13.7543 34.0678 18.9539 37.2742 25.1934C37.7942 26.19 38.0108 27.1433 38.5308 28.1832C39.4407 30.3497 40.6107 32.5595 41.5206 34.6827C42.4305 36.7626 43.3404 38.8857 44.6404 40.5756C45.2903 41.4855 47.9334 41.9622 49.1467 42.4821C50.0133 42.8721 51.3999 43.2188 52.1798 43.6954C53.6964 44.6053 55.1696 45.6886 56.5995 46.6852C57.3794 47.1618 59.5893 48.2451 59.7193 49.155Z" fill="#6A7E91"/>
<path fill-rule="evenodd" clip-rule="evenodd" d="M14.7828 10.8516C14.0461 10.8516 13.5262 10.9382 12.9629 11.0682V11.1549H13.0496C13.3962 11.8482 14.0028 12.3248 14.4794 12.9747C14.8261 13.668 15.1294 14.3613 15.476 15.0979L15.5627 15.0113C16.1693 14.578 16.4726 13.8847 16.4726 12.8014C16.2127 12.4981 16.1693 12.1948 15.9527 11.8915C15.6927 11.4149 15.1294 11.1982 14.7828 10.8516Z" fill="#6A7E91"/>
</svg>
