<svg width="78" height="77" viewBox="0 0 78 77" fill="none" xmlns="http://www.w3.org/2000/svg">
<g clip-path="url(#clip0_416_3354)">
<path d="M65.8807 0H11.9807C5.60178 0 0.430664 5.17111 0.430664 11.55V65.45C0.430664 71.8289 5.60178 77 11.9807 77H65.8807C72.2596 77 77.4307 71.8289 77.4307 65.45V11.55C77.4307 5.17111 72.2596 0 65.8807 0Z" fill="#BDBDBD"/>
<path d="M23.7412 30.3787H15.0186C14.9209 30.3731 14.8241 30.3995 14.7427 30.4537C14.6614 30.508 14.5998 30.5872 14.5674 30.6794L10.5068 51.8845C10.5068 52.3357 10.958 52.3357 10.958 52.3357H15.4697C15.9209 52.3357 15.9209 52.0349 15.9209 52.0349L16.9736 46.7712H21.0342C27.3506 46.7712 30.5088 42.5603 31.2607 38.8005C32.0127 35.0408 31.4111 30.3787 23.7412 30.3787ZM25.6963 38.4997C25.0947 41.3572 23.1396 42.5603 20.4326 42.5603H17.7256L19.3799 34.5896H22.0869C26.1475 34.5896 25.9971 36.0935 25.6963 38.4997Z" fill="white" stroke="white" stroke-width="0.902344"/>
<path d="M41.7881 46.7715C41.1865 46.7715 41.3369 46.1699 41.3369 46.1699L43.1416 36.9961C43.1416 35.793 44.0439 34.5898 40.4346 34.7402H37.7275L35.4717 46.4707C35.4717 46.4707 35.4717 46.9219 34.8701 46.9219H30.5088C30.0576 46.9219 30.0576 46.4707 30.0576 46.4707L34.2686 25.2656C34.2686 25.2656 34.2686 24.9648 34.8701 24.9648H39.3818C39.833 24.9648 39.6826 25.416 39.6826 25.416L38.6299 30.5293H42.54C47.9541 30.5293 49.3076 33.0859 48.8564 36.0938L46.9014 46.4707C46.9014 46.4707 46.9014 46.9219 46.1494 46.9219L41.7881 46.7715Z" fill="white" stroke="white" stroke-width="0.902344"/>
<path d="M59.6846 30.3787H50.9619C50.8643 30.3731 50.7675 30.3995 50.6861 30.4537C50.6047 30.508 50.5432 30.5872 50.5107 30.6794L46.4502 51.8845C46.4502 52.3357 46.9014 52.3357 46.9014 52.3357H51.4131C51.8643 52.3357 51.8643 52.0349 51.8643 52.0349L52.917 46.7712H56.9775C63.2939 46.7712 66.4521 42.5603 67.2041 38.8005C67.9561 35.0408 67.3545 30.3787 59.6846 30.3787ZM61.6396 38.4997C61.0381 41.3572 59.083 42.5603 56.376 42.5603H53.6689L55.3232 34.5896H58.0303C62.0908 34.5896 61.9404 36.0935 61.6396 38.4997Z" fill="white" stroke="white" stroke-width="0.902344"/>
</g>
<defs>
<clipPath id="clip0_416_3354">
<rect width="77" height="77" fill="white" transform="translate(0.430664)"/>
</clipPath>
</defs>
</svg>
