<svg width="77" height="77" viewBox="0 0 77 77" fill="none" xmlns="http://www.w3.org/2000/svg">
<g clip-path="url(#clip0_1444_4740)">
<path d="M65.45 0H11.55C5.17111 0 0 5.17111 0 11.55V65.45C0 71.8289 5.17111 77 11.55 77H65.45C71.8289 77 77 71.8289 77 65.45V11.55C77 5.17111 71.8289 0 65.45 0Z" fill="#777BB3"/>
<path d="M23.3105 30.3787H14.5879C14.4902 30.3731 14.3935 30.3995 14.3121 30.4537C14.2307 30.508 14.1692 30.5872 14.1367 30.6794L10.0762 51.8845C10.0762 52.3357 10.5273 52.3357 10.5273 52.3357H15.0391C15.4902 52.3357 15.4902 52.0349 15.4902 52.0349L16.543 46.7712H20.6035C26.9199 46.7712 30.0781 42.5603 30.8301 38.8005C31.582 35.0408 30.9805 30.3787 23.3105 30.3787ZM25.2656 38.4997C24.6641 41.3572 22.709 42.5603 20.002 42.5603H17.2949L18.9492 34.5896H21.6562C25.7168 34.5896 25.5664 36.0935 25.2656 38.4997Z" fill="black" stroke="white" stroke-width="0.902344"/>
<path d="M41.3574 46.7715C40.7559 46.7715 40.9062 46.1699 40.9062 46.1699L42.7109 36.9961C42.7109 35.793 43.6133 34.5898 40.0039 34.7402H37.2969L35.041 46.4707C35.041 46.4707 35.041 46.9219 34.4395 46.9219H30.0781C29.627 46.9219 29.627 46.4707 29.627 46.4707L33.8379 25.2656C33.8379 25.2656 33.8379 24.9648 34.4395 24.9648H38.9512C39.4023 24.9648 39.252 25.416 39.252 25.416L38.1992 30.5293H42.1094C47.5234 30.5293 48.877 33.0859 48.4258 36.0938L46.4707 46.4707C46.4707 46.4707 46.4707 46.9219 45.7188 46.9219L41.3574 46.7715Z" fill="black" stroke="white" stroke-width="0.902344"/>
<path d="M59.2539 30.3787H50.5312C50.4336 30.3731 50.3368 30.3995 50.2554 30.4537C50.1741 30.508 50.1125 30.5872 50.0801 30.6794L46.0195 51.8845C46.0195 52.3357 46.4707 52.3357 46.4707 52.3357H50.9824C51.4336 52.3357 51.4336 52.0349 51.4336 52.0349L52.4863 46.7712H56.5469C62.8633 46.7712 66.0215 42.5603 66.7734 38.8005C67.5254 35.0408 66.9238 30.3787 59.2539 30.3787ZM61.209 38.4997C60.6074 41.3572 58.6523 42.5603 55.9453 42.5603H53.2383L54.8926 34.5896H57.5996C61.6602 34.5896 61.5098 36.0935 61.209 38.4997Z" fill="black" stroke="white" stroke-width="0.902344"/>
</g>
<defs>
<clipPath id="clip0_1444_4740">
<rect width="77" height="77" fill="white"/>
</clipPath>
</defs>
</svg>
