<svg width="118" height="44" viewBox="0 0 118 44" fill="none" xmlns="http://www.w3.org/2000/svg">
<g clip-path="url(#clip0_433_3952)">
<path d="M11.4804 43.3444C9.10953 42.6499 7.80542 40.9824 7.79077 38.5705C7.77318 35.7102 7.79077 32.8529 7.79077 29.9926C7.79077 26.1448 6.1555 24.3307 2.28125 24.2223C0.789583 24.1813 0.373439 23.8238 0.432051 22.3526C0.555136 19.6154 0.467218 19.6096 3.15457 19.2696C6.16429 18.8886 7.75853 17.1508 7.77905 14.1381C7.79956 11.1255 7.77905 8.1275 7.77905 5.12364C7.79956 2.05238 9.82753 0.0537182 12.934 0.0302734C14.2 0.0302734 15.466 0.0302734 16.7437 0.0302734C17.3591 0.0302734 17.6639 0.250068 17.6229 0.880145C17.6185 0.92791 17.6185 0.975979 17.6229 1.02374C17.8574 4.83351 17.8574 4.8804 13.9802 4.89213C12.9164 4.89213 12.6819 5.26431 12.6995 6.2402C12.7523 9.4873 12.6204 12.7373 12.7493 15.9786C12.8578 18.7187 11.9053 20.6675 9.27951 21.661C9.3645 22.1914 9.80995 22.1094 10.0737 22.2647C11.7529 23.2406 12.7376 24.6092 12.7112 26.6195C12.6878 30.2037 12.7376 33.7907 12.6819 37.3748C12.6643 38.3976 12.975 38.7082 13.9978 38.6936C15.1436 38.6731 16.6148 38.1514 17.365 38.931C18.1152 39.7105 17.5203 41.1523 17.6053 42.3011C17.6376 42.7349 17.6493 43.1803 17.6669 43.6023H17.0807C15.2345 42.9781 13.3442 43.4323 11.4804 43.3444Z" fill="#BDBDBD"/>
<path d="M100.071 43.5932C100.092 42.336 100.156 41.0759 100.115 39.8216C100.086 38.9658 100.326 38.62 101.255 38.6288C102.454 38.6288 104.022 39.1798 104.772 38.3944C105.563 37.5621 105.006 35.9971 105.027 34.7516C105.068 32.2812 105.127 29.8077 105.027 27.3402C104.907 24.6733 106.006 22.8827 108.544 21.8863C108.221 21.3354 107.612 21.35 107.213 21.0453C105.859 20.0225 105.018 18.7682 105.033 16.9952C105.068 13.458 105.006 9.92073 105.065 6.38351C105.083 5.30505 104.872 4.8596 103.644 4.87718C100.08 4.93286 100.127 4.87718 100.127 1.31651C100.127 0.299599 100.42 -0.0608643 101.446 0.00946994C102.618 0.0885959 103.79 0.00946994 104.962 0.0299841C107.949 0.073943 109.959 2.10484 109.974 5.11163C109.974 7.96896 109.974 10.8292 109.974 13.6865C109.974 17.4289 111.82 19.2869 115.595 19.4012L117.06 19.451V24.1136C116.527 24.1341 115.99 24.14 115.457 24.1751C111.603 24.4389 109.991 26.1591 109.983 30.0129C109.983 32.8673 109.983 35.7217 109.983 38.579C109.968 40.985 108.658 42.6496 106.293 43.3441C104.429 43.432 102.539 42.9778 100.698 43.5932H100.071Z" fill="#BDBDBD"/>
<path d="M20.9668 21.6874C20.9668 19.929 21.002 18.2 20.9668 16.4592C20.9463 15.6386 21.2247 15.3485 22.057 15.3837C23.4168 15.4423 24.7795 15.3661 26.1393 15.4071C28.138 15.4716 29.489 16.3801 30.0135 17.9304C30.5997 19.636 30.1542 21.0837 28.5219 22.379C28.0237 22.7776 27.9856 23.0325 28.2786 23.5512C28.8853 24.5975 29.489 25.6525 29.9872 26.7514C30.1747 27.1676 31.0568 27.7859 30.1982 28.1171C29.5827 28.3545 28.5541 28.6446 28.0295 27.6072C27.4434 26.4349 26.7225 25.333 26.2214 24.1315C25.6733 22.8157 24.6037 23.2523 23.7362 23.3227C22.8688 23.393 23.3201 24.2487 23.2644 24.7499C23.2043 25.4734 23.2043 26.2008 23.2644 26.9244C23.2908 27.7244 23.1911 28.2226 22.1185 28.2226C21.0459 28.2226 20.9463 27.7361 20.9463 26.898C20.9932 25.1572 20.9668 23.4135 20.9668 21.6874ZM23.2204 18.6952C23.2615 21.8017 22.9274 21.4822 24.9172 21.5028C27.1005 21.5262 27.9328 20.8932 27.9211 19.2931C27.9094 17.693 27.1005 17.2915 24.8733 17.0805C22.9156 16.9017 23.1911 18.0447 23.2204 18.6806V18.6952Z" fill="#D8D8D8"/>
<path d="M47.0969 28.4738C44.7524 28.4738 42.8358 27.4188 42.2321 25.7161C42.0943 25.3322 41.6049 24.6377 42.276 24.4999C42.8885 24.371 43.7824 23.8845 44.2835 24.922C45.066 26.5484 46.4521 27.1023 48.0933 26.5484C48.8083 26.3052 49.2655 25.8832 49.3095 25.1037C49.3505 24.3681 49.1278 23.7321 48.4303 23.4186C47.5921 23.0434 46.7247 22.7269 45.8572 22.4222C45.0195 22.1708 44.2411 21.7532 43.5684 21.1942C41.9449 19.7289 41.9801 17.5457 43.6446 16.1419C45.9334 14.2165 50.0392 14.8993 51.2407 17.446C51.4664 17.9296 52.0906 18.7062 51.1382 18.9963C50.5257 19.1809 49.6377 19.4564 49.2215 18.3311C48.7292 17.0064 47.343 16.5053 45.9979 16.9683C45.2418 17.2262 44.7231 17.7332 44.6615 18.5245C44.6226 18.8671 44.6977 19.2129 44.8752 19.5086C45.0526 19.8042 45.3226 20.0331 45.6433 20.1597C46.6192 20.5847 47.6273 20.9334 48.6061 21.3554C51.0532 22.4104 51.9382 23.7409 51.5367 25.7191C51.2026 27.4012 49.4824 28.4709 47.0969 28.4738Z" fill="#D8D8D8"/>
<path d="M77.3567 28.1576C76.4335 28.4126 76.0321 27.8645 75.8914 27.0557C75.6569 25.5904 74.8569 25.0043 73.3828 25.268C73.0918 25.3172 72.7946 25.3172 72.5036 25.268C70.9006 25.0248 69.8251 25.4468 69.5584 27.255C69.3532 28.6382 68.1546 28.2426 67.3487 28.1049C66.704 27.9964 67.1992 27.3839 67.3194 27.0557C68.4916 23.9346 69.6639 20.8253 70.8566 17.71C71.0561 17.2707 71.2255 16.8184 71.3636 16.3561C71.5365 15.6264 71.9175 15.3363 72.6941 15.3597C73.3975 15.3802 73.8663 15.4974 74.1272 16.2389C75.4791 19.8709 76.8604 23.4814 78.271 27.0704C78.6549 28.055 78.3091 28.3012 77.3567 28.1576ZM72.7674 18.1262C72.2809 19.5182 71.8882 20.5879 71.5277 21.6663C70.8859 23.539 70.8889 23.5419 72.8348 23.5302C74.684 23.5302 74.6752 23.5302 74.0568 21.8187C73.6495 20.6963 73.2685 19.5651 72.7674 18.1262Z" fill="#D8D8D8"/>
<path d="M79.9941 21.7131C79.9941 19.9753 80.0175 18.2345 79.9941 16.4967C79.9794 15.7406 80.1318 15.3244 81.0257 15.3684C82.5261 15.4299 84.0354 15.3332 85.5388 15.3977C88.0855 15.512 89.6416 17.1326 89.6181 19.5533C89.6006 21.8978 88.1001 23.3631 85.5476 23.5301C84.4984 23.6004 83.1474 23.0671 82.4792 23.788C81.8111 24.5089 82.2946 25.816 82.28 26.868C82.28 27.6505 82.3034 28.2103 81.178 28.2249C79.9736 28.2249 79.9794 27.6388 80.0058 26.786C80.0146 25.095 79.9941 23.4041 79.9941 21.7131ZM82.2506 19.4214C82.2917 22.097 81.9253 21.7659 84.05 21.7659C86.5176 21.7923 87.4905 21.1036 87.4554 19.4214C87.4202 17.8066 86.415 17.1092 84.1204 17.1092C82.2506 17.1268 82.2506 17.1268 82.2506 19.4214Z" fill="#D8D8D8"/>
<path d="M32.4814 21.6869C32.4814 19.9285 32.499 18.1966 32.4814 16.4529C32.4814 15.77 32.5928 15.3656 33.4251 15.3803C35.5674 15.4242 37.7096 15.4154 39.8519 15.3803C40.5435 15.3803 40.7809 15.603 40.7867 16.3005C40.7867 17.0771 40.3911 17.1503 39.7786 17.1416C38.4159 17.1181 37.0502 17.1767 35.6904 17.1181C34.8494 17.0829 34.6266 17.3936 34.6149 18.2024C34.571 20.626 34.5358 20.626 36.9594 20.626C37.5924 20.626 38.2283 20.6524 38.8584 20.626C39.5412 20.5909 39.9574 20.7081 39.9369 21.5521C39.9193 22.3346 39.509 22.3902 38.9082 22.3815C37.7887 22.3609 36.6693 22.4049 35.5498 22.3815C34.8494 22.3551 34.6706 22.6306 34.6208 23.3075C34.4332 26.4638 34.4098 26.4608 37.5514 26.4638C38.328 26.4638 39.1104 26.496 39.8958 26.4638C40.5933 26.4257 40.8395 26.6924 40.8248 27.3869C40.8248 28.0199 40.5669 28.228 39.9457 28.2221C37.7536 28.1987 35.5498 28.1928 33.3723 28.2221C32.6192 28.2221 32.4932 27.8617 32.4932 27.2345C32.4961 25.3589 32.4844 23.5185 32.4814 21.6869Z" fill="#D8D8D8"/>
<path d="M56.5208 22.596C56.5208 21.1922 56.4505 19.7826 56.5413 18.3818C56.6116 17.3238 56.2043 17.0103 55.2137 17.1216C54.6276 17.1861 54.0415 17.107 53.4554 17.1392C52.8048 17.1773 52.4678 16.9985 52.4678 16.26C52.4678 15.5215 52.7931 15.3809 53.4466 15.3809C56.2717 15.4043 59.0958 15.4043 61.9189 15.3809C62.6252 15.3809 62.8567 15.6388 62.8479 16.3157C62.8479 16.9487 62.5812 17.1949 61.9688 17.1421C61.92 17.1377 61.871 17.1377 61.8222 17.1421C58.7949 17.2975 58.7949 17.2975 58.7949 20.3277C58.7949 22.5579 58.7656 24.7851 58.8096 27.0124C58.8272 27.8476 58.6396 28.2139 57.693 28.2256C56.6937 28.2432 56.4563 27.8769 56.4973 26.9655C56.5677 25.4973 56.5208 24.0496 56.5208 22.596Z" fill="#D8D8D8"/>
<path d="M94.163 21.7933C94.163 23.5809 94.1103 25.3686 94.1835 27.1533C94.2216 28.1732 93.6766 28.179 92.9205 28.2054C92.094 28.2347 91.8362 27.9504 91.8449 27.1299C91.8801 23.5585 91.8801 19.9861 91.8449 16.4127C91.8449 15.5628 92.138 15.3489 92.9439 15.3577C93.7498 15.3665 94.2275 15.4397 94.1865 16.4361C94.1103 18.2209 94.163 20.0085 94.163 21.7933Z" fill="#D8D8D8"/>
<path d="M63.8636 21.7835C64.3501 21.7835 64.8365 21.8099 65.3289 21.7835C65.9502 21.7395 66.1788 21.9828 66.1876 22.6128C66.1876 23.2898 65.9912 23.577 65.2791 23.5418C64.3589 23.4979 63.4357 23.5155 62.5126 23.5418C61.9265 23.5418 61.5103 23.4949 61.4957 22.7125C61.4781 21.8773 61.8796 21.7395 62.5624 21.7864C62.9903 21.8069 63.4387 21.7835 63.8636 21.7835Z" fill="#D8D8D8"/>
</g>
<defs>
<clipPath id="clip0_433_3952">
<rect width="116.582" height="43.5926" fill="white" transform="translate(0.430664)"/>
</clipPath>
</defs>
</svg>
