<svg width="117" height="44" viewBox="0 0 117 44" fill="none" xmlns="http://www.w3.org/2000/svg">
<g clip-path="url(#clip0_1444_4988)">
<path d="M11.0497 43.3444C8.67887 42.6499 7.37476 40.9824 7.3601 38.5705C7.34252 35.7102 7.3601 32.8529 7.3601 29.9926C7.3601 26.1448 5.72483 24.3307 1.85059 24.2223C0.358919 24.1813 -0.0572247 23.8238 0.00138715 22.3526C0.124472 19.6154 0.0365542 19.6096 2.72391 19.2696C5.73363 18.8886 7.32787 17.1508 7.34838 14.1381C7.3689 11.1255 7.34838 8.1275 7.34838 5.12364C7.3689 2.05238 9.39686 0.0537182 12.5033 0.0302734C13.7693 0.0302734 15.0353 0.0302734 16.3131 0.0302734C16.9285 0.0302734 17.2333 0.250068 17.1922 0.880145C17.1878 0.92791 17.1878 0.975979 17.1922 1.02374C17.4267 4.83351 17.4267 4.8804 13.5495 4.89213C12.4857 4.89213 12.2513 5.26431 12.2688 6.2402C12.3216 9.48729 12.1897 12.7373 12.3187 15.9786C12.4271 18.7187 11.4747 20.6675 8.84884 21.661C8.93383 22.1914 9.37928 22.1094 9.64304 22.2647C11.3223 23.2406 12.3069 24.6092 12.2806 26.6195C12.2571 30.2037 12.3069 33.7907 12.2513 37.3748C12.2337 38.3976 12.5443 38.7082 13.5671 38.6936C14.713 38.6731 16.1841 38.1514 16.9343 38.931C17.6846 39.7105 17.0897 41.1523 17.1747 42.3011C17.2069 42.7349 17.2186 43.1803 17.2362 43.6023H16.6501C14.8038 42.9781 12.9136 43.4323 11.0497 43.3444Z" fill="black"/>
<path d="M99.6406 43.5932C99.6611 42.336 99.7256 41.0759 99.6846 39.8216C99.6553 38.9658 99.8956 38.62 100.825 38.6288C102.023 38.6288 103.591 39.1798 104.341 38.3944C105.133 37.5621 104.576 35.9971 104.596 34.7516C104.637 32.2812 104.696 29.8077 104.596 27.3402C104.476 24.6733 105.575 22.8827 108.113 21.8863C107.791 21.3354 107.181 21.35 106.782 21.0453C105.429 20.0225 104.587 18.7682 104.602 16.9952C104.637 13.458 104.576 9.92073 104.634 6.38351C104.652 5.30505 104.441 4.8596 103.213 4.87718C99.6494 4.93286 99.6963 4.87718 99.6963 1.31651C99.6963 0.299599 99.9894 -0.0608643 101.015 0.00946994C102.187 0.0885959 103.36 0.00946994 104.532 0.0299841C107.518 0.073943 109.528 2.10484 109.543 5.11163C109.543 7.96896 109.543 10.8292 109.543 13.6865C109.543 17.4289 111.389 19.2869 115.164 19.4012L116.629 19.451V24.1136C116.096 24.1341 115.56 24.14 115.026 24.1751C111.173 24.4389 109.561 26.1591 109.552 30.0129C109.552 32.8673 109.552 35.7217 109.552 38.579C109.537 40.985 108.227 42.6496 105.862 43.3441C103.998 43.432 102.108 42.9778 100.268 43.5932H99.6406Z" fill="black"/>
<path d="M20.5361 21.6874C20.5361 19.929 20.5713 18.2 20.5361 16.4592C20.5156 15.6386 20.794 15.3485 21.6263 15.3837C22.9861 15.4423 24.3488 15.3661 25.7086 15.4071C27.7073 15.4716 29.0583 16.3801 29.5829 17.9304C30.169 19.636 29.7235 21.0837 28.0912 22.379C27.593 22.7776 27.5549 23.0325 27.848 23.5512C28.4546 24.5975 29.0583 25.6525 29.5565 26.7514C29.7441 27.1676 30.6262 27.7859 29.7675 28.1171C29.1521 28.3545 28.1234 28.6446 27.5989 27.6072C27.0127 26.4349 26.2918 25.333 25.7907 24.1315C25.2427 22.8157 24.173 23.2523 23.3055 23.3227C22.4381 23.393 22.8894 24.2487 22.8337 24.7499C22.7736 25.4734 22.7736 26.2008 22.8337 26.9244C22.8601 27.7244 22.7605 28.2226 21.6879 28.2226C20.6153 28.2226 20.5156 27.7361 20.5156 26.898C20.5625 25.1572 20.5361 23.4135 20.5361 21.6874ZM22.7898 18.6952C22.8308 21.8017 22.4967 21.4822 24.4866 21.5028C26.6699 21.5262 27.5022 20.8932 27.4904 19.2931C27.4787 17.693 26.6699 17.2915 24.4426 17.0805C22.485 16.9017 22.7605 18.0447 22.7898 18.6806V18.6952Z" fill="#2BA6DA"/>
<path d="M46.6662 28.4738C44.3217 28.4738 42.4051 27.4188 41.8014 25.7161C41.6637 25.3322 41.1743 24.6377 41.8454 24.4999C42.4579 24.371 43.3517 23.8845 43.8528 24.922C44.6353 26.5484 46.0215 27.1023 47.6626 26.5484C48.3777 26.3052 48.8348 25.8832 48.8788 25.1037C48.9198 24.3681 48.6971 23.7321 47.9996 23.4186C47.1615 23.0434 46.294 22.7269 45.4266 22.4222C44.5889 22.1708 43.8105 21.7532 43.1378 21.1942C41.5142 19.7289 41.5494 17.5457 43.214 16.1419C45.5028 14.2165 49.6085 14.8993 50.8101 17.446C51.0357 17.9296 51.6599 18.7062 50.7075 18.9963C50.095 19.1809 49.207 19.4564 48.7909 18.3311C48.2985 17.0064 46.9124 16.5053 45.5672 16.9683C44.8111 17.2262 44.2924 17.7332 44.2309 18.5245C44.1919 18.8671 44.267 19.2129 44.4445 19.5086C44.622 19.8042 44.8919 20.0331 45.2126 20.1597C46.1885 20.5847 47.1966 20.9334 48.1755 21.3554C50.6225 22.4104 51.5075 23.7409 51.106 25.7191C50.772 27.4012 49.0517 28.4709 46.6662 28.4738Z" fill="#31A7DA"/>
<path d="M76.926 28.1576C76.0029 28.4126 75.6014 27.8645 75.4607 27.0557C75.2263 25.5904 74.4262 25.0043 72.9521 25.268C72.6611 25.3172 72.3639 25.3172 72.073 25.268C70.4699 25.0248 69.3944 25.4468 69.1277 27.255C68.9226 28.6382 67.724 28.2426 66.918 28.1049C66.2733 27.9964 66.7686 27.3839 66.8887 27.0557C68.061 23.9346 69.2332 20.8253 70.426 17.71C70.6254 17.2707 70.7948 16.8184 70.933 16.3561C71.1059 15.6264 71.4868 15.3363 72.2634 15.3597C72.9668 15.3802 73.4357 15.4974 73.6965 16.2389C75.0485 19.8709 76.4298 23.4814 77.8404 27.0704C78.2243 28.055 77.8785 28.3012 76.926 28.1576ZM72.3367 18.1262C71.8502 19.5182 71.4575 20.5879 71.0971 21.6663C70.4553 23.539 70.4582 23.5419 72.4041 23.5302C74.2533 23.5302 74.2445 23.5302 73.6262 21.8187C73.2188 20.6963 72.8378 19.5651 72.3367 18.1262Z" fill="#30A7DA"/>
<path d="M79.5634 21.7131C79.5634 19.9753 79.5869 18.2345 79.5634 16.4967C79.5488 15.7406 79.7012 15.3244 80.595 15.3684C82.0955 15.4299 83.6047 15.3332 85.1081 15.3977C87.6548 15.512 89.2109 17.1326 89.1875 19.5533C89.1699 21.8978 87.6694 23.3631 85.1169 23.5301C84.0677 23.6004 82.7167 23.0671 82.0486 23.788C81.3804 24.5089 81.8639 25.816 81.8493 26.868C81.8493 27.6505 81.8727 28.2103 80.7474 28.2249C79.5429 28.2249 79.5488 27.6388 79.5751 26.786C79.5839 25.095 79.5634 23.4041 79.5634 21.7131ZM81.82 19.4214C81.861 22.097 81.4947 21.7659 83.6194 21.7659C86.0869 21.7923 87.0599 21.1036 87.0247 19.4214C86.9895 17.8066 85.9844 17.1092 83.6897 17.1092C81.82 17.1268 81.82 17.1268 81.82 19.4214Z" fill="#29A6DA"/>
<path d="M32.0508 21.6869C32.0508 19.9285 32.0684 18.1966 32.0508 16.4529C32.0508 15.77 32.1621 15.3656 32.9944 15.3803C35.1367 15.4242 37.279 15.4154 39.4212 15.3803C40.1128 15.3803 40.3502 15.603 40.3561 16.3005C40.3561 17.0771 39.9604 17.1503 39.348 17.1416C37.9852 17.1181 36.6196 17.1767 35.2598 17.1181C34.4187 17.0829 34.196 17.3936 34.1843 18.2024C34.1403 20.626 34.1051 20.626 36.5287 20.626C37.1617 20.626 37.7977 20.6524 38.4277 20.626C39.1106 20.5909 39.5267 20.7081 39.5062 21.5521C39.4886 22.3346 39.0783 22.3902 38.4776 22.3815C37.3581 22.3609 36.2386 22.4049 35.1191 22.3815C34.4187 22.3551 34.2399 22.6306 34.1901 23.3075C34.0026 26.4638 33.9791 26.4608 37.1207 26.4638C37.8973 26.4638 38.6798 26.496 39.4652 26.4638C40.1627 26.4257 40.4088 26.6924 40.3942 27.3869C40.3942 28.0199 40.1363 28.228 39.515 28.2221C37.3229 28.1987 35.1191 28.1928 32.9417 28.2221C32.1885 28.2221 32.0625 27.8617 32.0625 27.2345C32.0654 25.3589 32.0537 23.5185 32.0508 21.6869Z" fill="#25A5DA"/>
<path d="M56.0901 22.596C56.0901 21.1922 56.0198 19.7826 56.1106 18.3818C56.181 17.3238 55.7736 17.0103 54.7831 17.1216C54.197 17.1861 53.6108 17.107 53.0247 17.1392C52.3741 17.1773 52.0371 16.9985 52.0371 16.26C52.0371 15.5215 52.3624 15.3809 53.0159 15.3809C55.841 15.4043 58.6651 15.4043 61.4883 15.3809C62.1945 15.3809 62.4261 15.6388 62.4173 16.3157C62.4173 16.9487 62.1506 17.1949 61.5381 17.1421C61.4893 17.1377 61.4403 17.1377 61.3916 17.1421C58.3643 17.2975 58.3643 17.2975 58.3643 20.3277C58.3643 22.5579 58.335 24.7851 58.3789 27.0124C58.3965 27.8476 58.2089 28.2139 57.2624 28.2256C56.263 28.2432 56.0256 27.8769 56.0667 26.9655C56.137 25.4973 56.0901 24.0496 56.0901 22.596Z" fill="#34A7DB"/>
<path d="M93.7324 21.7933C93.7324 23.5809 93.6796 25.3686 93.7529 27.1533C93.791 28.1732 93.2459 28.179 92.4898 28.2054C91.6634 28.2347 91.4055 27.9504 91.4143 27.1299C91.4494 23.5585 91.4494 19.9861 91.4143 16.4127C91.4143 15.5628 91.7073 15.3489 92.5133 15.3577C93.3192 15.3665 93.7968 15.4397 93.7558 16.4361C93.6796 18.2209 93.7324 20.0085 93.7324 21.7933Z" fill="#3AA8DB"/>
<path d="M63.4329 21.7835C63.9194 21.7835 64.4059 21.8099 64.8982 21.7835C65.5195 21.7395 65.7481 21.9828 65.7569 22.6128C65.7569 23.2898 65.5605 23.577 64.8484 23.5418C63.9282 23.4979 63.0051 23.5155 62.0819 23.5418C61.4958 23.5418 61.0797 23.4949 61.065 22.7125C61.0474 21.8773 61.4489 21.7395 62.1317 21.7864C62.5596 21.8069 63.008 21.7835 63.4329 21.7835Z" fill="#29A6DA"/>
</g>
<defs>
<clipPath id="clip0_1444_4988">
<rect width="116.582" height="43.5926" fill="white"/>
</clipPath>
</defs>
</svg>
