<svg width="83" height="62" viewBox="0 0 83 62" fill="none" xmlns="http://www.w3.org/2000/svg">
<path d="M71.404 35.4869C68.5213 35.5032 66.0252 36.1955 63.9317 37.2263C63.1587 35.6964 62.3857 34.3596 62.257 33.3613C62.1121 32.2018 61.9349 31.4931 62.1121 30.1083C62.2891 28.7232 63.0943 26.7585 63.0943 26.5974C63.078 26.4525 62.917 25.7439 61.2584 25.7278C59.5998 25.7117 58.1664 26.0499 58.0054 26.4847C57.8443 26.9195 57.5222 27.918 57.3129 28.9486C57.023 30.4624 53.9954 35.8251 52.2723 38.6433C51.7087 37.5482 51.2255 36.582 51.1287 35.8088C50.984 34.6495 50.8067 33.9408 50.984 32.556C51.1611 31.1708 51.9663 29.2063 51.9663 29.0453C51.9502 28.9003 51.7892 28.1917 50.1306 28.1756C48.4717 28.1595 47.0386 28.4977 46.8776 28.9325C46.7165 29.3673 46.5394 30.398 46.1851 31.3965C45.8468 32.3949 41.8207 41.3488 40.774 43.6839C40.2425 44.8756 39.7757 45.8257 39.4373 46.4699C39.0991 47.1141 39.4212 46.5182 39.389 46.5826C39.0991 47.1302 38.9381 47.4362 38.9381 47.4362V47.4524C38.7126 47.855 38.4711 48.2414 38.3582 48.2414C38.2777 48.2414 38.1166 47.1624 38.3904 45.681C38.9863 42.5727 40.4356 37.7255 40.4197 37.5484C40.4197 37.4679 40.6933 36.6142 39.4855 36.1795C38.3099 35.7447 37.8913 36.4694 37.7945 36.4694C37.6979 36.4694 37.6174 36.7271 37.6174 36.7271C37.6174 36.7271 38.9218 31.268 35.1213 31.268C32.7379 31.268 29.4526 33.8607 27.8261 36.228C26.7954 36.7917 24.6053 37.9832 22.2863 39.2556C21.4006 39.7387 20.4826 40.254 19.613 40.7211L19.436 40.5275C14.8303 35.6157 6.31118 32.1373 6.66548 25.5346C6.79431 23.1351 7.63172 16.8061 23.0274 9.14059C35.6369 2.85999 45.7342 4.58313 47.4894 8.41591C49.9855 13.8913 42.0945 24.0691 28.9859 25.5346C23.9937 26.0982 21.3685 24.1657 20.7084 23.441C20.0159 22.6841 19.9193 22.6519 19.6616 22.7969C19.2429 23.0223 19.5006 23.6987 19.6616 24.1013C20.0481 25.1159 21.6586 26.9195 24.3963 27.8214C26.7956 28.6105 32.6577 29.0453 39.7435 26.3076C47.6828 23.2317 53.8829 14.6965 52.0631 7.56239C50.2111 0.299439 38.1653 -2.08397 26.7797 1.95816C19.9997 4.37378 12.6562 8.14214 7.37406 13.0861C1.09346 18.948 0.0950005 24.0691 0.513707 26.1948C1.97934 33.7799 12.4307 38.7238 16.6178 42.3795C16.4085 42.492 16.2152 42.6048 16.0381 42.7015C13.9445 43.732 5.973 47.9032 3.97609 52.3155C1.72152 57.3078 4.33038 60.8992 6.06962 61.3823C11.4484 62.88 16.956 60.1906 19.9353 55.762C22.8983 51.3333 22.5441 45.5842 21.1753 42.9592L21.1268 42.8626L22.7694 41.8963C23.8325 41.2683 24.8792 40.6885 25.797 40.1891C25.2818 41.5902 24.9113 43.2489 24.7182 45.6645C24.4927 48.499 25.6522 52.1706 27.1821 53.62C27.8585 54.2479 28.6637 54.2641 29.1629 54.2641C30.9344 54.2641 31.7396 52.7985 32.6253 51.0433C33.7204 48.9015 34.6866 46.4214 34.6866 46.4214C34.6866 46.4214 33.4788 53.1368 36.7802 53.1368C37.988 53.1368 39.1958 51.5747 39.7433 50.7695V50.7856C39.7433 50.7856 39.7755 50.7373 39.8399 50.6246C39.9075 50.5247 39.972 50.4227 40.0332 50.3188V50.2866C40.5163 49.4492 41.5953 47.5328 43.2057 44.3603C45.283 40.2698 47.28 35.1487 47.28 35.1487C47.28 35.1487 47.4733 36.4048 48.0691 38.4662C48.4233 39.6902 49.1963 41.0267 49.7921 42.3312C49.309 43.0075 49.0191 43.3942 49.0191 43.3942L49.0352 43.4103C48.6489 43.9256 48.2139 44.4733 47.7631 45.0207C46.1205 46.9854 44.1558 49.224 43.8982 49.8682C43.5922 50.6249 43.6566 51.1886 44.2525 51.6396C44.6873 51.9617 45.4603 52.026 46.2816 51.9617C47.7632 51.8649 48.7938 51.4947 49.3091 51.2691C50.1143 50.9792 51.0323 50.5444 51.918 49.9002C53.5284 48.7087 54.5108 47.0178 54.4141 44.7632C54.3658 43.5232 53.9632 42.2993 53.464 41.1398C53.6089 40.9304 53.754 40.7209 53.8988 40.4956C56.4433 36.7754 58.408 32.6851 58.408 32.6851C58.408 32.6851 58.6012 33.9412 59.1971 36.0026C59.5029 37.0493 60.115 38.1929 60.6625 39.3202C58.2791 41.2688 56.7815 43.5233 56.2661 45.0049C55.316 47.7426 56.0568 48.9826 57.4578 49.2725C58.0857 49.4013 58.9877 49.1115 59.6639 48.8216C60.5013 48.5478 61.5159 48.0806 62.4501 47.3883C64.0605 46.1966 65.6065 44.5379 65.526 42.2994C65.4777 41.2688 65.2039 40.2542 64.8335 39.288C66.8626 38.4505 69.4874 37.9674 72.8211 38.37C79.9875 39.2074 81.4046 43.6844 81.131 45.5525C80.8572 47.4207 79.3596 48.4512 78.8602 48.7733C78.3609 49.0793 78.1999 49.1921 78.2482 49.4174C78.3126 49.7558 78.5381 49.7395 78.9729 49.6753C79.5688 49.5785 82.7413 48.1454 82.8701 44.6993C83.0633 40.27 78.8602 35.4388 71.404 35.4869ZM16.1347 54.1194C13.7674 56.7121 10.4338 57.6945 9.01667 56.8571C7.48678 55.9713 8.08248 52.1547 10.9975 49.4009C12.7689 47.726 15.0718 46.18 16.5856 45.2299C16.9238 45.0205 17.4391 44.7147 18.0511 44.3442C18.1477 44.2799 18.2121 44.2475 18.2121 44.2475C18.3248 44.1831 18.4537 44.1026 18.5825 44.0221C19.6615 47.9515 18.6308 51.3978 16.1347 54.1194ZM33.4466 42.3473C32.6253 44.3603 30.886 49.5297 29.8393 49.2398C28.9373 48.9983 28.3899 45.085 29.662 41.22C30.3061 39.2712 31.675 36.9524 32.4802 36.0504C33.7848 34.601 35.2018 34.1179 35.5562 34.7137C35.9749 35.4869 33.9619 41.0911 33.4466 42.3473ZM47.7309 49.1754C47.3767 49.3527 47.0546 49.4814 46.9096 49.3849C46.7969 49.3205 47.0544 49.0789 47.0544 49.0789C47.0544 49.0789 48.842 47.1625 49.5505 46.2768C49.9531 45.7617 50.4363 45.1658 50.9516 44.4893V44.6825C50.9518 47.0013 48.7294 48.5473 47.7309 49.1754ZM58.746 46.6632C58.4883 46.4699 58.5207 45.8741 59.3902 44.006C59.7285 43.2652 60.5013 42.0252 61.838 40.8496C61.999 41.3327 62.0958 41.7996 62.0795 42.2345C62.0636 45.1333 60.0023 46.2122 58.746 46.6632Z" fill="#BDBDBD"/>
</svg>
