<svg width="83" height="62" viewBox="0 0 83 62" fill="none" xmlns="http://www.w3.org/2000/svg">
<path d="M70.9733 35.4869C68.0907 35.5032 65.5945 36.1955 63.501 37.2263C62.728 35.6964 61.955 34.3596 61.8263 33.3613C61.6814 32.2018 61.5043 31.4931 61.6814 30.1083C61.8584 28.7232 62.6636 26.7585 62.6636 26.5974C62.6473 26.4525 62.4863 25.7439 60.8277 25.7278C59.1692 25.7117 57.7357 26.0499 57.5747 26.4847C57.4137 26.9195 57.0916 27.918 56.8822 28.9486C56.5923 30.4624 53.5648 35.8251 51.8416 38.6433C51.278 37.5482 50.7949 36.582 50.6981 35.8088C50.5533 34.6495 50.376 33.9408 50.5533 32.556C50.7305 31.1708 51.5357 29.2063 51.5357 29.0453C51.5196 28.9003 51.3585 28.1917 49.7 28.1756C48.0411 28.1595 46.608 28.4977 46.4469 28.9325C46.2859 29.3673 46.1087 30.398 45.7544 31.3965C45.4161 32.3949 41.3901 41.3488 40.3433 43.6839C39.8119 44.8756 39.345 45.8257 39.0067 46.4699C38.6685 47.1141 38.9906 46.5182 38.9584 46.5826C38.6685 47.1302 38.5074 47.4362 38.5074 47.4362V47.4524C38.282 47.855 38.0404 48.2414 37.9275 48.2414C37.847 48.2414 37.686 47.1624 37.9597 45.681C38.5556 42.5727 40.005 37.7255 39.989 37.5484C39.989 37.4679 40.2626 36.6142 39.0548 36.1795C37.8792 35.7447 37.4607 36.4694 37.3639 36.4694C37.2673 36.4694 37.1867 36.7271 37.1867 36.7271C37.1867 36.7271 38.4912 31.268 34.6906 31.268C32.3072 31.268 29.022 33.8607 27.3954 36.228C26.3648 36.7917 24.1746 37.9832 21.8556 39.2556C20.9699 39.7387 20.052 40.254 19.1824 40.7211L19.0054 40.5275C14.3996 35.6157 5.88052 32.1373 6.23481 25.5346C6.36364 23.1351 7.20106 16.8061 22.5967 9.14059C35.2063 2.85999 45.3035 4.58313 47.0587 8.41591C49.5549 13.8913 41.6638 24.0691 28.5553 25.5346C23.563 26.0982 20.9379 24.1657 20.2778 23.441C19.5853 22.6841 19.4887 22.6519 19.231 22.7969C18.8123 23.0223 19.0699 23.6987 19.231 24.1013C19.6175 25.1159 21.2279 26.9195 23.9656 27.8214C26.3649 28.6105 32.227 29.0453 39.3128 26.3076C47.2521 23.2317 53.4522 14.6965 51.6324 7.56239C49.7805 0.299439 37.7346 -2.08397 26.349 1.95816C19.569 4.37378 12.2255 8.14214 6.94339 13.0861C0.662791 18.948 -0.335664 24.0691 0.0830432 26.1948C1.54868 33.7799 12.0001 38.7238 16.1871 42.3795C15.9778 42.492 15.7845 42.6048 15.6074 42.7015C13.5139 43.732 5.54233 47.9032 3.54543 52.3155C1.29085 57.3078 3.89972 60.8992 5.63896 61.3823C11.0177 62.88 16.5253 60.1906 19.5046 55.762C22.4676 51.3333 22.1135 45.5842 20.7446 42.9592L20.6961 42.8626L22.3388 41.8963C23.4018 41.2683 24.4486 40.6885 25.3663 40.1891C24.8512 41.5902 24.4806 43.2489 24.2875 45.6645C24.0621 48.499 25.2216 52.1706 26.7514 53.62C27.4278 54.2479 28.233 54.2641 28.7322 54.2641C30.5037 54.2641 31.3089 52.7985 32.1946 51.0433C33.2897 48.9015 34.256 46.4214 34.256 46.4214C34.256 46.4214 33.0481 53.1368 36.3495 53.1368C37.5573 53.1368 38.7651 51.5747 39.3126 50.7695V50.7856C39.3126 50.7856 39.3449 50.7373 39.4093 50.6246C39.4768 50.5247 39.5413 50.4227 39.6025 50.3188V50.2866C40.0856 49.4492 41.1646 47.5328 42.775 44.3603C44.8523 40.2698 46.8494 35.1487 46.8494 35.1487C46.8494 35.1487 47.0426 36.4048 47.6385 38.4662C47.9926 39.6902 48.7656 41.0267 49.3614 42.3312C48.8783 43.0075 48.5884 43.3942 48.5884 43.3942L48.6046 43.4103C48.2182 43.9256 47.7832 44.4733 47.3325 45.0207C45.6899 46.9854 43.7252 49.224 43.4675 49.8682C43.1615 50.6249 43.2259 51.1886 43.8218 51.6397C44.2566 51.9617 45.0296 52.026 45.8509 51.9617C47.3325 51.8649 48.3631 51.4947 48.8785 51.2691C49.6837 50.9792 50.6016 50.5444 51.4873 49.9002C53.0978 48.7087 54.0801 47.0178 53.9835 44.7632C53.9352 43.5232 53.5326 42.2993 53.0333 41.1398C53.1783 40.9304 53.3234 40.7209 53.4682 40.4956C56.0126 36.7754 57.9773 32.6851 57.9773 32.6851C57.9773 32.6851 58.1705 33.9412 58.7664 36.0026C59.0722 37.0493 59.6843 38.1929 60.2319 39.3202C57.8485 41.2688 56.3508 43.5233 55.8355 45.0049C54.8853 47.7426 55.6261 48.9826 57.0272 49.2725C57.6551 49.4013 58.557 49.1115 59.2333 48.8216C60.0707 48.5478 61.0852 48.0806 62.0194 47.3883C63.6298 46.1966 65.1758 44.5379 65.0953 42.2994C65.047 41.2688 64.7732 40.2542 64.4028 39.288C66.432 38.4505 69.0568 37.9674 72.3905 38.37C79.5568 39.2074 80.974 43.6844 80.7004 45.5525C80.4266 47.4207 78.9289 48.4512 78.4295 48.7733C77.9303 49.0793 77.7692 49.1921 77.8176 49.4174C77.882 49.7558 78.1074 49.7395 78.5422 49.6753C79.1381 49.5785 82.3106 48.1454 82.4394 44.6993C82.6327 40.27 78.4295 35.4388 70.9733 35.4869ZM15.704 54.1194C13.3367 56.7121 10.0032 57.6945 8.58601 56.8571C7.05612 55.9713 7.65181 52.1547 10.5668 49.4009C12.3383 47.726 14.6412 46.18 16.1549 45.2299C16.4931 45.0205 17.0085 44.7147 17.6204 44.3442C17.717 44.2799 17.7815 44.2475 17.7815 44.2475C17.8942 44.1831 18.023 44.1026 18.1518 44.0221C19.2308 47.9515 18.2002 51.3978 15.704 54.1194ZM33.0159 42.3473C32.1946 44.3603 30.4554 49.5297 29.4086 49.2398C28.5066 48.9983 27.9592 45.085 29.2313 41.22C29.8755 39.2712 31.2443 36.9524 32.0495 36.0504C33.3541 34.601 34.7711 34.1179 35.1256 34.7137C35.5443 35.4869 33.5313 41.0911 33.0159 42.3473ZM47.3003 49.1754C46.946 49.3527 46.6239 49.4814 46.479 49.3849C46.3662 49.3205 46.6237 49.0789 46.6237 49.0789C46.6237 49.0789 48.4113 47.1625 49.1199 46.2768C49.5225 45.7617 50.0056 45.1658 50.5209 44.4893V44.6825C50.5211 47.0013 48.2987 48.5473 47.3003 49.1754ZM58.3153 46.6632C58.0577 46.4699 58.09 45.8741 58.9595 44.006C59.2978 43.2652 60.0707 42.0252 61.4073 40.8496C61.5684 41.3327 61.6651 41.7996 61.6489 42.2345C61.6329 45.1333 59.5716 46.2122 58.3153 46.6632Z" fill="#CF649A"/>
</svg>
