<svg width="100" height="77" viewBox="0 0 100 77" fill="none" xmlns="http://www.w3.org/2000/svg">
<g clip-path="url(#clip0_423_3470)">
<path d="M63.707 17.7288C71.7326 19.31 78.0642 23.4206 82.4993 30.3115C84.4901 33.4048 85.6547 36.818 86.1818 40.4498C86.2186 40.68 86.0828 41.0045 86.435 41.1403V48.2475C85.9125 49.0738 85.9861 50.0497 85.7882 50.9542C84.6913 56.01 82.3128 60.6988 78.8812 64.5702C77.3842 66.3205 75.5267 67.7267 73.4357 68.6923C69.5231 70.4737 65.5114 71.9467 61.1385 72.094C61.0073 71.9582 61.0487 71.7718 60.9889 71.613C60.9258 71.5478 60.8463 71.5008 60.7587 71.4772C59.2581 71.1918 57.7252 71.1987 56.2269 70.9272C51.6856 69.9898 47.4144 68.0395 43.7317 65.2216C41.7501 63.7071 40.1229 61.8475 38.4888 59.9947C38.2253 59.7934 37.974 59.5767 37.7362 59.3457C36.7787 58.1466 35.8949 56.8991 35.4599 55.4054C35.4746 55.2954 35.5228 55.1925 35.598 55.1108L35.1377 53.5158C35.1548 53.4504 35.1856 53.3894 35.228 53.3368C35.2704 53.2842 35.3234 53.2411 35.3836 53.2105C35.4439 53.1798 35.5099 53.1623 35.5774 53.159C35.6449 53.1557 35.7123 53.1667 35.7752 53.1913C35.8619 53.245 35.9283 53.326 35.964 53.4215C36.2056 54.1994 36.5094 54.9428 37.1378 55.4929C38.3737 57.3963 39.5567 59.2996 41.1356 60.9269C43.4509 63.3274 45.9458 65.4816 49.1381 66.6808C49.5064 66.9431 49.8286 67.2723 50.3027 67.3712C50.6041 67.3728 50.8985 67.4624 51.1497 67.629C51.5548 67.9055 52.0085 68.103 52.4869 68.2113C52.9664 68.3849 53.469 68.4865 53.9783 68.5128C54.0832 68.5138 54.1875 68.5277 54.289 68.5542L54.4363 68.6118C55.0071 68.9018 55.6377 68.9501 56.2568 69.0422C56.5976 69.0455 56.9374 69.0802 57.2718 69.1457C57.8529 69.2871 58.4568 69.3082 59.0463 69.2079C60.1557 68.8419 61.3272 69.2079 62.4434 68.9087C62.5663 68.8724 62.6917 68.8454 62.8186 68.8281C63.8819 68.72 64.9383 68.4829 66.0178 68.568C66.4781 68.6072 66.9016 68.4599 67.3366 68.3816C67.6864 68.3816 67.8245 68.0755 68.027 67.873C68.1618 67.7909 68.3124 67.7383 68.4689 67.7188C68.6216 67.6987 68.7753 67.6887 68.9293 67.6889C69.1091 67.695 69.2892 67.6873 69.4678 67.6658C69.5507 67.6497 69.698 67.6658 69.6704 67.53C69.645 67.4403 69.4885 67.438 69.385 67.4058C69.2291 67.3625 69.0886 67.2761 68.9799 67.1563C68.8711 67.0365 68.7985 66.8884 68.7705 66.7291C68.768 66.6214 68.7868 66.5142 68.8257 66.4138L68.927 66.2895C69.24 65.9811 69.6934 65.9903 70.0547 65.7924C70.1536 65.76 70.2491 65.7184 70.3401 65.6681C70.2388 65.698 70.1422 65.7394 70.0386 65.7786C69.6888 65.9811 69.2584 65.9765 68.9316 66.2251C68.5035 66.4943 67.981 66.5818 67.5966 66.9339C67.2156 67.1287 66.7863 67.2087 66.3607 67.1641C66.0822 67.2009 65.5667 67.0007 65.8866 67.6382C65.5626 67.7999 65.2192 67.919 64.8647 67.9927C62.4435 68.5773 60.0544 68.1492 57.6631 67.774C57.2557 67.6612 56.8391 67.583 56.4226 67.507C56.2046 67.4407 55.9823 67.3892 55.7574 67.3528C55.3194 67.2821 54.8882 67.1743 54.4685 67.0306C54.015 66.8873 53.554 66.769 53.0876 66.6762C52.3373 66.7107 51.7481 65.9051 50.9333 66.2734C49.7825 66.1951 48.8435 65.5323 47.9045 64.9868C45.5247 63.6059 43.2116 62.0984 41.6672 59.7139C41.5518 59.3883 41.3458 59.1025 41.0734 58.89C41.0108 58.8146 40.9574 58.7319 40.9146 58.6437C40.7916 58.3808 40.6161 58.1459 40.3991 57.9532C40.3517 57.8619 40.3363 57.7574 40.3553 57.6563C40.3867 57.5847 40.4332 57.5206 40.4916 57.4686C40.55 57.4166 40.6189 57.3778 40.6937 57.3548C41.032 57.3387 41.2506 57.585 41.5199 57.7208C42.2104 56.837 42.719 57.3525 43.253 57.9026C44.5074 59.1833 45.9088 60.3112 47.428 61.2629C48.1808 61.7882 49.0589 62.1058 49.9736 62.1835C49.7434 61.3066 49.0645 60.8233 48.8412 60.1121C48.7537 59.8313 48.5121 59.5275 48.7653 59.2628C49.0576 58.9544 49.4028 59.1408 49.7066 59.3089C51.0165 60.0079 52.3841 60.5932 53.7942 61.058C54.045 61.1478 54.2982 61.2399 54.5537 61.3158C55.0094 61.4879 55.4792 61.6203 55.9576 61.7117C56.8553 61.7784 57.746 61.8797 58.6344 62.0293C59.8266 62.2825 61.0188 62.0799 62.211 62.0293C62.3707 61.9866 62.5341 61.9589 62.6989 61.9464C62.9913 61.8972 63.2908 61.9098 63.5781 61.9833C63.9809 62.1375 63.8888 61.836 63.9464 61.6541C64.2328 61.4984 64.5679 61.458 64.8831 61.5414C65.3572 61.7301 65.783 61.5736 66.2019 61.3572C66.4528 61.2606 66.7105 61.1777 66.9637 61.0811C69.9235 60.2617 72.377 58.6161 74.4576 56.4181C77.3668 53.3409 78.9388 49.6561 79.5211 45.4649C79.8295 43.1979 79.5878 40.9723 79.4428 38.7375C79.3553 37.3565 78.4623 36.1919 77.9123 34.9468C76.5497 31.8673 74.4783 29.3126 71.9535 27.0524C70.3224 25.5549 68.3962 24.415 66.2986 23.706C65.6532 23.4669 65.0358 23.1582 64.4573 22.7853C64.3314 22.6371 64.1656 22.5281 63.9795 22.4713C63.7934 22.4146 63.595 22.4126 63.4078 22.4654C63.3054 22.4678 63.2032 22.4562 63.104 22.4309C62.5274 22.1686 61.8809 22.1015 61.2627 22.2399C61.1465 22.2325 61.0322 22.206 60.9244 22.1616C60.1695 21.7888 59.3501 22.058 58.5745 21.9176C57.9692 21.8049 57.5388 21.5885 58.3329 21.0569C59.1618 20.9625 59.9972 20.9394 60.8301 20.9878C61.536 21.3383 62.3388 21.4428 63.1109 21.2847C63.2179 21.2709 63.3262 21.2709 63.4331 21.2847C63.997 21.4988 64.5655 21.6737 65.1754 21.5379C65.0304 21.5954 65.2721 21.3814 65.2813 21.5379C65.2905 21.6944 65.5114 21.6277 65.3871 21.5563C65.1317 21.4228 64.8348 21.531 64.5632 21.4458C62.3065 20.8753 59.9861 20.5953 57.6585 20.6127C56.8967 20.6127 56.1303 20.6334 55.4007 20.3526C55.1107 20.2398 54.8299 20.1017 54.8023 19.7404C54.7723 19.3307 55.0324 19.1143 55.3684 18.9739C55.8952 18.7454 56.4608 18.6197 57.0348 18.6034C59.0141 18.5482 60.9981 18.4032 62.9544 18.8681C63.331 19.0429 63.7368 19.1459 64.1512 19.1719C64.2479 19.2064 64.3422 19.2478 64.4366 19.2893C64.577 19.3491 64.3906 19.2685 64.5333 19.3238C64.676 19.379 64.6576 19.3675 64.5563 19.3238C64.3238 19.1911 64.0598 19.1235 63.7922 19.1282C63.5201 19.1014 63.2672 18.9762 63.081 18.776C62.6966 17.7817 62.7703 17.6598 63.707 17.7288Z" fill="#E3E3E3"/>
<path d="M33.3322 45.9575C28.6163 44.5926 24.6277 42.1254 21.4124 38.3853C19.3962 36.04 18.3237 33.3403 17.891 30.3322C17.8127 29.7913 17.9071 29.1814 17.4307 28.7556V22.3388C17.5619 22.1708 17.6746 21.9568 17.9485 22.1087C18.013 22.1915 18.0268 22.3503 18.0797 22.3756C18.1741 22.4217 18.0797 22.2928 18.1234 22.2468C18.1221 21.8966 18.1861 21.5493 18.3122 21.2226C18.3396 21.1256 18.3727 21.0303 18.4111 20.9372C18.5486 20.618 18.6587 20.2877 18.7403 19.9498C18.7702 19.8025 18.8024 19.6575 18.8438 19.5125C18.9142 19.2707 19.0239 19.0421 19.1683 18.8358C19.4215 18.5781 19.4883 18.2305 19.5987 17.9152C20.2892 16.4606 20.9797 15.0222 22.0568 13.7977C22.4068 13.4827 22.721 13.1299 22.9935 12.7459C23.0614 12.6608 23.1386 12.5836 23.2237 12.5157C23.852 12.1337 24.2479 11.4662 24.92 11.1348C25.2554 11.0175 25.5427 10.7925 25.737 10.495C25.8476 10.3139 26.0151 10.1746 26.2134 10.0991C26.2809 10.0961 26.3483 10.1073 26.4112 10.1318C26.4741 10.1564 26.5312 10.1938 26.5789 10.2417C26.6265 10.2895 26.6637 10.3468 26.6879 10.4098C26.7122 10.4729 26.723 10.5403 26.7198 10.6078C26.5541 11.0681 26.1237 11.3396 25.836 11.7125C24.9154 12.8633 24.0362 14.0279 23.2122 15.2431C23.125 15.3631 23.048 15.4901 22.982 15.6229C22.8937 15.8551 22.7563 16.0655 22.5793 16.2397C22.2106 16.5553 21.916 16.9482 21.7162 17.3905C21.3824 18.0395 21.1615 18.73 20.8945 19.3721C20.8048 19.6023 20.6989 19.8324 20.5976 20.0626C20.5052 20.2958 20.4283 20.535 20.3675 20.7784C20.2271 21.1443 20.3513 21.4988 20.4089 21.8578C20.3629 22.9234 20.0291 23.9476 19.9624 25.0109C19.7944 25.4713 19.8266 25.9523 19.7737 26.4241C19.7572 26.5464 19.7311 26.6673 19.6954 26.7854C19.4031 27.8603 19.6747 28.9167 19.8036 29.9777C19.7852 30.438 19.9532 30.8684 19.9601 31.3195C19.9601 31.5888 20.0844 31.8374 20.0752 32.1067C20.1534 32.3782 20.257 32.6429 20.3283 32.903C20.3513 32.8455 20.3053 32.8155 20.3053 32.7695C20.2386 32.5209 20.1327 32.2931 20.0752 32.0468C20.0752 31.7637 19.9417 31.499 19.9601 31.216C19.9762 30.6935 19.944 29.9869 20.5585 29.9593C20.9958 29.9409 20.9498 30.6797 21.0533 31.0917C21.1707 31.552 21.1937 32.0468 21.4239 32.4726C21.4515 32.5255 21.4791 32.5854 21.509 32.6475C21.5804 32.4979 21.4239 32.4174 21.3986 32.2954C21.3134 32.1206 21.2477 31.9369 21.2029 31.7476C21.1848 31.3417 21.1128 30.94 20.9889 30.5531C20.8669 30.0675 20.8094 29.568 20.6506 29.0893C20.5832 28.7312 20.5523 28.3673 20.5585 28.003C20.5585 27.057 20.2225 26.1387 20.3283 25.1859C20.3375 23.5633 21.1132 22.1317 21.5735 20.615C21.8014 20.1674 21.9568 19.6866 22.0338 19.1903C22.0827 19.0364 22.1609 18.8934 22.2639 18.7691C22.5311 18.4627 22.701 18.0837 22.7519 17.6805C22.8868 17.2197 23.158 16.8105 23.5298 16.5067C23.6449 16.242 24.4136 16.3456 23.951 15.754C23.9218 15.662 23.9123 15.5649 23.923 15.469C23.9337 15.373 23.9644 15.2804 24.0131 15.1971C25.5345 13.0451 27.3619 11.2384 29.8039 10.1336C30.2089 10.0577 30.5634 9.83212 30.9547 9.74236C31.2539 9.67332 31.6198 9.46618 31.7855 9.95641C31.6727 11.075 30.9754 11.7539 30.1008 12.3892C28.8809 13.2753 27.6082 14.1637 27.1318 15.7587C27.6427 15.9681 27.9511 15.5515 28.3447 15.4894C28.6347 15.4456 28.9638 15.2431 29.1871 15.563C29.4103 15.8829 29.2009 16.1522 29.0513 16.4169C28.8752 16.7123 28.6759 16.9932 28.4552 17.257C26.3837 19.8715 25.4631 22.8958 25.3204 26.1824C25.2882 27.0087 25.0603 27.7935 25.134 28.6612C25.3964 31.7292 26.7451 34.3484 28.5679 36.6546C29.698 38.0815 31.3551 39.1057 33.0514 39.9228C33.1527 39.9585 33.2518 40 33.3483 40.0471C34.0403 40.4234 34.7721 40.7214 35.5302 40.9355C35.7253 41.0048 35.9243 41.0624 36.1263 41.1081C36.384 41.1587 36.6372 41.2416 36.8973 41.283C37.0101 41.283 37.1274 41.306 37.2287 41.3221C41.7996 42.3141 45.802 40.894 49.5444 38.4175C51.2877 37.3093 52.7443 35.8045 53.7954 34.0262C54.0626 33.5633 54.4102 33.1518 54.8219 32.8109C54.9161 32.7536 55.0213 32.7167 55.1307 32.7024C55.2401 32.6881 55.3513 32.6969 55.4571 32.7281C56.0026 33.2206 55.9658 32.6153 56.1177 32.369C56.7828 31.0502 56.9278 29.5519 57.5561 28.2262C57.8553 27.9132 57.883 27.4759 58.0671 27.1123C58.2512 26.7486 58.3318 26.2745 58.9233 26.5162C59.0294 26.6977 59.093 26.901 59.1094 27.1106C59.1257 27.3203 59.0943 27.531 59.0176 27.7268C58.8507 27.9441 58.742 28.2004 58.7017 28.4714C58.6614 28.7425 58.6909 29.0193 58.7875 29.2757C58.8174 30.2539 58.4791 31.14 58.1085 32.0192C58.0924 32.1251 57.9175 32.2494 58.0095 32.3092C58.1016 32.369 57.9428 32.3391 58.0556 32.224C58.3318 31.8213 58.8864 31.9939 59.1902 31.6671C59.2444 31.6839 59.2936 31.7136 59.3337 31.7537C59.3738 31.7938 59.4036 31.8431 59.4204 31.8972C59.0291 33.9686 57.9497 35.7385 56.792 37.421C53.2269 42.611 48.366 45.9022 42.062 46.7883C39.3001 47.1773 36.4922 47.1083 33.7764 46.2682C33.6118 46.1904 33.4616 46.0854 33.3322 45.9575Z" fill="#BDBDBD"/>
<path d="M18.3525 19.1282L18.3848 18.898C18.6504 18.5724 18.7995 18.1673 18.8082 17.7472C20.5229 12.9761 23.7865 9.54447 28.1181 7.04037C30.5404 5.65228 33.19 4.70544 35.9434 4.24397C36.1505 4.20714 36.4129 4.27849 36.5349 4H38.8365C38.9216 4.33833 39.4648 4.07825 39.4993 4.5892C38.1161 5.1761 36.5556 5.09785 35.154 5.63641C34.938 5.87815 34.6439 6.03621 34.3231 6.08292C34.0213 6.14712 33.7238 6.23014 33.4324 6.33148C33.1907 6.40974 32.9514 6.49259 32.712 6.56164C32.3322 6.68593 31.9801 6.88156 31.598 7.00354C31.176 7.12984 30.7843 7.34133 30.4473 7.62496C30.1711 7.85512 29.8834 7.78837 29.5911 7.66179C29.1768 7.51679 28.9144 7.75385 28.6705 8.02544C28.4939 8.20706 28.2996 8.37052 28.0905 8.51337C27.7567 8.74352 27.4184 8.97368 27.0939 9.20384C25.5748 10.1245 24.4126 11.4617 23.1812 12.6999L23.1973 12.6838C22.8685 13.0541 22.5611 13.4429 22.2767 13.8484C21.2778 15.1258 20.6219 16.6103 19.745 17.9659C19.5332 18.2421 19.7151 18.7139 19.2847 18.8865L19.0545 19.577C18.5021 19.8969 18.4929 19.4205 18.3525 19.1282Z" fill="#BDBDBD"/>
<path d="M38.585 59.6978C40.3204 61.539 41.9338 63.4999 43.9868 65.042C47.413 67.6679 51.3684 69.5188 55.5798 70.4668C55.7537 70.5262 55.921 70.6033 56.0792 70.6969L55.9687 70.8074C55.681 70.9455 55.3703 70.7199 55.0849 70.8603C55.444 70.7384 55.7754 70.9685 56.1275 70.9386C56.4423 70.9761 56.7539 71.0369 57.0597 71.1204C57.3727 71.1895 57.6742 71.2953 57.9803 71.3851C58.3812 71.5266 58.8052 71.5914 59.23 71.5761C59.4514 71.5751 59.6706 71.6189 59.8745 71.705C59.9214 71.7326 59.9608 71.7714 59.9889 71.8181C60.0171 71.8647 60.0331 71.9176 60.0356 71.972C59.7249 72.4323 59.1955 72.018 58.8342 72.2689C50.7787 72.453 44.2284 69.1779 38.8428 63.4033C35.8567 60.1669 33.6279 56.3068 32.3178 52.1026C32.0316 51.3143 31.9003 50.4781 31.9312 49.6399C31.9496 49.3867 31.9128 49.0507 32.2603 49.0093C32.525 48.9771 32.6217 49.2694 32.7022 49.4696C33.2155 50.7378 33.7126 52.0013 34.2166 53.2833C34.5665 54.052 34.7184 54.9473 35.5723 55.3961C36.2517 56.7358 37.0351 58.0202 37.9153 59.2374C38.0879 59.4469 38.0948 59.9279 38.585 59.6978Z" fill="#E3E3E3"/>
<path d="M35.7873 53.2884L35.1314 53.5186C34.2867 51.6934 33.8955 49.744 33.5732 47.7762C33.6469 47.6013 33.7367 47.4586 33.9668 47.546C34.7424 49.2745 35.2672 51.095 35.8955 52.8787C35.9151 52.9505 35.9153 53.0262 35.8964 53.0981C35.8774 53.17 35.8398 53.2356 35.7873 53.2884Z" fill="#E3E3E3"/>
<path d="M58.8369 72.2716C59.1315 71.9011 59.6655 72.2509 59.967 71.8988C60.3444 71.4384 60.7955 71.3073 61.3479 71.5857C61.2766 71.7538 61.2075 71.9241 61.1362 72.0944C60.3836 72.3821 59.6102 72.3153 58.8369 72.2716Z" fill="#E3E3E3"/>
<path d="M35.5821 55.396C34.5027 55.0945 34.4014 54.1739 34.2334 53.2832C34.8548 53.7688 34.6201 54.8943 35.6143 55.1106L35.5821 55.396Z" fill="#E3E3E3"/>
<path d="M33.7728 47.5298L33.5703 47.7738L33.5012 46.6713C33.446 46.3698 33.5864 46.333 33.8258 46.4412C34.0628 46.8094 34.0904 47.18 33.7728 47.5298Z" fill="#E3E3E3"/>
<path d="M33.7237 46.416L33.4936 46.6715C33.4383 46.4413 33.3808 46.1974 33.3232 45.958L33.7836 46.0294C33.8871 46.1813 33.8917 46.3147 33.7237 46.416Z" fill="#E3E3E3"/>
<path d="M57.4761 16.0874L53.5635 11.1183C54.2286 11.0355 54.4703 11.6178 54.827 11.9699C55.9985 13.1207 57.0596 14.3727 57.704 15.9148C57.6828 15.9598 57.6509 15.999 57.6113 16.0291C57.5716 16.0591 57.5252 16.0792 57.4761 16.0874Z" fill="#BDBDBD"/>
<path d="M41.7958 6.05775L39.2641 6.10838C38.9695 6.19151 38.6593 6.20256 38.3596 6.1406C37.9798 5.96798 37.4734 6.21886 37.165 5.79537C38.7278 5.61124 40.2975 5.21537 41.7958 6.05775Z" fill="#BDBDBD"/>
<path d="M54.4287 17.0401C55.6462 16.5798 56.9144 16.9711 58.148 16.81L58.3782 17.0609C58.4288 17.2726 58.3782 17.3923 58.148 17.291L55.3862 17.2542C55.0847 17.0494 54.6865 17.3278 54.4287 17.0401Z" fill="#E3E3E3"/>
<path d="M37.1675 5.79492C37.5541 5.94683 38.0351 5.66143 38.3643 6.0619C38.2354 6.21841 38.0098 6.15627 37.8648 6.27825L36.7647 6.30127C36.5806 6.0573 36.2169 6.32428 36.042 6.0527C36.3412 5.65913 36.7854 5.85706 37.1675 5.79492Z" fill="#BDBDBD"/>
<path d="M63.2079 18.6356C62.4392 18.8128 62.7798 17.6206 62.0732 17.715C62.0732 17.2754 62.3448 17.4342 62.5704 17.4848C62.9593 17.5216 63.3713 17.4503 63.7097 17.715C62.9847 17.7265 62.9732 18.1131 63.2079 18.6356Z" fill="#E3E3E3"/>
<path d="M36.0304 6.04836C36.302 6.07138 36.5805 6.01614 36.7623 6.30154L34.9211 6.71812C34.8198 6.35217 35.0615 6.17955 35.3192 6.01384C35.4108 5.97135 35.5149 5.96398 35.6115 5.99313L36.0304 6.04836Z" fill="#BDBDBD"/>
<path d="M60.9319 17.499L59.0906 17.2689C59.0124 17.2275 58.9848 17.186 59.0101 17.1423C59.0354 17.0986 59.0584 17.0733 59.086 17.0733C59.7903 17.117 60.5153 16.8937 61.192 17.2574C61.1621 17.4047 61.0101 17.4208 60.9319 17.499Z" fill="#E3E3E3"/>
<path d="M60.9307 17.4982L61.1815 17.252C61.6418 17.3003 62.1482 17.1967 62.5786 17.4821L62.0814 17.7123L60.9307 17.4982Z" fill="#E3E3E3"/>
<path d="M53.0546 10.6359C52.4792 10.5899 52.1547 10.2377 51.9521 9.73828C52.4884 9.83265 52.928 10.0444 53.0546 10.6359Z" fill="#BDBDBD"/>
<path d="M35.6133 5.99255L35.3831 6.07311C35.2623 6.16313 35.1232 6.22547 34.9757 6.2557C34.8281 6.28593 34.6757 6.28331 34.5292 6.24803C34.3566 6.17668 34.2116 6.08462 34.2577 5.85906L35.1783 5.62891L35.6133 5.99255Z" fill="#BDBDBD"/>
<path d="M44.8381 6.24865L43.6689 6.03691C43.9077 5.87846 44.1879 5.79395 44.4745 5.79395C44.7611 5.79395 45.0413 5.87846 45.28 6.03691C45.1995 6.24175 44.99 6.18421 44.8381 6.24865Z" fill="#BDBDBD"/>
<path d="M43.4216 6.30113C43.0626 6.2551 42.5769 6.45994 42.501 5.84082C42.7472 6.13772 43.4009 5.57614 43.4216 6.30113Z" fill="#BDBDBD"/>
<path d="M44.8369 6.24882L45.2972 6.04168C45.3993 6.03696 45.5009 6.05736 45.5932 6.10111C45.6855 6.14485 45.7656 6.21059 45.8266 6.29255C45.4721 6.66541 45.1499 6.53192 44.8369 6.24882Z" fill="#BDBDBD"/>
<path d="M57.4775 16.0877L57.7077 15.915L58.168 16.6055C57.7077 16.6838 57.565 16.4283 57.4775 16.0877Z" fill="#BDBDBD"/>
<path d="M59.065 17.0678C59.065 17.1345 59.065 17.199 59.065 17.2634C58.7497 17.1806 58.4574 17.7421 58.126 17.3025L58.3561 17.0724C58.6047 16.8284 58.8326 17.0954 59.065 17.0678Z" fill="#E3E3E3"/>
<path d="M61.1333 22.079C59.0619 21.8305 56.9721 22.1665 54.9053 21.7844C56.0376 21.4185 57.1746 21.1354 58.3714 21.2159C58.3829 21.3632 57.8513 21.5451 58.33 21.6279C58.8847 21.7269 59.4808 21.6532 60.0424 21.6486C60.4705 21.6463 60.8939 21.6164 61.1333 22.079Z" fill="#E3E3E3"/>
<path d="M62.7333 69.0632C62.3374 68.6628 61.7781 69.0379 61.3408 68.7755C61.7896 68.0851 62.4916 68.6881 63.0141 68.4303C63.4997 68.6789 63.9347 68.3774 64.395 68.3198C64.7764 68.3212 65.1542 68.2469 65.5067 68.1012C65.7759 68.0598 66.0291 67.9009 66.3168 67.9654C66.4244 67.9897 66.5261 68.0351 66.616 68.0989C66.8462 68.5592 66.3674 68.6098 66.181 68.8285L62.7333 69.0632Z" fill="#E3E3E3"/>
<path d="M56.0802 70.6992C57.8501 70.8603 59.65 70.7936 61.3577 71.4173C61.07 71.5577 60.7432 71.4818 60.4532 71.5968C60.1448 71.6291 59.8364 71.6175 59.5326 71.6198C59.1114 71.6037 58.6856 71.6636 58.269 71.5554C57.8925 71.3991 57.4944 71.3013 57.0883 71.2654C56.7671 71.1474 56.4359 71.0588 56.0986 71.0007C56.0709 70.9775 56.0497 70.9475 56.0372 70.9136C56.0247 70.8796 56.0213 70.843 56.0273 70.8074C56.0434 70.7406 56.0595 70.7061 56.0779 70.7061L56.0802 70.6992Z" fill="#E3E3E3"/>
<path d="M68.9528 66.5771C68.9229 66.9431 69.3142 67.0375 69.4131 67.3205C69.4292 67.5645 69.252 67.629 69.0702 67.6934C68.9362 67.7076 68.8047 67.7394 68.6789 67.7878C68.6068 67.8361 68.5404 67.8925 68.481 67.9558H68.0414C67.9911 68.012 67.9273 68.0544 67.856 68.079C67.7847 68.1036 67.7083 68.1095 67.634 68.0962C67.4332 68.05 67.2482 67.9515 67.0978 67.8108C67.0405 67.7262 67.0129 67.625 67.0195 67.5231C67.0658 67.3759 67.1508 67.2439 67.2658 67.141C67.4292 67.0144 67.6271 66.95 67.7997 66.8395C68.1726 66.6715 68.603 66.8073 68.9528 66.5771Z" fill="#E3E3E3"/>
<path d="M85.0967 45.826C85.0806 46.185 85.198 46.5809 84.6709 46.8456C84.9793 45.2759 84.5811 43.6763 85.053 42.1182C85.2716 43.3564 85.1888 44.5877 85.0967 45.826Z" fill="#E0E1E5"/>
<path d="M53.5444 66.8071C52.5801 67.0188 51.8182 66.4895 51.0127 66.1166C51.0495 65.6563 51.2843 65.6678 51.6295 65.845C52.0622 66.0752 52.4765 66.3744 53.0105 66.3238C53.2153 66.4526 53.4501 66.5516 53.5444 66.8071Z" fill="#E3E3E3"/>
<path d="M58.5908 62.264C59.8222 62.3722 61.0489 61.7485 62.2733 62.2295C61.0558 62.4436 59.8245 62.6415 58.5908 62.264Z" fill="#E3E3E3"/>
<path d="M58.3978 69.0653L62.513 69.139C61.8226 69.5256 61.0561 69.2909 60.3265 69.3277C59.8806 69.3268 59.4373 69.3951 59.0123 69.5303C58.819 69.3968 58.5935 69.4589 58.384 69.429C58.2275 69.406 58.1055 69.33 58.1424 69.1574C58.1677 69.0308 58.2897 69.04 58.3978 69.0653Z" fill="#E3E3E3"/>
<path d="M68.9258 67.5234C69.0195 67.5356 69.1148 67.5228 69.2021 67.4864C69.2894 67.4501 69.3655 67.3914 69.4229 67.3163C69.6991 67.2979 69.9385 66.9388 70.2308 67.2058C70.2717 67.2619 70.2974 67.3276 70.3055 67.3965C70.3136 67.4655 70.3037 67.5354 70.2768 67.5994C70.1974 67.7255 70.0846 67.8271 69.9509 67.8929C69.8172 67.9587 69.6679 67.9862 69.5196 67.9722C69.3354 67.9561 69.1536 67.9308 68.9695 67.9101C68.9328 67.8951 68.9006 67.8709 68.876 67.8399C68.8514 67.8088 68.8353 67.772 68.8291 67.7329C68.8325 67.653 68.8673 67.5778 68.9258 67.5234Z" fill="#E3E3E3"/>
<path d="M85.0955 45.826C85.0817 44.5908 85.0671 43.3549 85.0518 42.1182C85.4361 43.3564 85.3625 44.5854 85.0955 45.826Z" fill="#E3E3E3"/>
<path d="M77.0076 61.5389C76.6296 62.0136 76.1518 62.3994 75.6083 62.669C75.3781 62.7335 75.3137 62.6437 75.3781 62.4389L76.7199 61.2881C76.9731 61.2052 77.0398 61.3088 77.0076 61.5389Z" fill="#E3E3E3"/>
<path d="M60.9072 21.2176C61.6809 21.1455 62.4613 21.2173 63.2088 21.4293C62.394 21.8252 61.6207 21.8022 60.9072 21.2176Z" fill="#E3E3E3"/>
<path d="M58.3974 69.0657C58.2846 69.6387 59.005 69.1163 59.0142 69.526C58.402 69.526 57.7736 69.7377 57.1982 69.3603C57.1998 69.3024 57.2148 69.2457 57.242 69.1946C57.2691 69.1435 57.3077 69.0994 57.3548 69.0657C57.4514 69.0035 57.5642 68.9759 57.6609 68.9091C57.787 68.872 57.9203 68.8669 58.0489 68.8942C58.1775 68.9216 58.2972 68.9805 58.3974 69.0657Z" fill="#E3E3E3"/>
<path d="M35.8428 53.5068L36.9085 55.5782C36.5766 55.3449 36.3063 55.0345 36.1207 54.6737C35.9351 54.3129 35.8397 53.9125 35.8428 53.5068Z" fill="#E3E3E3"/>
<path d="M54.2568 68.6207L54.9473 68.4297C55.1775 68.9821 55.7552 68.6023 56.0843 68.8716L56.0682 68.8578C56.1029 68.8816 56.1325 68.9123 56.1551 68.9479C56.1776 68.9835 56.1927 69.0233 56.1994 69.0649C56.1953 69.1061 56.1817 69.1459 56.1597 69.181C56.1378 69.2161 56.108 69.2457 56.0728 69.2675C55.4536 69.0971 54.6734 69.3641 54.2568 68.6207Z" fill="#E3E3E3"/>
<path d="M65.96 61.5026C66.2799 60.9456 66.8023 60.7684 67.4905 60.6855L66.8944 61.399L66.2684 61.5832C66.2439 61.6017 66.2156 61.6145 66.1855 61.6206C66.1554 61.6266 66.1243 61.6257 66.0946 61.6179C66.0649 61.6102 66.0373 61.5957 66.014 61.5758C65.9907 61.5558 65.9722 61.5308 65.96 61.5026Z" fill="#E3E3E3"/>
<path d="M62.7139 62.2068C62.944 61.5877 63.4711 61.827 63.9061 61.7902C63.9061 61.9398 64.4147 62.0986 63.9498 62.2091C63.5608 62.3035 63.1258 62.2137 62.7139 62.2068Z" fill="#E3E3E3"/>
<path d="M63.2016 22.3183C62.5784 22.3802 61.9492 22.3015 61.3604 22.0881C62.0393 21.6716 62.64 21.8373 63.2016 22.3183Z" fill="#E3E3E3"/>
<path d="M67.4095 67.2451L67.1172 67.5535C66.8953 67.7789 66.6012 67.9191 66.2863 67.9494C66.0976 67.924 65.8904 68.1266 65.7224 67.8987C65.5544 67.6709 65.2322 67.779 64.9951 67.6962C65.2644 67.466 65.6142 67.5144 65.9296 67.4407C66.0869 67.2554 66.3093 67.1376 66.551 67.1116C66.8341 67.1668 67.1563 66.9827 67.4095 67.2451Z" fill="#E3E3E3"/>
<path d="M53.5431 66.8072L53.0068 66.3262C53.5086 66.4413 54.0448 66.4505 54.4591 66.8233C54.5144 66.8762 54.5328 66.9269 54.5098 66.9775C54.4867 67.0282 54.4683 67.0489 54.4499 67.0489C54.0356 67.3803 53.8308 66.9407 53.5431 66.8072Z" fill="#E3E3E3"/>
<path d="M84.1768 48.8021L84.5634 47C84.9478 47.9091 84.5082 48.3326 84.5266 48.8413L84.1768 48.8021Z" fill="#E3E3E3"/>
<path d="M49.1025 66.8324C49.4478 66.7705 49.8037 66.8412 50.0991 67.0303C50.3431 67.203 50.5917 67.3733 50.3178 67.7208C49.9058 67.4377 49.2406 67.4999 49.1025 66.8324Z" fill="#DEDFE3"/>
<path d="M63.4365 21.4414L64.5436 21.469C64.7737 21.6301 65.1121 21.3816 65.2778 21.6992C64.9856 21.8658 64.6463 21.9309 64.3132 21.8843C63.98 21.8376 63.6717 21.6819 63.4365 21.4414Z" fill="#E3E3E3"/>
<path d="M67.4092 67.2444L66.454 67.2928C66.3528 67.3411 66.2377 67.3641 66.1916 67.2421C66.1111 67.035 66.2584 66.9176 66.4218 66.8164C66.8154 67.0465 67.202 66.7266 67.5933 66.8048C67.6078 66.7874 67.6259 66.7732 67.6462 66.7631C67.6665 66.753 67.6887 66.7473 67.7114 66.7463C67.7341 66.7452 67.7567 66.7489 67.7779 66.7572C67.7991 66.7654 67.8183 66.7779 67.8343 66.794C67.8504 66.81 67.8629 66.8292 67.8711 66.8504C67.8794 66.8716 67.8831 66.8942 67.882 66.9169C67.881 66.9396 67.8753 66.9618 67.8652 66.9821C67.8551 67.0025 67.8409 67.0205 67.8235 67.035L67.4092 67.2444Z" fill="#E3E3E3"/>
<path d="M50.3173 67.7218C50.4324 67.4341 50.1539 67.273 50.0986 67.0313C50.5589 66.9645 50.9134 67.1924 51.2494 67.4502C51.2706 67.4711 51.2871 67.4963 51.2979 67.5241C51.3086 67.5519 51.3134 67.5817 51.3119 67.6114C51.3104 67.6412 51.3026 67.6703 51.289 67.6969C51.2755 67.7234 51.2565 67.7468 51.2333 67.7655C51.1134 67.7909 50.9883 67.7747 50.8789 67.7195L50.3173 67.7218Z" fill="#E3E3E3"/>
<path d="M52.9051 67.9951C53.3332 68.2253 54.0835 67.834 54.1963 68.6626H54.1134L54.0352 68.6396C53.6623 68.7385 53.3447 68.513 52.9902 68.4646C52.7325 68.4439 52.6887 68.1977 52.9051 67.9951Z" fill="#E3E3E3"/>
<path d="M66.1915 68.8287C66.1685 68.4857 66.5344 68.4213 66.6518 68.1842C66.7327 68.1206 66.8345 68.0894 66.9372 68.0968C67.1973 68.2026 67.5954 68.1497 67.5494 68.6146L66.1915 68.8287Z" fill="#E3E3E3"/>
<path d="M52.9039 67.995C53.0121 68.6854 53.7348 68.2919 54.034 68.6417C53.4126 68.9892 52.9154 68.598 52.393 68.3655C52.3704 68.3502 52.3519 68.3296 52.3391 68.3056C52.3263 68.2815 52.3195 68.2547 52.3193 68.2274C52.3193 68.1722 52.3193 68.1446 52.3377 68.1423C52.3699 68.0868 52.4149 68.0399 52.469 68.0055C52.5231 67.971 52.5846 67.9501 52.6485 67.9443L52.9039 67.995Z" fill="#E3E3E3"/>
<path d="M55.8464 61.574V61.9607C55.3171 62.0136 54.9258 61.6638 54.4655 61.5004C54.4218 61.2702 54.576 61.2196 54.7555 61.2012C55.1447 61.232 55.5198 61.3602 55.8464 61.574Z" fill="#E3E3E3"/>
<path d="M65.9584 61.502L66.2668 61.5825C65.8686 61.7137 65.5441 62.2891 65.04 61.7805C65.2104 61.2442 65.5786 61.3547 65.9584 61.502Z" fill="#E3E3E3"/>
<path d="M84.9244 40.6088C84.4871 40.1278 84.6022 39.7273 84.6943 39.3223C84.8669 39.6951 85.1845 40.0357 84.9244 40.6088Z" fill="#E3E3E3"/>
<path d="M73.7568 63.5848L74.7074 62.915C74.777 62.9208 74.843 62.9487 74.8956 62.9947C74.9482 63.0407 74.9847 63.1023 74.9997 63.1705C74.7349 63.4722 74.3951 63.6985 74.0146 63.8265C73.9513 63.8195 73.8919 63.7921 73.8455 63.7486C73.799 63.705 73.7679 63.6475 73.7568 63.5848Z" fill="#E3E3E3"/>
<path d="M83.6885 50.5328C83.792 50.0725 83.8197 49.6122 84.2501 49.1035C84.3325 49.606 84.2188 50.1209 83.9324 50.542C83.8473 50.6456 83.7644 50.6479 83.6885 50.5328Z" fill="#E3E3E3"/>
<path d="M67.5514 68.6147L66.9346 68.2142C67.0796 67.9473 67.3419 67.9726 67.5859 67.9473H68.0462C67.9818 68.2465 68.0646 68.6492 67.5514 68.6147Z" fill="#E3E3E3"/>
<path d="M67.8058 67.035L67.792 66.7565C68.0981 66.3515 68.4664 66.1489 68.9727 66.3952C68.963 66.4554 68.9569 66.5161 68.9543 66.577C68.662 66.9591 68.2178 66.9568 67.8058 67.035Z" fill="#E3E3E3"/>
<path d="M82.4945 53.668C82.6096 53.2767 82.651 52.844 83.0745 52.6207L83.1505 52.5908C83.307 53.1409 82.8053 53.4884 82.727 53.9718C82.4992 53.9833 82.3887 53.9096 82.4945 53.668Z" fill="#E3E3E3"/>
<path d="M56.7414 67.7187C56.3617 67.6704 55.9336 67.8591 55.6137 67.4886C55.5768 67.4706 55.5476 67.4402 55.5311 67.4027C55.5147 67.3651 55.5121 67.323 55.5239 67.2837C55.6077 67.1878 55.7135 67.1136 55.8323 67.0674L56.334 67.2331C56.3041 67.5415 56.9739 67.2446 56.7414 67.7187Z" fill="#E3E3E3"/>
<path d="M66.4166 66.8164C66.3913 66.9798 66.1864 67.1593 66.4603 67.2928C66.3937 67.3631 66.3093 67.4139 66.2161 67.4398C66.1228 67.4657 66.0243 67.4659 65.931 67.4401L65.1807 67.1225L66.4166 66.8164Z" fill="#E3E3E3"/>
<path d="M63.167 19.154C63.3971 19.0619 63.7102 19.2 63.8828 18.9238L64.7873 19.154C64.8425 19.6005 64.5272 19.421 64.3132 19.421C63.9219 19.3519 63.5076 19.421 63.167 19.154Z" fill="#E3E3E3"/>
<path d="M40.3962 57.6493C40.1118 57.4325 39.9136 57.1217 39.8369 56.7724C40.2972 56.5952 40.3801 57.09 40.677 57.1706C40.7399 57.212 40.7606 57.2535 40.7391 57.2949C40.7207 57.3386 40.7 57.3593 40.6793 57.3593L40.3962 57.6493Z" fill="#E3E3E3"/>
<path d="M38.5843 59.6981C38.5843 59.8408 38.6211 60.0249 38.5498 60.1147C38.368 60.3448 38.3081 60.0502 38.2828 59.9835C38.1838 59.7142 37.643 59.659 37.903 59.2217L38.5843 59.6981Z" fill="#E3E3E3"/>
<path d="M54.6894 61.3086L54.4707 61.4973L53.7803 61.2672V60.8621C53.847 60.7585 53.923 60.7493 54.0104 60.8437L54.6733 61.0739C54.8091 61.136 54.816 61.2166 54.6894 61.3086Z" fill="#E3E3E3"/>
<path d="M83.1492 52.5904L83.0733 52.6203C82.9214 52.1393 83.2045 51.7779 83.4139 51.3936C83.5566 51.4304 83.5704 51.5731 83.6441 51.6697C83.4669 51.9735 83.5842 52.427 83.1492 52.5904Z" fill="#E3E3E3"/>
<path d="M73.7584 63.585L74.0162 63.8266C73.7861 64.0453 73.5559 64.2984 73.1439 64.2087C73.1301 63.7599 73.5053 63.7323 73.7584 63.585Z" fill="#E3E3E3"/>
<path d="M72.8478 64.3008C72.6407 64.8347 72.3622 64.9176 71.9502 64.8854C72.0515 64.4182 72.3438 64.3491 72.8478 64.3008Z" fill="#E3E3E3"/>
<path d="M68.9705 66.3959L67.7898 66.7572C67.7255 66.787 67.6558 66.8035 67.585 66.8056C67.776 66.0691 68.448 66.2509 68.9429 66.0967C69.0142 66.1473 69.0395 66.1979 69.0165 66.2486C68.9935 66.2992 68.9705 66.3268 68.9475 66.3268L68.9705 66.3959Z" fill="#E3E3E3"/>
<path d="M52.3936 68.2365V68.3654C51.8251 68.3056 51.2635 68.2319 50.8838 67.7279L51.2474 67.6611C51.6801 67.7532 52.1842 67.6957 52.3936 68.2365Z" fill="#E3E3E3"/>
<path d="M60.4243 71.4353L61.3449 71.4238C61.3496 71.4802 61.3449 71.537 61.3311 71.5918L59.9502 71.9049L59.9824 71.822C59.8765 71.3985 60.3115 71.5895 60.4243 71.4353Z" fill="#E3E3E3"/>
<path d="M83.6413 51.6702L83.4111 51.394C83.5009 51.1086 83.5929 50.8209 83.685 50.5332H83.929C83.8346 50.9176 83.738 51.295 83.6413 51.6702Z" fill="#E3E3E3"/>
<path d="M82.4927 53.668L82.7228 53.9649C82.5963 54.2111 82.6009 54.5495 82.2625 54.6553C82.2088 54.7351 82.149 54.7397 82.083 54.6691C82.0839 54.2948 82.2309 53.9355 82.4927 53.668Z" fill="#E3E3E3"/>
<path d="M81.9542 55.3963C81.8161 55.714 81.6964 56.0454 81.2982 56.2525C81.1624 55.7922 81.4248 55.5851 81.6182 55.3457C81.642 55.3233 81.6706 55.3066 81.7018 55.2969C81.7331 55.2872 81.7661 55.2847 81.7984 55.2895C81.8308 55.2944 81.8616 55.3065 81.8886 55.325C81.9156 55.3435 81.938 55.3679 81.9542 55.3963Z" fill="#E3E3E3"/>
<path d="M40.6768 57.359C40.6768 57.2968 40.6768 57.2324 40.6768 57.1703C41.4248 56.8734 41.312 57.4441 41.3672 57.8492L40.6768 57.359Z" fill="#E3E3E3"/>
<path d="M56.7405 67.7186C56.7774 67.4125 56.1122 67.7025 56.3332 67.2422C56.729 67.2767 57.1433 67.2422 57.5001 67.4723L56.7405 67.7186Z" fill="#E3E3E3"/>
<path d="M65.2781 21.7035L64.5439 21.4733L65.0043 21.2432C65.2897 21.3099 65.6165 21.2823 65.7937 21.593L65.2781 21.7035Z" fill="#E3E3E3"/>
<path d="M64.3571 22.5275C64.0377 22.5584 63.7165 22.491 63.4365 22.3342C63.8209 22.0258 64.1638 21.9291 64.3571 22.5275Z" fill="#E3E3E3"/>
<path d="M55.8331 67.076L55.6029 67.2877C55.1426 67.5179 54.8135 67.244 54.4521 67.0345V67.0483C54.4606 66.9719 54.4606 66.8947 54.4521 66.8182C54.947 66.733 55.3682 67.0253 55.8331 67.076Z" fill="#E3E3E3"/>
<path d="M77.0083 61.539L76.7275 61.2766C76.9232 60.9751 77.1602 60.7703 77.5584 60.9061C77.5216 61.2605 77.2868 61.4193 77.0083 61.539Z" fill="#E3E3E3"/>
<path d="M68.9482 66.3261C68.9482 66.2502 68.9482 66.1719 68.9482 66.096C69.286 65.8418 69.6813 65.675 70.099 65.6104C70.1262 65.6307 70.1469 65.6585 70.1587 65.6903C70.1706 65.7221 70.173 65.7567 70.1658 65.7899C70.1497 65.852 70.1312 65.8842 70.1128 65.8842L68.9482 66.3261Z" fill="#E3E3E3"/>
<path d="M70.1046 65.8842L70.0908 65.6103C70.321 65.4147 70.703 65.1224 70.8043 65.4354C70.9378 65.8474 70.367 65.7668 70.1046 65.8842Z" fill="#E3E3E3"/>
<path d="M74.9984 63.1713L74.7061 62.9205L75.385 62.4395L75.6152 62.6696C75.5506 62.7898 75.4628 62.8961 75.3569 62.9822C75.2511 63.0683 75.1292 63.1326 74.9984 63.1713Z" fill="#E3E3E3"/>
<path d="M56.0732 69.268C56.0732 69.2197 56.0732 69.1691 56.0732 69.1184C56.2865 69.0173 56.5196 68.9648 56.7557 68.9648C56.9917 68.9648 57.2248 69.0173 57.4381 69.1184L57.2079 69.3624L56.0732 69.268Z" fill="#E3E3E3"/>
<path d="M64.3135 19.4209C64.4884 19.3611 64.7047 19.3772 64.7876 19.1562L65.4228 19.4485C65.2571 19.5575 65.0621 19.6132 64.8638 19.6083C64.6656 19.6033 64.4736 19.538 64.3135 19.4209Z" fill="#E3E3E3"/>
<path d="M81.9561 55.3965L81.6201 55.3459C81.726 55.0858 81.7513 54.7728 82.0804 54.6554C82.1403 54.6554 82.2001 54.6508 82.26 54.6416C82.2662 54.7818 82.2423 54.9218 82.1899 55.052C82.1374 55.1822 82.0578 55.2997 81.9561 55.3965Z" fill="#E3E3E3"/>
<path d="M41.0914 58.6229C40.821 58.435 40.6165 58.1669 40.5068 57.8564C40.5988 57.8602 40.6888 57.8841 40.7705 57.9266C40.8521 57.9691 40.9234 58.0291 40.9792 58.1023C41.0351 58.1755 41.074 58.2601 41.0934 58.3501C41.1128 58.44 41.1122 58.5332 41.0914 58.6229Z" fill="#E3E3E3"/>
<path d="M41.7948 59.5092C41.5146 59.3406 41.2991 59.0829 41.1826 58.7773C41.273 58.7792 41.362 58.8004 41.4435 58.8395C41.525 58.8786 41.5972 58.9347 41.6552 59.0041C41.7132 59.0734 41.7557 59.1544 41.7798 59.2415C41.8039 59.3287 41.809 59.4199 41.7948 59.5092Z" fill="#E3E3E3"/>
<path d="M74.5553 65.4659C74.4471 65.551 74.3435 65.6845 74.2146 65.7167C74.0857 65.749 74.0489 65.5901 74.1157 65.5142C74.22 65.4163 74.3368 65.3327 74.4632 65.2656L74.5553 65.4659Z" fill="#E3E3E3"/>
<path d="M68.94 67.6703C68.94 67.7509 68.9607 67.8337 68.9699 67.9143L68.4912 67.9557C68.4912 67.8705 68.5073 67.7854 68.5142 67.7002C68.5755 67.6563 68.6477 67.6303 68.7229 67.625C68.7981 67.6197 68.8732 67.6354 68.94 67.6703Z" fill="#E3E3E3"/>
<path d="M34.4738 6.0897L35.3668 6.07129C35.2172 6.28533 35.0676 6.49938 34.9065 6.71112C32.0088 7.55119 29.2493 8.68817 26.9086 10.6744C26.8897 10.6935 26.8668 10.7082 26.8416 10.7175C26.8165 10.7268 26.7896 10.7304 26.7628 10.7282C26.7361 10.7261 26.7101 10.718 26.6868 10.7048C26.6635 10.6915 26.6433 10.6733 26.6278 10.6514L26.2181 10.1911C26.202 9.55356 26.7981 9.4661 27.1525 9.15999C27.4218 8.94824 27.7072 8.75721 27.9673 8.53396C28.1974 8.38206 28.4851 8.27849 28.6462 8.02302C28.9106 7.73695 29.2518 7.53318 29.629 7.43612C29.8592 7.49826 30.0893 7.80437 30.3195 7.43612C30.766 7.2612 31.2079 7.07017 31.6613 6.90906C32.0595 6.77557 32.4254 6.56152 32.8328 6.44875C33.0814 6.3797 33.3115 6.28764 33.5647 6.20018C33.8524 6.04137 34.1792 6.19097 34.4738 6.0897Z" fill="#BDBDBD"/>
<path d="M27.3134 9.2407L26.2178 10.1912L25.9324 10.617C25.6148 10.8472 25.3501 11.1694 24.9612 11.3075C24.2707 11.6688 24.0014 12.5388 23.1729 12.7161C23.6746 11.3996 24.8231 10.6446 25.8243 9.78156C26.1649 9.49157 26.4802 9.03125 27.0257 9.00824C27.2788 8.89086 27.3111 9.04736 27.3134 9.2407Z" fill="#BDBDBD"/>
<path d="M20.1917 28.0266C20.2665 28.0509 20.347 28.0509 20.4218 28.0266C20.7095 28.2936 20.4839 28.6688 20.622 28.9657C20.6638 29.1572 20.7489 29.3367 20.8706 29.4904C21.0593 29.9231 20.9788 30.4111 21.2043 30.846C21.2043 31.1683 21.3585 31.4698 21.3493 31.7966L21.5795 32.1234C21.5935 32.3562 21.5679 32.5897 21.5035 32.8139C20.744 32.0866 20.912 31.044 20.5668 30.1188C20.3045 30.4534 20.1692 30.87 20.1847 31.2949C20.1359 31.322 20.0788 31.3304 20.0242 31.3186C19.9695 31.3067 19.9211 31.2754 19.8878 31.2304C19.6577 30.5676 20.0006 29.8633 19.7359 29.205C19.6873 28.9677 19.6834 28.7234 19.7244 28.4846C19.7912 28.2476 19.8648 28.0059 20.1917 28.0266Z" fill="#BDBDBD"/>
<path d="M19.924 28.5138L19.9562 29.2043C19.7445 29.4644 20.2094 30.0467 19.535 30.0881C19.413 28.9373 19.0195 27.8003 19.4752 26.6357C19.8112 26.8452 19.6639 27.2641 19.8665 27.5311C20.0322 27.8625 19.7307 28.2031 19.924 28.5138Z" fill="#BDBDBD"/>
<path d="M20.4034 29.0066C19.9776 28.6752 20.5277 28.3599 20.4172 28.033C20.4932 27.0411 20.2216 26.0238 20.6175 25.041L20.866 28.0699C20.6543 28.3576 20.9051 28.8708 20.4034 29.0066Z" fill="#BDBDBD"/>
<path d="M22.0482 17.2946L21.0954 19.366C21.0747 19.3993 21.0459 19.4268 21.0117 19.4458C20.9775 19.4649 20.9389 19.4749 20.8997 19.4749C20.8606 19.4749 20.822 19.4649 20.7878 19.4458C20.7535 19.4268 20.7247 19.3993 20.7041 19.366C20.8054 18.6106 21.1056 17.8957 21.5741 17.2946C21.6384 17.2346 21.7232 17.2012 21.8112 17.2012C21.8991 17.2012 21.9839 17.2346 22.0482 17.2946Z" fill="#BDBDBD"/>
<path d="M29.7822 10.3869C30.5717 9.72178 31.5429 9.44329 32.5717 8.99219C32.3807 9.55837 32.0147 9.73329 31.6741 9.93353C30.956 9.72408 30.4681 10.4606 29.7822 10.3869Z" fill="#BDBDBD"/>
<path d="M57.7275 28.3001C57.7783 27.6252 57.9523 26.9653 58.2408 26.353C58.4709 25.8927 58.7425 25.8329 58.7978 26.4727C58.0359 26.8456 58.5262 27.948 57.7275 28.3001Z" fill="#BDBDBD"/>
<path d="M19.5366 30.0977C19.8542 29.8882 19.5872 29.4072 19.9578 29.2139C20.4549 29.9043 19.8657 30.5948 19.9578 31.2715C20.0613 31.5016 19.9578 31.5384 19.7506 31.4809C19.7782 31.0068 19.4123 30.5925 19.5366 30.0977Z" fill="#BDBDBD"/>
<path d="M22.0474 17.2938H21.5732C21.7758 16.8335 21.8195 16.2328 22.4939 16.127C22.5311 16.3436 22.5092 16.5663 22.4306 16.7716C22.3521 16.977 22.2197 17.1573 22.0474 17.2938Z" fill="#BDBDBD"/>
<path d="M56.068 32.1856C56.1394 32.3352 56.2084 32.4871 56.2798 32.6459C56.1394 32.9543 56.1969 33.4653 55.6929 33.4308C55.3706 33.4077 55.6077 33.0832 55.5847 32.8945C55.5358 32.8296 55.504 32.7534 55.4923 32.6729C55.4806 32.5924 55.4895 32.5103 55.5179 32.4342C55.6514 32.227 55.8079 32.0797 56.068 32.1856Z" fill="#BDBDBD"/>
<path d="M18.0668 21.305C17.7008 20.8677 17.9494 20.4603 18.122 20.0484C18.1763 19.9886 18.2488 19.9483 18.3282 19.9338C18.4076 19.9192 18.4897 19.9312 18.5616 19.9678C18.8908 20.313 18.4903 20.6698 18.5823 21.0311C18.5858 21.0817 18.5858 21.1325 18.5823 21.183C18.5194 21.254 18.4362 21.3038 18.3439 21.3256C18.2516 21.3475 18.1548 21.3403 18.0668 21.305Z" fill="#BDBDBD"/>
<path d="M38.0576 45.7277C38.6123 45.4285 38.9644 45.4423 39.3902 45.608C38.9851 46.0959 38.6284 45.974 38.0576 45.7277Z" fill="#BDBDBD"/>
<path d="M22.7233 34.9581C23.1053 35.2781 23.2135 35.7223 23.2687 36.1918C22.8729 35.8742 22.4448 35.5727 22.7394 34.9443L22.7233 34.9581Z" fill="#BDBDBD"/>
<path d="M18.626 20.067L18.1197 20.0486C18.0811 19.7238 18.163 19.3963 18.3499 19.1279C18.58 19.2729 18.6744 19.6274 19.0403 19.5882C19.0403 19.7517 19.0403 19.9151 19.0242 20.0785C18.968 20.1258 18.8964 20.1507 18.8229 20.1486C18.7495 20.1465 18.6794 20.1174 18.626 20.067Z" fill="#BDBDBD"/>
<path d="M21.8336 20.5463C21.4516 19.9134 21.714 19.4761 22.2709 19.1309C22.3814 19.6809 22.1397 20.1228 21.8336 20.5463Z" fill="#BDBDBD"/>
<path d="M22.735 34.9444C21.9893 34.804 22.1504 34.1228 21.9502 33.6602C22.4588 33.9456 22.5785 34.4588 22.7189 34.9582L22.735 34.9444Z" fill="#BDBDBD"/>
<path d="M21.4971 32.8204C21.4488 32.5902 21.2669 32.3301 21.5731 32.1299C21.8308 32.2795 21.8032 32.5718 21.8999 32.7996C21.9712 32.963 22.0748 33.1863 21.794 33.2162C21.5731 33.2415 21.5731 32.9769 21.4971 32.8204Z" fill="#BDBDBD"/>
<path d="M19.9619 26.0006C19.978 26.1594 20.2243 26.3159 19.9619 26.4771C19.9331 26.5073 19.8985 26.5313 19.8601 26.5478C19.8217 26.5642 19.7804 26.5727 19.7387 26.5727C19.6969 26.5727 19.6556 26.5642 19.6172 26.5478C19.5789 26.5313 19.5442 26.5073 19.5154 26.4771C19.5154 25.996 19.4234 25.4989 19.7041 25.0547C19.7755 25.2848 19.6811 25.5933 19.9343 25.7728C20.008 25.8211 20.0356 25.8717 20.0149 25.9247C19.9941 25.9776 19.9826 26.0006 19.9619 26.0006Z" fill="#BDBDBD"/>
<path d="M58.7994 27.8398C58.8469 28.3111 58.7724 28.7866 58.583 29.2208C58.3575 28.7075 58.056 28.192 58.7994 27.8398Z" fill="#BDBDBD"/>
<path d="M36.2804 39.9803C36.2083 40.4222 36.1377 40.8657 36.0686 41.3106C35.9822 41.333 35.8912 41.3313 35.8056 41.3058C35.72 41.2802 35.6431 41.2318 35.583 41.1656C36.0433 40.8894 35.629 40.2772 36.0433 39.9872C36.1216 39.8814 36.1998 39.8745 36.2804 39.9803Z" fill="#E3E3E3"/>
<path d="M22.4945 18.8861C22.2137 18.3407 22.285 17.931 22.9387 17.7354C23.0126 17.9487 23.0086 18.1814 22.9273 18.3921C22.8459 18.6027 22.6926 18.7778 22.4945 18.8861Z" fill="#BDBDBD"/>
<path d="M37.171 40.4363C37.1272 40.8069 37.0835 41.1774 37.0375 41.5457L36.7061 41.4997C36.8142 41.0578 36.6761 40.579 36.9362 40.1602C37.0904 40.1947 37.1065 40.3351 37.171 40.4363Z" fill="#E3E3E3"/>
<path d="M20.4033 29.0066L20.8636 28.0859C20.8636 28.4703 20.8636 28.8547 20.8751 29.2367C20.9442 29.4669 20.859 29.5175 20.645 29.4462C20.4309 29.3748 20.424 29.1861 20.4033 29.0066Z" fill="#BDBDBD"/>
<path d="M23.6863 16.6222C23.5942 16.2655 23.7622 16.0537 24.0752 15.9203C24.2225 15.9318 24.577 15.6326 24.4389 16.086C24.3902 16.2459 24.29 16.3852 24.1539 16.4822C24.0177 16.5792 23.8533 16.6285 23.6863 16.6222Z" fill="#BDBDBD"/>
<path d="M20.7033 19.3535H21.0946C21.0774 19.7013 20.9371 20.0317 20.6987 20.2856C20.4548 20.3524 20.3466 20.2741 20.4018 20.0141C20.4003 19.8885 20.4265 19.7642 20.4787 19.65C20.5308 19.5359 20.6075 19.4346 20.7033 19.3535Z" fill="#BDBDBD"/>
<path d="M32.9814 40.1827L33.3543 38.8801C33.5545 38.8271 33.6627 38.8662 33.5683 39.1102C33.5751 39.5088 33.4867 39.9033 33.3106 40.261L32.9814 40.1827Z" fill="#E3E3E3"/>
<path d="M22.2646 13.8667C22.336 13.289 22.5984 12.8633 23.1853 12.7021C23.1323 13.2913 22.7687 13.6343 22.2646 13.8667Z" fill="#BDBDBD"/>
<path d="M18.0653 21.3054L18.5809 21.1719L18.3254 22.3227C17.8973 22.4792 18.0953 22.005 17.9111 21.9153L18.0653 21.3054Z" fill="#BDBDBD"/>
<path d="M36.5045 45.2852C36.7922 45.2852 37.1098 45.2092 37.2687 45.6028C37.0744 45.7095 36.8541 45.7596 36.6327 45.7474C36.4114 45.7352 36.198 45.6612 36.0166 45.5338C36.1041 45.3036 36.3756 45.4279 36.5045 45.2852Z" fill="#BDBDBD"/>
<path d="M20.6514 29.4438L20.8815 29.2344C21.3096 29.6049 21.0633 30.178 21.2981 30.6153C21.2383 30.7097 21.2268 30.8455 21.0864 30.8685L20.6514 29.4438Z" fill="#BDBDBD"/>
<path d="M26.6384 10.6445L26.9192 10.6675C26.5624 11.0312 26.2701 11.4754 25.7178 11.5882C25.9261 11.1906 26.2461 10.8626 26.6384 10.6445Z" fill="#BDBDBD"/>
<path d="M55.6671 32.4539C55.6395 32.5966 55.6119 32.7416 55.5819 32.8866H54.9697L55.3656 31.9659C55.865 31.8877 55.5566 32.2951 55.6671 32.4539Z" fill="#BDBDBD"/>
<path d="M17.9141 21.9102L18.3284 22.3175C18.3489 22.4639 18.3263 22.613 18.2634 22.7467C18.2004 22.8804 18.0998 22.9928 17.9739 23.0701C17.776 22.7479 17.9164 22.4119 17.8911 22.0966C17.8839 22.0335 17.8918 21.9696 17.9141 21.9102Z" fill="#BDBDBD"/>
<path d="M36.503 45.2859L36.015 45.5322C35.6215 45.4976 35.2072 45.5552 34.8643 45.2859C34.9724 45.088 35.2095 45.1938 35.3545 45.0811L36.503 45.2859Z" fill="#BDBDBD"/>
<path d="M19.5146 26.4678H19.9611C19.9611 26.6979 19.9611 26.9281 19.9611 27.1444C19.8299 27.2664 19.9151 27.4989 19.7309 27.6047C19.388 27.3562 19.5698 26.9695 19.4778 26.6542C19.4703 26.6223 19.4697 26.5892 19.476 26.557C19.4824 26.5249 19.4955 26.4944 19.5146 26.4678Z" fill="#F8FBFC"/>
<path d="M34.1666 45.0645C34.0112 45.071 33.8565 45.0402 33.7155 44.9745C33.5745 44.9088 33.4514 44.8102 33.3564 44.687C33.7914 44.4293 34.0837 44.8136 34.4336 44.8504C34.4612 45.0622 34.3991 45.1681 34.1666 45.0645Z" fill="#BDBDBD"/>
<path d="M33.007 44.4799C32.4754 44.5305 32.2613 44.42 32.0381 44.1761C32.4409 43.8746 32.6319 44.1277 33.007 44.4799Z" fill="#BDBDBD"/>
<path d="M31.3655 43.6398C31.3655 43.7871 31.2527 43.8562 31.1353 43.8101C30.9772 43.7274 30.827 43.6303 30.6865 43.5201C30.7671 43.4534 30.8568 43.3222 30.9167 43.3337C31.0143 43.3305 31.1104 43.3585 31.1911 43.4135C31.2717 43.4685 31.3328 43.5478 31.3655 43.6398Z" fill="#BDBDBD"/>
<path d="M28.9678 42.3924C29.4281 42.3441 29.5984 42.5213 29.8539 43.0024C29.4143 42.862 29.168 42.8182 28.9678 42.3924Z" fill="#BDBDBD"/>
<path d="M18.6267 20.0674H19.0249C18.8362 20.3643 18.8937 20.774 18.5784 21.011C18.2239 20.6842 18.6175 20.385 18.6267 20.0674Z" fill="#BDBDBD"/>
<path d="M24.2277 37.7822C23.6731 37.3726 23.4797 37.1148 23.5994 36.4404L24.2277 37.7822Z" fill="#BDBDBD"/>
<path d="M20.4022 20.0215L20.6991 20.2931C20.6277 20.5232 20.6991 20.8063 20.4689 20.9835C20.2387 21.0549 20.1306 20.9835 20.1812 20.7281C20.1596 20.6012 20.1684 20.471 20.2068 20.3482C20.2452 20.2254 20.3121 20.1134 20.4022 20.0215Z" fill="#BDBDBD"/>
<path d="M20.172 20.7188L20.4597 20.9742C20.4045 21.2044 20.4873 21.4921 20.2295 21.6647C19.8037 21.3609 19.9096 21.0433 20.172 20.7188Z" fill="#BDBDBD"/>
<path d="M57.8828 32.1436L58.1291 32.4174C58.0278 32.6821 57.9933 32.9928 57.5675 33.1079C57.5448 32.9338 57.5613 32.7569 57.6159 32.59C57.6704 32.4231 57.7616 32.2706 57.8828 32.1436Z" fill="#BDBDBD"/>
<path d="M21.0811 30.8616L21.2928 30.6084C21.2422 31.0089 21.7531 31.3863 21.3434 31.8029C21.0281 31.552 21.1133 31.1907 21.0811 30.8616Z" fill="#BDBDBD"/>
<path d="M34.167 45.0646L34.434 44.8506L35.3546 45.0807L34.8644 45.2856C34.739 45.303 34.6113 45.2923 34.4907 45.254C34.37 45.2158 34.2594 45.1511 34.167 45.0646Z" fill="#BDBDBD"/>
<path d="M20.2075 32.192C20.463 32.3646 20.4169 32.6316 20.4261 32.8825C20.5113 33.1126 20.4008 33.1633 20.196 33.1126L19.9658 32.192C20.0441 32.0792 20.1246 32.0792 20.2075 32.192Z" fill="#BDBDBD"/>
<path d="M24.9619 11.3096C25.2059 10.969 25.4752 10.6606 25.9332 10.6191C25.7444 11.0357 25.4867 11.3441 24.9619 11.3096Z" fill="#BDBDBD"/>
<path d="M19.2725 18.903C19.4267 18.5969 19.5809 18.2908 19.7328 17.9824C19.6913 18.3461 19.887 18.8248 19.2725 18.903Z" fill="#BDBDBD"/>
<path d="M20.1943 33.1052L20.4245 32.875C20.5255 32.9496 20.5989 33.0556 20.633 33.1764C20.6672 33.2973 20.6602 33.426 20.6132 33.5425C20.2956 33.5701 20.3094 33.2778 20.1943 33.1052Z" fill="#BDBDBD"/>
<path d="M20.2095 32.1921H19.9633C19.8965 31.962 19.8275 31.7318 19.7607 31.4809L19.9679 31.2715L20.1773 31.3014C20.1934 31.5983 20.1934 31.8952 20.2095 32.1921Z" fill="#BDBDBD"/>
<path d="M59.0748 31.7454C59.0592 31.6336 59.0772 31.5197 59.1263 31.4181C59.1755 31.3165 59.2537 31.2317 59.351 31.1746C59.374 31.1585 59.4868 31.2183 59.4983 31.2597C59.5202 31.3511 59.5115 31.4471 59.4737 31.5332C59.4359 31.6192 59.371 31.6905 59.2888 31.7361H59.1807L59.0748 31.7454Z" fill="#BDBDBD"/>
<path d="M22.9542 15.2451L22.7494 15.4569C22.7241 15.2911 22.8138 15.2474 22.9542 15.2451Z" fill="#BDBDBD"/>
<path d="M18.8112 17.7539C19.0851 18.2879 18.9171 18.6607 18.3877 18.9047C18.4112 18.4875 18.5586 18.0868 18.8112 17.7539Z" fill="#BDBDBD"/>
<path d="M29.6289 7.43608C29.4793 7.84346 29.0604 7.9125 28.7566 8.12655C28.6024 8.14956 28.561 8.01837 28.4873 7.93091C28.7474 7.50513 29.0121 7.07473 29.6289 7.43608Z" fill="#BDBDBD"/>
<path d="M27.3141 9.24019L27.0264 9.01003C27.2797 8.70706 27.6303 8.50129 28.0183 8.42773C28.092 8.45996 28.1173 8.49678 28.0966 8.53591C28.0759 8.57503 28.0483 8.60265 28.0183 8.60265C27.956 8.75479 27.8604 8.89103 27.7386 9.00135C27.6167 9.11168 27.4716 9.19329 27.3141 9.24019Z" fill="#BDBDBD"/>
<path d="M32.8519 6.53191C32.5228 6.82191 32.0993 6.88405 31.7012 6.99223C31.471 7.07278 31.4181 6.96691 31.471 6.76207L32.6218 6.30176C32.7023 6.38692 32.8519 6.40303 32.8519 6.53191Z" fill="#BDBDBD"/>
<path d="M31.4701 6.76172C31.5438 6.83767 31.6197 6.91362 31.7003 6.99188C31.3036 7.29262 30.817 7.45074 30.3193 7.44068C30.6162 7.07243 31.0789 6.97346 31.4701 6.76172Z" fill="#BDBDBD"/>
<path d="M34.4734 6.08953C34.2156 6.38183 33.8635 6.27826 33.5528 6.30818C33.3226 6.40254 33.2743 6.29437 33.3226 6.08953L34.2433 5.85938L34.4734 6.08953Z" fill="#BDBDBD"/>
<path d="M28.019 8.60335C27.9942 8.5493 27.9885 8.48843 28.0029 8.43073L28.4632 7.93359L28.7325 8.12923C28.6128 8.44454 28.332 8.54121 28.019 8.60335Z" fill="#BDBDBD"/>
<path d="M33.3244 6.08984L33.5407 6.30159C33.3635 6.53174 33.1034 6.53174 32.8503 6.53174L32.6201 6.30159L33.3244 6.08984Z" fill="#BDBDBD"/>
<path d="M47.0108 68.0068C44.2255 66.657 41.7852 64.689 39.876 62.2529C42.3893 64.0435 44.6425 66.1909 47.3446 67.7168C47.3515 67.9585 47.2916 68.1058 47.0108 68.0068Z" fill="#E3E3E3"/>
<path d="M58.2108 71.3557L59.5111 71.427C59.5848 71.6388 59.4628 71.74 59.281 71.8114C58.8023 71.8735 58.3166 71.9725 57.9162 71.5812C57.9046 71.3557 57.9806 71.259 58.2108 71.3557Z" fill="#FCFCFD"/>
<path d="M47.0088 68.0064L47.3356 67.7188C47.7062 67.8499 48.1158 67.9282 48.2562 68.3724C48.3805 68.4622 48.3782 68.5473 48.2562 68.6279C47.7039 68.69 47.4093 68.2412 47.0088 68.0064Z" fill="#E3E3E3"/>
<path d="M48.2568 68.6277V68.3723C48.7171 68.3469 49.0785 68.5472 49.5388 68.9569C48.9243 69.0765 48.5998 68.8211 48.2568 68.6277Z" fill="#E3E3E3"/>
<path d="M59.292 71.8111L59.5221 71.4268H60.4428L60.0101 71.8157L59.292 71.8111Z" fill="#D7D9DF"/>
<path d="M58.2105 71.3559L57.9251 71.5861L57.0045 71.3812C56.9446 71.3329 56.9193 71.2823 56.9354 71.2293C56.9515 71.1764 56.9676 71.1465 56.9884 71.1465C57.4026 71.181 57.8376 71.0912 58.2105 71.3559Z" fill="#E5E5E9"/>
<path d="M56.0717 70.7064C56.0717 70.7755 56.0717 70.8468 56.0717 70.9159C56.15 70.9665 56.1776 71.0194 56.1546 71.0724C56.1315 71.1253 56.1062 71.1552 56.0809 71.1552L55.0498 70.8629C55.4342 70.596 55.7656 70.7456 56.0717 70.7064Z" fill="#E3E3E3"/>
<path d="M51.4619 69.6979C50.9095 69.8913 50.5804 69.5345 49.9912 69.4977C50.631 69.1893 50.997 69.3941 51.4619 69.6979Z" fill="#E3E3E3"/>
<path d="M56.083 71.155V70.9248C56.396 70.9708 56.7551 70.8189 57.0036 71.155L57.0197 71.3851L56.083 71.155Z" fill="#E3E3E3"/>
<path d="M52.667 70.1151C53.1112 70.023 53.339 70.2209 53.8661 70.4166C53.27 70.5155 52.9708 70.5293 52.667 70.1151Z" fill="#E3E3E3"/>
<path d="M36.4808 30.5005C38.0339 27.2706 40.4296 24.5194 43.4154 22.5371C41.054 25.1931 38.6052 27.7824 36.7179 30.8112C36.4785 30.8296 36.391 30.733 36.4808 30.5005Z" fill="#E3E3E3"/>
<path d="M55.6697 32.4539C55.3636 32.4125 55.6374 32.0212 55.3682 31.9591C55.6697 30.3319 56.3878 28.8059 56.565 27.1465C56.6708 26.9923 56.7376 26.769 57.0046 26.9163C57.0046 27.1465 56.9885 27.3767 56.9816 27.6068C56.7675 27.959 56.9194 28.3456 56.8849 28.7139C56.8504 29.9245 56.077 30.9602 56.0678 32.1662L55.6697 32.4539Z" fill="#BDBDBD"/>
<path d="M44.8025 8.35449C46.2363 8.5156 47.3779 9.31885 48.5586 10.0415C47.249 9.70091 46.1489 8.83322 44.8186 8.58005C44.7518 8.53171 44.7265 8.48108 44.7495 8.43044C44.7725 8.37981 44.7794 8.35449 44.8025 8.35449Z" fill="#BDBDBD"/>
<path d="M36.4819 30.5L36.712 30.8107C36.4727 31.5654 36.0932 32.2681 35.5935 32.8821H35.46C35.5014 31.9638 36.0284 31.248 36.4819 30.5Z" fill="#E3E3E3"/>
<path d="M54.002 60.8488C53.9251 60.8495 53.8482 60.8549 53.7719 60.8649C52.8236 60.8097 52.1424 60.1744 51.3115 59.8568L51.4266 59.5898L54.002 60.8488Z" fill="#E3E3E3"/>
<path d="M48.292 57.7695C48.9341 57.9237 49.2126 58.2828 49.5026 58.6257C48.9779 58.6004 48.4669 58.5636 48.292 57.7695Z" fill="#E3E3E3"/>
<path d="M37.0205 39.3148C37.0942 38.8177 37.1356 38.3136 37.4164 37.874C37.6166 37.9868 37.5107 38.2216 37.6189 38.3712C37.4532 38.8315 37.543 39.37 37.2346 39.7981C37.0366 39.6923 37.1448 39.4437 37.0205 39.3148Z" fill="#E3E3E3"/>
<path d="M39.4708 7.23992H38.8678C38.4604 7.25143 37.984 7.60127 37.6963 7.00977H40.1774C40.0922 7.55984 39.7332 7.25143 39.4708 7.23992Z" fill="#BDBDBD"/>
<path d="M35.5603 48.7497C35.2473 48.2272 35.3485 47.6633 35.3784 46.8555C35.6638 47.5275 35.8388 47.9717 35.8019 48.485C35.726 48.577 35.7099 48.7243 35.5603 48.7497Z" fill="#E3E3E3"/>
<path d="M54.4283 17.041C54.7368 17.1239 55.1073 16.9559 55.3605 17.2712H53.3351L53.3213 17.1055L54.4283 17.041Z" fill="#E3E3E3"/>
<path d="M52.3939 68.2369L51.2432 67.6615V67.459C51.7426 67.4957 52.2237 67.6632 52.6379 67.9446L52.3939 68.2369Z" fill="#E3E3E3"/>
<path d="M60.6608 26.9164C60.4537 27.4366 60.5849 28.0488 60.2189 28.5275C60.1476 28.6403 60.0762 28.6357 60.0049 28.5275C60.3639 28.0488 60.0049 27.3767 60.433 26.9164C60.5066 26.8129 60.5826 26.8106 60.6608 26.9164Z" fill="#BDBDBD"/>
<path d="M37.6969 7.01269C38.033 7.36022 38.4864 7.12316 38.8684 7.24284C38.4081 7.50983 37.911 7.40856 37.4231 7.40395C37.2896 7.27276 37.0456 7.38324 36.9443 7.1738C37.0467 7.08682 37.169 7.02658 37.3004 6.99847C37.4317 6.97035 37.568 6.97524 37.6969 7.01269Z" fill="#BDBDBD"/>
<path d="M19.7334 27.6048C19.7215 27.5139 19.7371 27.4215 19.7781 27.3395C19.8191 27.2575 19.8837 27.1896 19.9635 27.1445C20.129 27.4043 20.2094 27.7092 20.1937 28.0168C19.9635 28.1043 19.9635 28.316 19.9221 28.5048C19.6344 28.2585 19.7633 27.9156 19.7334 27.6048Z" fill="#BDBDBD"/>
<path d="M64.3588 68.4255C63.9123 68.7132 63.4635 68.7615 63.0146 68.4255L64.3634 68.1953C64.4393 68.2459 64.4623 68.2943 64.437 68.3426C64.4117 68.3909 64.3841 68.4255 64.3588 68.4255Z" fill="#E3E3E3"/>
<path d="M60.4697 25.7977L60.6999 24.8633C60.8679 25.342 61.0589 25.8092 60.6746 26.2442C60.5066 26.143 60.6101 25.9082 60.4697 25.7977Z" fill="#BDBDBD"/>
<path d="M35.5596 48.7491L35.7897 48.4844C35.746 48.8941 36.1511 49.283 35.8588 49.7848C35.4997 49.4694 35.624 49.0782 35.5596 48.7491Z" fill="#E3E3E3"/>
<path d="M35.4657 32.8863C35.4862 32.8751 35.5091 32.8691 35.5325 32.8691C35.5558 32.8691 35.5788 32.8751 35.5992 32.8863C35.6176 33.3467 35.422 33.7057 35.0054 34.1821C34.9709 33.5308 35.0284 33.1372 35.4657 32.8863Z" fill="#E3E3E3"/>
<path d="M36.4129 38.5344C36.1965 38.0074 36.6039 37.722 36.7236 37.3652C36.7098 37.7496 36.8617 38.1754 36.4129 38.5344Z" fill="#E3E3E3"/>
<path d="M38.3446 36.0886C38.2134 36.3855 38.2318 36.7491 37.7278 37.1703C37.7064 36.692 37.8422 36.2199 38.1144 35.8262C38.2594 35.8538 38.2802 35.9919 38.3446 36.0886Z" fill="#E3E3E3"/>
<path d="M38.0305 33.9785C38.1479 34.669 37.9177 34.9544 37.4873 35.1753L38.0305 33.9785Z" fill="#E3E3E3"/>
<path d="M43.4509 9.01312L42.2863 8.80828C42.2219 8.60114 42.2725 8.49757 42.5165 8.57812C42.9077 8.63106 43.3427 8.45384 43.6672 8.80828C43.6209 8.89943 43.5444 8.97178 43.4509 9.01312Z" fill="#BDBDBD"/>
<path d="M57.0031 26.921L56.5635 27.1512C56.6371 26.7576 56.7108 26.3664 56.7936 25.8945C57.1918 26.2536 57.0169 26.5988 57.0031 26.921Z" fill="#BDBDBD"/>
<path d="M60.1514 24.336C59.9603 23.8895 59.6911 23.6088 59.8706 23.1484C60.3286 23.4499 60.2204 23.8251 60.1514 24.336Z" fill="#BDBDBD"/>
<path d="M33.7998 37.4695L34.1105 36.4131C34.2601 36.8021 34.3061 37.1657 33.9839 37.4649C33.9264 37.5731 33.8642 37.58 33.7998 37.4695Z" fill="#E3E3E3"/>
<path d="M57.4342 69.1208H56.0693V68.8584L57.662 68.9136L57.4342 69.1208Z" fill="#E3E3E3"/>
<path d="M50.2609 11.2381C49.7753 11.2681 49.6349 10.9527 49.3909 10.8285C49.3909 10.787 49.3748 10.7341 49.3909 10.7318C49.8144 10.5523 49.9709 10.886 50.2609 11.2381Z" fill="#BDBDBD"/>
<path d="M35.3179 12.6934C35.4882 12.7624 35.7252 12.6934 35.6263 12.9235C35.5853 12.9793 35.5334 13.0261 35.4736 13.061C35.4138 13.0958 35.3475 13.118 35.2787 13.1261C35.1452 13.1468 34.9427 13.1007 35.0233 12.8959C35.0624 12.8038 35.2304 12.7463 35.3179 12.6934Z" fill="#BDBDBD"/>
<path d="M37.6215 38.3709L37.4189 37.8738C37.4627 37.6437 37.3522 37.2547 37.7205 37.3076C38.0035 37.3468 37.8217 37.6506 37.7665 37.8462C37.7112 38.0418 37.6698 38.196 37.6215 38.3709Z" fill="#E3E3E3"/>
<path d="M54.6881 61.3093C54.6881 61.2287 54.6719 61.1505 54.665 61.0791C55.1069 61.132 55.5972 61.0791 55.8457 61.5831L54.6881 61.3093Z" fill="#E3E3E3"/>
<path d="M19.9621 26.0006L19.9482 25.7704V24.668C20.114 25.1191 20.3901 25.5794 19.9621 26.0006Z" fill="#BDBDBD"/>
<path d="M36.3028 7.45184C35.9714 7.79477 35.5456 7.64287 35.152 7.67048C35.0968 7.62445 35.0784 7.57842 35.0991 7.53469C35.1198 7.49096 35.1313 7.45184 35.152 7.45184L36.3028 7.22168C36.3742 7.27231 36.3972 7.31835 36.3719 7.36208C36.3465 7.4058 36.3189 7.45184 36.3028 7.45184Z" fill="#BDBDBD"/>
<path d="M60.0098 28.5303H60.2239C60.2008 28.8617 60.2929 29.2207 59.874 29.6534C59.927 29.1655 59.9661 28.8571 60.0098 28.5303Z" fill="#BDBDBD"/>
<path d="M65.7231 67.8981L66.2318 67.7969C66.3331 67.8212 66.4246 67.8758 66.4941 67.9534C66.5241 68.0685 66.4941 68.1398 66.3606 68.1559L65.5344 68.2135C65.3042 68.3216 65.2628 68.2019 65.3042 68.004L65.7231 67.8981Z" fill="#E3E3E3"/>
<path d="M37.8623 6.27843L38.3733 6.07129L39.2755 6.11732C38.8336 6.45105 38.3318 6.2347 37.8623 6.27843Z" fill="#BDBDBD"/>
<path d="M39.4717 7.23992C39.7018 7.17548 39.9964 7.26064 40.1783 7.00977C40.3555 7.03278 40.7375 6.97985 40.3739 7.29286C40.1184 7.51841 39.7571 7.45167 39.4717 7.23992Z" fill="#BDBDBD"/>
<path d="M47.9203 10.5527C47.5958 10.6333 47.2483 10.4929 47.2782 10.2835C47.3265 9.94282 47.6165 10.1269 47.7868 10.2673C47.8559 10.3249 47.8743 10.4446 47.9203 10.5527Z" fill="#BDBDBD"/>
<path d="M35.1508 7.45215C35.1473 7.51885 35.1473 7.58568 35.1508 7.65238C34.9068 7.98151 34.5478 7.85953 34.2301 7.88254C34.1749 7.82961 34.1565 7.77897 34.1772 7.73064C34.1979 7.6823 34.2071 7.6823 34.2301 7.6823L35.1508 7.45215Z" fill="#BDBDBD"/>
<path d="M34.2318 7.68262C34.2318 7.75627 34.2318 7.83222 34.2318 7.91277C34.1526 8.0252 34.0336 8.10324 33.8989 8.13104C33.7643 8.15883 33.6241 8.13427 33.5068 8.06238C33.6495 7.73095 33.9395 7.70563 34.2318 7.68262Z" fill="#BDBDBD"/>
<path d="M36.28 39.9801H36.0498C36.1004 39.6533 35.9623 39.2896 36.395 38.9053L36.28 39.9801Z" fill="#E3E3E3"/>
<path d="M56.0969 68.8716C55.7149 68.7312 55.0796 69.2398 54.96 68.4297C55.2891 68.6737 55.8161 68.4435 56.0969 68.8716Z" fill="#E3E3E3"/>
<path d="M54.4502 67.0352L55.601 67.2883C55.6171 67.3569 55.6241 67.4274 55.6217 67.4978C55.1775 67.4909 54.6781 67.5898 54.4502 67.0352Z" fill="#E3E3E3"/>
<path d="M36.7904 52.3008C37.0361 52.6237 37.1643 53.0207 37.154 53.4262C37.0123 53.3689 36.8936 53.2662 36.8165 53.1342C36.7395 53.0021 36.7084 52.8482 36.7282 52.6967C36.706 52.6667 36.6899 52.6326 36.681 52.5964C36.6721 52.5602 36.6705 52.5225 36.6762 52.4857C36.682 52.4488 36.6951 52.4135 36.7147 52.3817C36.7343 52.35 36.76 52.3225 36.7904 52.3008Z" fill="#E3E3E3"/>
<path d="M43.4521 9.01322L43.6662 8.79688C43.9907 8.82219 44.3359 8.76926 44.6029 9.02703C44.5494 9.12364 44.4602 9.1955 44.3544 9.22727L43.4521 9.01322Z" fill="#BDBDBD"/>
<path d="M39.6456 12.5551C39.5765 12.5873 39.4845 12.6656 39.3924 12.6656C39.2221 12.6656 39.1001 12.562 39.1807 12.3894C39.2129 12.3227 39.374 12.2927 39.4753 12.295C39.5765 12.2973 39.6916 12.3641 39.6456 12.5551Z" fill="#BDBDBD"/>
<path d="M65.3026 68.0039L65.5328 68.2133C65.1807 68.5126 64.7503 68.3814 64.3521 68.4251C64.3475 68.3523 64.3475 68.2793 64.3521 68.2064L65.3026 68.0039Z" fill="#E3E3E3"/>
<path d="M52.0402 18.2447C51.7939 18.5646 51.5638 18.6843 51.2393 18.6176C51.3727 18.2309 51.6558 18.2355 52.0402 18.2447Z" fill="#BDBDBD"/>
<path d="M45.3111 9.24121C45.5412 9.28954 46.013 9.24121 45.8611 9.57263C45.7092 9.90406 45.3456 9.45756 45.0602 9.44835C45.028 9.23891 45.0832 9.13534 45.3111 9.24121Z" fill="#BDBDBD"/>
<path d="M42.5175 8.57296L42.2874 8.80311C42.0572 8.7801 41.6844 8.72716 41.7856 8.51542C41.9375 8.2001 42.2713 8.3428 42.5175 8.57296Z" fill="#BDBDBD"/>
<path d="M33.8012 37.4688H33.9854C34.0038 37.8002 34.0636 38.1385 33.7897 38.4078C33.6378 38.4078 33.6447 38.2513 33.5596 38.1776L33.8012 37.4688Z" fill="#E3E3E3"/>
<path d="M38.6973 56.8741C38.624 56.7564 38.569 56.6284 38.5339 56.4943C38.5154 56.3539 38.6581 56.3286 38.7272 56.4115C38.8064 56.5301 38.8699 56.6585 38.9159 56.7935L38.6973 56.8741Z" fill="#E8E8EB"/>
<path d="M33.559 38.1807L33.7891 38.4108C33.7707 38.6617 33.8029 38.9264 33.5705 39.1013L33.3564 38.8711C33.4232 38.6456 33.4899 38.4131 33.559 38.1807Z" fill="#E3E3E3"/>
<path d="M45.3096 9.2403L45.0588 9.44745L44.3545 9.21729L44.6031 9.01705C44.7301 8.99811 44.8597 9.00837 44.9821 9.04706C45.1046 9.08574 45.2166 9.15183 45.3096 9.2403Z" fill="#BDBDBD"/>
<path d="M44.8033 8.35454C44.8033 8.4305 44.8033 8.50415 44.8033 8.5847L43.9932 8.23717C44.3591 8.09217 44.6008 8.08526 44.8033 8.35454Z" fill="#BDBDBD"/>
<path d="M36.7893 52.3001L36.7271 52.6959L36.3428 51.8904C36.4003 51.7891 36.4141 51.6602 36.5729 51.6211C36.6555 51.7122 36.7176 51.8199 36.7549 51.9371C36.7922 52.0542 36.8039 52.178 36.7893 52.3001Z" fill="#E3E3E3"/>
<path d="M38.3444 36.0887L38.1143 35.8263C38.1373 35.6376 38.2086 35.3499 38.4043 35.4489C38.7771 35.6376 38.3352 35.8655 38.3444 36.0887Z" fill="#E3E3E3"/>
<path d="M36.5624 51.6216L36.3322 51.8908L36.1182 51.2004C36.1303 51.1473 36.1541 51.0976 36.188 51.055C36.2218 51.0124 36.2648 50.9779 36.3138 50.9541C36.5509 51.1221 36.5347 51.3753 36.5624 51.6216Z" fill="#E3E3E3"/>
<path d="M60.4707 25.7979C60.6525 25.8922 60.6709 26.0671 60.6893 26.2421L60.6686 26.9164C60.5927 26.9164 60.5167 26.9164 60.4385 26.9164C60.4431 26.5551 60.4523 26.173 60.4707 25.7979Z" fill="#BDBDBD"/>
<path d="M36.3238 50.9523L36.1282 51.1985C36.1051 51.1295 36.0499 51.0512 36.0637 50.9914C36.1189 50.7612 35.6678 50.4505 36.0637 50.37C36.4158 50.294 36.2455 50.7382 36.3238 50.9523Z" fill="#E3E3E3"/>
<path d="M37.0229 39.3154L37.237 39.7988C37.2163 40.0105 37.1933 40.2245 37.1725 40.4363L36.9424 40.1601C36.9723 39.8793 36.9953 39.5962 37.0229 39.3154Z" fill="#E3E3E3"/>
<path d="M36.3037 7.45246C36.3037 7.38341 36.3037 7.31437 36.3037 7.24532L36.9435 7.19238L37.4223 7.42254L36.3037 7.45246Z" fill="#BDBDBD"/>
<path d="M56.8847 28.7213C56.7213 28.3346 56.6545 27.9572 56.9814 27.6143L56.8847 28.7213Z" fill="#BDBDBD"/>
<path d="M66.3584 68.1565C66.3971 68.1032 66.4288 68.0452 66.4528 67.9839C66.5355 67.8915 66.6415 67.8231 66.7597 67.7858C66.878 67.7486 67.0041 67.7438 67.1248 67.7721C67.302 67.7721 67.4816 67.7721 67.5851 67.9494C67.4493 68.237 67.1755 68.1795 66.9338 68.2163L66.653 68.1887L66.3584 68.1565Z" fill="#E0E0E5"/>
<path d="M67.1258 67.7673C66.9578 68.0113 66.6862 67.933 66.4538 67.979L66.2236 67.7972C66.5366 67.7857 66.753 67.4152 67.1097 67.5532C67.1166 67.6246 67.1212 67.6959 67.1258 67.7673Z" fill="#E3E3E3"/>
<path d="M68.9385 67.6703L68.5127 67.7002C68.5748 67.47 68.7429 67.4953 68.9247 67.5276C68.9269 67.5753 68.9315 67.6229 68.9385 67.6703Z" fill="#E3E3E3"/>
</g>
<defs>
<clipPath id="clip0_423_3470">
<rect width="69.0055" height="68.3104" fill="white" transform="translate(17.4307 4)"/>
</clipPath>
</defs>
</svg>
