<svg width="99" height="77" viewBox="0 0 99 77" fill="none" xmlns="http://www.w3.org/2000/svg">
<g clip-path="url(#clip0_1444_4755)">
<path d="M61.2275 17.179C69.2531 18.7602 75.5847 22.8708 80.0198 29.7616C82.0106 32.8549 83.1752 36.2682 83.7023 39.9C83.7391 40.1302 83.6033 40.4547 83.9555 40.5905V47.6977C83.433 48.524 83.5067 49.4999 83.3087 50.4044C82.2118 55.4602 79.8333 60.149 76.4017 64.0204C74.9047 65.7707 73.0472 67.1769 70.9562 68.1425C67.0436 69.9239 63.0319 71.3969 58.659 71.5442C58.5278 71.4084 58.5692 71.222 58.5094 71.0632C58.4463 70.998 58.3668 70.951 58.2792 70.9274C56.7786 70.642 55.2458 70.6489 53.7474 70.3773C49.2061 69.44 44.9349 67.4897 41.2522 64.6718C39.2706 63.1573 37.6434 61.2977 36.0093 59.4449C35.7458 59.2436 35.4945 59.0269 35.2567 58.7959C34.2992 57.5968 33.4154 56.3493 32.9804 54.8556C32.9951 54.7456 33.0433 54.6427 33.1185 54.561L32.6582 52.966C32.6753 52.9006 32.7061 52.8396 32.7485 52.787C32.7909 52.7344 32.8439 52.6913 32.9041 52.6607C32.9644 52.63 33.0304 52.6125 33.0979 52.6092C33.1654 52.6059 33.2328 52.6169 33.2957 52.6415C33.3824 52.6952 33.4488 52.7761 33.4845 52.8716C33.7261 53.6496 34.0299 54.393 34.6583 54.9431C35.8942 56.8464 37.0772 58.7498 38.6561 60.377C40.9715 62.7776 43.4663 64.9318 46.6586 66.131C47.0269 66.3933 47.3491 66.7225 47.8232 66.8214C48.1246 66.823 48.419 66.9126 48.6702 67.0792C49.0753 67.3557 49.529 67.5532 50.0074 67.6615C50.4869 67.8351 50.9895 67.9367 51.4988 67.963C51.6037 67.964 51.708 67.9779 51.8095 68.0044L51.9568 68.062C52.5276 68.352 53.1582 68.4003 53.7774 68.4924C54.1181 68.4957 54.4579 68.5304 54.7923 68.5959C55.3734 68.7373 55.9773 68.7584 56.5669 68.6581C57.6762 68.2921 58.8477 68.6581 59.964 68.3589C60.0868 68.3226 60.2122 68.2956 60.3391 68.2783C61.4024 68.1701 62.4589 67.9331 63.5383 68.0182C63.9986 68.0574 64.4221 67.9101 64.8571 67.8318C65.2069 67.8318 65.345 67.5257 65.5476 67.3232C65.6823 67.2411 65.8329 67.1885 65.9894 67.169C66.1421 67.1489 66.2958 67.1389 66.4498 67.139C66.6296 67.1452 66.8097 67.1375 66.9883 67.116C67.0712 67.0999 67.2185 67.116 67.1909 66.9802C67.1655 66.8905 67.009 66.8882 66.9055 66.8559C66.7496 66.8127 66.6091 66.7262 66.5004 66.6065C66.3916 66.4867 66.319 66.3386 66.291 66.1793C66.2885 66.0716 66.3073 65.9644 66.3462 65.864L66.4475 65.7397C66.7605 65.4313 67.2139 65.4405 67.5752 65.2426C67.6741 65.2102 67.7696 65.1686 67.8606 65.1183C67.7594 65.1482 67.6627 65.1896 67.5591 65.2287C67.2093 65.4313 66.7789 65.4267 66.4521 65.6752C66.024 65.9445 65.5015 66.032 65.1172 66.3841C64.7362 66.5789 64.3068 66.6589 63.8812 66.6143C63.6027 66.6511 63.0872 66.4509 63.4071 67.0884C63.0832 67.2501 62.7397 67.3692 62.3852 67.4429C59.964 68.0274 57.5749 67.5994 55.1836 67.2242C54.7762 67.1114 54.3596 67.0332 53.9431 66.9572C53.7251 66.8909 53.5028 66.8394 53.2779 66.803C52.8399 66.7323 52.4088 66.6245 51.989 66.4808C51.5356 66.3375 51.0745 66.2192 50.6081 66.1264C49.8578 66.1609 49.2686 65.3553 48.4538 65.7236C47.3031 65.6453 46.364 64.9825 45.425 64.437C43.0452 63.0561 40.7321 61.5485 39.1877 59.1641C39.0723 58.8385 38.8663 58.5527 38.5939 58.3402C38.5313 58.2648 38.4779 58.1821 38.4351 58.0939C38.3121 57.831 38.1366 57.5961 37.9196 57.4034C37.8722 57.3121 37.8568 57.2076 37.8758 57.1065C37.9072 57.0349 37.9537 56.9708 38.0121 56.9188C38.0705 56.8668 38.1394 56.828 38.2142 56.805C38.5525 56.7889 38.7712 57.0352 39.0404 57.171C39.7309 56.2872 40.2396 56.8027 40.7735 57.3528C42.0279 58.6335 43.4293 59.7614 44.9486 60.7131C45.7013 61.2384 46.5794 61.556 47.4941 61.6337C47.2639 60.7568 46.585 60.2735 46.3617 59.5623C46.2743 59.2815 46.0326 58.9777 46.2858 58.713C46.5781 58.4046 46.9233 58.591 47.2271 58.759C48.537 59.4581 49.9046 60.0434 51.3147 60.5082C51.5656 60.598 51.8187 60.6901 52.0742 60.766C52.5299 60.938 52.9997 61.0705 53.4781 61.1619C54.3758 61.2286 55.2665 61.3299 56.1549 61.4795C57.3471 61.7327 58.5393 61.5301 59.7315 61.4795C59.8912 61.4368 60.0546 61.4091 60.2194 61.3966C60.5119 61.3474 60.8113 61.36 61.0986 61.4335C61.5014 61.5877 61.4093 61.2862 61.4669 61.1043C61.7533 60.9486 62.0884 60.9082 62.4036 60.9916C62.8777 61.1803 63.3035 61.0238 63.7224 60.8074C63.9733 60.7108 64.2311 60.6279 64.4842 60.5313C67.444 59.7119 69.8975 58.0663 71.9781 55.8683C74.8873 52.7911 76.4593 49.1063 77.0416 44.9151C77.35 42.6481 77.1083 40.4225 76.9633 38.1877C76.8758 36.8067 75.9828 35.6421 75.4328 34.397C74.0702 31.3175 71.9988 28.7628 69.474 26.5026C67.843 25.0051 65.9167 23.8652 63.8191 23.1562C63.1737 22.9171 62.5563 22.6084 61.9778 22.2355C61.8519 22.0872 61.6861 21.9783 61.5 21.9215C61.314 21.8648 61.1155 21.8628 60.9283 21.9156C60.8259 21.918 60.7237 21.9064 60.6245 21.8811C60.0479 21.6188 59.4014 21.5517 58.7833 21.6901C58.667 21.6827 58.5527 21.6562 58.4449 21.6118C57.69 21.239 56.8707 21.5082 56.095 21.3678C55.4897 21.2551 55.0593 21.0387 55.8534 20.5071C56.6823 20.4127 57.5177 20.3896 58.3506 20.438C59.0565 20.7885 59.8593 20.893 60.6314 20.7349C60.7384 20.7211 60.8467 20.7211 60.9536 20.7349C61.5175 20.949 62.086 21.1239 62.6959 20.9881C62.5509 21.0456 62.7926 20.8316 62.8018 20.9881C62.811 21.1446 63.0319 21.0778 62.9077 21.0065C62.6522 20.873 62.3553 20.9812 62.0837 20.896C59.827 20.3255 57.5067 20.0455 55.179 20.0629C54.4172 20.0629 53.6508 20.0836 52.9212 19.8028C52.6312 19.69 52.3504 19.5519 52.3228 19.1906C52.2928 18.7809 52.5529 18.5645 52.8889 18.4241C53.4157 18.1956 53.9813 18.0699 54.5553 18.0536C56.5346 17.9984 58.5186 17.8534 60.4749 18.3183C60.8515 18.4931 61.2574 18.5961 61.6717 18.6221C61.7684 18.6566 61.8627 18.698 61.9571 18.7395C62.0975 18.7993 61.9111 18.7187 62.0538 18.774C62.1965 18.8292 62.1781 18.8177 62.0768 18.774C61.8443 18.6413 61.5803 18.5737 61.3127 18.5783C61.0406 18.5516 60.7877 18.4264 60.6015 18.2262C60.2171 17.2319 60.2908 17.1099 61.2275 17.179Z" fill="#3C5973"/>
<path d="M30.8527 45.4077C26.1368 44.0428 22.1482 41.5756 18.9329 37.8355C16.9167 35.4902 15.8442 32.7905 15.4115 29.7824C15.3332 29.2415 15.4276 28.6316 14.9512 28.2058V21.789C15.0824 21.621 15.1951 21.407 15.469 21.5589C15.5335 21.6417 15.5473 21.8005 15.6002 21.8258C15.6946 21.8719 15.6002 21.743 15.6439 21.697C15.6427 21.3468 15.7067 20.9995 15.8327 20.6728C15.8601 20.5758 15.8932 20.4805 15.9316 20.3874C16.0691 20.0682 16.1792 19.7378 16.2608 19.4C16.2907 19.2527 16.3229 19.1077 16.3643 18.9627C16.4348 18.7209 16.5444 18.4923 16.6889 18.286C16.942 18.0283 17.0088 17.6807 17.1192 17.3654C17.8097 15.9108 18.5002 14.4723 19.5773 13.2479C19.9273 12.9329 20.2415 12.5801 20.5141 12.1961C20.5819 12.111 20.6591 12.0338 20.7442 11.9659C21.3725 11.5839 21.7684 10.9164 22.4405 10.585C22.7759 10.4677 23.0632 10.2427 23.2575 9.94517C23.3681 9.76407 23.5357 9.62482 23.7339 9.5493C23.8014 9.54634 23.8688 9.55749 23.9317 9.58204C23.9946 9.60658 24.0517 9.64398 24.0994 9.69185C24.147 9.73972 24.1842 9.797 24.2084 9.86004C24.2327 9.92308 24.2436 9.99048 24.2403 10.0579C24.0746 10.5183 23.6442 10.7898 23.3565 11.1627C22.4359 12.3135 21.5567 13.4781 20.7327 14.6933C20.6455 14.8132 20.5685 14.9403 20.5025 15.0731C20.4142 15.3052 20.2768 15.5156 20.0998 15.6899C19.7311 16.0055 19.4365 16.3984 19.2367 16.8407C18.903 17.4897 18.682 18.1802 18.415 18.8223C18.3253 19.0525 18.2194 19.2826 18.1181 19.5128C18.0257 19.746 17.9488 19.9851 17.888 20.2286C17.7476 20.5945 17.8719 20.9489 17.9294 21.308C17.8834 22.3736 17.5496 23.3978 17.4829 24.4611C17.3149 24.9214 17.3471 25.4025 17.2942 25.8743C17.2777 25.9966 17.2516 26.1175 17.2159 26.2356C16.9236 27.3105 17.1952 28.3669 17.3241 29.4279C17.3057 29.8882 17.4737 30.3186 17.4806 30.7697C17.4806 31.039 17.6049 31.2876 17.5957 31.5569C17.6739 31.8284 17.7775 32.0931 17.8488 32.3532C17.8719 32.2957 17.8258 32.2657 17.8258 32.2197C17.7591 31.9711 17.6532 31.7433 17.5957 31.497C17.5957 31.2139 17.4622 30.9492 17.4806 30.6662C17.4967 30.1437 17.4645 29.4371 18.079 29.4095C18.5163 29.3911 18.4703 30.1299 18.5738 30.5419C18.6912 31.0022 18.7142 31.497 18.9444 31.9228C18.972 31.9757 18.9996 32.0356 19.0295 32.0977C19.1009 31.9481 18.9444 31.8676 18.9191 31.7456C18.8339 31.5708 18.7683 31.3871 18.7234 31.1978C18.7053 30.7919 18.6333 30.3902 18.5094 30.0033C18.3874 29.5177 18.3299 29.0182 18.1711 28.5395C18.1037 28.1814 18.0728 27.8175 18.079 27.4532C18.079 26.5072 17.743 25.5889 17.8488 24.6361C17.858 23.0135 18.6337 21.5819 19.094 20.0651C19.3219 19.6176 19.4773 19.1368 19.5543 18.6405C19.6032 18.4866 19.6814 18.3436 19.7845 18.2193C20.0516 17.9129 20.2215 17.5339 20.2724 17.1307C20.4074 16.6699 20.6785 16.2607 21.0503 15.9569C21.1654 15.6922 21.9341 15.7957 21.4715 15.2042C21.4424 15.1122 21.4328 15.0151 21.4435 14.9192C21.4542 14.8232 21.4849 14.7306 21.5336 14.6473C23.055 12.4953 24.8824 10.6886 27.3244 9.58382C27.7295 9.50787 28.0839 9.28232 28.4752 9.19256C28.7744 9.12351 29.1403 8.91637 29.306 9.4066C29.1933 10.5252 28.4959 11.2041 27.6213 11.8394C26.4015 12.7255 25.1287 13.6139 24.6523 15.2088C25.1632 15.4183 25.4716 15.0017 25.8652 14.9396C26.1552 14.8958 26.4843 14.6933 26.7076 15.0132C26.9308 15.3331 26.7214 15.6024 26.5718 15.8671C26.3957 16.1625 26.1964 16.4434 25.9757 16.7072C23.9043 19.3217 22.9836 22.346 22.8409 25.6326C22.8087 26.4589 22.5809 27.2437 22.6545 28.1114C22.9169 31.1794 24.2656 33.7986 26.0884 36.1047C27.2185 37.5317 28.8756 38.5559 30.5719 39.373C30.6732 39.4086 30.7723 39.4501 30.8688 39.4973C31.5608 39.8736 32.2926 40.1716 33.0507 40.3857C33.2458 40.455 33.4448 40.5126 33.6468 40.5583C33.9046 40.6089 34.1577 40.6918 34.4178 40.7332C34.5306 40.7332 34.648 40.7562 34.7492 40.7723C39.3201 41.7643 43.3226 40.3442 47.0649 37.8677C48.8082 36.7595 50.2648 35.2547 51.3159 33.4764C51.5831 33.0135 51.9307 32.602 52.3424 32.2611C52.4367 32.2038 52.5418 32.1669 52.6512 32.1526C52.7606 32.1383 52.8718 32.1471 52.9776 32.1783C53.5231 32.6708 53.4863 32.0655 53.6382 31.8192C54.3033 30.5004 54.4483 29.0021 55.0766 27.6764C55.3758 27.3634 55.4035 26.9261 55.5876 26.5625C55.7717 26.1988 55.8523 25.7247 56.4438 25.9664C56.5499 26.1479 56.6135 26.3512 56.6299 26.5608C56.6462 26.7705 56.6148 26.9812 56.5381 27.177C56.3712 27.3943 56.2625 27.6506 56.2222 27.9216C56.1819 28.1927 56.2115 28.4695 56.308 28.7259C56.3379 29.7041 55.9996 30.5902 55.629 31.4694C55.6129 31.5753 55.438 31.6996 55.53 31.7594C55.6221 31.8192 55.4633 31.7893 55.5761 31.6742C55.8523 31.2715 56.4069 31.4441 56.7108 31.1173C56.7649 31.1341 56.8141 31.1638 56.8542 31.2039C56.8943 31.244 56.9241 31.2933 56.9409 31.3474C56.5496 33.4188 55.4702 35.1887 54.3125 36.8712C50.7474 42.0612 45.8865 45.3524 39.5825 46.2385C36.8206 46.6275 34.0127 46.5585 31.2969 45.7184C31.1323 45.6406 30.9821 45.5356 30.8527 45.4077Z" fill="#009DBA"/>
<path d="M15.873 18.5784L15.9053 18.3482C16.1709 18.0226 16.32 17.6175 16.3288 17.1974C18.0434 12.4263 21.307 8.99466 25.6386 6.49056C28.0609 5.10247 30.7105 4.15564 33.4639 3.69416C33.671 3.65734 33.9334 3.72868 34.0554 3.4502H36.357C36.4421 3.78853 36.9853 3.52845 37.0198 4.0394C35.6366 4.62629 34.0761 4.54804 32.6745 5.08661C32.4585 5.32835 32.1644 5.48641 31.8436 5.53311C31.5418 5.59732 31.2443 5.68033 30.9529 5.78168C30.7112 5.85993 30.4719 5.94279 30.2325 6.01184C29.8527 6.13612 29.5006 6.33175 29.1185 6.45374C28.6965 6.58003 28.3048 6.79153 27.9678 7.07516C27.6916 7.30532 27.4039 7.23857 27.1116 7.11198C26.6973 6.96699 26.4349 7.20405 26.191 7.47563C26.0144 7.65725 25.8201 7.82072 25.611 7.96356C25.2772 8.19372 24.9389 8.42388 24.6144 8.65403C23.0954 9.57466 21.9331 10.9119 20.7017 12.1501L20.7178 12.134C20.389 12.5043 20.0816 12.8931 19.7972 13.2986C18.7983 14.576 18.1424 16.0605 17.2655 17.4161C17.0537 17.6923 17.2356 18.1641 16.8052 18.3367L16.575 19.0272C16.0226 19.3471 16.0134 18.8707 15.873 18.5784Z" fill="#009EBB"/>
<path d="M36.1055 59.1479C37.8409 60.9892 39.4543 62.9501 41.5073 64.4922C44.9335 67.1181 48.8889 68.9689 53.1003 69.917C53.2742 69.9764 53.4415 70.0535 53.5997 70.1471L53.4892 70.2576C53.2015 70.3957 52.8908 70.1701 52.6054 70.3105C52.9645 70.1886 53.2959 70.4187 53.648 70.3888C53.9628 70.4263 54.2744 70.4871 54.5802 70.5706C54.8932 70.6397 55.1947 70.7455 55.5008 70.8353C55.9017 70.9768 56.3257 71.0416 56.7505 71.0263C56.9719 71.0253 57.1911 71.0691 57.395 71.1552C57.442 71.1828 57.4813 71.2216 57.5094 71.2682C57.5376 71.3149 57.5536 71.3678 57.5561 71.4222C57.2454 71.8825 56.716 71.4682 56.3547 71.7191C48.2992 71.9032 41.7489 68.6281 36.3633 62.8535C33.3772 59.6171 31.1484 55.7569 29.8384 51.5528C29.5521 50.7645 29.4208 49.9282 29.4517 49.0901C29.4701 48.8369 29.4333 48.5009 29.7808 48.4595C30.0455 48.4273 30.1422 48.7196 30.2227 48.9198C30.736 50.188 31.2331 51.4515 31.7371 52.7335C32.087 53.5022 32.2389 54.3975 33.0928 54.8463C33.7722 56.186 34.5556 57.4704 35.4358 58.6876C35.6084 58.8971 35.6153 59.3781 36.1055 59.1479Z" fill="#3D5A73"/>
<path d="M33.3079 52.7376L32.6519 52.9678C31.8072 51.1427 31.416 49.1932 31.0938 47.2254C31.1674 47.0505 31.2572 46.9078 31.4873 46.9952C32.2629 48.7237 32.7877 50.5442 33.416 52.328C33.4356 52.3997 33.4359 52.4754 33.4169 52.5473C33.3979 52.6192 33.3603 52.6849 33.3079 52.7376Z" fill="#4B657E"/>
<path d="M56.3574 71.7218C56.652 71.3513 57.186 71.7011 57.4875 71.349C57.8649 70.8886 58.3161 70.7575 58.8684 71.0359C58.7971 71.204 58.728 71.3743 58.6567 71.5446C57.9041 71.8323 57.1307 71.7655 56.3574 71.7218Z" fill="#536B85"/>
<path d="M33.1026 54.8462C32.0232 54.5447 31.9219 53.6241 31.7539 52.7334C32.3753 53.219 32.1406 54.3445 33.1348 54.5608L33.1026 54.8462Z" fill="#4B657E"/>
<path d="M31.2933 46.98L31.0908 47.224L31.0218 46.1215C30.9665 45.82 31.1069 45.7832 31.3463 45.8914C31.5833 46.2596 31.611 46.6302 31.2933 46.98Z" fill="#425E78"/>
<path d="M31.2442 45.8662L31.0141 46.1217C30.9588 45.8915 30.9013 45.6476 30.8438 45.4082L31.3041 45.4796C31.4076 45.6315 31.4122 45.7649 31.2442 45.8662Z" fill="#66798F"/>
<path d="M54.9966 15.5376L51.084 10.5685C51.7491 10.4857 51.9908 11.068 52.3475 11.4201C53.519 12.5709 54.5801 13.8229 55.2245 15.365C55.2033 15.41 55.1715 15.4492 55.1318 15.4793C55.0921 15.5093 55.0457 15.5293 54.9966 15.5376Z" fill="#00ADCA"/>
<path d="M39.3163 5.50794L36.7846 5.55858C36.49 5.64171 36.1798 5.65276 35.8801 5.5908C35.5003 5.41818 34.994 5.66905 34.6855 5.24556C36.2483 5.06144 37.818 4.66557 39.3163 5.50794Z" fill="#66B6CC"/>
<path d="M51.9492 16.4913C53.1667 16.031 54.4349 16.4223 55.6685 16.2612L55.8987 16.512C55.9493 16.7238 55.8987 16.8435 55.6685 16.7422L52.9067 16.7054C52.6052 16.5005 52.207 16.779 51.9492 16.4913Z" fill="#BABDC8"/>
<path d="M34.688 5.24512C35.0746 5.39702 35.5557 5.11163 35.8848 5.5121C35.7559 5.6686 35.5303 5.60646 35.3853 5.72845L34.2852 5.75146C34.1011 5.5075 33.7374 5.77448 33.5625 5.50289C33.8617 5.10932 34.3059 5.30726 34.688 5.24512Z" fill="#00A6C2"/>
<path d="M60.7284 18.0858C59.9597 18.263 60.3003 17.0708 59.5938 17.1652C59.5938 16.7256 59.8653 16.8844 60.0909 16.935C60.4798 16.9718 60.8918 16.9005 61.2302 17.1652C60.5052 17.1767 60.4937 17.5633 60.7284 18.0858Z" fill="#5A6E86"/>
<path d="M33.5509 5.49856C33.8225 5.52157 34.101 5.46634 34.2828 5.75173L32.4416 6.16831C32.3403 5.80237 32.582 5.62975 32.8398 5.46404C32.9314 5.42154 33.0354 5.41417 33.132 5.44332L33.5509 5.49856Z" fill="#00A9C5"/>
<path d="M58.4524 16.9483L56.6112 16.7181C56.5329 16.6767 56.5053 16.6353 56.5306 16.5915C56.5559 16.5478 56.5789 16.5225 56.6065 16.5225C57.3108 16.5662 58.0358 16.343 58.7125 16.7066C58.6826 16.8539 58.5307 16.87 58.4524 16.9483Z" fill="#A1A8B7"/>
<path d="M58.4512 16.9494L58.702 16.7031C59.1624 16.7515 59.6687 16.6479 60.0991 16.9333L59.602 17.1634L58.4512 16.9494Z" fill="#79859A"/>
<path d="M50.5751 10.0851C49.9997 10.0391 49.6752 9.68694 49.4727 9.1875C50.0089 9.28186 50.4485 9.49361 50.5751 10.0851Z" fill="#10B0CB"/>
<path d="M33.1338 5.44373L32.9036 5.52428C32.7828 5.6143 32.6437 5.67664 32.4962 5.70687C32.3486 5.7371 32.1962 5.73448 32.0497 5.6992C31.8771 5.62785 31.7321 5.53579 31.7782 5.31023L32.6988 5.08008L33.1338 5.44373Z" fill="#D5E6ED"/>
<path d="M42.3586 5.69885L41.1895 5.4871C41.4282 5.32865 41.7084 5.24414 41.995 5.24414C42.2816 5.24414 42.5618 5.32865 42.8005 5.4871C42.72 5.69194 42.5106 5.6344 42.3586 5.69885Z" fill="#7AC0D4"/>
<path d="M40.9421 5.75133C40.5831 5.7053 40.0974 5.91014 40.0215 5.29102C40.2678 5.58792 40.9214 5.02634 40.9421 5.75133Z" fill="#E3EEF2"/>
<path d="M42.3574 5.69902L42.8177 5.49188C42.9198 5.48715 43.0214 5.50756 43.1137 5.5513C43.206 5.59504 43.2861 5.66079 43.3471 5.74275C42.9927 6.1156 42.6704 5.98211 42.3574 5.69902Z" fill="#00A7C3"/>
<path d="M54.998 15.5379L55.2282 15.3652L55.6885 16.0557C55.2282 16.134 55.0855 15.8785 54.998 15.5379Z" fill="#50B3CB"/>
<path d="M56.5855 16.519C56.5855 16.5857 56.5855 16.6501 56.5855 16.7146C56.2702 16.6317 55.9779 17.1933 55.6465 16.7537L55.8766 16.5236C56.1252 16.2796 56.3531 16.5466 56.5855 16.519Z" fill="#B0B5C1"/>
<path d="M58.6538 21.5292C56.5824 21.2807 54.4926 21.6167 52.4258 21.2346C53.5582 20.8687 54.6951 20.5856 55.8919 20.6661C55.9034 20.8134 55.3718 20.9953 55.8505 21.0781C56.4052 21.1771 57.0013 21.1034 57.5629 21.0988C57.991 21.0965 58.4144 21.0666 58.6538 21.5292Z" fill="#43607A"/>
<path d="M60.2538 68.5134C59.8579 68.113 59.2986 68.4881 58.8613 68.2257C59.3101 67.5353 60.0121 68.1383 60.5346 67.8805C61.0202 68.1291 61.4552 67.8276 61.9155 67.77C62.2969 67.7714 62.6747 67.697 63.0272 67.5514C63.2964 67.5099 63.5496 67.3511 63.8373 67.4156C63.9449 67.4399 64.0466 67.4853 64.1365 67.5491C64.3667 68.0094 63.8879 68.06 63.7015 68.2787L60.2538 68.5134Z" fill="#E4E5E9"/>
<path d="M53.6007 70.1494C55.3706 70.3105 57.1705 70.2438 58.8782 70.8675C58.5905 71.0079 58.2637 70.932 57.9737 71.047C57.6653 71.0793 57.3569 71.0677 57.0531 71.07C56.6319 71.0539 56.2061 71.1138 55.7895 71.0056C55.413 70.8493 55.0149 70.7515 54.6088 70.7156C54.2876 70.5976 53.9564 70.509 53.6192 70.4509C53.5914 70.4277 53.5702 70.3977 53.5577 70.3638C53.5452 70.3298 53.5418 70.2932 53.5478 70.2576C53.5639 70.1908 53.58 70.1563 53.5984 70.1563L53.6007 70.1494Z" fill="#3D5A73"/>
<path d="M66.4733 66.0273C66.4434 66.3933 66.8347 66.4877 66.9336 66.7707C66.9497 67.0147 66.7725 67.0792 66.5907 67.1436C66.4567 67.1578 66.3252 67.1895 66.1994 67.238C66.1273 67.2863 66.0609 67.3427 66.0015 67.406H65.5619C65.5116 67.4622 65.4478 67.5046 65.3765 67.5292C65.3052 67.5538 65.2288 67.5597 65.1545 67.5464C64.9538 67.5001 64.7688 67.4017 64.6183 67.261C64.561 67.1764 64.5335 67.0752 64.54 66.9733C64.5863 66.8261 64.6714 66.6941 64.7863 66.5912C64.9497 66.4646 65.1476 66.4002 65.3202 66.2897C65.6931 66.1217 66.1235 66.2575 66.4733 66.0273Z" fill="#45627D"/>
<path d="M82.6172 45.2762C82.6011 45.6352 82.7185 46.0311 82.1914 46.2958C82.4998 44.7261 82.1016 43.1265 82.5735 41.5684C82.7921 42.8066 82.7093 44.0379 82.6172 45.2762Z" fill="#E0E1E5"/>
<path d="M51.0649 66.2573C50.1006 66.469 49.3388 65.9397 48.5332 65.5668C48.57 65.1065 48.8048 65.118 49.15 65.2952C49.5827 65.5254 49.997 65.8246 50.531 65.7739C50.7358 65.9028 50.9706 66.0018 51.0649 66.2573Z" fill="#5B7088"/>
<path d="M56.1113 61.7142C57.3427 61.8224 58.5694 61.1987 59.7938 61.6797C58.5763 61.8938 57.345 62.0917 56.1113 61.7142Z" fill="#7F8A9E"/>
<path d="M55.9183 68.5155L60.0335 68.5892C59.3431 68.9758 58.5766 68.7411 57.847 68.7779C57.4011 68.777 56.9578 68.8453 56.5329 68.9804C56.3395 68.847 56.114 68.9091 55.9045 68.8792C55.748 68.8562 55.626 68.7802 55.6629 68.6076C55.6882 68.481 55.8102 68.4902 55.9183 68.5155Z" fill="#586B83"/>
<path d="M66.4463 66.9736C66.54 66.9857 66.6353 66.973 66.7226 66.9366C66.8099 66.9003 66.886 66.8416 66.9434 66.7665C67.2196 66.7481 67.459 66.389 67.7513 66.656C67.7922 66.7121 67.818 66.7778 67.826 66.8467C67.8341 66.9157 67.8242 66.9855 67.7973 67.0496C67.7179 67.1757 67.6051 67.2773 67.4714 67.3431C67.3377 67.4089 67.1884 67.4364 67.0401 67.4224C66.856 67.4063 66.6741 67.381 66.49 67.3603C66.4533 67.3453 66.4211 67.3211 66.3965 67.2901C66.372 67.259 66.3558 67.2222 66.3496 67.183C66.353 67.1032 66.3878 67.028 66.4463 66.9736Z" fill="#858FA2"/>
<path d="M82.616 45.2762C82.6022 44.041 82.5876 42.8051 82.5723 41.5684C82.9566 42.8066 82.883 44.0356 82.616 45.2762Z" fill="#D0D2D9"/>
<path d="M74.5281 60.9891C74.1501 61.4638 73.6724 61.8495 73.1288 62.1192C72.8986 62.1837 72.8342 62.0939 72.8986 61.8891L74.2404 60.7383C74.4936 60.6554 74.5603 60.759 74.5281 60.9891Z" fill="#E2E2E6"/>
<path d="M58.4277 20.6678C59.2014 20.5957 59.9818 20.6675 60.7293 20.8795C59.9145 21.2754 59.1412 21.2524 58.4277 20.6678Z" fill="#43607A"/>
<path d="M55.9179 68.5159C55.8051 69.0889 56.5255 68.5665 56.5347 68.9762C55.9225 68.9762 55.2941 69.1879 54.7188 68.8105C54.7203 68.7526 54.7353 68.6959 54.7625 68.6448C54.7896 68.5937 54.8282 68.5496 54.8753 68.5159C54.9719 68.4537 55.0847 68.4261 55.1814 68.3593C55.3075 68.3222 55.4408 68.3171 55.5694 68.3444C55.698 68.3718 55.8177 68.4307 55.9179 68.5159Z" fill="#9199AB"/>
<path d="M33.3634 52.957L34.429 55.0284C34.0971 54.7951 33.8268 54.4847 33.6412 54.1239C33.4556 53.7631 33.3602 53.3627 33.3634 52.957Z" fill="#4B657E"/>
<path d="M51.7773 68.0709L52.4678 67.8799C52.698 68.4323 53.2757 68.0525 53.6048 68.3218L53.5887 68.308C53.6234 68.3318 53.653 68.3624 53.6756 68.3981C53.6981 68.4337 53.7132 68.4735 53.7199 68.5151C53.7158 68.5563 53.7022 68.5961 53.6803 68.6312C53.6583 68.6663 53.6285 68.6959 53.5933 68.7176C52.9742 68.5473 52.1939 68.8143 51.7773 68.0709Z" fill="#D6D8DE"/>
<path d="M63.4805 60.9528C63.8004 60.3958 64.3228 60.2186 65.011 60.1357L64.4149 60.8492L63.7889 61.0334C63.7644 61.0519 63.7361 61.0647 63.706 61.0708C63.6759 61.0768 63.6448 61.0759 63.6151 61.0681C63.5854 61.0604 63.5578 61.0459 63.5345 61.026C63.5112 61.006 63.4927 60.981 63.4805 60.9528Z" fill="#F2F2F4"/>
<path d="M60.2344 61.657C60.4645 61.0379 60.9916 61.2772 61.4266 61.2404C61.4266 61.39 61.9352 61.5488 61.4703 61.6593C61.0813 61.7536 60.6464 61.6639 60.2344 61.657Z" fill="#5C6E86"/>
<path d="M60.7221 21.7685C60.0989 21.8304 59.4697 21.7517 58.8809 21.5383C59.5598 21.1218 60.1605 21.2875 60.7221 21.7685Z" fill="#43607A"/>
<path d="M64.93 66.6953L64.6377 67.0037C64.4158 67.2291 64.1217 67.3693 63.8068 67.3995C63.6181 67.3742 63.4109 67.5768 63.2429 67.3489C63.0749 67.1211 62.7527 67.2292 62.5156 67.1464C62.7849 66.9162 63.1347 66.9646 63.4501 66.8909C63.6074 66.7056 63.8298 66.5878 64.0715 66.5618C64.3546 66.617 64.6768 66.4329 64.93 66.6953Z" fill="#D7D8DE"/>
<path d="M51.0636 66.2574L50.5273 65.7764C51.0291 65.8914 51.5653 65.9007 51.9796 66.2735C52.0349 66.3264 52.0533 66.3771 52.0303 66.4277C52.0072 66.4783 51.9888 66.4991 51.9704 66.4991C51.5561 66.8305 51.3513 66.3909 51.0636 66.2574Z" fill="#BDC0CB"/>
<path d="M81.6973 48.2523L82.0839 46.4502C82.4683 47.3593 82.0287 47.7828 82.0471 48.2914L81.6973 48.2523Z" fill="#CCCED6"/>
<path d="M46.623 66.2836C46.9683 66.2217 47.3242 66.2924 47.6196 66.4815C47.8636 66.6541 48.1122 66.8244 47.8383 67.172C47.4263 66.8889 46.7611 66.951 46.623 66.2836Z" fill="#DEDFE3"/>
<path d="M60.957 20.8916L62.0641 20.9192C62.2942 21.0803 62.6326 20.8318 62.7983 21.1494C62.5061 21.316 62.1668 21.3811 61.8337 21.3345C61.5005 21.2878 61.1923 21.1321 60.957 20.8916Z" fill="#43607A"/>
<path d="M64.9297 66.6946L63.9745 66.743C63.8733 66.7913 63.7582 66.8143 63.7122 66.6923C63.6316 66.4852 63.7789 66.3678 63.9423 66.2665C64.3359 66.4967 64.7225 66.1768 65.1138 66.255C65.1283 66.2376 65.1464 66.2234 65.1667 66.2133C65.187 66.2032 65.2093 66.1975 65.2319 66.1965C65.2546 66.1954 65.2773 66.1991 65.2984 66.2073C65.3196 66.2156 65.3388 66.2281 65.3549 66.2441C65.3709 66.2602 65.3834 66.2794 65.3917 66.3006C65.3999 66.3217 65.4036 66.3444 65.4026 66.3671C65.4015 66.3897 65.3958 66.412 65.3857 66.4323C65.3756 66.4526 65.3614 66.4707 65.344 66.4852L64.9297 66.6946Z" fill="#566A82"/>
<path d="M47.8378 67.171C47.9529 66.8833 47.6744 66.7222 47.6191 66.4805C48.0795 66.4138 48.4339 66.6416 48.7699 66.8994C48.7911 66.9204 48.8076 66.9456 48.8184 66.9734C48.8291 67.0011 48.8339 67.0309 48.8324 67.0607C48.8309 67.0904 48.8231 67.1195 48.8096 67.1461C48.796 67.1726 48.777 67.196 48.7538 67.2147C48.6339 67.2402 48.5088 67.2239 48.3994 67.1687L47.8378 67.171Z" fill="#717F95"/>
<path d="M50.4256 67.4453C50.8537 67.6755 51.604 67.2842 51.7168 68.1128H51.6339L51.5557 68.0898C51.1828 68.1887 50.8652 67.9632 50.5108 67.9148C50.253 67.8941 50.2093 67.6479 50.4256 67.4453Z" fill="#707D93"/>
<path d="M63.712 68.2789C63.689 67.9359 64.0549 67.8715 64.1723 67.6344C64.2532 67.5708 64.355 67.5396 64.4577 67.5469C64.7178 67.6528 65.1159 67.5999 65.0699 68.0648L63.712 68.2789Z" fill="#D9DBE0"/>
<path d="M50.4244 67.4452C50.5326 68.1356 51.2553 67.7421 51.5545 68.0919C50.9331 68.4394 50.436 68.0482 49.9135 67.8157C49.8909 67.8004 49.8724 67.7798 49.8596 67.7558C49.8468 67.7317 49.84 67.7049 49.8398 67.6776C49.8398 67.6224 49.8398 67.5948 49.8583 67.5925C49.8904 67.537 49.9354 67.4901 49.9895 67.4557C50.0436 67.4212 50.1051 67.4002 50.169 67.3945L50.4244 67.4452Z" fill="#CBCDD5"/>
<path d="M53.367 61.0242V61.4109C52.8376 61.4638 52.4463 61.114 51.986 60.9506C51.9423 60.7204 52.0965 60.6698 52.276 60.6514C52.6652 60.6822 53.0403 60.8104 53.367 61.0242Z" fill="white"/>
<path d="M63.4789 60.9522L63.7873 61.0327C63.3891 61.1639 63.0646 61.7393 62.5605 61.2307C62.7309 60.6944 63.0991 60.8049 63.4789 60.9522Z" fill="#CDCFD7"/>
<path d="M82.4449 40.059C82.0076 39.578 82.1227 39.1775 82.2148 38.7725C82.3874 39.1453 82.705 39.4859 82.4449 40.059Z" fill="#48617A"/>
<path d="M71.2773 63.035L72.2279 62.3652C72.2975 62.371 72.3635 62.3989 72.4161 62.4449C72.4687 62.4909 72.5052 62.5525 72.5202 62.6207C72.2554 62.9224 71.9156 63.1487 71.5351 63.2767C71.4718 63.2697 71.4125 63.2423 71.366 63.1988C71.3195 63.1552 71.2884 63.0977 71.2773 63.035Z" fill="#D3D5DC"/>
<path d="M81.209 49.983C81.3126 49.5227 81.3402 49.0624 81.7706 48.5537C81.853 49.0562 81.7393 49.5711 81.4529 49.9922C81.3678 50.0958 81.2849 50.0981 81.209 49.983Z" fill="#C6C9D2"/>
<path d="M65.0719 68.0639L64.4551 67.6635C64.6001 67.3965 64.8625 67.4218 65.1064 67.3965H65.5667C65.5023 67.6957 65.5851 68.0985 65.0719 68.0639Z" fill="#9AA1B1"/>
<path d="M65.3263 66.4852L65.3125 66.2067C65.6186 65.8017 65.9869 65.5991 66.4932 65.8454C66.4835 65.9056 66.4774 65.9663 66.4748 66.0272C66.1825 66.4093 65.7383 66.407 65.3263 66.4852Z" fill="#556A83"/>
<path d="M80.0151 53.1181C80.1301 52.7269 80.1716 52.2942 80.595 52.0709L80.671 52.041C80.8275 52.5911 80.3258 52.9386 80.2475 53.422C80.0197 53.4335 79.9092 53.3598 80.0151 53.1181Z" fill="#D1D3DA"/>
<path d="M54.2619 67.1689C53.8822 67.1206 53.4541 67.3093 53.1342 66.9388C53.0973 66.9208 53.0681 66.8904 53.0516 66.8528C53.0352 66.8153 53.0326 66.7732 53.0444 66.7339C53.1282 66.638 53.2341 66.5637 53.3528 66.5176L53.8546 66.6833C53.8246 66.9917 54.4944 66.6948 54.2619 67.1689Z" fill="#BFC3CC"/>
<path d="M63.9371 66.2666C63.9118 66.43 63.707 66.6095 63.9808 66.743C63.9142 66.8132 63.8298 66.864 63.7366 66.89C63.6433 66.9159 63.5448 66.9161 63.4515 66.8903L62.7012 66.5727L63.9371 66.2666Z" fill="#6C7A91"/>
<path d="M60.6875 18.6042C60.9177 18.5121 61.2307 18.6502 61.4033 18.374L62.3078 18.6042C62.363 19.0507 62.0477 18.8712 61.8337 18.8712C61.4424 18.8021 61.0281 18.8712 60.6875 18.6042Z" fill="#CBCED6"/>
<path d="M37.9167 57.0995C37.6323 56.8827 37.4341 56.5719 37.3574 56.2226C37.8177 56.0454 37.9006 56.5402 38.1975 56.6208C38.2604 56.6622 38.2811 56.7036 38.2596 56.7451C38.2412 56.7888 38.2205 56.8095 38.1998 56.8095L37.9167 57.0995Z" fill="#4E6781"/>
<path d="M36.1048 59.1483C36.1048 59.291 36.1416 59.4751 36.0703 59.5649C35.8885 59.795 35.8286 59.5004 35.8033 59.4337C35.7043 59.1644 35.1635 59.1092 35.4235 58.6719L36.1048 59.1483Z" fill="#566A81"/>
<path d="M52.2099 60.7588L51.9913 60.9475L51.3008 60.7174V60.3123C51.3675 60.2087 51.4435 60.1995 51.5309 60.2939L52.1938 60.5241C52.3296 60.5862 52.3365 60.6667 52.2099 60.7588Z" fill="white"/>
<path d="M80.6698 52.0406L80.5938 52.0705C80.4419 51.5895 80.725 51.2281 80.9344 50.8438C81.0771 50.8806 81.0909 51.0233 81.1646 51.1199C80.9874 51.4237 81.1048 51.8772 80.6698 52.0406Z" fill="#BFC3CD"/>
<path d="M71.279 63.0352L71.5367 63.2768C71.3066 63.4955 71.0764 63.7486 70.6644 63.6589C70.6506 63.2101 71.0258 63.1825 71.279 63.0352Z" fill="#D8D9DF"/>
<path d="M70.3683 63.751C70.1612 64.2849 69.8827 64.3678 69.4707 64.3356C69.572 63.8684 69.8643 63.7993 70.3683 63.751Z" fill="#C2C6CF"/>
<path d="M66.491 65.8461L65.3103 66.2074C65.246 66.2372 65.1763 66.2536 65.1055 66.2558C65.2965 65.5193 65.9686 65.7011 66.4634 65.5469C66.5347 65.5975 66.5601 65.6481 66.537 65.6988C66.514 65.7494 66.491 65.777 66.468 65.777L66.491 65.8461Z" fill="#A7AEBB"/>
<path d="M49.9141 67.6867V67.8156C49.3456 67.7558 48.7841 67.6821 48.4043 67.1781L48.7679 67.1113C49.2006 67.2034 49.7047 67.1459 49.9141 67.6867Z" fill="#CDCFD6"/>
<path d="M57.9448 70.8855L58.8655 70.874C58.8701 70.9304 58.8654 70.9872 58.8516 71.042L57.4707 71.355L57.5029 71.2722C57.3971 70.8487 57.832 71.0397 57.9448 70.8855Z" fill="#ADB2BF"/>
<path d="M81.1618 51.1204L80.9316 50.8442C81.0214 50.5588 81.1135 50.2711 81.2055 49.9834H81.4495C81.3551 50.3678 81.2585 50.7452 81.1618 51.1204Z" fill="#CACDD5"/>
<path d="M80.0132 53.1182L80.2434 53.4151C80.1168 53.6613 80.1214 53.9997 79.783 54.1055C79.7293 54.1853 79.6695 54.1899 79.6035 54.1193C79.6044 53.745 79.7514 53.3857 80.0132 53.1182Z" fill="#CFD1D8"/>
<path d="M79.4747 54.8465C79.3366 55.1642 79.2169 55.4956 78.8187 55.7027C78.6829 55.2424 78.9453 55.0353 79.1387 54.7959C79.1625 54.7735 79.1911 54.7568 79.2223 54.7471C79.2536 54.7374 79.2866 54.7348 79.319 54.7397C79.3513 54.7446 79.3821 54.7567 79.4091 54.7752C79.4361 54.7937 79.4585 54.8181 79.4747 54.8465Z" fill="#C4C8D0"/>
<path d="M38.1973 56.8102C38.1973 56.748 38.1973 56.6836 38.1973 56.6214C38.9453 56.3245 38.8325 56.8953 38.8877 57.3004L38.1973 56.8102Z" fill="#BABEC8"/>
<path d="M54.261 67.1688C54.2979 66.8627 53.6327 67.1527 53.8537 66.6924C54.2495 66.7269 54.6638 66.6924 55.0206 66.9225L54.261 67.1688Z" fill="#F0F0F2"/>
<path d="M62.7987 21.1537L62.0645 20.9235L62.5248 20.6934C62.8102 20.7601 63.137 20.7325 63.3142 21.0432L62.7987 21.1537Z" fill="#B2B7C3"/>
<path d="M61.8777 21.9777C61.5582 22.0086 61.237 21.9412 60.957 21.7844C61.3414 21.476 61.6843 21.3793 61.8777 21.9777Z" fill="#43607A"/>
<path d="M53.3536 66.5271L53.1234 66.7389C52.6631 66.969 52.334 66.6951 51.9727 66.4857V66.4995C51.9811 66.423 51.9811 66.3458 51.9727 66.2694C52.4675 66.1842 52.8887 66.4765 53.3536 66.5271Z" fill="#D5D7DD"/>
<path d="M74.5288 60.9892L74.248 60.7268C74.4437 60.4253 74.6807 60.2205 75.0789 60.3563C75.0421 60.7107 74.8073 60.8695 74.5288 60.9892Z" fill="#D3D5DB"/>
<path d="M66.4688 65.7763C66.4688 65.7004 66.4688 65.6221 66.4688 65.5462C66.8065 65.292 67.2018 65.1252 67.6195 65.0605C67.6467 65.0809 67.6674 65.1087 67.6792 65.1405C67.6911 65.1723 67.6935 65.2069 67.6863 65.2401C67.6702 65.3022 67.6518 65.3344 67.6333 65.3344L66.4688 65.7763Z" fill="#BDC0CB"/>
<path d="M67.6251 65.3344L67.6113 65.0605C67.8415 64.8649 68.2235 64.5726 68.3248 64.8856C68.4583 65.2976 67.8875 65.217 67.6251 65.3344Z" fill="#B6BBC6"/>
<path d="M72.5189 62.6215L72.2266 62.3707L72.9055 61.8896L73.1357 62.1198C73.0711 62.24 72.9833 62.3463 72.8775 62.4324C72.7716 62.5185 72.6497 62.5828 72.5189 62.6215Z" fill="#DBDCE1"/>
<path d="M53.5938 68.7182C53.5938 68.6699 53.5938 68.6193 53.5938 68.5686C53.807 68.4675 54.0401 68.415 54.2762 68.415C54.5122 68.415 54.7453 68.4675 54.9586 68.5686L54.7284 68.8126L53.5938 68.7182Z" fill="#D7D8DE"/>
<path d="M61.834 18.8711C62.0089 18.8113 62.2252 18.8274 62.3081 18.6064L62.9433 18.8987C62.7776 19.0077 62.5826 19.0634 62.3843 19.0585C62.1861 19.0535 61.9941 18.9882 61.834 18.8711Z" fill="#8F98AA"/>
<path d="M79.4767 54.8467L79.1406 54.7961C79.2465 54.536 79.2718 54.223 79.6009 54.1056C79.6608 54.1056 79.7206 54.101 79.7805 54.0918C79.7867 54.232 79.7628 54.372 79.7104 54.5022C79.658 54.6324 79.5783 54.7499 79.4767 54.8467Z" fill="#CFD1D8"/>
<path d="M38.6119 58.0731C38.3415 57.8852 38.137 57.6171 38.0273 57.3066C38.1193 57.3104 38.2093 57.3343 38.291 57.3768C38.3726 57.4193 38.4439 57.4793 38.4997 57.5525C38.5556 57.6257 38.5946 57.7103 38.614 57.8002C38.6333 57.8902 38.6327 57.9834 38.6119 58.0731Z" fill="#4E6781"/>
<path d="M39.3153 58.9594C39.0351 58.7908 38.8196 58.5331 38.7031 58.2275C38.7935 58.2294 38.8825 58.2506 38.964 58.2897C39.0455 58.3288 39.1177 58.3849 39.1757 58.4542C39.2337 58.5236 39.2762 58.6046 39.3003 58.6917C39.3244 58.7789 39.3295 58.8701 39.3153 58.9594Z" fill="#4E6781"/>
<path d="M72.0758 64.9151C71.9676 65.0002 71.864 65.1337 71.7351 65.1659C71.6063 65.1982 71.5694 65.0394 71.6362 64.9634C71.7405 64.8655 71.8573 64.7819 71.9837 64.7148L72.0758 64.9151Z" fill="#4D647D"/>
<path d="M66.4605 67.1205C66.4605 67.2011 66.4812 67.2839 66.4904 67.3645L66.0117 67.4059C66.0117 67.3207 66.0278 67.2356 66.0347 67.1504C66.096 67.1065 66.1682 67.0805 66.2434 67.0752C66.3186 67.0699 66.3937 67.0856 66.4605 67.1205Z" fill="#707D93"/>
<path d="M31.9943 5.5399L32.8873 5.52148C32.7377 5.73553 32.5881 5.94958 32.427 6.16132C29.5293 7.00139 26.7698 8.13836 24.4291 10.1246C24.4102 10.1437 24.3873 10.1584 24.3622 10.1677C24.337 10.177 24.3101 10.1806 24.2833 10.1784C24.2566 10.1762 24.2306 10.1682 24.2073 10.155C24.184 10.1417 24.1638 10.1235 24.1483 10.1016L23.7386 9.64128C23.7225 9.00375 24.3186 8.91629 24.673 8.61018C24.9423 8.39844 25.2277 8.20741 25.4878 7.98416C25.7179 7.83225 26.0056 7.72868 26.1668 7.47321C26.4311 7.18715 26.7723 6.98338 27.1495 6.88631C27.3797 6.94845 27.6098 7.25456 27.84 6.88631C28.2865 6.71139 28.7284 6.52036 29.1818 6.35925C29.58 6.22576 29.9459 6.01172 30.3533 5.89894C30.6019 5.82989 30.832 5.73783 31.0852 5.65037C31.3729 5.49156 31.6997 5.64117 31.9943 5.5399Z" fill="#00A2BF"/>
<path d="M24.8339 8.69089L23.7383 9.64144L23.4529 10.0672C23.1353 10.2974 22.8706 10.6196 22.4817 10.7577C21.7912 11.119 21.5219 11.989 20.6934 12.1663C21.1951 10.8498 22.3436 10.0948 23.3448 9.23176C23.6854 8.94176 24.0007 8.48145 24.5462 8.45843C24.7993 8.34105 24.8316 8.49756 24.8339 8.69089Z" fill="#E1ECF1"/>
<path d="M17.7122 27.4759C17.787 27.5001 17.8675 27.5001 17.9423 27.4759C18.23 27.7428 18.0045 28.118 18.1426 28.4149C18.1843 28.6065 18.2694 28.786 18.3911 28.9396C18.5798 29.3723 18.4993 29.8603 18.7248 30.2953C18.7248 30.6175 18.8791 30.919 18.8698 31.2458L19.1 31.5726C19.114 31.8054 19.0884 32.0389 19.0241 32.2631C18.2645 31.5358 18.4325 30.4932 18.0873 29.568C17.8251 29.9026 17.6897 30.3192 17.7053 30.7441C17.6564 30.7712 17.5993 30.7797 17.5447 30.7678C17.49 30.7559 17.4416 30.7246 17.4084 30.6796C17.1782 30.0168 17.5211 29.3125 17.2564 28.6543C17.2078 28.4169 17.2039 28.1726 17.2449 27.9339C17.3117 27.6968 17.3853 27.4551 17.7122 27.4759Z" fill="#00A0BC"/>
<path d="M17.4445 27.964L17.4767 28.6545C17.265 28.9146 17.7299 29.4969 17.0555 29.5383C16.9336 28.3875 16.54 27.2505 16.9957 26.0859C17.3317 26.2954 17.1844 26.7143 17.387 26.9812C17.5527 27.3127 17.2512 27.6533 17.4445 27.964Z" fill="#D1E4EC"/>
<path d="M17.9239 28.4568C17.4981 28.1254 18.0482 27.8101 17.9377 27.4832C18.0137 26.4913 17.7421 25.474 18.138 24.4912L18.3865 27.5201C18.1748 27.8078 18.4257 28.321 17.9239 28.4568Z" fill="#62B5CB"/>
<path d="M19.5687 16.7438L18.6159 18.8152C18.5952 18.8485 18.5664 18.876 18.5322 18.8951C18.498 18.9141 18.4594 18.9241 18.4202 18.9241C18.3811 18.9241 18.3425 18.9141 18.3083 18.8951C18.2741 18.876 18.2453 18.8485 18.2246 18.8152C18.3259 18.0598 18.6261 17.3449 19.0946 16.7438C19.1589 16.6838 19.2437 16.6504 19.3317 16.6504C19.4197 16.6504 19.5044 16.6838 19.5687 16.7438Z" fill="#B7D8E4"/>
<path d="M27.3027 9.83713C28.0922 9.17198 29.0634 8.89349 30.0922 8.44238C29.9012 9.00857 29.5353 9.18349 29.1946 9.38372C28.4765 9.17428 27.9886 9.91078 27.3027 9.83713Z" fill="#00A9C5"/>
<path d="M55.248 27.7503C55.2988 27.0754 55.4728 26.4155 55.7613 25.8032C55.9915 25.3429 56.263 25.2831 56.3183 25.9229C55.5565 26.2958 56.0467 27.3982 55.248 27.7503Z" fill="#00A3C0"/>
<path d="M17.0571 29.5479C17.3747 29.3384 17.1077 28.8574 17.4783 28.6641C17.9754 29.3545 17.3862 30.045 17.4783 30.7217C17.5818 30.9518 17.4783 30.9886 17.2711 30.9311C17.2988 30.457 16.9328 30.0427 17.0571 29.5479Z" fill="#8CC4D7"/>
<path d="M19.5679 16.744H19.0938C19.2963 16.2837 19.34 15.683 20.0144 15.5771C20.0516 15.7938 20.0297 16.0165 19.9512 16.2218C19.8726 16.4272 19.7402 16.6075 19.5679 16.744Z" fill="#D1E4EC"/>
<path d="M53.5885 31.6348C53.6599 31.7844 53.7289 31.9363 53.8003 32.0951C53.6599 32.4036 53.7174 32.9145 53.2134 32.88C52.8912 32.857 53.1282 32.5324 53.1052 32.3437C53.0563 32.2788 53.0245 32.2026 53.0128 32.1221C53.0011 32.0417 53.01 31.9596 53.0385 31.8834C53.1719 31.6763 53.3285 31.529 53.5885 31.6348Z" fill="#CEE3EB"/>
<path d="M15.5873 20.7552C15.2214 20.3179 15.4699 19.9105 15.6425 19.4986C15.6968 19.4388 15.7693 19.3985 15.8487 19.384C15.9282 19.3694 16.0102 19.3814 16.0821 19.418C16.4113 19.7632 16.0108 20.12 16.1029 20.4813C16.1063 20.5319 16.1063 20.5826 16.1029 20.6332C16.0399 20.7042 15.9567 20.754 15.8644 20.7758C15.7721 20.7977 15.6753 20.7905 15.5873 20.7552Z" fill="#00ABCA"/>
<path d="M35.5781 45.1779C36.1328 44.8787 36.4849 44.8925 36.9107 45.0582C36.5057 45.5461 36.1489 45.4241 35.5781 45.1779Z" fill="#00A1BD"/>
<path d="M20.2438 34.4083C20.6258 34.7283 20.734 35.1725 20.7892 35.642C20.3934 35.3244 19.9653 35.0229 20.2599 34.3945L20.2438 34.4083Z" fill="#CEE2EB"/>
<path d="M16.1466 19.5172L15.6402 19.4988C15.6016 19.174 15.6835 18.8465 15.8704 18.5781C16.1005 18.7231 16.1949 19.0776 16.5608 19.0384C16.5608 19.2018 16.5608 19.3653 16.5447 19.5287C16.4885 19.576 16.4169 19.6009 16.3434 19.5988C16.27 19.5967 16.1999 19.5676 16.1466 19.5172Z" fill="#00A5C1"/>
<path d="M19.3541 19.9955C18.9721 19.3626 19.2345 18.9253 19.7914 18.5801C19.9019 19.1302 19.6602 19.5721 19.3541 19.9955Z" fill="#D1E4EC"/>
<path d="M20.2555 34.3946C19.5098 34.2542 19.6709 33.573 19.4707 33.1104C19.9793 33.3957 20.099 33.909 20.2394 34.4084L20.2555 34.3946Z" fill="#E0EDF1"/>
<path d="M19.0176 32.2705C18.9693 32.0404 18.7875 31.7803 19.0936 31.5801C19.3513 31.7297 19.3237 32.022 19.4204 32.2498C19.4917 32.4132 19.5953 32.6365 19.3145 32.6664C19.0936 32.6917 19.0936 32.4271 19.0176 32.2705Z" fill="#CBE1EA"/>
<path d="M17.4824 25.4508C17.4985 25.6096 17.7448 25.7661 17.4824 25.9272C17.4536 25.9575 17.419 25.9815 17.3806 25.998C17.3422 26.0144 17.3009 26.0229 17.2592 26.0229C17.2174 26.0229 17.1761 26.0144 17.1377 25.998C17.0994 25.9815 17.0647 25.9575 17.0359 25.9272C17.0359 25.4462 16.9439 24.9491 17.2247 24.5049C17.296 24.735 17.2016 25.0434 17.4548 25.223C17.5285 25.2713 17.5561 25.3219 17.5354 25.3749C17.5146 25.4278 17.5031 25.4508 17.4824 25.4508Z" fill="#D4E6ED"/>
<path d="M56.3199 27.29C56.3674 27.7613 56.2929 28.2368 56.1035 28.671C55.878 28.1577 55.5765 27.6422 56.3199 27.29Z" fill="#00A3C0"/>
<path d="M33.8009 39.4305C33.7288 39.8724 33.6582 40.3159 33.5891 40.7608C33.5027 40.7832 33.4117 40.7815 33.3261 40.756C33.2406 40.7304 33.1636 40.6819 33.1035 40.6158C33.5638 40.3396 33.1495 39.7274 33.5638 39.4374C33.6421 39.3316 33.7203 39.3247 33.8009 39.4305Z" fill="#D4D6DC"/>
<path d="M20.015 18.3363C19.7342 17.7909 19.8055 17.3812 20.4592 17.1855C20.5331 17.3989 20.5291 17.6316 20.4478 17.8423C20.3665 18.0529 20.2131 18.228 20.015 18.3363Z" fill="#CAE1EA"/>
<path d="M34.6915 39.8865C34.6477 40.2571 34.604 40.6276 34.558 40.9959L34.2266 40.9499C34.3347 40.508 34.1966 40.0292 34.4567 39.6104C34.6109 39.6449 34.627 39.7853 34.6915 39.8865Z" fill="#556A82"/>
<path d="M17.9238 28.4568L18.3841 27.5361C18.3841 27.9205 18.3841 28.3049 18.3956 28.6869C18.4647 28.9171 18.3795 28.9677 18.1655 28.8964C17.9514 28.825 17.9445 28.6363 17.9238 28.4568Z" fill="#7ABDD1"/>
<path d="M21.2068 16.0715C21.1147 15.7147 21.2827 15.503 21.5957 15.3695C21.743 15.381 22.0975 15.0818 21.9594 15.5352C21.9107 15.6951 21.8105 15.8344 21.6744 15.9314C21.5382 16.0284 21.3738 16.0777 21.2068 16.0715Z" fill="#48AFC7"/>
<path d="M18.2238 18.8037H18.6151C18.5979 19.1515 18.4576 19.4819 18.2192 19.7358C17.9753 19.8026 17.8671 19.7243 17.9223 19.4643C17.9208 19.3387 17.947 19.2144 17.9992 19.1002C18.0513 18.986 18.128 18.8848 18.2238 18.8037Z" fill="#AAD1E0"/>
<path d="M30.502 39.6329L30.8748 38.3302C31.075 38.2773 31.1832 38.3164 31.0889 38.5604C31.0956 38.959 31.0072 39.3535 30.8311 39.7112L30.502 39.6329Z" fill="#4B637B"/>
<path d="M19.7852 13.3169C19.8565 12.7392 20.1189 12.3135 20.7058 12.1523C20.6528 12.7415 20.2892 13.0845 19.7852 13.3169Z" fill="#E2EEF2"/>
<path d="M15.5858 20.7556L16.1014 20.6221L15.8459 21.7729C15.4178 21.9294 15.6158 21.4552 15.4316 21.3655L15.5858 20.7556Z" fill="#D3E5ED"/>
<path d="M34.025 44.7354C34.3127 44.7354 34.6304 44.6594 34.7892 45.053C34.5949 45.1597 34.3746 45.2098 34.1533 45.1976C33.9319 45.1854 33.7185 45.1114 33.5371 44.984C33.6246 44.7538 33.8962 44.8781 34.025 44.7354Z" fill="#98CADA"/>
<path d="M18.1719 28.894L18.402 28.6846C18.8301 29.0551 18.5839 29.6282 18.8186 30.0655C18.7588 30.1599 18.7473 30.2957 18.6069 30.3187L18.1719 28.894Z" fill="#A6CFDE"/>
<path d="M24.1589 10.0947L24.4397 10.1177C24.083 10.4814 23.7907 10.9256 23.2383 11.0384C23.4466 10.6408 23.7666 10.3128 24.1589 10.0947Z" fill="#00A5C1"/>
<path d="M53.1876 31.9041C53.16 32.0468 53.1324 32.1918 53.1025 32.3368H52.4902L52.8861 31.4161C53.3855 31.3379 53.0771 31.7453 53.1876 31.9041Z" fill="#00AAC7"/>
<path d="M15.4346 21.3613L15.8489 21.7687C15.8694 21.915 15.8468 22.0642 15.7839 22.1979C15.7209 22.3315 15.6203 22.4439 15.4945 22.5213C15.2965 22.1991 15.4369 21.8631 15.4116 21.5478C15.4044 21.4847 15.4123 21.4208 15.4346 21.3613Z" fill="#8EC5D7"/>
<path d="M34.0235 44.7361L33.5355 44.9824C33.142 44.9478 32.7277 45.0054 32.3848 44.7361C32.4929 44.5382 32.73 44.644 32.875 44.5312L34.0235 44.7361Z" fill="#CDE3EB"/>
<path d="M17.0351 25.918H17.4816C17.4816 26.1481 17.4816 26.3783 17.4816 26.5946C17.3504 26.7166 17.4356 26.9491 17.2514 27.0549C16.9085 26.8064 17.0903 26.4197 16.9983 26.1044C16.9908 26.0725 16.9902 26.0394 16.9966 26.0072C17.0029 25.9751 17.016 25.9446 17.0351 25.918Z" fill="#F8FBFC"/>
<path d="M31.6871 44.5147C31.5317 44.5212 31.377 44.4904 31.236 44.4247C31.0951 44.359 30.9719 44.2604 30.877 44.1372C31.3119 43.8795 31.6042 44.2638 31.9541 44.3006C31.9817 44.5124 31.9196 44.6183 31.6871 44.5147Z" fill="#F0F5F7"/>
<path d="M30.5276 43.9301C29.9959 43.9807 29.7818 43.8702 29.5586 43.6263C29.9614 43.3247 30.1524 43.5779 30.5276 43.9301Z" fill="#A2CFDF"/>
<path d="M28.886 43.09C28.886 43.2373 28.7732 43.3064 28.6558 43.2603C28.4977 43.1776 28.3475 43.0805 28.207 42.9703C28.2876 42.9036 28.3773 42.7724 28.4372 42.7839C28.5348 42.7807 28.6309 42.8087 28.7116 42.8637C28.7922 42.9187 28.8533 42.998 28.886 43.09Z" fill="#8DC7D9"/>
<path d="M26.4883 41.8426C26.9486 41.7943 27.1189 41.9715 27.3744 42.4526C26.9348 42.3122 26.6885 42.2684 26.4883 41.8426Z" fill="#A4D0DF"/>
<path d="M16.1472 19.5176H16.5454C16.3567 19.8145 16.4142 20.2242 16.0989 20.4612C15.7444 20.1344 16.138 19.8352 16.1472 19.5176Z" fill="#B7D8E3"/>
<path d="M21.7483 37.2324C21.1936 36.8228 21.0002 36.565 21.1199 35.8906L21.7483 37.2324Z" fill="#BFDBE6"/>
<path d="M17.9227 19.4717L18.2196 19.7433C18.1482 19.9734 18.2196 20.2565 17.9894 20.4337C17.7593 20.5051 17.6511 20.4337 17.7017 20.1783C17.6801 20.0514 17.6889 19.9212 17.7273 19.7984C17.7657 19.6756 17.8327 19.5636 17.9227 19.4717Z" fill="#93C7D8"/>
<path d="M17.6925 20.1689L17.9802 20.4244C17.925 20.6546 18.0078 20.9423 17.75 21.1149C17.3242 20.8111 17.4301 20.4935 17.6925 20.1689Z" fill="#6EB9CF"/>
<path d="M55.4034 31.5938L55.6496 31.8676C55.5484 32.1323 55.5138 32.443 55.088 32.5581C55.0653 32.384 55.0818 32.2071 55.1364 32.0402C55.1909 31.8733 55.2822 31.7208 55.4034 31.5938Z" fill="#E1EDF1"/>
<path d="M18.6016 30.3118L18.8133 30.0586C18.7627 30.4591 19.2736 30.8365 18.8639 31.2531C18.5486 31.0022 18.6338 30.6409 18.6016 30.3118Z" fill="#B9D9E5"/>
<path d="M31.6875 44.5148L31.9545 44.3008L32.8751 44.5309L32.3849 44.7358C32.2595 44.7532 32.1318 44.7425 32.0112 44.7042C31.8905 44.666 31.7799 44.6013 31.6875 44.5148Z" fill="#DAEAF0"/>
<path d="M17.728 31.6422C17.9835 31.8148 17.9374 32.0818 17.9466 32.3327C18.0318 32.5628 17.9213 32.6135 17.7165 32.5628L17.4863 31.6422C17.5646 31.5294 17.6451 31.5294 17.728 31.6422Z" fill="#45AEC6"/>
<path d="M22.4824 10.7598C22.7264 10.4192 22.9957 10.1108 23.4537 10.0693C23.265 10.4859 23.0072 10.7943 22.4824 10.7598Z" fill="#00A5C1"/>
<path d="M16.793 18.3532C16.9472 18.0471 17.1014 17.741 17.2533 17.4326C17.2119 17.7963 17.4075 18.275 16.793 18.3532Z" fill="#00A5C0"/>
<path d="M17.7148 32.5554L17.945 32.3252C18.046 32.3998 18.1194 32.5058 18.1535 32.6266C18.1877 32.7475 18.1807 32.8762 18.1337 32.9926C17.8161 33.0203 17.8299 32.728 17.7148 32.5554Z" fill="#00A5C0"/>
<path d="M17.7301 31.6423H17.4838C17.417 31.4121 17.348 31.182 17.2812 30.9311L17.4884 30.7217L17.6978 30.7516C17.7139 31.0485 17.7139 31.3454 17.7301 31.6423Z" fill="#68B7CD"/>
<path d="M56.5953 31.1955C56.5797 31.0838 56.5977 30.9699 56.6468 30.8683C56.696 30.7667 56.7742 30.6819 56.8715 30.6248C56.8945 30.6086 57.0073 30.6685 57.0188 30.7099C57.0407 30.8013 57.032 30.8973 56.9942 30.9834C56.9564 31.0694 56.8915 31.1407 56.8093 31.1863H56.7012L56.5953 31.1955Z" fill="#82C1D4"/>
<path d="M20.4747 14.6953L20.2699 14.9071C20.2446 14.7413 20.3343 14.6976 20.4747 14.6953Z" fill="white"/>
<path d="M16.3317 17.2041C16.6056 17.7381 16.4376 18.1109 15.9082 18.3549C15.9317 17.9377 16.0791 17.537 16.3317 17.2041Z" fill="#00A5C1"/>
<path d="M27.1494 6.88627C26.9998 7.29365 26.5809 7.3627 26.2771 7.57674C26.1229 7.59976 26.0815 7.46857 26.0078 7.38111C26.2679 6.95532 26.5326 6.52493 27.1494 6.88627Z" fill="#00A2BE"/>
<path d="M24.8346 8.69136L24.5469 8.4612C24.8003 8.15824 25.1508 7.95246 25.5388 7.87891C25.6125 7.91113 25.6378 7.94795 25.6171 7.98708C25.5964 8.02621 25.5688 8.05383 25.5388 8.05383C25.4766 8.20596 25.3809 8.3422 25.2591 8.45253C25.1372 8.56285 24.9921 8.64446 24.8346 8.69136Z" fill="#DCEAF0"/>
<path d="M30.3725 5.98211C30.0433 6.27211 29.6198 6.33425 29.2217 6.44242C28.9915 6.52298 28.9386 6.41711 28.9915 6.21227L30.1423 5.75195C30.2229 5.83711 30.3725 5.85322 30.3725 5.98211Z" fill="#45B1C9"/>
<path d="M28.9906 6.21191C29.0643 6.28787 29.1402 6.36382 29.2208 6.44207C28.8241 6.74281 28.3375 6.90094 27.8398 6.89088C28.1367 6.52263 28.5994 6.42366 28.9906 6.21191Z" fill="#00A5C1"/>
<path d="M31.9939 5.53973C31.7362 5.83203 31.384 5.72845 31.0733 5.75838C30.8431 5.85274 30.7948 5.74457 30.8431 5.53973L31.7638 5.30957L31.9939 5.53973Z" fill="#92C8D9"/>
<path d="M25.5395 8.05354C25.5147 7.99949 25.509 7.93863 25.5234 7.88093L25.9837 7.38379L26.253 7.57942C26.1333 7.89474 25.8525 7.9914 25.5395 8.05354Z" fill="#A2CFDE"/>
<path d="M30.8449 5.54004L31.0613 5.75178C30.884 5.98194 30.624 5.98194 30.3708 5.98194L30.1406 5.75178L30.8449 5.54004Z" fill="#6BB9CF"/>
<path d="M44.5313 67.457C41.7461 66.1072 39.3058 64.1392 37.3965 61.7031C39.9098 63.4937 42.163 65.6411 44.8651 67.167C44.872 67.4087 44.8121 67.556 44.5313 67.457Z" fill="#F3F3F5"/>
<path d="M55.7313 70.8059L57.0316 70.8772C57.1053 71.089 56.9833 71.1902 56.8015 71.2616C56.3228 71.3237 55.8371 71.4227 55.4367 71.0314C55.4252 70.8059 55.5011 70.7092 55.7313 70.8059Z" fill="#FCFCFD"/>
<path d="M44.5293 67.4566L44.8561 67.1689C45.2267 67.3001 45.6363 67.3784 45.7767 67.8226C45.901 67.9123 45.8987 67.9975 45.7767 68.0781C45.2244 68.1402 44.9298 67.6914 44.5293 67.4566Z" fill="#DBDCE1"/>
<path d="M45.7773 68.0779V67.8224C46.2377 67.7971 46.599 67.9974 47.0593 68.407C46.4448 68.5267 46.1203 68.2712 45.7773 68.0779Z" fill="white"/>
<path d="M56.8125 71.2613L57.0427 70.877H57.9633L57.5306 71.2659L56.8125 71.2613Z" fill="#D7D9DF"/>
<path d="M55.731 70.8051L55.4456 71.0353L54.525 70.8305C54.4651 70.7821 54.4398 70.7315 54.4559 70.6786C54.472 70.6256 54.4881 70.5957 54.5089 70.5957C54.9231 70.6302 55.3581 70.5405 55.731 70.8051Z" fill="#E5E5E9"/>
<path d="M53.5922 70.1566C53.5922 70.2257 53.5922 70.297 53.5922 70.3661C53.6705 70.4167 53.6981 70.4696 53.6751 70.5226C53.652 70.5755 53.6267 70.6054 53.6014 70.6054L52.5703 70.3131C52.9547 70.0462 53.2861 70.1958 53.5922 70.1566Z" fill="#62738A"/>
<path d="M48.9824 69.1481C48.43 69.3415 48.1009 68.9847 47.5117 68.9479C48.1516 68.6395 48.5175 68.8443 48.9824 69.1481Z" fill="white"/>
<path d="M53.6035 70.6052V70.375C53.9165 70.421 54.2756 70.2691 54.5241 70.6052L54.5403 70.8353L53.6035 70.6052Z" fill="#939CAD"/>
<path d="M50.1875 69.5652C50.6317 69.4732 50.8596 69.6711 51.3866 69.8668C50.7905 69.9657 50.4913 69.9795 50.1875 69.5652Z" fill="#929BAC"/>
<path d="M34.0013 29.9507C35.5544 26.7208 37.9501 23.9696 40.9359 21.9873C38.5745 24.6433 36.1257 27.2326 34.2384 30.2614C33.999 30.2798 33.9116 30.1832 34.0013 29.9507Z" fill="#47637E"/>
<path d="M53.1902 31.9041C52.8841 31.8627 53.158 31.4714 52.8887 31.4093C53.1902 29.7821 53.9083 28.2561 54.0855 26.5967C54.1914 26.4425 54.2581 26.2192 54.5251 26.3665C54.5251 26.5967 54.509 26.8269 54.5021 27.057C54.288 27.4091 54.4399 27.7958 54.4054 28.1641C54.3709 29.3747 53.5976 30.4104 53.5883 31.6164L53.1902 31.9041Z" fill="#00A4C1"/>
<path d="M42.323 7.80469C43.7568 7.9658 44.8984 8.76904 46.0791 9.49173C44.7695 9.1511 43.6694 8.28341 42.3391 8.03024C42.2723 7.98191 42.247 7.93127 42.27 7.88064C42.293 7.83 42.3 7.80469 42.323 7.80469Z" fill="#CDE3EB"/>
<path d="M34.0024 29.9502L34.2325 30.2609C33.9932 31.0156 33.6138 31.7183 33.114 32.3323H32.9805C33.0219 31.414 33.549 30.6982 34.0024 29.9502Z" fill="#506A84"/>
<path d="M51.5226 60.299C51.4456 60.2997 51.3687 60.3051 51.2924 60.3151C50.3442 60.2599 49.6629 59.6246 48.832 59.307L48.9471 59.04L51.5226 60.299Z" fill="#E4E5E9"/>
<path d="M45.8125 57.2197C46.4546 57.3739 46.7331 57.733 47.0231 58.0759C46.4984 58.0506 45.9874 58.0138 45.8125 57.2197Z" fill="#597089"/>
<path d="M34.541 38.765C34.6147 38.2679 34.6561 37.7638 34.9369 37.3242C35.1371 37.437 35.0312 37.6718 35.1394 37.8214C34.9737 38.2817 35.0635 38.8202 34.7551 39.2483C34.5571 39.1425 34.6653 38.8939 34.541 38.765Z" fill="#61738A"/>
<path d="M36.9913 6.69109H36.3883C35.9809 6.7026 35.5045 7.05244 35.2168 6.46094H37.6979C37.6127 7.01101 37.2537 6.7026 36.9913 6.69109Z" fill="#60B5CC"/>
<path d="M33.0808 48.1989C32.7678 47.6764 32.869 47.1125 32.899 46.3047C33.1843 46.9767 33.3593 47.4209 33.3224 47.9342C33.2465 48.0263 33.2304 48.1736 33.0808 48.1989Z" fill="#717E93"/>
<path d="M51.9488 16.4902C52.2573 16.5731 52.6278 16.4051 52.881 16.7204H50.8556L50.8418 16.5547L51.9488 16.4902Z" fill="#A6ACBA"/>
<path d="M49.9145 67.6871L48.7637 67.1117V66.9092C49.2631 66.9459 49.7442 67.1134 50.1584 67.3948L49.9145 67.6871Z" fill="#6C7B91"/>
<path d="M58.1813 26.3666C57.9742 26.8868 58.1054 27.499 57.7394 27.9777C57.6681 28.0905 57.5967 28.0859 57.5254 27.9777C57.8844 27.499 57.5254 26.8269 57.9535 26.3666C58.0271 26.2631 58.1031 26.2608 58.1813 26.3666Z" fill="#C6DFE8"/>
<path d="M35.2175 6.46288C35.5535 6.81042 36.0069 6.57336 36.389 6.69304C35.9286 6.96002 35.4315 6.85875 34.9436 6.85415C34.8101 6.72296 34.5661 6.83343 34.4648 6.62399C34.5672 6.53702 34.6895 6.47678 34.8209 6.44866C34.9522 6.42055 35.0885 6.42543 35.2175 6.46288Z" fill="#87C3D6"/>
<path d="M17.2539 27.055C17.242 26.9641 17.2576 26.8717 17.2986 26.7897C17.3396 26.7077 17.4042 26.6398 17.484 26.5947C17.6495 26.8545 17.73 27.1594 17.7142 27.467C17.484 27.5545 17.484 27.7662 17.4426 27.955C17.1549 27.7087 17.2838 27.3658 17.2539 27.055Z" fill="#E1ECF1"/>
<path d="M61.8793 67.8757C61.4328 68.1634 60.984 68.2117 60.5352 67.8757L61.8839 67.6455C61.9598 67.6961 61.9828 67.7445 61.9575 67.7928C61.9322 67.8411 61.9046 67.8757 61.8793 67.8757Z" fill="#A0A7B6"/>
<path d="M57.9902 25.2489L58.2204 24.3145C58.3884 24.7932 58.5794 25.2604 58.1951 25.6954C58.0271 25.5941 58.1306 25.3594 57.9902 25.2489Z" fill="#D6E7EE"/>
<path d="M33.0801 48.1992L33.3102 47.9346C33.2665 48.3442 33.6716 48.7332 33.3793 49.235C33.0202 48.9196 33.1445 48.5284 33.0801 48.1992Z" fill="#4A627A"/>
<path d="M32.9862 32.3375C33.0067 32.3262 33.0296 32.3203 33.053 32.3203C33.0763 32.3203 33.0993 32.3262 33.1197 32.3375C33.1381 32.7978 32.9425 33.1569 32.5259 33.6333C32.4914 32.982 32.5489 32.5884 32.9862 32.3375Z" fill="#6A7990"/>
<path d="M33.9334 37.9856C33.717 37.4585 34.1244 37.1731 34.2441 36.8164C34.2303 37.2008 34.3822 37.6266 33.9334 37.9856Z" fill="#C4C7D0"/>
<path d="M35.8651 35.5387C35.7339 35.8356 35.7523 36.1993 35.2483 36.6205C35.2269 36.1422 35.3627 35.6701 35.6349 35.2764C35.7799 35.304 35.8007 35.4421 35.8651 35.5387Z" fill="#6D7B91"/>
<path d="M35.551 33.4277C35.6684 34.1182 35.4382 34.4036 35.0078 34.6245L35.551 33.4277Z" fill="#DCDDE2"/>
<path d="M40.9714 8.46331L39.8068 8.25848C39.7424 8.05133 39.793 7.94776 40.037 8.02832C40.4282 8.08125 40.8632 7.90403 41.1877 8.25848C41.1414 8.34962 41.0649 8.42198 40.9714 8.46331Z" fill="#B7D8E4"/>
<path d="M54.5236 26.3712L54.084 26.6014C54.1576 26.2078 54.2313 25.8165 54.3141 25.3447C54.7123 25.7038 54.5374 26.049 54.5236 26.3712Z" fill="#00B0CD"/>
<path d="M57.6719 23.7872C57.4809 23.3407 57.2116 23.0599 57.3911 22.5996C57.8491 22.9011 57.7409 23.2763 57.6719 23.7872Z" fill="#E9F2F4"/>
<path d="M31.3203 36.9197L31.631 35.8633C31.7806 36.2522 31.8267 36.6159 31.5044 36.9151C31.4469 37.0233 31.3848 37.0302 31.3203 36.9197Z" fill="#BBBEC9"/>
<path d="M54.9547 68.571H53.5898V68.3086L55.1825 68.3638L54.9547 68.571Z" fill="#6E7C91"/>
<path d="M47.7814 10.6883C47.2958 10.7182 47.1554 10.4029 46.9115 10.2786C46.9115 10.2372 46.8953 10.1843 46.9115 10.182C47.3349 10.0025 47.4915 10.3362 47.7814 10.6883Z" fill="#E8F1F4"/>
<path d="M32.8384 12.1436C33.0087 12.2126 33.2457 12.1436 33.1468 12.3737C33.1058 12.4295 33.0539 12.4763 32.9941 12.5112C32.9343 12.546 32.868 12.5682 32.7992 12.5762C32.6657 12.597 32.4632 12.5509 32.5438 12.3461C32.5829 12.254 32.7509 12.1965 32.8384 12.1436Z" fill="#CDE2EB"/>
<path d="M35.142 37.8221L34.9395 37.325C34.9832 37.0948 34.8727 36.7059 35.241 36.7588C35.5241 36.7979 35.3422 37.1017 35.287 37.2974C35.2318 37.493 35.1903 37.6472 35.142 37.8221Z" fill="#5A6E86"/>
<path d="M52.2086 60.7595C52.2086 60.6789 52.1925 60.6006 52.1855 60.5293C52.6274 60.5822 53.1177 60.5293 53.3663 61.0333L52.2086 60.7595Z" fill="#C6C9D2"/>
<path d="M17.4826 25.4508L17.4688 25.2206V24.1182C17.6345 24.5693 17.9107 25.0296 17.4826 25.4508Z" fill="#B4D6E2"/>
<path d="M33.8233 6.90203C33.4919 7.24496 33.0661 7.09306 32.6725 7.12068C32.6173 7.07465 32.5989 7.02862 32.6196 6.98489C32.6403 6.94116 32.6518 6.90203 32.6725 6.90203L33.8233 6.67188C33.8947 6.72251 33.9177 6.76854 33.8924 6.81227C33.867 6.856 33.8394 6.90203 33.8233 6.90203Z" fill="#94C9DA"/>
<path d="M57.5303 27.9805H57.7444C57.7214 28.3119 57.8134 28.6709 57.3945 29.1036C57.4475 28.6157 57.4866 28.3073 57.5303 27.9805Z" fill="#BFDCE6"/>
<path d="M63.2436 67.3483L63.7523 67.2471C63.8536 67.2714 63.9451 67.326 64.0146 67.4036C64.0446 67.5187 64.0146 67.59 63.8811 67.6061L63.0549 67.6637C62.8247 67.7718 62.7833 67.6521 62.8247 67.4542L63.2436 67.3483Z" fill="#6F7D93"/>
<path d="M35.3828 5.72863L35.8938 5.52148L36.796 5.56752C36.3541 5.90124 35.8523 5.6849 35.3828 5.72863Z" fill="white"/>
<path d="M36.9922 6.69109C37.2223 6.62665 37.5169 6.71181 37.6988 6.46094C37.876 6.48395 38.258 6.43102 37.8944 6.74403C37.6389 6.96958 37.2776 6.90284 36.9922 6.69109Z" fill="#89C2D5"/>
<path d="M45.4408 10.0029C45.1163 10.0835 44.7688 9.94309 44.7987 9.73365C44.847 9.39302 45.137 9.57715 45.3073 9.71754C45.3764 9.77508 45.3948 9.89476 45.4408 10.0029Z" fill="#6EBCD3"/>
<path d="M32.6713 6.90234C32.6678 6.96904 32.6678 7.03588 32.6713 7.10258C32.4273 7.4317 32.0683 7.30972 31.7507 7.33274C31.6954 7.2798 31.677 7.22917 31.6977 7.18083C31.7184 7.1325 31.7276 7.1325 31.7507 7.1325L32.6713 6.90234Z" fill="#B3D6E2"/>
<path d="M31.7523 7.13281C31.7523 7.20646 31.7523 7.28241 31.7523 7.36297C31.6732 7.4754 31.5541 7.55344 31.4194 7.58123C31.2848 7.60902 31.1446 7.58447 31.0273 7.51257C31.17 7.18115 31.46 7.15583 31.7523 7.13281Z" fill="#D5E6ED"/>
<path d="M33.8005 39.4303H33.5703C33.6209 39.1035 33.4829 38.7398 33.9155 38.3555L33.8005 39.4303Z" fill="#BBBEC9"/>
<path d="M53.6174 68.3218C53.2354 68.1814 52.6002 68.69 52.4805 67.8799C52.8096 68.1238 53.3367 67.8937 53.6174 68.3218Z" fill="#788599"/>
<path d="M51.9707 66.4854L53.1215 66.7385C53.1376 66.8071 53.1446 66.8775 53.1422 66.948C52.698 66.9411 52.1986 67.04 51.9707 66.4854Z" fill="#9EA5B4"/>
<path d="M34.3109 51.751C34.5566 52.0739 34.6848 52.4708 34.6745 52.8764C34.5328 52.8191 34.4141 52.7164 34.337 52.5844C34.26 52.4523 34.2289 52.2984 34.2487 52.1468C34.2265 52.1169 34.2104 52.0828 34.2015 52.0466C34.1926 52.0104 34.191 51.9727 34.1968 51.9359C34.2025 51.899 34.2156 51.8637 34.2352 51.8319C34.2548 51.8002 34.2805 51.7727 34.3109 51.751Z" fill="#848EA1"/>
<path d="M40.9727 8.46244L41.1867 8.24609C41.5112 8.27141 41.8565 8.21847 42.1234 8.47625C42.0699 8.57286 41.9807 8.64472 41.8749 8.67649L40.9727 8.46244Z" fill="#7BC0D4"/>
<path d="M37.1661 12.0053C37.0971 12.0375 37.005 12.1158 36.9129 12.1158C36.7426 12.1158 36.6206 12.0122 36.7012 11.8396C36.7334 11.7729 36.8945 11.7429 36.9958 11.7452C37.0971 11.7475 37.2121 11.8143 37.1661 12.0053Z" fill="#BBDAE5"/>
<path d="M62.8232 67.4541L63.0533 67.6635C62.7012 67.9627 62.2708 67.8316 61.8726 67.8753C61.868 67.8025 61.868 67.7294 61.8726 67.6566L62.8232 67.4541Z" fill="#8892A4"/>
<path d="M49.5607 17.6949C49.3144 18.0148 49.0843 18.1345 48.7598 18.0678C48.8933 17.6811 49.1763 17.6857 49.5607 17.6949Z" fill="#D2D4DB"/>
<path d="M42.8316 8.69043C43.0617 8.73876 43.5335 8.69043 43.3816 9.02185C43.2297 9.35328 42.8661 8.90677 42.5807 8.89757C42.5485 8.68813 42.6037 8.58456 42.8316 8.69043Z" fill="#5EB7CF"/>
<path d="M40.038 8.02315L39.8079 8.25331C39.5777 8.23029 39.2049 8.17736 39.3061 7.96561C39.458 7.6503 39.7918 7.793 40.038 8.02315Z" fill="#E0ECF1"/>
<path d="M31.3217 36.9199H31.5059C31.5243 37.2513 31.5841 37.5897 31.3102 37.859C31.1583 37.859 31.1652 37.7025 31.0801 37.6288L31.3217 36.9199Z" fill="#B6BAC5"/>
<path d="M36.2178 56.3243C36.1446 56.2066 36.0895 56.0786 36.0544 55.9445C36.0359 55.8041 36.1786 55.7788 36.2477 55.8617C36.3269 55.9803 36.3904 56.1087 36.4364 56.2437L36.2178 56.3243Z" fill="#E8E8EB"/>
<path d="M31.0795 37.6309L31.3096 37.861C31.2912 38.1119 31.3235 38.3766 31.091 38.5515L30.877 38.3213C30.9437 38.0958 31.0104 37.8633 31.0795 37.6309Z" fill="#8690A2"/>
<path d="M42.8301 8.6905L42.5793 8.89764L41.875 8.66748L42.1236 8.46725C42.2506 8.44831 42.3802 8.45857 42.5026 8.49726C42.6251 8.53594 42.7371 8.60203 42.8301 8.6905Z" fill="#75BFD4"/>
<path d="M42.3238 7.80474C42.3238 7.88069 42.3238 7.95434 42.3238 8.0349L41.5137 7.68736C41.8796 7.54236 42.1213 7.53546 42.3238 7.80474Z" fill="#E4EFF2"/>
<path d="M34.3098 51.7512L34.2476 52.1471L33.8633 51.3415C33.9208 51.2403 33.9346 51.1114 34.0934 51.0723C34.176 51.1633 34.2381 51.2711 34.2754 51.3882C34.3127 51.5054 34.3244 51.6292 34.3098 51.7512Z" fill="#7B869A"/>
<path d="M35.8649 35.5389L35.6348 35.2765C35.6578 35.0878 35.7291 34.8001 35.9248 34.8991C36.2976 35.0878 35.8557 35.3157 35.8649 35.5389Z" fill="#6A798F"/>
<path d="M34.0829 51.0718L33.8527 51.341L33.6387 50.6506C33.6508 50.5975 33.6746 50.5478 33.7085 50.5052C33.7423 50.4626 33.7853 50.4281 33.8343 50.4043C34.0714 50.5723 34.0553 50.8255 34.0829 51.0718Z" fill="#6C7A8F"/>
<path d="M57.9912 25.248C58.173 25.3424 58.1914 25.5173 58.2099 25.6922L58.1891 26.3666C58.1132 26.3666 58.0372 26.3666 57.959 26.3666C57.9636 26.0053 57.9728 25.6232 57.9912 25.248Z" fill="#AFD3E1"/>
<path d="M33.8443 50.4025L33.6487 50.6487C33.6256 50.5797 33.5704 50.5014 33.5842 50.4416C33.6395 50.2114 33.1883 49.9007 33.5842 49.8202C33.9364 49.7442 33.766 50.1884 33.8443 50.4025Z" fill="#49627A"/>
<path d="M34.5434 38.7656L34.7575 39.249C34.7368 39.4607 34.7138 39.6747 34.693 39.8865L34.4629 39.6103C34.4928 39.3295 34.5158 39.0464 34.5434 38.7656Z" fill="#425F7A"/>
<path d="M33.8242 6.90265C33.8242 6.83361 33.8242 6.76456 33.8242 6.69551L34.4641 6.64258L34.9428 6.87273L33.8242 6.90265Z" fill="#6CBAD0"/>
<path d="M54.4052 28.1715C54.2418 27.7848 54.1751 27.4074 54.5019 27.0645L54.4052 28.1715Z" fill="#00A2BF"/>
<path d="M63.8789 67.6057C63.9176 67.5524 63.9493 67.4944 63.9733 67.4331C64.056 67.3407 64.162 67.2723 64.2803 67.235C64.3985 67.1978 64.5246 67.193 64.6453 67.2213C64.8225 67.2213 65.0021 67.2213 65.1056 67.3986C64.9698 67.6863 64.696 67.6287 64.4543 67.6656L64.1735 67.6379L63.8789 67.6057Z" fill="#E0E0E5"/>
<path d="M64.6464 67.2175C64.4783 67.4615 64.2068 67.3832 63.9743 67.4292L63.7441 67.2474C64.0572 67.2359 64.2735 66.8653 64.6302 67.0034C64.6371 67.0748 64.6418 67.1461 64.6464 67.2175Z" fill="#48627B"/>
<path d="M66.459 67.1204L66.0332 67.1504C66.0953 66.9202 66.2634 66.9455 66.4452 66.9777C66.4474 67.0255 66.452 67.0731 66.459 67.1204Z" fill="#CFD2D9"/>
</g>
<defs>
<clipPath id="clip0_1444_4755">
<rect width="69.0055" height="68.3104" fill="white" transform="translate(14.9512 3.4502)"/>
</clipPath>
</defs>
</svg>
