<svg width="216" height="142" viewBox="0 0 216 142" fill="none" xmlns="http://www.w3.org/2000/svg">
<g clip-path="url(#clip0_372_20246)">
<rect x="0.205688" y="0.398438" width="215.264" height="141.399" rx="5.62781" fill="#F3F4F6"/>
<rect x="32.5658" y="27.6465" width="150.544" height="121.898" rx="4.87592" fill="#F9FAFB"/>
<path d="M152.132 55.4174C152.258 55.4174 152.363 55.3784 152.446 55.3003C152.529 55.2223 152.571 55.1224 152.571 55.0005C152.571 54.9176 152.546 54.8444 152.497 54.7811C152.454 54.7128 152.376 54.6421 152.263 54.569L150.786 53.5523L151.298 52.8136L152.922 53.9326C153.097 54.0692 153.231 54.2203 153.324 54.3861C153.421 54.547 153.47 54.742 153.47 54.9712C153.47 55.2296 153.407 55.4661 153.28 55.6807C153.153 55.8952 152.98 56.0634 152.761 56.1853C152.541 56.3072 152.305 56.3682 152.051 56.3682H150.354V55.4174H152.132ZM153.003 57.6335C153.354 57.4336 153.603 57.2751 153.749 57.1581C153.9 57.041 154.005 56.907 154.063 56.7558C154.127 56.6046 154.159 56.3925 154.159 56.1195V53.7571H155.058V56.1195C155.058 56.5144 155.005 56.8387 154.897 57.0922C154.795 57.3458 154.622 57.5701 154.378 57.7651C154.139 57.9602 153.793 58.1674 153.339 58.3868L153.003 57.6335ZM159.083 55.4174C159.131 55.4174 159.156 55.4417 159.156 55.4905V56.295C159.156 56.3438 159.131 56.3682 159.083 56.3682H158.724C158.685 56.6997 158.588 56.9752 158.432 57.1946C158.276 57.4189 158.054 57.6164 157.766 57.7871C157.478 57.9626 157.076 58.1625 156.559 58.3868L156.281 57.5969C156.725 57.4067 157.054 57.2507 157.269 57.1288C157.483 57.0118 157.632 56.8948 157.715 56.7777C157.803 56.6656 157.847 56.5291 157.847 56.3682H157.269C156.986 56.3682 156.725 56.3048 156.486 56.178C156.252 56.0464 156.067 55.8684 155.93 55.6441C155.794 55.4198 155.726 55.1687 155.726 54.8908C155.726 54.6128 155.794 54.3568 155.93 54.1228C156.072 53.8839 156.259 53.6962 156.494 53.5596C156.732 53.4182 156.991 53.3475 157.269 53.3475C157.542 53.3475 157.791 53.4182 158.015 53.5596C158.244 53.6962 158.422 53.8839 158.549 54.1228C158.68 54.3568 158.746 54.6128 158.746 54.8908V55.4174H159.083ZM157.847 54.8908C157.847 54.725 157.791 54.586 157.678 54.4739C157.566 54.3568 157.43 54.2983 157.269 54.2983C157.103 54.2983 156.962 54.3544 156.845 54.4666C156.732 54.5787 156.676 54.7201 156.676 54.8908C156.676 55.0565 156.732 55.1955 156.845 55.3077C156.962 55.4198 157.103 55.4759 157.269 55.4759H157.847V54.8908ZM159.081 56.3682C159.032 56.3682 159.008 56.3438 159.008 56.295V55.4905C159.008 55.4417 159.032 55.4174 159.081 55.4174H159.403C159.525 55.4174 159.627 55.3759 159.71 55.293C159.793 55.2101 159.834 55.1077 159.834 54.9858V53.7571H160.734V54.9858C160.734 55.1077 160.773 55.2101 160.851 55.293C160.934 55.3759 161.036 55.4174 161.158 55.4174H161.48C161.529 55.4174 161.553 55.4417 161.553 55.4905V56.295C161.553 56.3438 161.529 56.3682 161.48 56.3682H161.158C160.783 56.3682 160.49 56.2316 160.28 55.9586C160.071 56.2316 159.778 56.3682 159.403 56.3682H159.081ZM159.871 57.0045H160.712V57.8456H159.871V57.0045ZM164.86 51.0949V51.936H164.019V51.0949H164.86ZM164.245 52.309V53.1501H163.404V52.309H164.245ZM164.626 53.1501V52.309H165.467V53.1501H164.626ZM166.549 53.5377V56.3682H165.313C164.948 56.3682 164.657 56.2292 164.443 55.9513C164.228 56.239 163.933 56.3828 163.558 56.3828C163.368 56.3828 163.197 56.3462 163.046 56.2731C162.9 56.1951 162.775 56.0878 162.673 55.9513C162.458 56.2292 162.168 56.3682 161.803 56.3682H161.481C161.432 56.3682 161.408 56.3438 161.408 56.295V55.4905C161.408 55.4417 161.432 55.4174 161.481 55.4174H161.803C161.924 55.4174 162.027 55.3759 162.11 55.293C162.193 55.2101 162.234 55.1077 162.234 54.9858V53.7571H163.134V55.0005C163.134 55.1224 163.173 55.2248 163.251 55.3077C163.334 55.3905 163.436 55.432 163.558 55.432C163.68 55.432 163.782 55.3905 163.865 55.3077C163.948 55.2248 163.989 55.1224 163.989 55.0005V53.7571H164.889V54.9858C164.889 55.1077 164.93 55.2101 165.013 55.293C165.096 55.3759 165.196 55.4174 165.313 55.4174H165.65V53.5377H166.549ZM167.204 51.4752H168.104V56.3682H167.204V51.4752ZM170.588 55.4174C170.715 55.4174 170.819 55.3784 170.902 55.3003C170.985 55.2223 171.027 55.1224 171.027 55.0005C171.027 54.9176 171.002 54.8444 170.954 54.7811C170.91 54.7128 170.832 54.6421 170.719 54.569L169.242 53.5523L169.754 52.8136L171.378 53.9326C171.553 54.0692 171.687 54.2203 171.78 54.3861C171.878 54.547 171.926 54.742 171.926 54.9712C171.926 55.2296 171.863 55.4661 171.736 55.6807C171.609 55.8952 171.436 56.0634 171.217 56.1853C170.997 56.3072 170.761 56.3682 170.507 56.3682H168.811V55.4174H170.588Z" fill="black"/>
<rect x="42.0131" y="60.8633" width="129.821" height="83.5001" rx="4.57117" stroke="#C1C0C0" stroke-width="0.60949" stroke-dasharray="1.22 1.22"/>
<rect x="32.5657" y="26.4277" width="150.544" height="18.8942" rx="3.04745" fill="white"/>
<rect x="37.4418" y="31.9121" width="18.8942" height="7.92337" rx="1.82847" fill="#38BDF8"/>
<path d="M69.7447 35.5703H88.0294" stroke="#D9D9D9" stroke-width="1.82847" stroke-linecap="round"/>
<path d="M97.7814 35.5703H116.066" stroke="#D9D9D9" stroke-width="1.82847" stroke-linecap="round"/>
<path d="M125.818 35.5703H144.102" stroke="#D9D9D9" stroke-width="1.82847" stroke-linecap="round"/>
<path d="M153.854 35.5703H172.139" stroke="#D9D9D9" stroke-width="1.82847" stroke-linecap="round"/>
</g>
<rect x="0.557427" y="0.750176" width="214.56" height="140.695" rx="5.27607" stroke="#E1E1E1" stroke-width="0.703476"/>
<defs>
<clipPath id="clip0_372_20246">
<rect x="0.205688" y="0.398438" width="215.264" height="141.399" rx="5.62781" fill="white"/>
</clipPath>
</defs>
</svg>
