<svg width="76" height="46" viewBox="0 0 76 46" fill="none" xmlns="http://www.w3.org/2000/svg">
<path d="M62.5771 13.3535C59.7336 12.3741 57.2236 10.6132 55.3351 8.27266C53.2536 5.66487 50.6033 3.56772 47.5868 2.14162C44.5703 0.715525 41.2676 -0.00172453 37.9313 0.0447403C33.4434 -0.273094 29.0004 1.11113 25.4871 3.92175C21.9738 6.73237 19.6481 10.7632 18.973 15.2114C20.3026 12.9866 22.3038 11.241 24.6885 10.2258C27.0732 9.2106 29.7186 8.97812 32.2438 9.56182C35.0826 10.5697 37.5885 12.3409 39.4859 14.6806C41.5788 17.2675 44.2341 19.343 47.25 20.7491C50.2658 22.1552 53.5627 22.8548 56.8896 22.7947C61.3776 23.1126 65.8206 21.7284 69.3339 18.9177C72.8471 16.1071 75.1729 12.0763 75.848 7.62807C74.5425 9.87946 72.5477 11.6514 70.1581 12.6824C67.7685 13.7133 65.1107 13.9486 62.5771 13.3535ZM13.2855 32.236C16.129 33.2153 18.639 34.9763 20.5276 37.3168C22.609 39.9246 25.2593 42.0218 28.2758 43.4479C31.2923 44.874 34.595 45.5912 37.9313 45.5447C42.4193 45.8626 46.8623 44.4784 50.3755 41.6677C53.8888 38.8571 56.2146 34.8263 56.8896 30.3781C55.56 32.6029 53.5588 34.3485 51.1741 35.3637C48.7894 36.3789 46.1441 36.6114 43.6188 36.0277C40.78 35.0198 38.2741 33.2486 36.3767 30.9089C34.2783 28.3284 31.6218 26.2574 28.6073 24.852C25.5927 23.4465 22.2987 22.7431 18.973 22.7947C14.485 22.4769 10.042 23.8611 6.52875 26.6717C3.01548 29.4824 0.689725 33.5132 0.0146484 37.9614C1.32014 35.71 3.31494 33.9381 5.70455 32.9071C8.09416 31.8762 10.7519 31.6409 13.2855 32.236Z" fill="#BDBDBD"/>
</svg>
