<svg width="76" height="46" viewBox="0 0 76 46" fill="none" xmlns="http://www.w3.org/2000/svg">
<path d="M62.5625 13.3535C59.719 12.3741 57.209 10.6132 55.3204 8.27266C53.239 5.66487 50.5886 3.56772 47.5721 2.14162C44.5557 0.715525 41.2529 -0.00172453 37.9167 0.0447403C33.4287 -0.273094 28.9857 1.11113 25.4724 3.92175C21.9592 6.73237 19.6334 10.7632 18.9583 15.2114C20.288 12.9866 22.2891 11.241 24.6739 10.2258C27.0586 9.2106 29.7039 8.97812 32.2292 9.56182C35.068 10.5697 37.5738 12.3409 39.4712 14.6806C41.5641 17.2675 44.2195 19.343 47.2353 20.7491C50.2512 22.1552 53.548 22.8548 56.875 22.7947C61.3629 23.1126 65.8059 21.7284 69.3192 18.9177C72.8325 16.1071 75.1583 12.0763 75.8333 7.62807C74.5278 9.87946 72.533 11.6514 70.1434 12.6824C67.7538 13.7133 65.0961 13.9486 62.5625 13.3535ZM13.2708 32.236C16.1144 33.2153 18.6243 34.9763 20.5129 37.3168C22.5944 39.9246 25.2447 42.0218 28.2612 43.4479C31.2777 44.874 34.5804 45.5912 37.9167 45.5447C42.4046 45.8626 46.8476 44.4784 50.3609 41.6677C53.8742 38.8571 56.1999 34.8263 56.875 30.3781C55.5454 32.6029 53.5442 34.3485 51.1595 35.3637C48.7747 36.3789 46.1294 36.6114 43.6042 36.0277C40.7654 35.0198 38.2595 33.2486 36.3621 30.9089C34.2636 28.3284 31.6071 26.2574 28.5926 24.852C25.5781 23.4465 22.284 22.7431 18.9583 22.7947C14.4704 22.4769 10.0274 23.8611 6.5141 26.6717C3.00083 29.4824 0.675076 33.5132 0 37.9614C1.3055 35.71 3.3003 33.9381 5.6899 32.9071C8.07951 31.8762 10.7373 31.6409 13.2708 32.236Z" fill="#37BCF8"/>
</svg>
