<svg width="209" height="49" viewBox="0 0 209 49" fill="none" xmlns="http://www.w3.org/2000/svg">
<g clip-path="url(#clip0_434_4010)">
<path d="M208.431 29.9058C203.905 29.9549 199.375 30.0353 194.849 30.0531C188.234 30.0799 181.623 30.0174 175.008 30.0799C171.835 30.1112 168.759 29.9594 166.336 27.5893C161.908 30.8744 157.601 30.9324 153.115 27.5893C150.66 29.946 147.526 30.0933 144.277 30.0621C136.403 29.9951 128.525 30.0621 120.647 30.0621H118.089C117.942 31.8876 117.978 33.5213 117.643 35.0835C116.228 41.8591 110.801 46.8047 103.864 47.8045C103.447 47.9025 103.039 48.037 102.646 48.2063H99.9676C97.2627 47.0993 94.3257 46.3584 91.9109 44.8006C87.4385 41.9127 85.4299 37.4045 85.2379 32.1376C85.1442 29.5532 85.2379 26.9644 85.2379 24.2506H91.0762C91.0762 26.7635 91.0539 29.1961 91.0762 31.6288C91.1476 37.8777 96.0664 42.3724 102.44 42.0198C108.363 41.6895 112.541 36.5386 111.863 30.1379H105.105V24.2015H137.077V12.1723H143.103V24.1033C144.304 24.1033 145.25 24.1033 146.192 24.1033C148.821 24.0765 150.164 22.8445 150.245 20.1843C150.325 17.524 150.245 14.9843 150.245 12.2214H156.208C156.208 14.77 156.208 17.4124 156.208 20.0504C156.208 22.6035 157.453 24.0676 159.605 24.1077C161.868 24.1613 163.274 22.6794 163.318 20.0906C163.363 17.5017 163.318 14.9173 163.318 12.1991H169.17C169.17 14.8504 169.143 17.4348 169.17 20.0147C169.206 22.8178 170.509 24.1033 173.245 24.1167C176.512 24.1167 179.78 24.1167 183.306 24.1167V12.1991H189.171V23.9336H202.423V12.0518H208.431V29.9058Z" fill="black"/>
<path d="M0.430664 36.1543C1.61796 36.1141 2.80079 36.0427 4.00148 36.0427C21.9805 36.0427 39.9551 36.0427 57.9342 35.998C59.9026 35.998 60.7194 36.4221 60.5766 38.569C60.3847 41.515 60.5275 44.4787 60.5275 47.7594H0.430664V36.1543Z" fill="#FF5721"/>
<path d="M183.435 48.2058V42.1667H174.544V36.3105H189.238V48.2058H183.435Z" fill="black"/>
<path d="M208.431 5.80258H196.38V0H208.431V5.80258Z" fill="black"/>
<path d="M24.6865 23.5004V12.2568H60.3947V23.5004H24.6865Z" fill="#FF5721"/>
</g>
<defs>
<clipPath id="clip0_434_4010">
<rect width="208" height="48.206" fill="white" transform="translate(0.430664)"/>
</clipPath>
</defs>
</svg>
