<svg width="71" height="71" viewBox="0 0 71 71" fill="none" xmlns="http://www.w3.org/2000/svg">
<path d="M35.4307 68.8281C53.8847 68.8281 68.8447 53.8681 68.8447 35.4141C68.8447 16.96 53.8847 2 35.4307 2C16.9766 2 2.0166 16.96 2.0166 35.4141C2.0166 53.8681 16.9766 68.8281 35.4307 68.8281Z" stroke="#BDBDBD" stroke-width="3.67187"/>
<path d="M46.2627 66.2578L51.4033 63.5039L61.3174 34.8633C63.1533 30.2735 63.7041 26.6016 63.7041 23.4805C63.7041 17.6055 61.3174 12.4649 57.0947 11.9141C53.2393 11.5469 51.0361 15.4024 51.2197 17.6055C51.5869 22.9297 56.9111 25.8672 56.9111 33.211C56.9111 38.3516 53.6064 46.6133 51.2197 54.6914L39.8369 20.3594L43.5088 20.1758C45.3447 20.1758 45.1611 17.4219 43.3252 17.6055C37.6338 18.1563 32.3096 17.9727 26.4346 17.6055C24.5986 17.4219 24.5986 20.1758 26.251 20.1758L29.5557 20.3594L34.5127 33.9454L27.5361 54.875L15.9697 20.3594L19.6416 20.1758C21.2939 20.1758 21.1104 17.4219 19.458 17.6055C14.1338 17.9727 8.99316 18.3399 7.70801 17.4219L6.23926 21.8282L21.6611 64.6055L26.251 67.1758L36.165 38.168" fill="#BDBDBD"/>
</svg>
