<svg width="71" height="71" viewBox="0 0 71 71" fill="none" xmlns="http://www.w3.org/2000/svg">
<path d="M35.4141 68.8281C53.8681 68.8281 68.8281 53.8681 68.8281 35.4141C68.8281 16.96 53.8681 2 35.4141 2C16.96 2 2 16.96 2 35.4141C2 53.8681 16.96 68.8281 35.4141 68.8281Z" stroke="#05A8DA" stroke-width="3.67187"/>
<path d="M46.2461 66.2578L51.3867 63.5039L61.3008 34.8633C63.1367 30.2735 63.6875 26.6016 63.6875 23.4805C63.6875 17.6055 61.3008 12.4649 57.0781 11.9141C53.2227 11.5469 51.0195 15.4024 51.2031 17.6055C51.5703 22.9297 56.8945 25.8672 56.8945 33.211C56.8945 38.3516 53.5898 46.6133 51.2031 54.6914L39.8203 20.3594L43.4922 20.1758C45.3281 20.1758 45.1445 17.4219 43.3086 17.6055C37.6172 18.1563 32.293 17.9727 26.418 17.6055C24.582 17.4219 24.582 20.1758 26.2344 20.1758L29.5391 20.3594L34.4961 33.9454L27.5195 54.875L15.9531 20.3594L19.625 20.1758C21.2773 20.1758 21.0938 17.4219 19.4414 17.6055C14.1172 17.9727 8.97656 18.3399 7.69141 17.4219L6.22266 21.8282L21.6445 64.6055L26.2344 67.1758L36.1484 38.168" fill="#05A8DA"/>
</svg>
